<?xml version="1.0" encoding="UTF-8" standalone="no"?>
<!-- Created with Inkscape (http://www.inkscape.org/) -->

<svg
   width="46.771564mm"
   height="42.882584mm"
   viewBox="0 0 46.771564 42.882584"
   version="1.1"
   id="svg5"
   xml:space="preserve"
   inkscape:version="1.2.2 (732a01da63, 2022-12-09)"
   sodipodi:docname="calavera y letras.svg"
   xmlns:inkscape="http://www.inkscape.org/namespaces/inkscape"
   xmlns:sodipodi="http://sodipodi.sourceforge.net/DTD/sodipodi-0.dtd"
   xmlns="http://www.w3.org/2000/svg"
   xmlns:svg="http://www.w3.org/2000/svg"><sodipodi:namedview
     id="namedview7"
     pagecolor="#505050"
     bordercolor="#ffffff"
     borderopacity="1"
     inkscape:showpageshadow="0"
     inkscape:pageopacity="0"
     inkscape:pagecheckerboard="1"
     inkscape:deskcolor="#505050"
     inkscape:document-units="mm"
     showgrid="false"
     inkscape:zoom="4.7572176"
     inkscape:cx="107.52083"
     inkscape:cy="46.771037"
     inkscape:window-width="1920"
     inkscape:window-height="1111"
     inkscape:window-x="-9"
     inkscape:window-y="-9"
     inkscape:window-maximized="1"
     inkscape:current-layer="layer1" /><defs
     id="defs2" /><g
     inkscape:label="Capa 1"
     inkscape:groupmode="layer"
     id="layer1"
     transform="translate(-34.798079,-80.56685)"><path
       style="fill:#000000;stroke-width:0.0652466"
       d="m 58.814574,123.29981 c -0.03865,-0.0849 -0.221939,-0.6494 -0.40729,-1.25455 -0.391112,-1.27697 -0.458092,-1.44878 -0.729903,-1.87237 -0.174328,-0.27166 -0.19152,-0.33604 -0.127342,-0.47691 0.04081,-0.0896 0.07512,-0.28623 0.07627,-0.43705 10e-4,-0.15084 0.04518,-0.33123 0.09788,-0.40088 0.112499,-0.14875 0.14075,-1.4719 0.03143,-1.4719 -0.03541,0 -0.106873,-0.10169 -0.158819,-0.22604 -0.118791,-0.28431 -0.371464,-0.36848 -0.569134,-0.18958 -0.183066,0.16567 -0.145141,0.73632 0.0637,0.95862 0.164579,0.17519 0.182849,0.34059 0.04352,0.39405 -0.133975,0.0513 -0.123006,0.21205 0.02153,0.31525 0.423499,0.30241 0.425606,0.70645 0.0072,1.39019 -0.450976,0.73703 -0.768402,1.39678 -0.852194,1.77118 -0.043,0.19214 -0.103782,0.34933 -0.135088,0.34933 -0.121593,0 -0.136097,-0.24527 -0.06307,-1.06644 0.06347,-0.71351 0.107774,-0.92095 0.271409,-1.27064 0.241632,-0.51636 0.244275,-0.65312 0.01615,-0.83516 -0.169276,-0.13507 -0.179427,-0.17317 -0.179427,-0.67342 0,-0.56217 -0.05737,-0.6748 -0.326233,-0.64042 -0.29557,0.0377 -0.470377,0.85747 -0.260985,1.22376 0.134431,0.23515 0.118783,0.47912 -0.04893,0.76291 -0.135004,0.22843 -0.148615,0.3439 -0.169292,1.4363 -0.03421,1.80774 -0.154982,1.76296 -0.817111,-0.30304 -0.200555,-0.62578 -0.357938,-1.14115 -0.349742,-1.14525 0.266047,-0.13325 0.373758,-0.25498 0.373758,-0.42234 0,-0.10471 -0.02936,-0.20854 -0.06524,-0.23072 -0.110919,-0.0686 -0.07892,-0.60571 0.04005,-0.67228 0.06918,-0.0387 0.09095,-0.10415 0.06348,-0.19072 -0.03449,-0.10864 -0.118943,-0.1394 -0.480467,-0.17505 -0.605053,-0.0596 -0.712165,-0.13932 -0.320005,-0.23808 0.49368,-0.12431 0.803545,-0.38946 0.922245,-0.78916 0.116041,-0.39073 0.134577,-1.30585 0.03039,-1.5005 -0.09581,-0.17904 -0.06215,-0.19436 0.229913,-0.10473 0.242505,0.0745 0.256393,0.0699 0.429207,-0.13701 0.266486,-0.3192 0.975075,-1.80162 1.020869,-2.13574 0.02196,-0.16023 0.06172,-0.30479 0.08836,-0.32125 0.07295,-0.0451 0.265779,0.78517 0.307236,1.32282 0.03066,0.39767 0.01771,0.49452 -0.08061,0.60316 -0.103071,0.11391 -0.112602,0.21528 -0.0794,0.8446 0.03517,0.66681 0.02923,0.71785 -0.0881,0.75508 -0.208523,0.0662 -0.141714,0.16162 0.11314,0.16162 0.131417,0 0.395308,0.0492 0.586428,0.10955 0.191116,0.0601 0.368035,0.089 0.393148,0.0639 0.02512,-0.0252 0.05799,-0.21617 0.07307,-0.42459 0.02134,-0.29507 -0.0029,-0.43854 -0.110111,-0.64848 -0.170664,-0.33452 -0.171713,-0.41934 -0.007,-0.56838 0.110706,-0.10014 0.130489,-0.20096 0.130489,-0.66461 0,-0.42563 0.02166,-0.55486 0.09787,-0.5841 0.153235,-0.0588 0.114802,-0.17662 -0.09692,-0.29708 -0.226531,-0.1289 -0.429397,-0.43508 -0.532117,-0.80308 -0.06255,-0.22407 -0.03901,-0.4364 0.166382,-1.50114 0.131575,-0.68205 0.256937,-1.45136 0.278582,-1.70954 0.03536,-0.42173 0.02155,-0.50584 -0.135844,-0.82755 -0.228161,-0.46634 -0.834276,-1.03359 -1.074413,-1.00553 -0.285383,0.0333 -0.3088,0.24228 -0.183465,1.63678 0.170983,1.90237 0.146926,2.15685 -0.222823,2.3569 -0.451393,0.24424 -0.776876,-0.0322 -0.776357,-0.6594 1.29e-4,-0.17224 0.08823,-0.77932 0.195739,-1.34907 0.220405,-1.16798 0.240726,-1.62628 0.09401,-2.1203 -0.230114,-0.77487 -0.734054,-0.7863 -0.876392,-0.0199 -0.04406,0.23719 -0.04136,0.55065 0.0086,0.98914 0.08982,0.78993 0.05857,0.93278 -0.234494,1.07184 -0.277175,0.13155 -0.513053,0.0834 -0.689332,-0.14072 -0.17242,-0.21919 -0.163231,-0.47187 0.04112,-1.13049 0.140642,-0.4533 0.171977,-0.68721 0.178527,-1.33275 0.01099,-1.08007 -0.04764,-1.17256 -1.282243,-2.02372 -0.895223,-0.61718 -1.048764,-0.91365 -1.221229,-2.35811 -0.04213,-0.3529 -0.108825,-0.70047 -0.148198,-0.77238 -0.03937,-0.0718 -0.149934,-0.42437 -0.245685,-0.78321 -0.09575,-0.35885 -0.250554,-0.938132 -0.344013,-1.28729 -0.263065,-0.982807 -0.319099,-1.58244 -0.207615,-2.221724 0.29304,-1.680426 1.027802,-3.32824 1.995116,-4.47436 1.344405,-1.592912 3.636134,-2.579056 5.998248,-2.581077 0.792587,-6.53e-4 0.936384,0.01766 1.435423,0.183148 1.201325,0.398358 2.740162,1.32763 3.563593,2.15199 1.169514,1.170825 1.833962,2.544369 2.108387,4.358443 0.227361,1.502971 0.179438,1.937894 -0.383391,3.47939 -0.215808,0.59105 -0.291502,0.93501 -0.428957,1.94916 -0.0918,0.67732 -0.210369,1.31553 -0.263489,1.41825 -0.180542,0.34912 -0.510973,0.65934 -1.181533,1.10924 -0.741908,0.49776 -0.93155,0.72323 -1.146333,1.3629 -0.125286,0.37313 -0.142995,0.57119 -0.147328,1.64791 -0.0046,1.12671 -0.01512,1.234 -0.133401,1.35229 -0.345966,0.34596 -0.87836,0.15102 -0.87836,-0.32163 0,-0.13642 0.04406,-0.37286 0.09788,-0.52543 0.169442,-0.48025 0.123685,-0.66734 -0.181499,-0.74205 -0.150934,-0.0369 -0.214018,-0.008 -0.374636,0.16704 l -0.193139,0.21145 -0.314394,-0.34019 c -0.471593,-0.51029 -0.651923,-0.47399 -1.096296,0.22069 -0.408494,0.63856 -0.494014,1.03052 -0.49669,2.27647 -0.0014,0.71283 0.03155,1.28517 0.09248,1.59941 0.115139,0.5939 0.0602,0.91062 -0.211575,1.22018 -0.106135,0.12088 -0.192971,0.27975 -0.192971,0.35303 0,0.20359 0.346968,0.51468 0.574044,0.51468 0.161804,0 0.198861,-0.0314 0.231749,-0.19574 0.06093,-0.30466 0.213776,-0.23847 0.338984,0.1468 0.144605,0.44495 0.504015,1.04121 0.754832,1.25226 0.228619,0.19239 0.582338,0.22311 0.715874,0.0623 0.07302,-0.088 0.06875,-0.1362 -0.02677,-0.30263 -0.107551,-0.18739 -0.10769,-0.22646 -0.0027,-0.73167 0.103843,-0.49959 0.103969,-0.56136 0.002,-0.96678 -0.05983,-0.2382 -0.108791,-0.47843 -0.108791,-0.53387 0,-0.18514 0.104127,-0.10362 0.225628,0.17654 0.06909,0.1593 0.322772,0.47357 0.59622,0.73859 l 0.475971,0.46132 -0.154049,0.25524 c -0.08473,0.14038 -0.140113,0.27778 -0.123085,0.30533 0.01703,0.0275 0.1695,0.0501 0.338824,0.0501 0.346414,0 0.597886,-0.13877 0.597886,-0.32993 0,-0.16337 0.05417,-0.15994 0.240603,0.0152 l 0.151143,0.14199 0.284311,-0.14199 c 0.156369,-0.0781 0.303114,-0.142 0.326098,-0.142 0.06841,0 0.04737,0.38033 -0.02347,0.42411 -0.03587,0.0221 -0.06524,0.15048 -0.06524,0.28511 0,0.23939 -0.0072,0.24668 -0.328819,0.32909 -0.37967,0.0974 -1.011658,0.49759 -1.210676,0.7668 -0.315046,0.42617 -0.352651,0.571 -0.352651,1.3582 0,0.99364 0.129086,1.33513 0.505659,1.3377 0.139597,6.6e-4 0.146805,0.026 0.146805,0.50948 0,0.57313 -0.15409,1.17587 -0.622308,2.43425 -0.439701,1.18172 -0.606166,1.46609 -0.765157,1.30711 -0.05139,-0.0513 -0.03146,-0.42968 0.0717,-1.36124 0.14358,-1.29642 0.176013,-2.00455 0.100796,-2.20059 -0.04893,-0.12752 -0.358675,-0.29653 -0.543449,-0.29653 -0.158444,0 -0.175731,-0.14492 -0.03155,-0.26455 0.244293,-0.20275 0.291476,-0.4277 0.285346,-1.36032 -0.0033,-0.50036 0.02356,-0.96497 0.05968,-1.03244 0.03686,-0.0689 0.04168,-0.16149 0.01099,-0.21116 -0.04517,-0.073 -0.08972,-0.074 -0.256492,-0.005 -0.160256,0.0664 -0.221798,0.0671 -0.298805,0.003 -0.152285,-0.12638 -0.270038,-0.0361 -0.382205,0.29311 -0.05695,0.16714 -0.192611,0.40532 -0.301467,0.52931 -0.108863,0.12397 -0.197927,0.26598 -0.197927,0.31555 0,0.0495 0.117443,0.18313 0.260987,0.29681 0.291147,0.23059 0.336177,0.4337 0.136262,0.61463 -0.216802,0.19619 -0.469238,0.11073 -0.690659,-0.23382 -0.260988,-0.40614 -0.398196,-0.4899 -0.561044,-0.34252 -0.133369,0.12069 -0.181888,0.67942 -0.05898,0.67942 0.03587,0 0.06524,0.14747 0.06524,0.32769 0,0.29125 0.02883,0.35896 0.259201,0.60889 l 0.2592,0.2812 -0.203188,0.15022 -0.203188,0.15023 0.04243,0.66 c 0.02333,0.363 0.08866,1.10954 0.145174,1.659 0.05652,0.54945 0.08654,1.04124 0.06671,1.09287 -0.05311,0.1384 -0.140298,0.11449 -0.219959,-0.0603 z m 0.638051,-6.60053 c 0.06896,-0.0832 0.04857,-0.14214 -0.122503,-0.35503 -0.196473,-0.24449 -0.205218,-0.28074 -0.205218,-0.8507 0,-0.85864 -0.128165,-1.029 -0.489988,-0.65135 -0.181866,0.18983 -0.188071,0.21791 -0.185201,0.83824 0.0036,0.76137 0.105425,1.07858 0.328644,1.02306 0.07856,-0.0196 0.161021,-0.006 0.183279,0.0299 0.06236,0.10084 0.398289,0.0775 0.490987,-0.0343 z m -3.289618,-0.19789 c 0.05308,-0.21152 -0.007,-0.67482 -0.09953,-0.76734 -0.116262,-0.11627 -0.216212,0.0464 -0.250992,0.40825 -0.03253,0.33856 0.04589,0.52614 0.219965,0.52614 0.04876,0 0.107504,-0.0752 0.130565,-0.16705 z m 1.6803,-12.3613 0.419584,-0.39249 0.377013,0.39249 c 0.207356,0.21589 0.432128,0.3925 0.49949,0.3925 0.342142,0 0.70322,-0.3799 0.70322,-0.73987 0,-0.0875 -0.111047,-0.47804 -0.246781,-0.86776 -0.30579,-0.87804 -1.126966,-2.19496 -1.348793,-2.16306 -0.192872,0.0277 -0.826025,0.8927 -1.207926,1.65019 -0.485038,0.96205 -0.543078,1.64892 -0.166692,1.97267 0.290343,0.24974 0.498417,0.1973 0.970885,-0.24467 z m -4.300233,-1.97268 c 0.09236,-0.0811 0.313233,-0.48256 0.493631,-0.89714 0.179571,-0.41268 0.375855,-0.78703 0.436189,-0.83189 0.06841,-0.0508 0.327295,-0.0816 0.687684,-0.0816 0.656185,0 0.927957,-0.099 1.038174,-0.378289 0.03828,-0.09696 0.06633,-0.518157 0.06236,-0.935984 -0.0072,-0.744885 -0.0024,-0.769391 0.229425,-1.258006 0.193053,-0.406519 0.237378,-0.575665 0.240601,-0.91816 0.0056,-0.584554 -0.09322,-0.685328 -0.671304,-0.685328 -0.382619,0 -0.465847,0.02354 -0.691287,0.195424 L 55.11225,96.57186 54.424732,96.53115 c -0.612478,-0.03627 -0.71574,-0.02618 -0.946073,0.09247 -0.688895,0.354851 -1.139801,1.262713 -1.139001,2.293278 1.85e-4,0.343651 0.05968,0.712074 0.195356,1.211512 0.151605,0.5581 0.195057,0.85445 0.195355,1.33243 3.69e-4,0.48003 0.02404,0.64084 0.10837,0.73402 0.151092,0.16695 0.498402,0.1534 0.704344,-0.0275 z m 10.031217,-0.0651 c 0.04536,-0.0807 0.101268,-0.49913 0.124247,-0.92977 0.0315,-0.59024 0.07922,-0.87932 0.193865,-1.174432 0.205975,-0.53022 0.221901,-1.63379 0.03195,-2.213361 -0.233122,-0.711272 -0.846737,-1.310965 -1.326221,-1.296136 -0.133935,0.0041 -0.463727,0.01592 -0.732869,0.02618 -0.445464,0.01698 -0.536622,-0.0029 -1.01651,-0.221354 -0.450143,-0.20495 -0.558306,-0.231084 -0.740344,-0.178876 -0.117253,0.03363 -0.254382,0.09533 -0.304734,0.137117 -0.160087,0.132863 -0.108263,0.693613 0.132153,1.430052 0.179466,0.549723 0.23225,0.835288 0.266944,1.444224 0.04118,0.722742 0.0529,0.770713 0.244958,1.003716 l 0.201708,0.2447 0.543166,-0.0418 0.543167,-0.0418 0.217808,0.21247 c 0.147475,0.14387 0.297484,0.41984 0.464566,0.85465 0.198616,0.51691 0.286502,0.66643 0.450468,0.7664 0.28521,0.17392 0.601138,0.16403 0.705687,-0.022 z m 4.071978,12.38397 c -0.0619,-0.24662 0.06084,-0.49281 0.245689,-0.49281 0.301236,0 0.256644,0.32617 -0.07648,0.5595 -0.117488,0.0824 -0.13338,0.076 -0.169201,-0.0668 z m -19.187491,-0.0981 c -0.140866,-0.27239 -0.12543,-0.32946 0.08911,-0.32946 0.145176,0 0.197803,0.0364 0.228303,0.15794 0.09131,0.36379 -0.150447,0.49443 -0.317425,0.17152 z m -0.881768,-1.07861 c -0.142352,-0.23033 -0.131181,-0.36004 0.031,-0.36004 0.118564,0 0.359739,0.3121 0.359739,0.46553 0,0.20652 -0.237542,0.1424 -0.390744,-0.10549 z m 20.98103,0.0189 c -0.0906,-0.12937 -0.08998,-0.15446 0.0064,-0.26097 0.240894,-0.26619 0.516855,-0.0582 0.32047,0.24148 -0.13098,0.1999 -0.19773,0.20388 -0.326883,0.0195 z m -21.726299,-1.03636 c -0.182369,-0.21673 -0.2046,-0.29147 -0.105025,-0.35302 0.07124,-0.044 0.333924,0.0773 0.40814,0.18836 0.08279,0.12399 0.05495,0.36541 -0.04213,0.36541 -0.05063,0 -0.168083,-0.0903 -0.260985,-0.20075 z m 22.512014,0.0829 c -0.09528,-0.15418 0.09732,-0.4693 0.286842,-0.4693 0.10589,0 0.194728,0.12074 0.194728,0.26465 0,0.0321 -0.08663,0.10303 -0.192497,0.15778 -0.221769,0.11468 -0.244856,0.11843 -0.289073,0.047 z m -23.328661,-0.9022 c -0.175247,-0.2228 -0.170565,-0.2848 0.02151,-0.2848 0.117139,0 0.174831,0.0519 0.228366,0.20547 0.08966,0.25722 0.09019,0.25124 -0.0215,0.25124 -0.05122,0 -0.153986,-0.0773 -0.228362,-0.17191 z m 24.170228,0.0433 c -0.06173,-0.0998 0.163581,-0.39332 0.30202,-0.39332 0.176719,0 0.223161,0.17723 0.08612,0.32866 -0.123351,0.13629 -0.323276,0.16962 -0.388137,0.0646 z m -25.200419,-0.8846 c -0.25531,-0.25604 -0.229533,-0.34403 0.06769,-0.23103 0.161657,0.0615 0.305348,0.3524 0.217456,0.44028 -0.02106,0.021 -0.149367,-0.073 -0.285136,-0.20925 z m 26.275846,-0.0211 c 0,-0.2309 0.07581,-0.33597 0.242416,-0.33597 0.145435,0 0.158309,0.0196 0.118209,0.17931 -0.05264,0.20974 -0.03046,0.18474 -0.213821,0.24108 -0.118101,0.0363 -0.146804,0.0198 -0.146804,-0.0844 z m -27.456467,-0.79522 c -0.202544,-0.18871 -0.18364,-0.3237 0.04533,-0.3237 0.194771,0 0.299373,0.17011 0.224528,0.36515 -0.04749,0.12376 -0.101402,0.11549 -0.269864,-0.0415 z m 28.415615,0.0917 c -0.05432,-0.0543 0.0232,-0.24057 0.139007,-0.33387 0.126545,-0.102 0.337268,-0.10647 0.337268,-0.007 0,0.11806 -0.40747,0.40986 -0.476275,0.34104 z m -29.50281,-0.67317 c -0.127413,-0.2464 -0.125532,-0.26421 0.02788,-0.26421 0.241933,0 0.459795,0.14407 0.459795,0.30406 0,0.12582 -0.03411,0.15266 -0.194065,0.15266 -0.148909,0 -0.217226,-0.0447 -0.29361,-0.19251 z m 30.567303,0.0783 c 0.0018,-0.21024 0.251091,-0.43215 0.414831,-0.36931 0.240403,0.0923 0.01855,0.4835 -0.274165,0.4835 -0.0918,0 -0.141316,-0.0403 -0.140666,-0.11419 z m 1.272414,-0.0151 c -0.09574,-0.1058 -0.102051,-0.14726 -0.03475,-0.22837 0.101134,-0.12186 0.4162,-0.12989 0.513141,-0.0131 0.05264,0.0634 0.04519,0.12339 -0.02832,0.22837 -0.124044,0.1771 -0.297081,0.18214 -0.450061,0.0131 z m -33.100455,-0.014 c -0.111702,-0.11169 -0.0975,-0.21069 0.04924,-0.34349 0.12235,-0.11072 0.136576,-0.11045 0.337308,0.006 0.27572,0.16104 0.29957,0.25891 0.07609,0.31226 -0.10025,0.0239 -0.227693,0.0569 -0.283207,0.0732 -0.05552,0.0163 -0.13626,-0.006 -0.179429,-0.0488 z m -0.01099,-1.22252 c -0.147314,-0.27528 -0.06579,-0.55534 0.201938,-0.69378 0.340303,-0.17598 0.627659,0.15861 0.457314,0.53248 -0.123955,0.27206 -0.544857,0.37503 -0.659252,0.1613 z m 32.9886,-0.009 c -0.207909,-0.16354 -0.21993,-0.37334 -0.03486,-0.60862 0.148534,-0.18883 0.309665,-0.18378 0.537767,0.0168 0.248343,0.21842 0.258629,0.32561 0.05115,0.53308 -0.229624,0.22962 -0.324086,0.23965 -0.554062,0.0586 z m -31.683668,-1.03458 c -0.152019,-0.28405 0.0053,-0.72201 0.259321,-0.72201 0.241325,0 0.442046,0.14183 0.481759,0.34038 0.04888,0.24437 0.01241,0.30286 -0.259895,0.41664 -0.293731,0.12271 -0.400947,0.11492 -0.481185,-0.035 z m 30.307245,-0.0422 c -0.06068,-0.0927 -0.127369,-0.27335 -0.148188,-0.40166 l -0.03786,-0.23326 0.363495,0.0427 c 0.501029,0.0589 0.570335,0.0949 0.570335,0.29633 0,0.44461 -0.516441,0.64897 -0.747789,0.29588 z m -28.939364,-0.9408 c -0.26333,-0.26333 -0.113187,-0.59168 0.328475,-0.71836 0.297963,-0.0854 0.389237,0.008 0.389237,0.40172 0,0.28332 -0.01913,0.32714 -0.167365,0.3835 -0.252581,0.096 -0.406103,0.0774 -0.550347,-0.0669 z m 27.529707,-0.10921 c -0.07864,-0.2068 -0.01958,-0.53819 0.104369,-0.58573 0.122623,-0.0471 0.422823,0.11226 0.535401,0.28414 0.08602,0.13134 0.07977,0.15824 -0.07194,0.30993 -0.224432,0.22444 -0.480768,0.22068 -0.567835,-0.008 z m -1.782608,-0.94402 c -0.129153,-0.1844 -0.135496,-0.44635 -0.01478,-0.61141 0.0774,-0.10586 0.12674,-0.11471 0.342547,-0.0614 0.236378,0.0583 0.253337,0.0788 0.271659,0.3289 0.02119,0.28922 -0.04464,0.38133 -0.322468,0.45105 -0.134364,0.0337 -0.194588,0.0105 -0.276931,-0.10714 z m -24.051405,-0.13763 c -0.07111,-0.11663 -0.129399,-0.23018 -0.129533,-0.25232 -1.3e-4,-0.0221 0.117357,-0.11809 0.261089,-0.21321 0.414458,-0.27426 0.717363,-0.12704 0.717363,0.34868 0,0.15641 -0.03753,0.21593 -0.167363,0.26528 -0.331195,0.12592 -0.542319,0.0799 -0.681556,-0.14843 z m 1.726418,-0.79716 c -0.133994,-0.32071 -0.118005,-0.46107 0.06628,-0.58182 0.355592,-0.233 0.687382,-0.0428 0.687382,0.39383 0,0.27141 -0.148992,0.41425 -0.43209,0.41425 -0.197392,0 -0.239373,-0.0295 -0.321573,-0.22626 z m 20.78907,0.0544 c -0.152622,-0.19403 -0.162844,-0.26894 -0.07003,-0.51307 0.05472,-0.14391 0.09931,-0.16821 0.277296,-0.15105 0.170032,0.0164 0.237972,0.0697 0.342587,0.26892 l 0.130495,0.24848 -0.183067,0.15931 c -0.233252,0.203 -0.329626,0.20055 -0.497287,-0.0126 z m -19.211838,-0.67082 c -0.170298,-0.19458 -0.172812,-0.35625 -0.0085,-0.54373 0.217366,-0.24792 0.484592,-0.24153 0.675071,0.0161 0.135744,0.1836 0.138407,0.20739 0.0437,0.39053 -0.138218,0.26728 -0.530162,0.34293 -0.710326,0.1371 z m 17.739056,-0.0819 c -0.294221,-0.16323 -0.354471,-0.25335 -0.279455,-0.41798 0.08564,-0.18794 0.247803,-0.24784 0.513196,-0.18956 0.127631,0.028 0.220022,0.10085 0.25952,0.20487 0.0826,0.21723 0.07824,0.25708 -0.04119,0.37651 -0.119347,0.11934 -0.268543,0.12799 -0.452067,0.0262 z m -16.193359,-0.4969 c -0.04262,-0.0271 -0.108487,-0.13086 -0.146401,-0.23056 -0.0576,-0.15147 -0.04551,-0.21296 0.07344,-0.37383 0.11389,-0.15405 0.19158,-0.19257 0.388459,-0.19257 0.23189,0 0.250759,0.0156 0.326862,0.26958 0.07753,0.25874 0.07355,0.27578 -0.09889,0.4241 -0.179678,0.15455 -0.397667,0.19597 -0.543464,0.10331 z m 14.529572,-0.41402 v -0.4 l 0.234186,0.0379 c 0.253514,0.0411 0.389076,0.12882 0.489617,0.3167 0.09771,0.18258 -0.192841,0.44533 -0.492475,0.44533 h -0.231331 z m -30.290683,-0.88461 c -0.141932,-0.0371 -0.142424,-0.0302 0.02202,-0.30888 0.134331,-0.22767 0.138795,-0.22947 0.327327,-0.13197 0.161079,0.0834 0.180472,0.11877 0.123302,0.22559 -0.05901,0.11026 -0.278557,0.27446 -0.337854,0.25267 -0.01135,-0.004 -0.07199,-0.021 -0.134783,-0.0374 z m 46.323319,-0.0943 c -0.149189,-0.0835 -0.142754,-0.23142 0.0137,-0.31515 0.213834,-0.11444 0.330521,-0.0816 0.330521,0.0933 0,0.19396 -0.183171,0.31202 -0.344231,0.22188 z M 35.833031,100.587 c -0.120653,-0.14538 0.1132,-0.51688 0.342296,-0.54379 0.14273,-0.0167 0.182001,0.0115 0.218739,0.15799 0.03621,0.14426 0.01099,0.20748 -0.131855,0.33034 -0.204643,0.17602 -0.317066,0.19055 -0.42918,0.0555 z m 44.398631,-0.1264 c -0.08948,-0.0895 -0.162679,-0.2119 -0.162679,-0.27204 0,-0.0895 0.04345,-0.10241 0.239394,-0.0706 0.347783,0.0565 0.469241,0.30014 0.216894,0.43519 -0.107305,0.0574 -0.160282,0.0407 -0.293609,-0.0927 z M 36.826876,99.726375 c -0.159258,-0.06431 -0.09275,-0.396649 0.107937,-0.539563 0.241574,-0.172009 0.307908,-0.169801 0.356595,0.01187 0.115409,0.430667 -0.09961,0.674937 -0.464536,0.527694 z m 42.459149,-0.283014 c 0,-0.304233 0.06833,-0.327988 0.25625,-0.08907 0.19128,0.243173 0.172804,0.350051 -0.06051,0.350051 -0.184865,0 -0.195739,-0.01454 -0.19574,-0.260981 z M 37.698374,98.818209 c -0.06154,-0.160363 -0.04671,-0.406675 0.02723,-0.452373 0.03676,-0.02275 0.154205,-0.02209 0.260987,0.0016 0.158172,0.03471 0.194148,0.07601 0.194148,0.22272 0,0.129659 -0.04654,0.20129 -0.166186,0.255799 -0.219444,0.1 -0.268918,0.09569 -0.316181,-0.02745 z m 40.762435,0.03841 c -0.193278,-0.07797 -0.2371,-0.170426 -0.154202,-0.325317 0.10024,-0.187302 0.242111,-0.163258 0.357901,0.06067 0.167823,0.324537 0.114953,0.393232 -0.203699,0.26466 z M 66.287345,98.686894 c -0.288131,-0.152608 -0.33171,-0.3035 -0.160864,-0.557024 0.166866,-0.247609 0.273133,-0.286487 0.523218,-0.191403 0.246805,0.09384 0.244191,0.435423 -0.0053,0.672198 -0.167545,0.159102 -0.1912,0.164146 -0.357212,0.07625 z m -16.58686,-0.106241 c -0.252946,-0.361134 0.03575,-0.810303 0.447467,-0.696193 0.23179,0.06424 0.296866,0.158027 0.298169,0.42971 0.0018,0.377842 -0.533608,0.569191 -0.745636,0.266483 z M 38.515419,98.098209 c -0.06605,-0.144939 -0.06023,-0.184037 0.03846,-0.258906 0.16095,-0.122098 0.263497,-0.11341 0.339592,0.02878 0.04938,0.09228 0.03377,0.154427 -0.06549,0.260994 -0.168799,0.181176 -0.218173,0.176304 -0.312563,-0.03083 z m 9.748012,-0.02275 c -0.05411,-0.0598 -0.11786,-0.206081 -0.141659,-0.325073 -0.03603,-0.180138 -0.01704,-0.236519 0.11341,-0.336812 0.162297,-0.124781 0.450285,-0.166814 0.450285,-0.06573 0,0.0317 0.05873,0.07299 0.130492,0.09177 0.08741,0.02287 0.130494,0.08899 0.130494,0.20028 0,0.168941 -0.119902,0.490152 -0.189901,0.508738 -0.187234,0.0497 -0.412105,0.01632 -0.49312,-0.07319 z m 19.413593,0.03619 c -0.04201,-0.05061 -0.09237,-0.190434 -0.111865,-0.310681 -0.02695,-0.166056 -0.0041,-0.247045 0.09511,-0.336796 0.119308,-0.107973 0.146976,-0.109693 0.320687,-0.01986 0.315169,0.162981 0.367354,0.263438 0.252365,0.4858 -0.141548,0.27373 -0.407684,0.360576 -0.556275,0.181534 z m 9.930751,-0.05473 c -0.10022,-0.129526 -0.150025,-0.309926 -0.08557,-0.309926 0.161965,0 0.37979,0.135575 0.411277,0.255983 0.02823,0.107958 0.0053,0.135498 -0.113586,0.135498 -0.08196,0 -0.177418,-0.03668 -0.212128,-0.08152 z M 46.83238,97.665399 c -0.06457,-0.100381 -0.08307,-0.244242 -0.05847,-0.454958 0.04307,-0.36881 0.160688,-0.431905 0.501887,-0.269198 0.208251,0.09931 0.235228,0.140175 0.235228,0.356337 0,0.419598 -0.478506,0.678942 -0.67865,0.367819 z m 22.310759,-0.07272 c -0.09131,-0.09131 -0.166016,-0.236915 -0.166016,-0.323565 0,-0.131363 0.04065,-0.164267 0.244673,-0.197987 0.37018,-0.06118 0.386025,-0.0562 0.470586,0.147942 0.08004,0.193247 0.0072,0.462647 -0.125001,0.462647 -0.03168,0 -0.102751,0.01731 -0.157919,0.03849 -0.05915,0.0227 -0.168395,-0.02961 -0.266323,-0.127529 z M 39.118354,97.339161 c 0.02164,-0.08074 0.03974,-0.182472 0.04023,-0.226066 0.0013,-0.106966 0.229279,-0.222758 0.348589,-0.176976 0.275368,0.105668 0.06534,0.549847 -0.25998,0.549847 -0.142573,0 -0.162192,-0.02236 -0.128842,-0.146805 z m 6.373757,-0.1052 c -0.118283,-0.285556 -0.0117,-0.60858 0.221368,-0.670912 0.297089,-0.07944 0.427373,0.03241 0.427373,0.366915 0,0.223246 -0.03245,0.310342 -0.145011,0.389184 -0.228134,0.15979 -0.415374,0.128126 -0.50373,-0.08518 z m 24.919718,-0.02529 c -0.0711,-0.116625 -0.129398,-0.24662 -0.129534,-0.288874 -3.7e-4,-0.138701 0.337791,-0.347279 0.56315,-0.347279 0.201259,0 0.219565,0.01659 0.219565,0.198983 0,0.344626 -0.217236,0.649222 -0.463022,0.649222 -0.03349,0 -0.119049,-0.09543 -0.190159,-0.212052 z m 6.427518,0.05813 c -0.05548,-0.08466 -0.08177,-0.203655 -0.05844,-0.264436 0.06266,-0.163304 0.298611,-0.100735 0.415097,0.110077 0.0888,0.160688 0.08902,0.188111 0.0021,0.243673 -0.155563,0.09951 -0.250604,0.07586 -0.358832,-0.08931 z M 44.336251,97.044403 c -0.09971,-0.06344 -0.176949,-0.488732 -0.120864,-0.665437 0.03738,-0.117792 0.08651,-0.136549 0.313775,-0.119854 0.246563,0.01811 0.277627,0.04136 0.365666,0.273557 0.09421,0.248477 0.09248,0.256973 -0.08286,0.407791 -0.18187,0.156437 -0.339201,0.190814 -0.475723,0.103949 z m 27.598133,-0.127246 c -0.296859,-0.03719 -0.390366,-0.171486 -0.258989,-0.37199 0.166041,-0.253411 0.366778,-0.281179 0.543916,-0.07523 0.08285,0.09631 0.150628,0.246877 0.150628,0.334591 0,0.165863 -0.0036,0.166763 -0.435555,0.112637 z M 42.773013,96.596901 c -0.09626,-0.23039 -0.09413,-0.241532 0.08115,-0.424504 0.09901,-0.103343 0.225742,-0.175772 0.281616,-0.160945 0.05589,0.01483 0.182334,0.04492 0.281018,0.0669 0.162845,0.03624 0.179429,0.06674 0.179429,0.330003 0,0.333355 -0.10546,0.425152 -0.488388,0.425152 -0.209586,0 -0.24704,-0.02647 -0.334839,-0.236597 z m 30.280538,0.08037 c -0.05628,-0.08593 -0.120283,-0.266669 -0.142188,-0.401668 l -0.03984,-0.245455 0.254866,0.0421 c 0.140175,0.02314 0.286852,0.04242 0.325948,0.0428 0.10025,9.07e-4 0.233688,0.31949 0.190667,0.455039 -0.0335,0.105492 -0.289119,0.263389 -0.426433,0.263389 -0.03338,0 -0.106731,-0.07029 -0.163026,-0.156215 z m -33.027965,-0.05058 c -0.157806,-0.190143 -0.164347,-0.429383 -0.01718,-0.628435 0.166396,-0.225066 0.325852,-0.213943 0.522821,0.03647 0.149196,0.189668 0.167451,0.424571 0.04115,0.529396 -0.147825,0.122684 -0.466622,0.159164 -0.546788,0.06257 z m 36.036711,-0.07496 c -0.20697,-0.20697 -0.243964,-0.63229 -0.05486,-0.630814 0.252534,0.0019 0.401049,0.08629 0.477636,0.271195 0.0732,0.176747 0.06534,0.209605 -0.08661,0.36154 l -0.167124,0.167125 z m -34.668462,-0.06081 c -0.136487,-0.170599 -0.153194,-0.369493 -0.04491,-0.534747 0.05965,-0.09104 0.135895,-0.148574 0.169427,-0.127852 0.03354,0.02071 0.101886,0.0037 0.151916,-0.03781 0.07254,-0.06021 0.109901,-0.03826 0.184616,0.108566 0.2086,0.409877 0.203602,0.472549 -0.04601,0.576842 -0.281395,0.117575 -0.331521,0.119385 -0.415039,0.01501 z m 33.199219,-0.09036 c -0.168915,-0.214742 -0.169265,-0.288916 -0.0021,-0.468246 0.150567,-0.161615 0.183845,-0.167929 0.417312,-0.07917 0.13506,0.05134 0.167364,0.107118 0.167364,0.288949 0,0.417369 -0.339122,0.567845 -0.582481,0.258461 z m -8.569451,-0.0075 c -0.191132,-0.212089 -0.202317,-0.437854 -0.03154,-0.636405 0.133685,-0.155416 0.188786,-0.175639 0.380561,-0.13966 0.426338,0.07998 0.506173,0.595327 0.12293,0.793509 -0.243325,0.12583 -0.346271,0.122025 -0.471958,-0.01745 z m -16.137621,-9.06e-4 c -0.08049,-0.05374 -0.221819,-0.302368 -0.221819,-0.3902 0,-0.03148 0.06205,-0.123839 0.137894,-0.205245 0.165126,-0.177239 0.419377,-0.143708 0.594678,0.07842 0.147033,0.18632 0.143923,0.277673 -0.01486,0.436458 -0.131524,0.131527 -0.363199,0.169163 -0.495892,0.08055 z m -1.522013,-0.774456 c -0.168013,-0.213593 -0.172165,-0.42048 -0.01241,-0.617781 0.108533,-0.134024 0.14277,-0.142599 0.294105,-0.07364 0.09419,0.04293 0.221945,0.184292 0.283873,0.314157 l 0.112604,0.236122 -0.18198,0.15653 c -0.232637,0.200106 -0.329047,0.197118 -0.496198,-0.01539 z m 19.045622,-0.06078 c -0.09379,-0.246669 -0.08035,-0.317517 0.09638,-0.508197 0.268123,-0.28931 0.560419,-0.21617 0.655864,0.164121 0.071,0.282887 -0.122723,0.511438 -0.433506,0.511438 -0.213793,0 -0.265397,-0.02709 -0.318728,-0.167362 z M 46.792602,94.729318 c -0.165831,-0.271987 -0.163017,-0.32119 0.02868,-0.501278 0.131181,-0.123239 0.190135,-0.138382 0.342546,-0.08798 0.253543,0.08386 0.361622,0.474643 0.185188,0.669601 -0.181442,0.200493 -0.404847,0.168235 -0.556409,-0.08034 z m 22.282086,-0.04952 c -0.117541,-0.227297 -0.06505,-0.376931 0.191098,-0.544765 0.254382,-0.166677 0.392239,-0.133616 0.514832,0.123465 0.152433,0.319656 0.139078,0.403478 -0.08255,0.518084 -0.308275,0.159415 -0.506843,0.128587 -0.623386,-0.09678 z m 1.785016,-0.781897 c -0.148157,-0.148155 -0.184622,-0.230799 -0.151146,-0.342543 0.05114,-0.170727 0.279688,-0.372739 0.421699,-0.372739 0.165756,0 0.376401,0.215057 0.421183,0.430007 0.03799,0.182427 0.01847,0.219466 -0.180676,0.342544 -0.122808,0.0759 -0.2441,0.137999 -0.26954,0.137999 -0.02543,0 -0.134124,-0.08786 -0.24152,-0.195268 z m -25.672343,0.01825 c -0.212388,-0.02681 -0.351438,-0.219522 -0.351438,-0.487044 0,-0.1208 0.02728,-0.131449 0.244674,-0.09552 0.134572,0.02224 0.276664,0.04075 0.31576,0.04116 0.08583,8.24e-4 0.222525,0.28374 0.222525,0.460514 0,0.12985 -0.01758,0.133151 -0.431521,0.08088 z m 27.373298,-0.796644 c -0.231205,-0.231207 -0.237687,-0.334619 -0.03569,-0.569457 0.142538,-0.16571 0.175407,-0.175206 0.40779,-0.117819 0.228443,0.05643 0.254633,0.08471 0.272237,0.294146 0.01465,0.174183 -0.02105,0.27545 -0.143689,0.407789 -0.20597,0.222245 -0.265488,0.220503 -0.500651,-0.01466 z m -29.195747,-0.09994 c -0.2006,-0.200599 -0.201358,-0.30036 -0.0037,-0.486058 0.146709,-0.137826 0.168353,-0.140835 0.347298,-0.0483 0.288275,0.149073 0.36731,0.26889 0.282237,0.427856 -0.07321,0.136799 -0.264686,0.266652 -0.393189,0.266652 -0.03987,0 -0.144569,-0.07207 -0.232652,-0.160151 z m 7.869902,-0.01176 c -0.166482,-0.211648 -0.172373,-0.420223 -0.01727,-0.611756 0.229601,-0.283542 0.665011,-0.02641 0.665011,0.392719 0,0.152327 -0.243565,0.390951 -0.399045,0.390951 -0.06241,0 -0.174309,-0.07735 -0.248684,-0.171914 z m 13.370546,-0.03992 c -0.144711,-0.237958 -0.118873,-0.405368 0.09023,-0.584575 0.09444,-0.08093 0.200564,-0.107716 0.334125,-0.08431 0.394652,0.06914 0.477681,0.442915 0.15811,0.711814 -0.268475,0.225907 -0.426037,0.214298 -0.582459,-0.04291 z m -23.253284,-0.62922 c -0.172751,-0.180311 -0.176343,-0.197006 -0.08177,-0.379917 0.05441,-0.105224 0.141342,-0.226514 0.19317,-0.269528 0.146982,-0.121986 0.42058,0.01761 0.544714,0.277924 0.100291,0.210316 0.10017,0.23726 -0.0018,0.392959 -0.151531,0.231264 -0.420621,0.222448 -0.654277,-0.02144 z m 33.063357,-0.03269 c -0.102977,-0.215946 -0.101185,-0.226978 0.07406,-0.456725 0.253167,-0.331921 0.525512,-0.296789 0.685048,0.08837 0.09481,0.228904 0.0352,0.339143 -0.268298,0.496086 -0.273514,0.141439 -0.37504,0.115022 -0.490798,-0.127727 z m -24.304284,-0.69981 c -0.09589,-0.03555 -0.209133,-0.151668 -0.254312,-0.260741 -0.07124,-0.172009 -0.06512,-0.218608 0.04892,-0.371921 0.195812,-0.263267 0.36262,-0.254918 0.597391,0.02991 0.20134,0.244259 0.20155,0.245352 0.08568,0.443735 -0.12946,0.221667 -0.223925,0.253117 -0.477677,0.159027 z m 15.774359,-0.07392 c -0.138907,-0.218597 -0.09731,-0.401073 0.136175,-0.597392 0.199739,-0.167947 0.217631,-0.171288 0.403166,-0.07534 0.10678,0.05522 0.211661,0.155565 0.23306,0.22299 0.134739,0.424524 -0.53911,0.816886 -0.772401,0.449748 z m 9.161833,-0.370877 c -0.09956,-0.186049 -0.08259,-0.362733 0.05069,-0.527322 0.17248,-0.213 0.386104,-0.126673 0.44349,0.179221 0.03699,0.197174 0.02005,0.255671 -0.102834,0.355178 -0.188951,0.153003 -0.306818,0.150872 -0.39135,-0.0072 z M 41.08918,91.08 l -0.183906,-0.158187 0.158186,-0.183908 0.158188,-0.183904 0.183906,0.15819 0.183907,0.158188 -0.15819,0.183905 -0.158187,0.183904 z m 26.369954,-1.01613 c -0.09812,-0.102432 -0.178419,-0.205623 -0.178419,-0.229324 0,-0.0237 0.09112,-0.14688 0.202499,-0.273728 0.320748,-0.365313 0.612124,-0.292376 0.687497,0.172095 0.03974,0.244887 -0.08456,0.405288 -0.369033,0.476248 -0.126867,0.03164 -0.204627,-0.0013 -0.342544,-0.145291 z M 48.513156,89.98769 c -0.289032,-0.176241 -0.306545,-0.233026 -0.133799,-0.433855 0.133395,-0.155082 0.182881,-0.171566 0.395361,-0.131705 0.176739,0.03315 0.259844,0.0902 0.305176,0.209418 0.08363,0.219956 0.07943,0.259386 -0.04024,0.37906 -0.13523,0.135231 -0.277284,0.129048 -0.526504,-0.02293 z m -7.200543,-0.273102 c 0,-0.330862 0.0013,-0.332976 0.179064,-0.288365 0.200461,0.05032 0.342908,0.150487 0.342908,0.241145 0,0.09849 -0.312145,0.380525 -0.421137,0.380525 -0.0778,0 -0.100837,-0.07618 -0.100837,-0.333305 z m 33.511049,0.230098 c -0.068,-0.177214 -0.04372,-0.334116 0.06575,-0.424971 0.09032,-0.07496 0.122901,-0.06574 0.228363,0.06449 0.150037,0.185286 0.158702,0.37079 0.01981,0.424088 -0.171147,0.06568 -0.272162,0.0452 -0.313917,-0.0636 z m -33.250064,-1.46882 c 0,-0.395705 0.04802,-0.458529 0.219429,-0.287115 0.227814,0.227815 0.181533,0.567632 -0.08686,0.637821 -0.122199,0.03196 -0.13256,0.0046 -0.132562,-0.350706 z m 32.977933,0.241107 c -0.108017,-0.430386 0.141572,-0.665396 0.326623,-0.307543 0.164471,0.31805 0.135261,0.464023 -0.09286,0.464023 -0.150849,0 -0.203313,-0.03511 -0.233771,-0.15648 z m -5.623343,-0.08248 c -0.04817,-0.01944 -0.08155,-0.152259 -0.08155,-0.324409 0,-0.27096 0.01595,-0.298165 0.226267,-0.386044 0.368604,-0.154012 0.539471,-0.125739 0.588473,0.09738 0.08923,0.406234 -0.345312,0.769588 -0.733182,0.613078 z M 47.069326,88.511245 c -0.250071,-0.175158 -0.289667,-0.320548 -0.139343,-0.511654 0.171262,-0.217726 0.46653,-0.229865 0.609969,-0.02508 0.143335,0.204638 0.126084,0.417636 -0.04344,0.536377 -0.181398,0.127057 -0.246213,0.127111 -0.427184,3.33e-4 z m -5.23385,-0.926415 c 0.0028,-0.360918 0.225119,-0.572195 0.426343,-0.405193 0.13137,0.109023 0.119477,0.174335 -0.0654,0.359222 -0.186883,0.186884 -0.362204,0.209214 -0.360929,0.04597 z m 32.49186,-0.187039 c 0,-0.280533 0.01,-0.298517 0.146803,-0.261876 0.08074,0.02165 0.168825,0.03974 0.195739,0.04023 0.02691,5.18e-4 0.04893,0.118335 0.04893,0.261878 0,0.246487 -0.01088,0.260985 -0.19574,0.260985 -0.189221,0 -0.195736,-0.01 -0.195736,-0.301219 z M 45.676357,87.206113 c -0.09347,-0.04898 -0.207408,-0.179466 -0.253183,-0.289979 -0.0756,-0.18252 -0.06912,-0.215953 0.07082,-0.364905 0.116694,-0.124215 0.193928,-0.153966 0.318527,-0.122694 0.230914,0.05796 0.313487,0.140909 0.362532,0.364206 0.07146,0.325362 -0.214412,0.562322 -0.498699,0.413372 z m 24.749423,0.01949 c -0.03739,-0.04506 -0.0887,-0.164413 -0.113995,-0.265232 -0.06019,-0.239759 0.229833,-0.566297 0.502946,-0.566297 0.432248,0 0.467991,0.694299 0.04338,0.842327 -0.263308,0.09179 -0.348946,0.08964 -0.43231,-0.01076 z m 1.577933,-1.333132 c -0.21791,-0.04283 -0.300157,-0.297355 -0.185088,-0.572756 0.104242,-0.249482 0.334211,-0.31568 0.481237,-0.138525 0.120399,0.145072 0.163379,0.545865 0.07053,0.657734 -0.08208,0.09891 -0.113,0.103427 -0.366684,0.05354 z M 44.215645,85.714485 c -0.212007,-0.212009 -0.205167,-0.3084 0.03447,-0.485561 0.196659,-0.145398 0.257979,-0.140013 0.469218,0.04119 0.100806,0.08647 0.102338,0.114088 0.01562,0.281751 -0.05286,0.102236 -0.154739,0.217253 -0.22638,0.255593 -0.106464,0.05697 -0.159971,0.03998 -0.292932,-0.09297 z m 28.667131,-1.304424 c -0.06463,-0.141873 -0.0594,-0.212894 0.02944,-0.39921 0.142327,-0.29846 0.387791,-0.314193 0.532614,-0.03413 0.176435,0.34119 0.103521,0.488533 -0.279717,0.565178 -0.175939,0.03517 -0.214429,0.01722 -0.282339,-0.131834 z m -29.867582,-0.07823 c -0.09649,-0.122656 -0.116991,-0.201482 -0.07355,-0.282664 0.161452,-0.301677 0.385514,-0.314696 0.515259,-0.02994 0.09714,0.213174 0.09377,0.257935 -0.02846,0.380159 -0.146054,0.146055 -0.25988,0.127448 -0.41327,-0.06756 z m 0.539923,-1.34689 c 0.02163,-0.08074 0.03974,-0.165265 0.04024,-0.187826 0.0013,-0.05774 0.389311,-0.212151 0.430261,-0.171201 0.07817,0.07817 -0.06037,0.364627 -0.209095,0.432398 -0.240817,0.109725 -0.305595,0.09155 -0.261398,-0.07338 z m 28.959833,0.04524 c -0.09399,-0.06584 -0.145011,-0.169125 -0.145011,-0.29361 0,-0.167554 0.02366,-0.19204 0.185627,-0.19204 0.168926,0 0.309675,0.100917 0.424892,0.304661 0.04833,0.08547 -0.120344,0.282559 -0.241806,0.282559 -0.04327,0 -0.143946,-0.04572 -0.223702,-0.101577 z m -0.879033,-0.827634 c -0.195099,-0.06563 -0.239422,-0.2722 -0.110208,-0.513637 0.12459,-0.232796 0.518,-0.0067 0.518,0.297809 0,0.191099 -0.187036,0.290091 -0.407792,0.215828 z m -27.225479,-0.05174 c -0.04851,-0.0785 0.172438,-0.533252 0.275826,-0.567716 0.03852,-0.01283 0.152168,0.04727 0.252526,0.1336 l 0.182467,0.156953 -0.172325,0.172324 c -0.173711,0.17371 -0.461324,0.229705 -0.538494,0.104839 z m 1.07795,-1.224395 c 0,-0.325554 0.33781,-0.480671 0.427993,-0.196527 0.0332,0.104615 0.0064,0.174337 -0.100705,0.260986 -0.212563,0.172122 -0.327292,0.149527 -0.327293,-0.06446 z m 25.014508,0.132756 c -0.14716,-0.09694 -0.173886,-0.34627 -0.04733,-0.441555 0.197463,-0.148678 0.609446,0.05295 0.609446,0.298252 0,0.155948 -0.391438,0.255741 -0.562116,0.143303 z"
       id="path302" /></g></svg>
