999
"DXF R12 Output" (www.mydxf.blogspot.com)
 0 
SECTION
 2 
HEADER
 9 
$ACADVER
 1 
AC1009
 9 
$EXTMIN
 10 
 0 
 20 
 0 
 9 
$EXTMAX
 10 
 8.5 
 20 
 11 
 0 
ENDSEC
 0 
SECTION
 2 
ENTITIES
0
POLYLINE
8
Layer 1
62
7
70
0
10
0.000000
20
0.000000
66
1
0
VERTEX
8
Layer 1
10
25.180874
20
0.235980
70
0
0
VERTEX
8
Layer 1
10
24.174788
20
0.810360
70
0
0
VERTEX
8
Layer 1
10
22.957915
20
1.352600
70
0
0
VERTEX
8
Layer 1
10
22.351275
20
1.397200
70
0
0
VERTEX
8
Layer 1
10
21.815090
20
1.441400
70
0
0
VERTEX
8
Layer 1
10
21.149182
20
1.691360
70
0
0
VERTEX
8
Layer 1
10
20.550187
20
2.159040
70
0
0
VERTEX
8
Layer 1
10
20.189883
20
2.452840
70
0
0
VERTEX
8
Layer 1
10
20.091213
20
2.324720
70
0
0
VERTEX
8
Layer 1
10
19.792706
20
1.810470
70
0
0
VERTEX
8
Layer 1
10
19.200031
20
1.257500
70
0
0
VERTEX
8
Layer 1
10
18.602254
20
1.091000
70
0
0
VERTEX
8
Layer 1
10
18.110037
20
1.155100
70
0
0
VERTEX
8
Layer 1
10
17.579011
20
1.410160
70
0
0
VERTEX
8
Layer 1
10
16.979602
20
1.978550
70
0
0
VERTEX
8
Layer 1
10
16.432422
20
2.809640
70
0
0
VERTEX
8
Layer 1
10
15.648518
20
4.561040
70
0
0
VERTEX
8
Layer 1
10
14.704033
20
6.701598
70
0
0
VERTEX
8
Layer 1
10
13.825011
20
8.258392
70
0
0
VERTEX
8
Layer 1
10
12.961147
20
9.458281
70
0
0
VERTEX
8
Layer 1
10
12.044411
20
10.467493
70
0
0
VERTEX
8
Layer 1
10
11.038982
20
11.347577
70
0
0
VERTEX
8
Layer 1
10
10.183307
20
11.942397
70
0
0
VERTEX
8
Layer 1
10
9.437345
20
12.367193
70
0
0
VERTEX
8
Layer 1
10
8.155283
20
12.893144
70
0
0
VERTEX
8
Layer 1
10
6.760655
20
13.495472
70
0
0
VERTEX
8
Layer 1
10
5.916782
20
14.033012
70
0
0
VERTEX
8
Layer 1
10
4.982990
20
14.915197
70
0
0
VERTEX
8
Layer 1
10
3.812365
20
16.269394
70
0
0
VERTEX
8
Layer 1
10
2.526595
20
17.939047
70
0
0
VERTEX
8
Layer 1
10
1.452295
20
19.431958
70
0
0
VERTEX
8
Layer 1
10
0.772133
20
20.551560
70
0
0
VERTEX
8
Layer 1
10
0.299993
20
21.556006
70
0
0
VERTEX
8
Layer 1
10
0.122631
20
22.529002
70
0
0
VERTEX
8
Layer 1
10
0.260747
20
23.501999
70
0
0
VERTEX
8
Layer 1
10
0.588411
20
24.280396
70
0
0
VERTEX
8
Layer 1
10
1.286848
20
25.156091
70
0
0
VERTEX
8
Layer 1
10
2.382174
20
26.257220
70
0
0
VERTEX
8
Layer 1
10
3.809234
20
27.614090
70
0
0
VERTEX
8
Layer 1
10
5.354002
20
28.994100
70
0
0
VERTEX
8
Layer 1
10
6.101727
20
29.567008
70
0
0
VERTEX
8
Layer 1
10
6.357002
20
29.757949
70
0
0
VERTEX
8
Layer 1
10
6.566056
20
30.150825
70
0
0
VERTEX
8
Layer 1
10
6.273109
20
30.949095
70
0
0
VERTEX
8
Layer 1
10
5.879306
20
32.031930
70
0
0
VERTEX
8
Layer 1
10
5.821585
20
32.972493
70
0
0
VERTEX
8
Layer 1
10
6.120080
20
34.431986
70
0
0
VERTEX
8
Layer 1
10
6.498379
20
35.826616
70
0
0
VERTEX
8
Layer 1
10
6.924401
20
37.188811
70
0
0
VERTEX
8
Layer 1
10
7.419724
20
38.615872
70
0
0
VERTEX
8
Layer 1
10
7.804078
20
39.815900
70
0
0
VERTEX
8
Layer 1
10
8.221737
20
41.025080
70
0
0
VERTEX
8
Layer 1
10
8.733263
20
41.876769
70
0
0
VERTEX
8
Layer 1
10
9.563042
20
42.873048
70
0
0
VERTEX
8
Layer 1
10
10.633954
20
44.009542
70
0
0
VERTEX
8
Layer 1
10
11.840487
20
45.121475
70
0
0
VERTEX
8
Layer 1
10
12.968802
20
45.971399
70
0
0
VERTEX
8
Layer 1
10
13.975933
20
46.463182
70
0
0
VERTEX
8
Layer 1
10
15.204280
20
46.818731
70
0
0
VERTEX
8
Layer 1
10
16.618547
20
47.006160
70
0
0
VERTEX
8
Layer 1
10
18.297301
20
47.042220
70
0
0
VERTEX
8
Layer 1
10
19.953198
20
46.916294
70
0
0
VERTEX
8
Layer 1
10
21.161000
20
46.649339
70
0
0
VERTEX
8
Layer 1
10
21.874529
20
46.352210
70
0
0
VERTEX
8
Layer 1
10
22.285736
20
46.048968
70
0
0
VERTEX
8
Layer 1
10
22.561418
20
45.705748
70
0
0
VERTEX
8
Layer 1
10
22.652928
20
45.343128
70
0
0
VERTEX
8
Layer 1
10
22.458222
20
44.772324
70
0
0
VERTEX
8
Layer 1
10
21.879421
20
44.111495
70
0
0
VERTEX
8
Layer 1
10
21.084912
20
43.649682
70
0
0
VERTEX
8
Layer 1
10
20.188005
20
43.328975
70
0
0
VERTEX
8
Layer 1
10
18.890676
20
42.993749
70
0
0
VERTEX
8
Layer 1
10
17.723080
20
42.656525
70
0
0
VERTEX
8
Layer 1
10
17.196499
20
42.401170
70
0
0
VERTEX
8
Layer 1
10
16.956772
20
42.104123
70
0
0
VERTEX
8
Layer 1
10
16.864432
20
41.178093
70
0
0
VERTEX
8
Layer 1
10
16.723906
20
40.205097
70
0
0
VERTEX
8
Layer 1
10
16.353863
20
39.674821
70
0
0
VERTEX
8
Layer 1
10
16.033205
20
39.190857
70
0
0
VERTEX
8
Layer 1
10
16.000875
20
38.865186
70
0
0
VERTEX
8
Layer 1
10
16.896384
20
37.984126
70
0
0
VERTEX
8
Layer 1
10
18.047414
20
37.016847
70
0
0
VERTEX
8
Layer 1
10
18.833441
20
36.452248
70
0
0
VERTEX
8
Layer 1
10
19.579405
20
36.030477
70
0
0
VERTEX
8
Layer 1
10
19.966149
20
36.002877
70
0
0
VERTEX
8
Layer 1
10
20.202328
20
36.237017
70
0
0
VERTEX
8
Layer 1
10
20.382289
20
36.793773
70
0
0
VERTEX
8
Layer 1
10
20.586766
20
37.442436
70
0
0
VERTEX
8
Layer 1
10
20.805271
20
37.875036
70
0
0
VERTEX
8
Layer 1
10
21.256354
20
38.381261
70
0
0
VERTEX
8
Layer 1
10
21.962307
20
38.879320
70
0
0
VERTEX
8
Layer 1
10
22.670600
20
39.105131
70
0
0
VERTEX
8
Layer 1
10
23.409702
20
39.110631
70
0
0
VERTEX
8
Layer 1
10
24.292495
20
38.848879
70
0
0
VERTEX
8
Layer 1
10
24.988724
20
38.648271
70
0
0
VERTEX
8
Layer 1
10
25.846515
20
38.879853
70
0
0
VERTEX
8
Layer 1
10
26.872557
20
39.108559
70
0
0
VERTEX
8
Layer 1
10
27.519098
20
39.004617
70
0
0
VERTEX
8
Layer 1
10
28.095489
20
38.733637
70
0
0
VERTEX
8
Layer 1
10
28.661620
20
38.309135
70
0
0
VERTEX
8
Layer 1
10
29.132873
20
37.750579
70
0
0
VERTEX
8
Layer 1
10
29.526935
20
36.831198
70
0
0
VERTEX
8
Layer 1
10
29.903039
20
36.070154
70
0
0
VERTEX
8
Layer 1
10
30.215729
20
35.924205
70
0
0
VERTEX
8
Layer 1
10
30.895401
20
36.250881
70
0
0
VERTEX
8
Layer 1
10
32.054936
20
37.045494
70
0
0
VERTEX
8
Layer 1
10
33.337471
20
38.165130
70
0
0
VERTEX
8
Layer 1
10
33.905261
20
38.758427
70
0
0
VERTEX
8
Layer 1
10
34.004552
20
39.074648
70
0
0
VERTEX
8
Layer 1
10
33.684659
20
39.770932
70
0
0
VERTEX
8
Layer 1
10
33.252032
20
40.547942
70
0
0
VERTEX
8
Layer 1
10
33.124375
20
41.469961
70
0
0
VERTEX
8
Layer 1
10
33.062905
20
42.168993
70
0
0
VERTEX
8
Layer 1
10
32.743090
20
42.444374
70
0
0
VERTEX
8
Layer 1
10
32.085809
20
42.737024
70
0
0
VERTEX
8
Layer 1
10
31.117996
20
43.002133
70
0
0
VERTEX
8
Layer 1
10
29.853099
20
43.328709
70
0
0
VERTEX
8
Layer 1
10
28.641561
20
43.771020
70
0
0
VERTEX
8
Layer 1
10
27.810054
20
44.320424
70
0
0
VERTEX
8
Layer 1
10
27.416151
20
44.843683
70
0
0
VERTEX
8
Layer 1
10
27.323311
20
45.301407
70
0
0
VERTEX
8
Layer 1
10
27.426626
20
45.754652
70
0
0
VERTEX
8
Layer 1
10
27.832040
20
46.164815
70
0
0
VERTEX
8
Layer 1
10
28.555775
20
46.521563
70
0
0
VERTEX
8
Layer 1
10
29.366605
20
46.782936
70
0
0
VERTEX
8
Layer 1
10
30.339601
20
46.957726
70
0
0
VERTEX
8
Layer 1
10
32.382892
20
47.030786
70
0
0
VERTEX
8
Layer 1
10
34.596491
20
46.893829
70
0
0
VERTEX
8
Layer 1
10
35.782922
20
46.598811
70
0
0
VERTEX
8
Layer 1
10
36.715344
20
46.174647
70
0
0
VERTEX
8
Layer 1
10
37.644321
20
45.590477
70
0
0
VERTEX
8
Layer 1
10
39.111659
20
44.244549
70
0
0
VERTEX
8
Layer 1
10
40.576629
20
42.734856
70
0
0
VERTEX
8
Layer 1
10
41.256399
20
41.891593
70
0
0
VERTEX
8
Layer 1
10
41.679589
20
41.227869
70
0
0
VERTEX
8
Layer 1
10
42.053271
20
40.287306
70
0
0
VERTEX
8
Layer 1
10
42.863834
20
37.837442
70
0
0
VERTEX
8
Layer 1
10
43.641113
20
35.437385
70
0
0
VERTEX
8
Layer 1
10
44.031008
20
34.010322
70
0
0
VERTEX
8
Layer 1
10
44.251942
20
32.711692
70
0
0
VERTEX
8
Layer 1
10
44.126310
20
31.797545
70
0
0
VERTEX
8
Layer 1
10
43.737112
20
30.796850
70
0
0
VERTEX
8
Layer 1
10
43.475048
20
30.113378
70
0
0
VERTEX
8
Layer 1
10
44.075064
20
29.495328
70
0
0
VERTEX
8
Layer 1
10
45.194009
20
28.532607
70
0
0
VERTEX
8
Layer 1
10
46.807514
20
27.006633
70
0
0
VERTEX
8
Layer 1
10
48.299442
20
25.575696
70
0
0
VERTEX
8
Layer 1
10
48.916987
20
24.934672
70
0
0
VERTEX
8
Layer 1
10
49.354059
20
24.355528
70
0
0
VERTEX
8
Layer 1
10
49.699579
20
23.634357
70
0
0
VERTEX
8
Layer 1
10
49.867210
20
22.820867
70
0
0
VERTEX
8
Layer 1
10
49.808750
20
21.903918
70
0
0
VERTEX
8
Layer 1
10
49.471326
20
20.930922
70
0
0
VERTEX
8
Layer 1
10
48.765608
20
19.772145
70
0
0
VERTEX
8
Layer 1
10
47.830460
20
18.417673
70
0
0
VERTEX
8
Layer 1
10
46.678364
20
16.849227
70
0
0
VERTEX
8
Layer 1
10
45.357798
20
15.213691
70
0
0
VERTEX
8
Layer 1
10
44.275868
20
14.101939
70
0
0
VERTEX
8
Layer 1
10
43.248016
20
13.447671
70
0
0
VERTEX
8
Layer 1
10
41.788521
20
12.864065
70
0
0
VERTEX
8
Layer 1
10
40.264162
20
12.204690
70
0
0
VERTEX
8
Layer 1
10
39.128999
20
11.482656
70
0
0
VERTEX
8
Layer 1
10
38.103925
20
10.596990
70
0
0
VERTEX
8
Layer 1
10
37.158422
20
9.523254
70
0
0
VERTEX
8
Layer 1
10
36.380657
20
8.434839
70
0
0
VERTEX
8
Layer 1
10
35.586416
20
7.119346
70
0
0
VERTEX
8
Layer 1
10
34.867932
20
5.677970
70
0
0
VERTEX
8
Layer 1
10
34.136538
20
3.938360
70
0
0
VERTEX
8
Layer 1
10
33.450524
20
2.485510
70
0
0
VERTEX
8
Layer 1
10
32.892240
20
1.800740
70
0
0
VERTEX
8
Layer 1
10
32.208234
20
1.314550
70
0
0
VERTEX
8
Layer 1
10
31.507841
20
1.138730
70
0
0
VERTEX
8
Layer 1
10
30.826470
20
1.283030
70
0
0
VERTEX
8
Layer 1
10
30.155235
20
1.651740
70
0
0
VERTEX
8
Layer 1
10
29.826155
20
1.857260
70
0
0
VERTEX
8
Layer 1
10
29.498974
20
1.431630
70
0
0
VERTEX
8
Layer 1
10
28.795673
20
0.831620
70
0
0
VERTEX
8
Layer 1
10
28.357774
20
0.666294
70
0
0
VERTEX
8
Layer 1
10
27.703061
20
0.636560
70
0
0
VERTEX
8
Layer 1
10
27.026717
20
0.602644
70
0
0
VERTEX
8
Layer 1
10
26.497176
20
0.377230
70
0
0
VERTEX
8
Layer 1
10
25.701652
20
0.122570
70
0
0
VERTEX
8
Layer 1
10
25.180879
20
0.235950
70
0
0
VERTEX
8
Layer 1
10
25.180874
20
0.235980
70
0
0
SEQEND
8
Layer 1
 0 
ENDSEC
 0 
EOF