<?xml version="1.0" encoding="UTF-8" standalone="no"?>
<!-- Created with Inkscape (http://www.inkscape.org/) -->

<svg
   width="46.917683mm"
   height="44.158211mm"
   viewBox="0 0 46.917683 44.158211"
   version="1.1"
   id="svg5"
   inkscape:version="1.2.2 (732a01da63, 2022-12-09)"
   sodipodi:docname="patas.svg"
   xmlns:inkscape="http://www.inkscape.org/namespaces/inkscape"
   xmlns:sodipodi="http://sodipodi.sourceforge.net/DTD/sodipodi-0.dtd"
   xmlns="http://www.w3.org/2000/svg"
   xmlns:svg="http://www.w3.org/2000/svg">
  <sodipodi:namedview
     id="namedview7"
     pagecolor="#505050"
     bordercolor="#ffffff"
     borderopacity="1"
     inkscape:showpageshadow="0"
     inkscape:pageopacity="0"
     inkscape:pagecheckerboard="1"
     inkscape:deskcolor="#505050"
     inkscape:document-units="mm"
     showgrid="false"
     inkscape:zoom="1.6819304"
     inkscape:cx="210.17516"
     inkscape:cy="134.07213"
     inkscape:window-width="1920"
     inkscape:window-height="1111"
     inkscape:window-x="-9"
     inkscape:window-y="-9"
     inkscape:window-maximized="1"
     inkscape:current-layer="layer1" />
  <defs
     id="defs2" />
  <g
     inkscape:label="Capa 1"
     inkscape:groupmode="layer"
     id="layer1"
     transform="translate(57.437656,-59.72174)">
    <path
       id="path355"
       style="fill:#000000;stroke-width:0.0651765"
       d="m -31.094062,59.722376 c -0.03088,0.0012 -0.0506,0.0048 -0.05623,0.01047 -0.05952,0.05984 0.234605,0.266525 0.504555,0.354526 0.228805,0.07464 1.863488,0.331289 2.109735,0.331289 0.298119,0 0.01088,-0.06198 -0.869993,-0.187794 -0.942768,-0.134658 -1.521682,-0.285426 -1.602896,-0.417592 -0.02922,-0.04754 -0.0027,-0.05227 0.08124,-0.01467 0.06842,0.03062 1.221086,0.07265 2.561487,0.09345 1.340248,0.0208 2.466282,0.05673 2.502081,0.07991 0.0358,0.02319 0.556009,0.09083 1.155971,0.150265 0.599803,0.05943 1.219487,0.146973 1.376701,0.19456 0.410646,0.124286 1.096684,0.713769 2.70492,2.324272 1.684595,1.686945 2.138913,2.308024 2.138423,2.923018 -2.46e-4,0.301158 -0.171084,0.597419 -0.481707,0.835696 -0.128147,0.09831 -0.23292,0.213024 -0.23292,0.254947 0,0.04194 0.27865,0.276942 0.619301,0.522149 0.340652,0.245209 0.695098,0.545695 0.787611,0.667689 0.132133,0.174221 0.25704,0.596834 0.582619,1.970257 0.22796,0.961622 0.517033,2.076768 0.642275,2.477851 0.125244,0.401103 0.227716,0.831585 0.227716,0.956596 0,0.277527 -0.09016,0.343481 -0.844859,0.617262 -0.303825,0.110214 -0.90335,0.347049 -1.332278,0.526235 -2.498867,1.043965 -4.660172,2.190351 -6.848737,3.632711 l -0.95694,0.630663 c 2.4e-4,0.0012 4.9e-4,0.0027 7.36e-4,0.0041 0.0045,0.02486 0.0099,0.04735 0.01547,0.072 0.0014,0.0062 0.0028,0.01237 0.0045,0.01851 0.131785,-0.104348 0.433339,-0.303703 1.210668,-0.806206 2.501107,-1.616934 5.039999,-2.904664 7.812658,-3.962724 0.418437,-0.15966 0.822804,-0.331038 0.898553,-0.380955 0.196261,-0.129326 0.169586,-0.443688 -0.116396,-1.37993 -0.131173,-0.4292 -0.357183,-1.282268 -0.50227,-1.895573 -0.44349,-1.874668 -0.570977,-2.329995 -0.706123,-2.520872 -0.07145,-0.100912 -0.424964,-0.3967 -0.785455,-0.657347 l -0.655349,-0.473894 0.290418,-0.249712 c 0.567109,-0.487519 0.602393,-0.996251 0.124268,-1.781438 -0.449551,-0.738021 -2.862588,-3.202158 -4.000769,-4.085284 -0.43158,-0.334855 -0.526267,-0.359092 -2.067085,-0.528915 -0.655416,-0.07226 -1.265003,-0.149826 -1.354363,-0.172347 -0.08936,-0.02253 -1.010333,-0.03684 -2.046143,-0.03191 -1.042755,0.0049 -2.111867,-0.02253 -2.395078,-0.06153 -0.211027,-0.02906 -0.403679,-0.04375 -0.496306,-0.03971 z m -5.979889,0.0053 c -0.02524,0.0012 -0.05296,0.004 -0.08199,0.0087 -0.116167,0.01882 -1.249672,0.0561 -2.518455,0.08286 -1.268859,0.02674 -2.337824,0.0678 -2.375402,0.09116 -0.03759,0.02335 -0.505573,0.07434 -1.039828,0.11324 -1.633849,0.118943 -1.71001,0.141096 -2.36068,0.687474 -0.86185,0.723695 -1.50588,1.348297 -2.518583,2.442491 -1.772793,1.91543 -1.970085,2.456203 -1.160537,3.182306 0.423583,0.379924 0.435059,0.349404 -0.293215,0.786929 -0.23232,0.139581 -0.541332,0.373416 -0.686702,0.519597 -0.253305,0.254745 -0.274531,0.309193 -0.509629,1.308948 -0.43726,1.85944 -0.670137,2.730009 -0.908329,3.396275 -0.278026,0.7777 -0.300602,1.097631 -0.08745,1.238096 0.08113,0.05347 0.600275,0.270776 1.153556,0.482832 2.017681,0.773284 2.426848,0.947785 3.429322,1.462785 1.06102,0.545077 3.030981,1.716731 4.433096,2.636541 0.390283,0.256032 0.708929,0.45382 0.827215,0.517682 9.81e-4,-0.0084 0.0024,-0.0167 0.0041,-0.02502 0.004,-0.01979 0.0085,-0.03308 0.0141,-0.05017 -0.134447,-0.05236 -0.358026,-0.215519 -0.763926,-0.487674 -1.147533,-0.769573 -3.517755,-2.175521 -4.533246,-2.689139 -1.12182,-0.567393 -1.413781,-0.693409 -2.924512,-1.262351 -0.607618,-0.228828 -1.155605,-0.44593 -1.217658,-0.482446 -0.06207,-0.03652 -0.152627,-0.06652 -0.201187,-0.06652 -0.04856,0 -0.140506,-0.05796 -0.20436,-0.128941 -0.151594,-0.168467 -0.103928,-0.478127 0.192302,-1.249586 0.204742,-0.533212 0.402462,-1.271843 0.847398,-3.164308 0.264952,-1.126917 0.271554,-1.147009 0.431822,-1.322865 0.08341,-0.09149 0.361253,-0.305262 0.617396,-0.474913 0.533689,-0.3535 0.801577,-0.557786 0.801577,-0.61139 0,-0.02051 -0.175488,-0.208848 -0.389936,-0.418614 -0.373358,-0.365159 -0.389891,-0.39524 -0.389302,-0.705094 0.0012,-0.593216 0.530478,-1.28878 2.464893,-3.238863 1.28381,-1.294211 2.018313,-1.929247 2.336817,-2.020555 0.128886,-0.03695 0.643778,-0.09629 1.144163,-0.131751 0.500386,-0.03544 1.129217,-0.100081 1.397266,-0.143623 0.283971,-0.04613 1.219916,-0.08243 2.242124,-0.08694 0.965088,-0.0043 1.974048,-0.02844 2.242126,-0.05374 1.002611,-0.09465 -0.09217,0.230424 -1.541967,0.457934 -0.856606,0.134403 -0.934284,0.204577 -0.10269,0.09256 1.280437,-0.172434 2.359539,-0.474773 2.359539,-0.661049 0,-0.02403 -0.05347,-0.03618 -0.129218,-0.03281 z m 8.962282,0.437634 c -0.02257,-9.87e-4 -0.04826,0.0032 -0.07171,0.01265 -0.05184,0.02088 -0.03648,0.03632 0.03921,0.03944 0.06852,0.0029 0.106888,-0.01263 0.0853,-0.03434 -0.01081,-0.01084 -0.03023,-0.0168 -0.05281,-0.01774 z m -0.07578,0.262226 c -0.171713,0.0073 -0.181776,0.01456 -0.05356,0.03881 0.08674,0.0164 0.218341,0.06799 0.29245,0.114645 0.08888,0.05595 0.480155,0.09551 1.149749,0.116302 0.88635,0.02753 1.038781,0.04843 1.202298,0.164815 0.102992,0.07329 0.494425,0.210212 0.869738,0.3041 1.343798,0.336199 1.649349,0.442397 1.875547,0.651729 0.252279,0.233475 1.046143,1.269815 1.395363,1.821526 0.519284,0.820373 1.10481,2.139029 0.949832,2.139029 -0.03193,0 -0.446347,-0.22528 -0.920893,-0.500703 -1.455527,-0.844854 -3.260162,-1.656327 -3.68369,-1.656327 -0.406954,0 0.821758,0.943797 1.992324,1.530449 0.473608,0.237324 0.865554,0.468021 0.871007,0.512702 0.0054,0.04468 0.01285,0.122745 0.01651,0.173499 0.0036,0.05075 0.205257,0.211801 0.447687,0.357845 l 0.441088,0.265543 -0.235331,0.132388 c -0.440306,0.247736 -2.009713,1.312076 -2.759501,1.871314 -1.425715,1.063503 -3.809827,3.085433 -4.991723,4.233631 -0.127961,0.124305 -0.245056,0.228798 -0.316949,0.285332 0.01041,0.007 0.02102,0.01551 0.0316,0.02605 0.0098,0.0098 0.01995,0.01919 0.02982,0.02886 l 0.382696,-0.351973 c 2.943344,-2.707613 5.096698,-4.419401 7.26368,-5.774165 0.33644,-0.210449 0.622233,-0.413707 0.634784,-0.451552 0.01256,-0.03784 -0.153136,-0.168244 -0.368228,-0.289928 -0.241778,-0.136762 -0.391077,-0.264317 -0.391077,-0.333972 0,-0.177491 -0.313246,-0.399302 -1.187957,-0.841185 -0.478987,-0.24198 -1.028782,-0.584091 -1.341923,-0.834938 -0.29178,-0.23373 -0.520914,-0.434733 -0.509123,-0.446571 0.01179,-0.01186 0.259317,0.0517 0.549994,0.141197 0.87037,0.268011 3.906023,1.859994 3.8732,2.03128 -0.0074,0.03809 0.05475,0.05497 0.14077,0.03843 0.131686,-0.02532 0.150755,-0.06195 0.132897,-0.255202 -0.02796,-0.302484 -0.645145,-1.549944 -1.127029,-2.2778 -0.592792,-0.895373 -1.249429,-1.685235 -1.505667,-1.811058 -0.125104,-0.06142 -0.720068,-0.24322 -1.322123,-0.403932 -0.602055,-0.160714 -1.147988,-0.34086 -1.213215,-0.400231 -0.09342,-0.08503 -0.361247,-0.123029 -1.261195,-0.178859 -0.62844,-0.03898 -1.14264,-0.09537 -1.14264,-0.125366 0,-0.03001 -0.09505,-0.05061 -0.211215,-0.0457 z m -11.994814,0.102542 c -0.05124,0.0014 -0.110835,0.0104 -0.16641,0.02643 -0.111143,0.03206 -0.392455,0.0592 -0.625012,0.06038 -0.636799,0.0032 -1.296171,0.104706 -1.421383,0.218691 -0.06133,0.05582 -0.607534,0.223313 -1.213723,0.37227 -0.606173,0.148942 -1.211783,0.331796 -1.345733,0.406358 -0.467767,0.260432 -1.749406,2.059268 -2.325012,3.263121 -0.521794,1.091325 -0.44623,1.14568 0.703711,0.506829 1.410852,-0.783799 2.447936,-1.292579 3.067057,-1.50466 0.327417,-0.112169 0.61007,-0.189166 0.628059,-0.171072 0.018,0.01809 -0.211023,0.228217 -0.508871,0.466872 -0.362867,0.290767 -0.830995,0.574853 -1.418844,0.860973 -0.86217,0.41962 -1.169805,0.624006 -1.169805,0.77697 0,0.04245 -0.178064,0.202693 -0.395648,0.356186 l -0.395646,0.279202 0.834323,0.554833 c 1.470893,0.978425 2.912098,2.055945 4.343737,3.247674 0.822373,0.684567 2.427714,2.134461 2.848986,2.573088 l 0.192682,0.200692 c 0.0056,-0.0046 0.01127,-0.0091 0.01688,-0.01366 0.01891,-0.01567 0.03899,-0.02944 0.05991,-0.04188 l -0.201941,-0.208182 c -0.449773,-0.463933 -2.229418,-2.050802 -3.160603,-2.818209 -1.319208,-1.087181 -3.220844,-2.48382 -4.385877,-3.221245 -0.223071,-0.141209 -0.404991,-0.271569 -0.404279,-0.289544 7.36e-4,-0.01798 0.161142,-0.130009 0.356552,-0.248947 0.232605,-0.141597 0.369648,-0.27334 0.396663,-0.381591 0.03389,-0.135874 0.216372,-0.25204 1.023832,-0.651604 1.066483,-0.527756 2.201065,-1.342333 2.063024,-1.48117 -0.175836,-0.176852 -1.516334,0.376729 -3.341736,1.379933 -1.089159,0.59858 -1.410593,0.741401 -1.410593,0.626835 0,-0.123931 0.760357,-1.613808 1.055438,-2.068046 0.450955,-0.694215 1.369806,-1.853164 1.543238,-1.94651 0.149307,-0.08038 2.118541,-0.587891 2.282999,-0.588409 0.05772,-1.76e-4 0.182931,-0.06208 0.278232,-0.137495 0.198574,-0.157082 0.722941,-0.239403 1.663953,-0.26146 0.645373,-0.01512 0.782686,-0.04171 0.648112,-0.125366 -0.02218,-0.01379 -0.06504,-0.01974 -0.116268,-0.01826 z m -8.660947,5.321974 c -0.02257,-9.88e-4 -0.04826,0.0032 -0.07171,0.01265 -0.05184,0.02088 -0.03649,0.03632 0.03921,0.03944 0.06849,0.0029 0.106891,-0.01263 0.0853,-0.03434 -0.01081,-0.01084 -0.03023,-0.0168 -0.05281,-0.01774 z m 13.240271,0.886537 c -0.0215,0.0086 -0.0744,0.166317 -0.127187,0.384398 -0.06032,0.249238 -0.217773,0.67372 -0.349567,0.943317 -0.266007,0.543532 -0.297699,0.811554 -0.126933,1.073663 0.189828,0.291378 0.278067,0.276237 0.688987,-0.117962 0.210601,-0.202025 0.408061,-0.36742 0.438802,-0.36742 0.03074,0 0.05585,0.161365 0.05585,0.358485 0,0.279881 0.028,0.379509 0.127693,0.45487 0.07021,0.05308 0.171561,0.0852 0.225177,0.07137 0.05362,-0.01384 0.192528,-0.0444 0.308698,-0.06792 0.116167,-0.02352 0.211215,-0.06704 0.211215,-0.09677 0,-0.02973 -0.09931,-0.0234 -0.220608,0.01403 -0.121301,0.03744 -0.29677,0.0488 -0.389934,0.02528 -0.150575,-0.03802 -0.169328,-0.07488 -0.169328,-0.331804 0,-0.158953 0.02924,-0.307283 0.06499,-0.329502 0.130705,-0.08124 0.05973,-0.163412 -0.141148,-0.163412 -0.164886,0 -0.274874,0.07195 -0.549617,0.359505 -0.188894,0.197727 -0.359682,0.359503 -0.379652,0.359503 -0.07446,0 -0.293855,-0.430482 -0.2941,-0.577045 -1.33e-4,-0.0837 0.101078,-0.36405 0.224922,-0.623005 0.228974,-0.478777 0.453812,-1.228686 0.408975,-1.363974 -0.0017,-0.0051 -0.0041,-0.0069 -0.0073,-0.0056 z m -0.192427,0.115792 c -0.0078,0.0058 -0.02015,0.05217 -0.04151,0.142345 -0.07066,0.297949 -0.285931,0.571785 -0.705488,0.897359 -0.595256,0.461946 -0.619903,0.502183 -0.57424,0.93821 0.02177,0.207851 0.05824,0.598512 0.0811,0.868123 l 0.04163,0.490234 -0.333705,0.654285 c -0.28088,0.550988 -0.346265,0.748611 -0.414051,1.253543 -0.02837,0.211283 -0.04722,0.346316 -0.07147,0.443892 0.005,-0.0012 0.01012,-0.0023 0.01511,-0.0033 0.03118,-0.0071 0.06296,-0.0099 0.09469,-0.01302 0.0054,-0.09777 0.02186,-0.259496 0.04709,-0.445934 0.05551,-0.41016 0.143648,-0.666098 0.427634,-1.241034 l 0.357822,-0.724369 -0.09507,-0.740204 c -0.114298,-0.889749 -0.08259,-1.015348 0.333071,-1.314695 0.533457,-0.38418 0.862471,-0.81125 0.850951,-1.104686 -0.0028,-0.07189 -0.0059,-0.106563 -0.01358,-0.100727 z m 3.398856,0.0027 0.0017,0.01379 c 9.84e-4,-2e-4 0.0019,-0.0012 0.0027,-0.0014 z m 0.0046,0.01225 0.09723,0.26082 c 0.09835,0.263772 0.268715,0.444524 0.994131,1.054258 0.379989,0.3194 0.396381,0.39677 0.237363,1.123837 -0.145362,0.664622 -0.126167,0.826252 0.154984,1.303589 0.138858,0.235752 0.299439,0.568779 0.356933,0.740074 0.103251,0.30764 0.251996,1.139709 0.225177,1.242565 0.01882,0.01321 0.03845,0.02529 0.05814,0.03715 0.0071,0.0042 0.0142,0.0083 0.02131,0.01237 -0.02334,-0.05389 -0.02456,-0.116598 -0.01638,-0.216777 0.03189,-0.388578 -0.222338,-1.273707 -0.508746,-1.771224 -0.294508,-0.511598 -0.314549,-0.695865 -0.162726,-1.493811 0.115514,-0.607109 0.07827,-0.738209 -0.29499,-1.039322 -0.619393,-0.499668 -0.867723,-0.757557 -0.984867,-1.022214 -0.07067,-0.159676 -0.133177,-0.235927 -0.177576,-0.231327 z m -0.0029,0.0014 c -0.04067,0.0081 -0.06562,0.08577 -0.06562,0.237073 0,0.220688 0.364636,1.051247 0.585664,1.333847 0.171197,0.218886 0.163126,0.330104 -0.04786,0.657348 -0.163167,0.253074 -0.321554,0.373512 -0.2644,0.201072 0.05557,-0.167672 -0.918674,-0.998913 -1.03437,-0.882549 -0.01864,0.01875 0.04262,0.171667 0.136074,0.339845 0.09346,0.16816 0.169959,0.386075 0.169959,0.484232 v 0.178476 l -0.471246,-0.01161 c -0.259143,-0.0065 -0.515038,-0.03196 -0.568654,-0.05681 -0.08331,-0.0386 -0.09288,0.02377 -0.06575,0.429465 l 0.03173,0.474788 0.01967,-0.392189 0.01955,-0.392187 0.687461,0.01214 c 0.687212,0.01203 0.68734,0.01198 0.549744,-0.116943 -0.0757,-0.07093 -0.137594,-0.184969 -0.137594,-0.253413 0,-0.06843 -0.06143,-0.229071 -0.136454,-0.356953 -0.07838,-0.133621 -0.105443,-0.232605 -0.06359,-0.232605 0.106361,0 0.768566,0.683379 0.794973,0.820376 0.04202,0.218022 0.167494,0.166113 0.371402,-0.153452 0.203279,-0.318603 0.262571,-0.622388 0.136706,-0.700628 -0.129381,-0.08043 -0.580602,-1.072197 -0.614602,-1.350824 z m 12.403675,0.46368 -0.814777,0.807097 c -0.448215,0.443912 -1.139526,1.160097 -1.536336,1.591472 -0.396812,0.43139 -1.032763,1.122653 -1.413261,1.536069 -0.380495,0.413398 -1.190038,1.295896 -1.798878,1.960935 -0.608842,0.665041 -1.310963,1.429639 -1.560249,1.698967 l -0.351599,0.379931 c 0.0081,0.01559 0.01594,0.03126 0.02372,0.04698 0.0088,0.01791 0.01731,0.03594 0.02576,0.054 0.0589,-0.08802 0.155527,-0.202867 0.294102,-0.35057 0.218736,-0.233143 0.883815,-0.954752 1.477995,-1.603473 3.321761,-3.626772 3.911883,-4.260171 4.745348,-5.092945 l 0.913404,-0.912549 0.298036,0.145538 c 0.380652,0.185989 0.932247,0.701433 1.049092,0.980213 0.131119,0.312833 0.34589,2.333229 0.34589,3.253547 0,1.003744 0.0039,0.999178 -1.07232,1.239627 -1.845455,0.412302 -4.910148,1.390495 -7.035965,2.245627 -0.478102,0.192384 -0.789103,0.312705 -0.893473,0.349676 0.01897,0.02449 0.03957,0.04772 0.06105,0.06996 0.01649,0.01712 0.0085,0.0092 0.0236,0.02374 0.0038,0.0038 0.0077,0.0075 0.01118,0.01124 0.64429,-0.435552 5.082109,-1.95311 7.411299,-2.508363 1.672178,-0.398593 1.576068,-0.30192 1.565973,-1.575515 -0.01076,-1.358702 -0.207915,-2.93948 -0.408465,-3.274354 -0.167691,-0.279994 -0.61134,-0.666338 -1.02523,-0.89289 z m -27.944431,0.121368 c -0.322062,-0.01724 -1.325775,0.724389 -1.47355,1.116047 -0.107684,0.28544 -0.272102,1.818106 -0.312127,2.909489 -0.03242,0.884228 -0.02318,1.022858 0.08225,1.224819 0.131574,0.252072 0.194866,0.276137 1.646178,0.624026 1.78401,0.427631 4.801787,1.444005 6.401431,2.156009 0.483212,0.215077 0.735485,0.331322 0.813634,0.372654 0.0051,-0.02965 0.0093,-0.05948 0.01371,-0.08924 1.7e-4,-9.88e-4 2.46e-4,-0.0017 4.92e-4,-0.0027 -0.05494,-0.01542 -0.128547,-0.04788 -0.243027,-0.10494 -1.541236,-0.768173 -5.295914,-2.045974 -7.443921,-2.53326 -0.409599,-0.09293 -0.817822,-0.204046 -0.907184,-0.247032 -0.297411,-0.143069 -0.344791,-0.456155 -0.262368,-1.734075 0.102474,-1.589024 0.242116,-2.544155 0.402374,-2.751311 0.162521,-0.210097 0.588915,-0.554676 0.952117,-0.769436 l 0.279757,-0.165455 0.500112,0.482191 c 0.655733,0.632282 1.808161,1.869907 3.979191,4.273335 0.974179,1.078449 2.044957,2.25856 2.379339,2.622241 0.221439,0.240853 0.407593,0.455883 0.511155,0.58662 0.0076,-0.01142 0.01514,-0.02273 0.02273,-0.03409 0.01739,-0.02543 0.03519,-0.05057 0.05369,-0.07519 -0.325187,-0.31508 -1.783787,-1.895881 -3.097017,-3.361036 -2.052297,-2.289734 -4.006284,-4.354968 -4.244221,-4.485769 -0.01496,-0.0082 -0.03336,-0.01277 -0.05483,-0.01391 z m 16.27318,1.615729 c -0.0069,0.0069 -0.01152,0.02986 -0.01306,0.06791 -0.0028,0.06891 0.01256,0.107512 0.03415,0.08579 0.0216,-0.02172 0.02397,-0.07818 0.0052,-0.125366 -0.01036,-0.02606 -0.01943,-0.03522 -0.02627,-0.02834 z m -0.03236,0.204007 -0.05572,0.284822 c -0.03062,0.156624 -0.09269,0.333122 -0.137973,0.392189 -0.05613,0.07324 -0.0361,0.06785 0.06282,-0.01709 0.10945,-0.09392 0.143357,-0.190314 0.137977,-0.392189 z m -1.66979,0.620965 c -0.06758,0 -0.05861,0.123993 0.01688,0.246264 0.02827,0.04553 0.08445,0.06217 0.124901,0.03702 0.05373,-0.0334 0.05273,-0.05278 -0.0045,-0.07188 -0.04292,-0.01438 -0.07807,-0.0678 -0.07807,-0.118727 0,-0.05093 -0.0267,-0.09268 -0.05928,-0.09268 z m -1.431664,0.130728 c -0.03785,0 -0.06879,0.02941 -0.06879,0.06537 0,0.03594 0.01292,0.06537 0.02869,0.06537 0.01577,0 0.04671,-0.02941 0.0688,-0.06537 0.02208,-0.03596 0.0092,-0.06537 -0.02869,-0.06537 z m -0.674262,9.88e-4 c -0.261271,-0.0012 -0.386288,0.08317 -0.687844,0.464064 -0.17507,0.221134 -0.266432,0.402253 -0.266432,0.528023 0,0.110964 -0.02731,0.174317 -0.06499,0.150899 -0.03574,-0.02221 -0.06499,0.0054 -0.06499,0.06153 0,0.05605 0.02924,0.101876 0.06499,0.101876 0.03575,0 0.06499,-0.03133 0.06499,-0.06971 0,-0.04099 0.05587,-0.05187 0.135565,-0.02643 0.28396,0.09063 0.56481,-0.03122 0.933457,-0.404955 0.531067,-0.538385 0.49328,-0.802344 -0.114746,-0.805312 z m 2.870439,0.0073 c -0.106684,4.93e-4 -0.204431,0.04669 -0.295373,0.138133 -0.153351,0.154392 -0.156934,0.173336 -0.06423,0.35159 0.156056,0.300078 0.452826,0.597515 0.629202,0.630538 0.270005,0.05056 0.324869,0.05006 0.324819,-9.88e-4 -2.5e-5,-0.02696 -0.07937,-0.05357 -0.176434,-0.05924 -0.213953,-0.01251 -0.73337,-0.53603 -0.73337,-0.739054 0,-0.217268 0.26189,-0.299988 0.535781,-0.169283 0.263034,0.125613 0.663643,0.648444 0.608129,0.79395 -0.02139,0.05605 -0.0098,0.08152 0.02666,0.05885 0.13767,-0.08558 0.05141,-0.313041 -0.235712,-0.621729 -0.238897,-0.256856 -0.441907,-0.383556 -0.619557,-0.382867 z m -2.855079,0.05719 c 0.269613,0 0.395137,0.06191 0.395137,0.194944 0,0.133796 -0.412417,0.607182 -0.688351,0.790121 -0.233709,0.154955 -0.53579,0.165035 -0.59125,0.01966 -0.102962,-0.269856 0.543902,-1.004725 0.884464,-1.004725 z m 0.520166,0.588409 c -0.08337,0.01228 -0.319998,0.216393 -0.319998,0.291459 0,0.05962 0.06406,0.03013 0.180754,-0.08324 0.09926,-0.09655 0.173442,-0.186961 0.164502,-0.200818 -0.0045,-0.007 -0.01334,-0.0091 -0.02526,-0.0074 z m 0.950846,0.234265 c -0.0099,-0.015 -0.01714,0.05567 -0.01752,0.190475 -4.9e-4,0.17974 0.01162,0.261043 0.02704,0.180649 0.01552,-0.08039 0.01746,-0.227466 9.82e-4,-0.326824 -0.0037,-0.02484 -0.0073,-0.0393 -0.01053,-0.0443 z m 2.397871,0.182179 c -0.01359,0.0056 -0.01675,0.03669 -0.01232,0.09587 0.007,0.09199 0.03247,0.117605 0.07477,0.07506 0.0423,-0.04254 0.0388,-0.09019 -0.01053,-0.139665 -0.01406,-0.01413 -0.02551,-0.02379 -0.03478,-0.0286 -0.007,-0.0036 -0.0126,-0.0046 -0.01714,-0.0027 z m -1.108878,1.26e-4 c -0.0078,6e-5 -0.01632,0.0027 -0.02526,0.0082 -0.110702,0.06881 -0.07245,0.155289 0.11373,0.256862 0.232532,0.126876 0.282937,0.12336 0.09749,-0.0068 -0.08042,-0.05642 -0.146225,-0.144814 -0.146225,-0.196476 0,-0.03872 -0.01644,-0.06196 -0.03973,-0.06179 z m -2.794532,0.066 c -0.0078,-2.47e-4 -0.01633,0.002 -0.02527,0.0075 -0.03574,0.02221 -0.06499,0.06818 -0.06499,0.102 0,0.03381 0.02925,0.06141 0.06499,0.06141 0.03575,0 0.06499,-0.04583 0.06499,-0.101876 0,-0.04204 -0.01644,-0.06803 -0.03973,-0.06907 z m -1.501859,0.06498 c -0.0069,0.0069 -0.01152,0.02986 -0.01307,0.06792 -0.0028,0.06891 0.01256,0.107514 0.03414,0.08579 0.0216,-0.02172 0.02397,-0.07818 0.0052,-0.125369 -0.01036,-0.02606 -0.01945,-0.03522 -0.02627,-0.02834 z m 20.321292,5.638203 c -0.09629,7.1e-5 -0.205154,0.002 -0.330023,0.0038 -1.434976,0.02159 -3.000173,0.275848 -5.51684,0.896082 -1.235203,0.304401 -1.899677,0.506587 -3.008416,0.915488 -0.346808,0.12795 -0.581827,0.200328 -0.723766,0.223286 0.01022,0.02228 0.02203,0.04377 0.03415,0.06511 l 0.12376,-0.02107 c 0.143043,-0.02431 0.486676,-0.13193 0.763622,-0.239246 0.945618,-0.366391 1.867876,-0.637325 3.395557,-0.997191 2.258817,-0.532122 3.272766,-0.693873 4.629967,-0.73867 l 1.153178,-0.03805 0.30908,0.320311 c 0.170036,0.176142 0.524492,0.57942 0.787611,0.896082 0.26312,0.316672 0.820949,0.890293 1.239745,1.27461 3.119604,2.863097 3.188529,2.935226 3.188529,3.347378 0,0.395191 -0.311242,0.879816 -2.369694,3.69169 -1.877562,2.564778 -1.880153,2.568627 -2.043857,2.894677 -0.214993,0.428192 -0.520599,1.25597 -0.463682,1.25597 0.02782,0 0.11684,-0.183852 0.19776,-0.408529 0.255596,-0.70966 0.553587,-1.234023 1.179834,-2.075323 2.060054,-2.767723 3.037443,-4.149917 3.430714,-4.851913 0.374851,-0.669115 0.249597,-0.876073 -1.483331,-2.451655 -1.817163,-1.651984 -2.551536,-2.37877 -3.139619,-3.107013 -0.621886,-0.769899 -0.680267,-0.856366 -1.354365,-0.855865 z m -34.295732,0.02374 c -1.03385,0 -1.141594,0.05266 -1.802686,0.879356 -0.27259,0.340875 -0.9099,1.010563 -1.416054,1.488065 -0.506154,0.477501 -1.243001,1.172439 -1.637292,1.544238 -0.932681,0.879482 -1.378658,1.360665 -1.528897,1.649559 -0.248775,0.478346 -0.06642,0.81529 1.943202,3.589814 0.481696,0.665038 1.07061,1.459279 1.308539,1.764842 0.715444,0.918798 0.977243,1.349203 1.245585,2.047365 0.140631,0.365894 0.278635,0.689026 0.306666,0.717987 0.02803,0.02896 0.08846,-0.03813 0.134168,-0.149112 0.116344,-0.282468 0.05441,-0.890674 -0.165392,-1.625431 -0.150561,-0.503304 -0.168737,-0.633139 -0.103449,-0.738288 0.06615,-0.106542 0.05546,-0.162075 -0.06511,-0.337036 -0.142349,-0.206596 -0.606901,-0.801403 -0.725291,-0.928635 -0.166352,-0.178741 0.144585,0.307877 0.430807,0.674199 0.27704,0.354549 0.31542,0.436562 0.251962,0.538748 -0.05958,0.09595 -0.03616,0.255624 0.114619,0.782585 0.223812,0.782154 0.289041,1.264397 0.207659,1.534153 -0.05265,0.17453 -0.06417,0.181703 -0.104844,0.06537 -0.424099,-1.212669 -0.5297,-1.394896 -1.730422,-2.986471 -1.486349,-1.970165 -2.636864,-3.613379 -2.91677,-4.165841 -0.199084,-0.392908 -0.152808,-0.70381 0.162346,-1.090641 0.132818,-0.163023 1.020157,-1.028051 1.971761,-1.922126 0.999905,-0.939447 1.971535,-1.917106 2.301781,-2.316101 0.314308,-0.379727 0.649358,-0.74171 0.744455,-0.804418 0.277659,-0.183069 1.51116,-0.191395 2.746808,-0.01851 2.533659,0.354496 5.184573,1.016933 6.920454,1.729352 l 0.61613,0.252905 c -0.0017,-0.03021 -0.0032,-0.06043 -0.005,-0.09064 -1.636589,-0.704688 -3.476641,-1.239636 -5.810953,-1.68634 -1.470955,-0.28149 -2.470197,-0.398953 -3.394921,-0.398953 z m 0.614987,2.157029 c -0.115557,0 -1.468282,0.781481 -2.353573,1.359633 -1.613776,1.053864 -2.471847,1.777666 -2.539907,2.142602 -0.03102,0.166283 0.03932,0.369896 0.35706,1.034087 0.217578,0.454826 0.395645,0.872126 0.395645,0.927232 0,0.05512 0.02892,0.08215 0.06436,0.06013 0.07416,-0.04609 0.03277,-0.152554 -0.453399,-1.166988 l -0.339877,-0.709178 0.110304,-0.246138 c 0.117296,-0.261635 0.318482,-0.448399 1.213595,-1.127409 1.150609,-0.872824 3.285831,-2.143474 3.600805,-2.142733 0.443052,9.89e-4 4.168781,1.34593 6.884788,2.485256 1.448188,0.607496 2.19313,0.954718 2.447122,1.142985 -0.0052,-0.0204 -0.01108,-0.04068 -0.01688,-0.06089 -0.0088,-0.02862 -0.01936,-0.05679 -0.02996,-0.08476 -0.0076,-0.02021 -0.0037,-0.01033 -0.01106,-0.02962 -0.0034,-0.0091 -0.0063,-0.01801 -0.0088,-0.02668 -0.06975,-0.02746 -0.241707,-0.103048 -0.510903,-0.228922 -1.322028,-0.618218 -4.55073,-1.91206 -6.321334,-2.53313 -1.188486,-0.416888 -2.372636,-0.795482 -2.488118,-0.795482 z m 32.721017,0.04698 c -0.25148,-0.01342 -0.747294,0.154899 -2.51503,0.77199 -2.492667,0.870127 -3.577923,1.30056 -5.897765,2.338824 -0.658056,0.294499 -0.942333,0.409122 -1.042493,0.409932 -0.01093,0.02156 -0.02252,0.04281 -0.03401,0.06408 -0.0075,0.0141 -0.01444,0.02841 -0.02184,0.04251 -0.008,0.0213 -0.01558,0.04267 -0.02285,0.06422 -0.0076,0.0224 -0.01395,0.04337 -0.02095,0.06575 0.161894,-0.116819 1.923581,-0.912507 3.433129,-1.548577 1.562102,-0.658175 5.724278,-2.124792 6.030282,-2.124859 0.195112,-4.4e-5 0.426698,0.122414 1.670931,0.884208 1.2654,0.774715 2.581781,1.699346 2.899634,2.036515 0.364584,0.386747 0.359861,0.44924 -0.109415,1.442485 -0.22998,0.486763 -0.418114,0.892325 -0.418114,0.901188 0,0.0088 0.04239,0.03248 0.09419,0.05247 0.05791,0.02236 0.08209,0.0048 0.06296,-0.04532 -0.01711,-0.04484 0.14531,-0.456748 0.36074,-0.915359 0.215527,-0.45861 0.391967,-0.90574 0.391967,-0.99349 0,-0.251868 -0.393333,-0.628534 -1.388382,-1.329631 -0.813425,-0.573171 -2.713792,-1.768054 -3.264688,-2.052854 -0.0676,-0.03493 -0.124344,-0.05962 -0.208169,-0.06409 z m -9.594151,3.923532 c -7.38e-4,0.0048 -0.0017,0.0096 -0.0022,0.01442 -0.0026,0.02023 -0.0022,0.03741 -4.91e-4,0.05757 0.0012,0.01051 0.0032,0.02083 0.0054,0.03116 0.177996,0.0023 1.871754,0.735736 3.112117,1.351718 3.067457,1.52323 5.694923,3.241324 7.459156,4.877319 l 0.375464,0.348141 -0.256404,0.377633 c -0.449814,0.662687 -0.464333,0.670482 -1.512266,0.810675 -0.928094,0.124166 -0.929598,0.124625 -1.547807,0.493171 -0.730746,0.435585 -1.931567,1.359455 -2.562883,1.971659 -1.092127,1.059099 -2.289148,2.819872 -3.257581,4.791653 -0.792401,1.613477 -1.907465,4.682022 -1.933173,5.319802 -0.01308,0.32516 -0.02098,0.3402 -0.127695,0.24397 -0.141359,-0.12747 -0.15113,-0.0638 -0.01167,0.0765 0.164976,0.16593 0.222824,0.12045 0.22302,-0.17516 2.41e-4,-0.40819 0.256529,-1.29787 0.767049,-2.6636 1.13595,-3.038673 2.384396,-5.285496 3.904172,-7.026686 0.635176,-0.72764 2.053448,-1.88048 3.009937,-2.446702 0.613507,-0.363196 0.856018,-0.435342 1.758768,-0.522917 0.468359,-0.04542 0.68394,-0.09713 0.824804,-0.198008 0.177166,-0.126864 0.783298,-0.929457 0.783298,-1.03715 0,-0.125171 -1.276466,-1.259703 -2.047159,-1.819484 -1.76419,-1.2815 -3.737831,-2.470123 -5.784034,-3.483212 -1.166069,-0.577367 -2.698972,-1.250451 -3.038242,-1.334101 -0.07206,-0.01777 -0.114967,-0.03634 -0.141529,-0.05834 z m -13.673485,0.0143 c -0.0024,4.95e-4 -0.0041,0.0025 -0.0068,0.0025 -0.172155,0 -2.506014,1.05491 -3.77407,1.70586 -3.016263,1.548389 -5.584878,3.321804 -6.787302,4.686202 l -0.255895,0.29031 0.158413,0.302055 c 0.221856,0.42309 0.486642,0.709064 0.730237,0.788587 0.114367,0.03735 0.485902,0.0989 0.825439,0.136858 1.116415,0.124786 1.365111,0.244958 2.761786,1.334227 1.794989,1.399895 3.105556,3.040067 4.312765,5.397553 0.810081,1.581995 1.953882,4.634579 2.160253,5.765359 l 0.07997,0.43801 0.174532,-0.12511 c 0.155187,-0.11114 0.179245,-0.18077 0.216798,-0.6276 0.02324,-0.27644 0.04227,-0.63211 0.04227,-0.79037 0,-0.19546 0.04962,-0.36129 0.15511,-0.51743 0.149761,-0.22167 0.152054,-0.24205 0.06309,-0.5847 -0.108926,-0.41954 -0.624518,-1.8471 -0.963541,-2.668076 -0.168629,-0.40836 -0.234892,-0.660523 -0.223527,-0.849739 0.01727,-0.287584 -0.02974,-0.403482 -0.851841,-2.099326 -0.243978,-0.503259 -0.552301,-1.076881 -0.685052,-1.274607 -0.385327,-0.57384 -0.548727,-0.918251 -0.548727,-1.156773 0,-0.122258 -0.04379,-0.307391 -0.09723,-0.411338 -0.182376,-0.354715 -2.19775,-2.00645 -3.791709,-3.107622 l -0.931807,-0.643836 0.444387,-0.225583 c 1.474723,-0.748326 5.113068,-2.249117 6.521001,-2.689991 0.391652,-0.122647 0.702916,-0.227136 0.857425,-0.284184 -0.0073,-0.0095 -0.01439,-0.01927 -0.02143,-0.02898 -0.0098,-0.01453 -0.01866,-0.02948 -0.02691,-0.04467 -0.155508,0.05395 -0.460612,0.157682 -1.004032,0.338311 -0.661217,0.21979 -1.948114,0.707614 -2.859521,1.084005 -1.629547,0.672936 -3.864699,1.684396 -3.981221,1.801609 -0.03588,0.03608 0.126031,0.185674 0.40872,0.377632 0.904641,0.614309 2.377271,1.714675 3.052587,2.280992 1.239091,1.039088 1.288281,1.102507 1.395109,1.79829 0.01957,0.127479 0.216276,0.509893 0.437152,0.849741 0.220877,0.339862 0.574169,0.985604 0.785075,1.434956 0.210923,0.449365 0.486294,1.034134 0.61181,1.299375 0.169491,0.358182 0.218045,0.532942 0.189004,0.679051 -0.02979,0.149834 0.06125,0.448961 0.381684,1.254564 0.231399,0.581769 0.536909,1.406229 0.678575,1.831739 l 0.257927,0.7739 -0.191033,0.23312 c -0.187367,0.22862 -0.191032,0.24779 -0.191032,1.00026 0,0.67657 -0.01403,0.77476 -0.118935,0.83122 -0.10678,0.0575 -0.130957,0.0127 -0.236473,-0.43891 -0.304337,-1.30064 -1.318035,-3.983774 -2.067601,-5.470194 -0.499182,-0.989856 -1.467379,-2.497164 -2.141725,-3.3341 -0.760048,-0.943295 -2.294343,-2.301804 -3.389589,-3.001281 -0.518391,-0.331087 -0.598296,-0.356676 -1.551996,-0.497894 -0.456625,-0.06762 -0.90882,-0.160997 -1.004791,-0.207454 -0.226024,-0.109395 -0.666383,-0.694953 -0.666776,-0.886761 -7.37e-4,-0.33795 1.924362,-1.988928 3.541654,-3.037408 1.120287,-0.726279 1.751704,-1.082575 3.964338,-2.237333 0.711911,-0.371529 2.962571,-1.355888 3.194371,-1.399335 -0.0055,-0.01307 -0.01095,-0.02621 -0.01638,-0.03932 -0.0051,-0.01203 -0.0099,-0.02419 -0.01459,-0.03639 z m 27.494731,1.621474 c -0.0297,0.01151 -0.231984,0.309093 -0.731128,1.060896 -0.518386,0.780797 -0.573615,0.89148 -0.479803,0.960808 0.09729,0.07188 0.09686,0.0912 -0.0155,0.234393 -0.580754,0.745531 -0.740562,0.993241 -0.700537,1.087196 0.06828,0.160252 0.04001,0.365569 -0.129976,0.943062 -0.212091,0.720495 -0.251511,0.990164 -0.191288,1.308949 0.04632,0.245142 0.0553,0.215741 0.09672,-0.318396 0.0251,-0.323524 0.09384,-0.750073 0.152826,-0.947787 0.183777,-0.616043 0.21313,-0.768632 0.18075,-0.938976 -0.03237,-0.1703 0.0891,-0.388778 0.454546,-0.817568 0.271088,-0.318253 0.355914,-0.526227 0.242946,-0.59645 -0.06998,-0.0435 0.02614,-0.227182 0.4336,-0.828676 0.287915,-0.425038 0.572406,-0.875847 0.632121,-1.001658 0.04611,-0.09715 0.06821,-0.151023 0.05471,-0.145793 z m -41.145752,0.14707 c -0.0053,-0.0027 -0.0082,-0.0012 -0.0082,0.0047 0,0.04711 0.268754,0.490987 0.597216,0.986211 0.328459,0.495226 0.611143,0.886413 0.628184,0.869272 0.01704,-0.01714 -0.07328,-0.185564 -0.200805,-0.374315 -0.12751,-0.188732 -0.410335,-0.618616 -0.628312,-0.955062 -0.190731,-0.294401 -0.351041,-0.512474 -0.38816,-0.530832 z m 26.853082,0.915996 c -0.0143,0.02035 -0.02815,0.04095 -0.04113,0.06218 0.05232,0.02119 0.117503,0.04307 0.190905,0.06166 1.361047,0.344665 6.844155,2.589124 7.563745,3.096135 0.133681,0.09417 0.125656,0.104234 -0.27265,0.345972 -1.127207,0.684211 -4.163939,3.053054 -4.363918,3.404189 -0.02984,0.0524 -0.07889,0.270823 -0.109033,0.485254 -0.04155,0.29565 -0.125005,0.497037 -0.345255,0.83327 -0.603423,0.921168 -1.742961,3.398532 -1.690227,3.674457 0.02112,0.110524 -0.109624,0.519112 -0.387015,1.209246 -0.230408,0.57322 -0.540494,1.418518 -0.689115,1.877948 l -0.270237,0.83557 0.156635,0.21027 c 0.136578,0.18331 0.160355,0.29877 0.185446,0.90093 0.01582,0.37988 0.05015,0.72549 0.07629,0.76803 0.02614,0.0425 0.05308,0.0773 0.05991,0.0774 0.0069,5e-5 0.0028,-0.34557 -0.0089,-0.76803 -0.01967,-0.70789 -0.0337,-0.78125 -0.178722,-0.93515 -0.08656,-0.0918 -0.157393,-0.22539 -0.157393,-0.29682 0,-0.19408 0.518064,-1.702263 0.933709,-2.718755 0.239903,-0.586467 0.366071,-0.986875 0.366071,-1.162008 0,-0.182417 0.105543,-0.499959 0.332818,-1.000768 0.483221,-1.064785 1.015263,-2.118643 1.27795,-2.531088 0.330711,-0.519217 0.465772,-0.847502 0.467492,-1.13609 0.0017,-0.284334 0.07384,-0.366983 1.002887,-1.145795 1.183503,-0.992106 2.597759,-2.027739 3.73548,-2.734968 l 0.155237,-0.09651 -0.305016,-0.190858 c -0.37486,-0.234602 -1.620924,-0.816599 -2.962575,-1.3834 -1.833738,-0.774747 -4.128034,-1.613467 -4.723518,-1.742247 z m 10.525704,4.663477 c -0.0069,0.0069 -0.01153,0.02984 -0.01307,0.06792 -0.0028,0.06891 0.01256,0.10751 0.03414,0.08579 0.0216,-0.02172 0.02398,-0.07818 0.0052,-0.125367 -0.01036,-0.02607 -0.01943,-0.03522 -0.02627,-0.02834 z"
       sodipodi:nodetypes="cccssscsssccsssscsssscscsccccscssccccccsssccsssscccsccssccsscsccsscscccccscsssccscccsssssscssscsccssscsccsccccscscccscsssccsssscsssssscscscccscsccscccscccccscscccsssccccssccscssscscssssssssssscscscscccsccscccscccsccccsssccccccssssccccsssscccssssscsccccccccssssscscccsccsccccsccccssccccscccsccscsccscccccsccccccccccssssscssssccccccccscsccssssscsssssscscscccsssccccssssccsssscssscsccccccscsccsccssssscsssssccssccssccccccccccscssssscsccsssssccscssccscccccscccccccccccssscccsccccscscccsccsssscccccsccscssssscsccssccccccccsccccccccccscsccsccsscccccccccccssssssccsscccscccscsccsccccscccsccccccccccccsscsscsssssscsssccssssscsscccccsscssccccssssscssccsccccccscssss" />
  </g>
</svg>
