  0
SECTION
  2
HEADER
  9
$ACADVER
  1
AC1014
  9
$HANDSEED
  5
FFFF
  9
$INSUNITS
 70
     4
  9
$MEASUREMENT
 70
     1
  0
ENDSEC
  0
SECTION
  2
TABLES
  0
TABLE
  2
VPORT
  5
8
330
0
100
AcDbSymbolTable
 70
     4
  0
VPORT
  5
2E
330
8
100
AcDbSymbolTableRecord
100
AcDbViewportTableRecord
  2
*ACTIVE
 70
     0
 10
0.0
 20
0.0
 11
1.0
 21
1.0
 12
210.0
 22
148.5
 13
0.0
 23
0.0
 14
10.0
 24
10.0
 15
10.0
 25
10.0
 16
0.0
 26
0.0
 36
1.0
 17
0.0
 27
0.0
 37
0.0
 40
341.0
 41
1.24
 42
50.0
 43
0.0
 44
0.0
 50
0.0
 51
0.0
 71
     0
 72
   100
 73
     1
 74
     3
 75
     0
 76
     0
 77
     0
 78
     0
  0
ENDTAB
  0
TABLE
  2
LTYPE
  5
5
330
0
100
AcDbSymbolTable
 70
     1
  0
LTYPE
  5
14
330
5
100
AcDbSymbolTableRecord
100
AcDbLinetypeTableRecord
  2
BYBLOCK
 70
     0
  3

 72
    65
 73
     0
 40
0.0
  0
LTYPE
  5
15
330
5
100
AcDbSymbolTableRecord
100
AcDbLinetypeTableRecord
  2
BYLAYER
 70
     0
  3

 72
    65
 73
     0
 40
0.0
  0
LTYPE
  5
16
330
5
100
AcDbSymbolTableRecord
100
AcDbLinetypeTableRecord
  2
CONTINUOUS
 70
     0
  3
Solid line
 72
    65
 73
     0
 40
0.0
  0
ENDTAB
  0
TABLE
  2
LAYER
  5
2
100
AcDbSymbolTable
 70
2
  0
LAYER
  5
50
100
AcDbSymbolTableRecord
100
AcDbLayerTableRecord
  2
0
 70
0
  6
CONTINUOUS
  0
LAYER
  5
51
100
AcDbSymbolTableRecord
100
AcDbLayerTableRecord
  2
Capa_1
 70
0
  6
CONTINUOUS
  0
ENDTAB
  0
TABLE
  2
STYLE
  5
3
330
0
100
AcDbSymbolTable
 70
     1
  0
STYLE
  5
11
330
3
100
AcDbSymbolTableRecord
100
AcDbTextStyleTableRecord
  2
STANDARD
 70
     0
 40
0.0
 41
1.0
 50
0.0
 71
     0
 42
2.5
  3
txt
  4

  0
ENDTAB
  0
TABLE
  2
VIEW
  5
6
330
0
100
AcDbSymbolTable
 70
     0
  0
ENDTAB
  0
TABLE
  2
UCS
  5
7
330
0
100
AcDbSymbolTable
 70
     0
  0
ENDTAB
  0
TABLE
  2
APPID
  5
9
330
0
100
AcDbSymbolTable
 70
     2
  0
APPID
  5
12
330
9
100
AcDbSymbolTableRecord
100
AcDbRegAppTableRecord
  2
ACAD
 70
     0
  0
ENDTAB
  0
TABLE
  2
DIMSTYLE
  5
A
330
0
100
AcDbSymbolTable
 70
     1
  0
DIMSTYLE
105
27
330
A
100
AcDbSymbolTableRecord
100
AcDbDimStyleTableRecord
  2
ISO-25
 70
     0
  3

  4

  5

  6

  7

 40
1.0
 41
2.5
 42
0.625
 43
3.75
 44
1.25
 45
0.0
 46
0.0
 47
0.0
 48
0.0
140
2.5
141
2.5
142
0.0
143
0.03937007874016
144
1.0
145
0.0
146
1.0
147
0.625
 71
     0
 72
     0
 73
     0
 74
     0
 75
     0
 76
     0
 77
     1
 78
     8
170
     0
171
     3
172
     1
173
     0
174
     0
175
     0
176
     0
177
     0
178
     0
270
     2
271
     2
272
     2
273
     2
274
     3
340
11
275
     0
280
     0
281
     0
282
     0
283
     0
284
     8
285
     0
286
     0
287
     3
288
     0
  0
ENDTAB
  0
TABLE
  2
BLOCK_RECORD
  5
1
330
0
100
AcDbSymbolTable
 70
     1
  0
BLOCK_RECORD
  5
1F
330
1
100
AcDbSymbolTableRecord
100
AcDbBlockTableRecord
  2
*MODEL_SPACE
  0
BLOCK_RECORD
  5
1B
330
1
100
AcDbSymbolTableRecord
100
AcDbBlockTableRecord
  2
*PAPER_SPACE
  0
ENDTAB
  0
ENDSEC
  0
SECTION
  2
BLOCKS
  0
BLOCK
  5
20
330
1F
100
AcDbEntity
  8
0
100
AcDbBlockBegin
  2
*MODEL_SPACE
 70
     0
 10
0.0
 20
0.0
 30
0.0
  3
*MODEL_SPACE
  1

  0
ENDBLK
  5
21
330
1F
100
AcDbEntity
  8
0
100
AcDbBlockEnd
  0
BLOCK
  5
1C
330
1B
100
AcDbEntity
 67
     1
  8
0
100
AcDbBlockBegin
  2
*PAPER_SPACE
  1

  0
ENDBLK
  5
1D
330
1B
100
AcDbEntity
 67
     1
  8
0
100
AcDbBlockEnd
  0
ENDSEC
  0
SECTION
  2
ENTITIES
  0
SPLINE
  5
100
100
AcDbEntity
  8
Capa_1
 62
7
100
AcDbSpline
 70
8
 71
3
 72
8
 73
4
 74
0
 40
0
 40
0
 40
0
 40
0
 40
1
 40
1
 40
1
 40
1
 10
26.343638
 20
44.157535
 30
0.0
 10
26.312758
 20
44.156335
 30
0.0
 10
26.293038
 20
44.152735
 30
0.0
 10
26.287408
 20
44.147065
 30
0.0
  0
SPLINE
  5
101
100
AcDbEntity
  8
Capa_1
 62
7
100
AcDbSpline
 70
8
 71
3
 72
8
 73
4
 74
0
 40
0
 40
0
 40
0
 40
0
 40
1
 40
1
 40
1
 40
1
 10
26.287408
 20
44.147065
 30
0.0
 10
26.227888
 20
44.087225
 30
0.0
 10
26.522013
 20
43.880540
 30
0.0
 10
26.791963
 20
43.792539
 30
0.0
  0
SPLINE
  5
102
100
AcDbEntity
  8
Capa_1
 62
7
100
AcDbSpline
 70
8
 71
3
 72
8
 73
4
 74
0
 40
0
 40
0
 40
0
 40
0
 40
1
 40
1
 40
1
 40
1
 10
26.791963
 20
43.792539
 30
0.0
 10
27.020768
 20
43.717899
 30
0.0
 10
28.655451
 20
43.461250
 30
0.0
 10
28.901698
 20
43.461250
 30
0.0
  0
SPLINE
  5
103
100
AcDbEntity
  8
Capa_1
 62
7
100
AcDbSpline
 70
8
 71
3
 72
8
 73
4
 74
0
 40
0
 40
0
 40
0
 40
0
 40
1
 40
1
 40
1
 40
1
 10
28.901698
 20
43.461250
 30
0.0
 10
29.199817
 20
43.461250
 30
0.0
 10
28.912578
 20
43.523230
 30
0.0
 10
28.031705
 20
43.649044
 30
0.0
  0
SPLINE
  5
104
100
AcDbEntity
  8
Capa_1
 62
7
100
AcDbSpline
 70
8
 71
3
 72
8
 73
4
 74
0
 40
0
 40
0
 40
0
 40
0
 40
1
 40
1
 40
1
 40
1
 10
28.031705
 20
43.649044
 30
0.0
 10
27.088937
 20
43.783702
 30
0.0
 10
26.510023
 20
43.934470
 30
0.0
 10
26.428809
 20
44.066636
 30
0.0
  0
SPLINE
  5
105
100
AcDbEntity
  8
Capa_1
 62
7
100
AcDbSpline
 70
8
 71
3
 72
8
 73
4
 74
0
 40
0
 40
0
 40
0
 40
0
 40
1
 40
1
 40
1
 40
1
 10
26.428809
 20
44.066636
 30
0.0
 10
26.399589
 20
44.114176
 30
0.0
 10
26.426109
 20
44.118906
 30
0.0
 10
26.510049
 20
44.081306
 30
0.0
  0
SPLINE
  5
106
100
AcDbEntity
  8
Capa_1
 62
7
100
AcDbSpline
 70
8
 71
3
 72
8
 73
4
 74
0
 40
0
 40
0
 40
0
 40
0
 40
1
 40
1
 40
1
 40
1
 10
26.510049
 20
44.081306
 30
0.0
 10
26.578469
 20
44.050686
 30
0.0
 10
27.731135
 20
44.008656
 30
0.0
 10
29.071536
 20
43.987856
 30
0.0
  0
SPLINE
  5
107
100
AcDbEntity
  8
Capa_1
 62
7
100
AcDbSpline
 70
8
 71
3
 72
8
 73
4
 74
0
 40
0
 40
0
 40
0
 40
0
 40
1
 40
1
 40
1
 40
1
 10
29.071536
 20
43.987856
 30
0.0
 10
30.411784
 20
43.967056
 30
0.0
 10
31.537818
 20
43.931126
 30
0.0
 10
31.573617
 20
43.907946
 30
0.0
  0
SPLINE
  5
108
100
AcDbEntity
  8
Capa_1
 62
7
100
AcDbSpline
 70
8
 71
3
 72
8
 73
4
 74
0
 40
0
 40
0
 40
0
 40
0
 40
1
 40
1
 40
1
 40
1
 10
31.573617
 20
43.907946
 30
0.0
 10
31.609417
 20
43.884756
 30
0.0
 10
32.129626
 20
43.817116
 30
0.0
 10
32.729588
 20
43.757681
 30
0.0
  0
SPLINE
  5
109
100
AcDbEntity
  8
Capa_1
 62
7
100
AcDbSpline
 70
8
 71
3
 72
8
 73
4
 74
0
 40
0
 40
0
 40
0
 40
0
 40
1
 40
1
 40
1
 40
1
 10
32.729588
 20
43.757681
 30
0.0
 10
33.329391
 20
43.698251
 30
0.0
 10
33.949075
 20
43.610708
 30
0.0
 10
34.106289
 20
43.563121
 30
0.0
  0
SPLINE
  5
10a
100
AcDbEntity
  8
Capa_1
 62
7
100
AcDbSpline
 70
8
 71
3
 72
8
 73
4
 74
0
 40
0
 40
0
 40
0
 40
0
 40
1
 40
1
 40
1
 40
1
 10
34.106289
 20
43.563121
 30
0.0
 10
34.516935
 20
43.438835
 30
0.0
 10
35.202973
 20
42.849352
 30
0.0
 10
36.811209
 20
41.238849
 30
0.0
  0
SPLINE
  5
10b
100
AcDbEntity
  8
Capa_1
 62
7
100
AcDbSpline
 70
8
 71
3
 72
8
 73
4
 74
0
 40
0
 40
0
 40
0
 40
0
 40
1
 40
1
 40
1
 40
1
 10
36.811209
 20
41.238849
 30
0.0
 10
38.495804
 20
39.551904
 30
0.0
 10
38.950122
 20
38.930825
 30
0.0
 10
38.949632
 20
38.315831
 30
0.0
  0
SPLINE
  5
10c
100
AcDbEntity
  8
Capa_1
 62
7
100
AcDbSpline
 70
8
 71
3
 72
8
 73
4
 74
0
 40
0
 40
0
 40
0
 40
0
 40
1
 40
1
 40
1
 40
1
 10
38.949632
 20
38.315831
 30
0.0
 10
38.949386
 20
38.014673
 30
0.0
 10
38.778548
 20
37.718412
 30
0.0
 10
38.467925
 20
37.480135
 30
0.0
  0
SPLINE
  5
10d
100
AcDbEntity
  8
Capa_1
 62
7
100
AcDbSpline
 70
8
 71
3
 72
8
 73
4
 74
0
 40
0
 40
0
 40
0
 40
0
 40
1
 40
1
 40
1
 40
1
 10
38.467925
 20
37.480135
 30
0.0
 10
38.339778
 20
37.381825
 30
0.0
 10
38.235005
 20
37.267111
 30
0.0
 10
38.235005
 20
37.225188
 30
0.0
  0
SPLINE
  5
10e
100
AcDbEntity
  8
Capa_1
 62
7
100
AcDbSpline
 70
8
 71
3
 72
8
 73
4
 74
0
 40
0
 40
0
 40
0
 40
0
 40
1
 40
1
 40
1
 40
1
 10
38.235005
 20
37.225188
 30
0.0
 10
38.235005
 20
37.183248
 30
0.0
 10
38.513655
 20
36.948246
 30
0.0
 10
38.854306
 20
36.703039
 30
0.0
  0
SPLINE
  5
10f
100
AcDbEntity
  8
Capa_1
 62
7
100
AcDbSpline
 70
8
 71
3
 72
8
 73
4
 74
0
 40
0
 40
0
 40
0
 40
0
 40
1
 40
1
 40
1
 40
1
 10
38.854306
 20
36.703039
 30
0.0
 10
39.194958
 20
36.457830
 30
0.0
 10
39.549404
 20
36.157344
 30
0.0
 10
39.641917
 20
36.035350
 30
0.0
  0
SPLINE
  5
110
100
AcDbEntity
  8
Capa_1
 62
7
100
AcDbSpline
 70
8
 71
3
 72
8
 73
4
 74
0
 40
0
 40
0
 40
0
 40
0
 40
1
 40
1
 40
1
 40
1
 10
39.641917
 20
36.035350
 30
0.0
 10
39.774050
 20
35.861129
 30
0.0
 10
39.898957
 20
35.438516
 30
0.0
 10
40.224536
 20
34.065093
 30
0.0
  0
SPLINE
  5
111
100
AcDbEntity
  8
Capa_1
 62
7
100
AcDbSpline
 70
8
 71
3
 72
8
 73
4
 74
0
 40
0
 40
0
 40
0
 40
0
 40
1
 40
1
 40
1
 40
1
 10
40.224536
 20
34.065093
 30
0.0
 10
40.452496
 20
33.103471
 30
0.0
 10
40.741569
 20
31.988325
 30
0.0
 10
40.866811
 20
31.587242
 30
0.0
  0
SPLINE
  5
112
100
AcDbEntity
  8
Capa_1
 62
7
100
AcDbSpline
 70
8
 71
3
 72
8
 73
4
 74
0
 40
0
 40
0
 40
0
 40
0
 40
1
 40
1
 40
1
 40
1
 10
40.866811
 20
31.587242
 30
0.0
 10
40.992055
 20
31.186139
 30
0.0
 10
41.094527
 20
30.755657
 30
0.0
 10
41.094527
 20
30.630646
 30
0.0
  0
SPLINE
  5
113
100
AcDbEntity
  8
Capa_1
 62
7
100
AcDbSpline
 70
8
 71
3
 72
8
 73
4
 74
0
 40
0
 40
0
 40
0
 40
0
 40
1
 40
1
 40
1
 40
1
 10
41.094527
 20
30.630646
 30
0.0
 10
41.094527
 20
30.353119
 30
0.0
 10
41.004367
 20
30.287165
 30
0.0
 10
40.249668
 20
30.013384
 30
0.0
  0
SPLINE
  5
114
100
AcDbEntity
  8
Capa_1
 62
7
100
AcDbSpline
 70
8
 71
3
 72
8
 73
4
 74
0
 40
0
 40
0
 40
0
 40
0
 40
1
 40
1
 40
1
 40
1
 10
40.249668
 20
30.013384
 30
0.0
 10
39.945843
 20
29.903170
 30
0.0
 10
39.346318
 20
29.666335
 30
0.0
 10
38.917390
 20
29.487149
 30
0.0
  0
SPLINE
  5
115
100
AcDbEntity
  8
Capa_1
 62
7
100
AcDbSpline
 70
8
 71
3
 72
8
 73
4
 74
0
 40
0
 40
0
 40
0
 40
0
 40
1
 40
1
 40
1
 40
1
 10
38.917390
 20
29.487149
 30
0.0
 10
36.418523
 20
28.443184
 30
0.0
 10
34.257218
 20
27.296798
 30
0.0
 10
32.068653
 20
25.854438
 30
0.0
  0
SPLINE
  5
116
100
AcDbEntity
  8
Capa_1
 62
7
100
AcDbSpline
 70
8
 71
3
 72
8
 73
4
 74
0
 40
0
 40
0
 40
0
 40
0
 40
1
 40
1
 40
1
 40
1
 10
31.111713
 20
25.223775
 30
0.0
 10
31.111953
 20
25.222575
 30
0.0
 10
31.112203
 20
25.221075
 30
0.0
 10
31.112449
 20
25.219675
 30
0.0
  0
SPLINE
  5
117
100
AcDbEntity
  8
Capa_1
 62
7
100
AcDbSpline
 70
8
 71
3
 72
8
 73
4
 74
0
 40
0
 40
0
 40
0
 40
0
 40
1
 40
1
 40
1
 40
1
 10
31.112449
 20
25.219675
 30
0.0
 10
31.116949
 20
25.194815
 30
0.0
 10
31.122349
 20
25.172325
 30
0.0
 10
31.127919
 20
25.147675
 30
0.0
  0
SPLINE
  5
118
100
AcDbEntity
  8
Capa_1
 62
7
100
AcDbSpline
 70
8
 71
3
 72
8
 73
4
 74
0
 40
0
 40
0
 40
0
 40
0
 40
1
 40
1
 40
1
 40
1
 10
31.127919
 20
25.147675
 30
0.0
 10
31.129319
 20
25.141475
 30
0.0
 10
31.130719
 20
25.135305
 30
0.0
 10
31.132419
 20
25.129165
 30
0.0
  0
SPLINE
  5
119
100
AcDbEntity
  8
Capa_1
 62
7
100
AcDbSpline
 70
8
 71
3
 72
8
 73
4
 74
0
 40
0
 40
0
 40
0
 40
0
 40
1
 40
1
 40
1
 40
1
 10
31.132419
 20
25.129165
 30
0.0
 10
31.264204
 20
25.233513
 30
0.0
 10
31.565758
 20
25.432868
 30
0.0
 10
32.343087
 20
25.935371
 30
0.0
  0
SPLINE
  5
11a
100
AcDbEntity
  8
Capa_1
 62
7
100
AcDbSpline
 70
8
 71
3
 72
8
 73
4
 74
0
 40
0
 40
0
 40
0
 40
0
 40
1
 40
1
 40
1
 40
1
 10
32.343087
 20
25.935371
 30
0.0
 10
34.844194
 20
27.552305
 30
0.0
 10
37.383086
 20
28.840035
 30
0.0
 10
40.155745
 20
29.898095
 30
0.0
  0
SPLINE
  5
11b
100
AcDbEntity
  8
Capa_1
 62
7
100
AcDbSpline
 70
8
 71
3
 72
8
 73
4
 74
0
 40
0
 40
0
 40
0
 40
0
 40
1
 40
1
 40
1
 40
1
 10
40.155745
 20
29.898095
 30
0.0
 10
40.574182
 20
30.057755
 30
0.0
 10
40.978549
 20
30.229133
 30
0.0
 10
41.054298
 20
30.279050
 30
0.0
  0
SPLINE
  5
11c
100
AcDbEntity
  8
Capa_1
 62
7
100
AcDbSpline
 70
8
 71
3
 72
8
 73
4
 74
0
 40
0
 40
0
 40
0
 40
0
 40
1
 40
1
 40
1
 40
1
 10
41.054298
 20
30.279050
 30
0.0
 10
41.250559
 20
30.408376
 30
0.0
 10
41.223884
 20
30.722738
 30
0.0
 10
40.937902
 20
31.658980
 30
0.0
  0
SPLINE
  5
11d
100
AcDbEntity
  8
Capa_1
 62
7
100
AcDbSpline
 70
8
 71
3
 72
8
 73
4
 74
0
 40
0
 40
0
 40
0
 40
0
 40
1
 40
1
 40
1
 40
1
 10
40.937902
 20
31.658980
 30
0.0
 10
40.806729
 20
32.088180
 30
0.0
 10
40.580719
 20
32.941248
 30
0.0
 10
40.435632
 20
33.554553
 30
0.0
  0
SPLINE
  5
11e
100
AcDbEntity
  8
Capa_1
 62
7
100
AcDbSpline
 70
8
 71
3
 72
8
 73
4
 74
0
 40
0
 40
0
 40
0
 40
0
 40
1
 40
1
 40
1
 40
1
 10
40.435632
 20
33.554553
 30
0.0
 10
39.992142
 20
35.429221
 30
0.0
 10
39.864655
 20
35.884548
 30
0.0
 10
39.729509
 20
36.075425
 30
0.0
  0
SPLINE
  5
11f
100
AcDbEntity
  8
Capa_1
 62
7
100
AcDbSpline
 70
8
 71
3
 72
8
 73
4
 74
0
 40
0
 40
0
 40
0
 40
0
 40
1
 40
1
 40
1
 40
1
 10
39.729509
 20
36.075425
 30
0.0
 10
39.658059
 20
36.176337
 30
0.0
 10
39.304545
 20
36.472125
 30
0.0
 10
38.944054
 20
36.732772
 30
0.0
  0
LWPOLYLINE
  5
120
100
AcDbEntity
  8
Capa_1
 62
7
100
AcDbPolyline
 90
2
 70
0
 10
32.068653
 20
25.854438
 30
0.0
 10
31.111713
 20
25.223775
 30
0.0
  0
SPLINE
  5
121
100
AcDbEntity
  8
Capa_1
 62
7
100
AcDbSpline
 70
8
 71
3
 72
8
 73
4
 74
0
 40
0
 40
0
 40
0
 40
0
 40
1
 40
1
 40
1
 40
1
 10
38.579123
 20
37.456378
 30
0.0
 10
39.146232
 20
37.943897
 30
0.0
 10
39.181516
 20
38.452629
 30
0.0
 10
38.703391
 20
39.237816
 30
0.0
  0
SPLINE
  5
122
100
AcDbEntity
  8
Capa_1
 62
7
100
AcDbSpline
 70
8
 71
3
 72
8
 73
4
 74
0
 40
0
 40
0
 40
0
 40
0
 40
1
 40
1
 40
1
 40
1
 10
38.703391
 20
39.237816
 30
0.0
 10
38.253840
 20
39.975837
 30
0.0
 10
35.840803
 20
42.439974
 30
0.0
 10
34.702622
 20
43.323100
 30
0.0
  0
SPLINE
  5
123
100
AcDbEntity
  8
Capa_1
 62
7
100
AcDbSpline
 70
8
 71
3
 72
8
 73
4
 74
0
 40
0
 40
0
 40
0
 40
0
 40
1
 40
1
 40
1
 40
1
 10
34.702622
 20
43.323100
 30
0.0
 10
34.271042
 20
43.657955
 30
0.0
 10
34.176355
 20
43.682192
 30
0.0
 10
32.635537
 20
43.852015
 30
0.0
  0
SPLINE
  5
124
100
AcDbEntity
  8
Capa_1
 62
7
100
AcDbSpline
 70
8
 71
3
 72
8
 73
4
 74
0
 40
0
 40
0
 40
0
 40
0
 40
1
 40
1
 40
1
 40
1
 10
32.635537
 20
43.852015
 30
0.0
 10
31.980121
 20
43.924275
 30
0.0
 10
31.370534
 20
44.001841
 30
0.0
 10
31.281174
 20
44.024362
 30
0.0
  0
SPLINE
  5
125
100
AcDbEntity
  8
Capa_1
 62
7
100
AcDbSpline
 70
8
 71
3
 72
8
 73
4
 74
0
 40
0
 40
0
 40
0
 40
0
 40
1
 40
1
 40
1
 40
1
 10
31.281174
 20
44.024362
 30
0.0
 10
31.191814
 20
44.046892
 30
0.0
 10
30.270841
 20
44.061202
 30
0.0
 10
29.235031
 20
44.056272
 30
0.0
  0
SPLINE
  5
126
100
AcDbEntity
  8
Capa_1
 62
7
100
AcDbSpline
 70
8
 71
3
 72
8
 73
4
 74
0
 40
0
 40
0
 40
0
 40
0
 40
1
 40
1
 40
1
 40
1
 10
29.235031
 20
44.056272
 30
0.0
 10
28.192276
 20
44.051372
 30
0.0
 10
27.123164
 20
44.078802
 30
0.0
 10
26.839953
 20
44.117802
 30
0.0
  0
SPLINE
  5
127
100
AcDbEntity
  8
Capa_1
 62
7
100
AcDbSpline
 70
8
 71
3
 72
8
 73
4
 74
0
 40
0
 40
0
 40
0
 40
0
 40
1
 40
1
 40
1
 40
1
 10
26.839953
 20
44.117802
 30
0.0
 10
26.628926
 20
44.146862
 30
0.0
 10
26.436274
 20
44.161552
 30
0.0
 10
26.343647
 20
44.157512
 30
0.0
  0
LWPOLYLINE
  5
128
100
AcDbEntity
  8
Capa_1
 62
7
100
AcDbPolyline
 90
3
 70
0
 10
38.944054
 20
36.732772
 30
0.0
 10
38.288705
 20
37.206666
 30
0.0
 10
38.579123
 20
37.456378
 30
0.0
  0
SPLINE
  5
129
100
AcDbEntity
  8
Capa_1
 62
7
100
AcDbSpline
 70
8
 71
3
 72
8
 73
4
 74
0
 40
0
 40
0
 40
0
 40
0
 40
1
 40
1
 40
1
 40
1
 10
20.363749
 20
44.152235
 30
0.0
 10
20.338509
 20
44.151035
 30
0.0
 10
20.310789
 20
44.148235
 30
0.0
 10
20.281759
 20
44.143535
 30
0.0
  0
SPLINE
  5
12a
100
AcDbEntity
  8
Capa_1
 62
7
100
AcDbSpline
 70
8
 71
3
 72
8
 73
4
 74
0
 40
0
 40
0
 40
0
 40
0
 40
1
 40
1
 40
1
 40
1
 10
20.281759
 20
44.143535
 30
0.0
 10
20.165592
 20
44.124715
 30
0.0
 10
19.032087
 20
44.087435
 30
0.0
 10
17.763304
 20
44.060675
 30
0.0
  0
SPLINE
  5
12b
100
AcDbEntity
  8
Capa_1
 62
7
100
AcDbSpline
 70
8
 71
3
 72
8
 73
4
 74
0
 40
0
 40
0
 40
0
 40
0
 40
1
 40
1
 40
1
 40
1
 10
17.763304
 20
44.060675
 30
0.0
 10
16.494445
 20
44.033935
 30
0.0
 10
15.425480
 20
43.992875
 30
0.0
 10
15.387902
 20
43.969515
 30
0.0
  0
SPLINE
  5
12c
100
AcDbEntity
  8
Capa_1
 62
7
100
AcDbSpline
 70
8
 71
3
 72
8
 73
4
 74
0
 40
0
 40
0
 40
0
 40
0
 40
1
 40
1
 40
1
 40
1
 10
15.387902
 20
43.969515
 30
0.0
 10
15.350312
 20
43.946165
 30
0.0
 10
14.882329
 20
43.895175
 30
0.0
 10
14.348074
 20
43.856275
 30
0.0
  0
SPLINE
  5
12d
100
AcDbEntity
  8
Capa_1
 62
7
100
AcDbSpline
 70
8
 71
3
 72
8
 73
4
 74
0
 40
0
 40
0
 40
0
 40
0
 40
1
 40
1
 40
1
 40
1
 10
14.348074
 20
43.856275
 30
0.0
 10
12.714225
 20
43.737332
 30
0.0
 10
12.638064
 20
43.715179
 30
0.0
 10
11.987394
 20
43.168801
 30
0.0
  0
SPLINE
  5
12e
100
AcDbEntity
  8
Capa_1
 62
7
100
AcDbSpline
 70
8
 71
3
 72
8
 73
4
 74
0
 40
0
 40
0
 40
0
 40
0
 40
1
 40
1
 40
1
 40
1
 10
11.987394
 20
43.168801
 30
0.0
 10
11.125544
 20
42.445106
 30
0.0
 10
10.481514
 20
41.820504
 30
0.0
 10
9.468811
 20
40.726310
 30
0.0
  0
SPLINE
  5
12f
100
AcDbEntity
  8
Capa_1
 62
7
100
AcDbSpline
 70
8
 71
3
 72
8
 73
4
 74
0
 40
0
 40
0
 40
0
 40
0
 40
1
 40
1
 40
1
 40
1
 10
9.468811
 20
40.726310
 30
0.0
 10
7.696018
 20
38.810880
 30
0.0
 10
7.498726
 20
38.270107
 30
0.0
 10
8.308274
 20
37.544004
 30
0.0
  0
SPLINE
  5
130
100
AcDbEntity
  8
Capa_1
 62
7
100
AcDbSpline
 70
8
 71
3
 72
8
 73
4
 74
0
 40
0
 40
0
 40
0
 40
0
 40
1
 40
1
 40
1
 40
1
 10
8.308274
 20
37.544004
 30
0.0
 10
8.731857
 20
37.164080
 30
0.0
 10
8.743333
 20
37.194600
 30
0.0
 10
8.015059
 20
36.757075
 30
0.0
  0
SPLINE
  5
131
100
AcDbEntity
  8
Capa_1
 62
7
100
AcDbSpline
 70
8
 71
3
 72
8
 73
4
 74
0
 40
0
 40
0
 40
0
 40
0
 40
1
 40
1
 40
1
 40
1
 10
8.015059
 20
36.757075
 30
0.0
 10
7.782739
 20
36.617494
 30
0.0
 10
7.473727
 20
36.383659
 30
0.0
 10
7.328357
 20
36.237478
 30
0.0
  0
SPLINE
  5
132
100
AcDbEntity
  8
Capa_1
 62
7
100
AcDbSpline
 70
8
 71
3
 72
8
 73
4
 74
0
 40
0
 40
0
 40
0
 40
0
 40
1
 40
1
 40
1
 40
1
 10
7.328357
 20
36.237478
 30
0.0
 10
7.075052
 20
35.982733
 30
0.0
 10
7.053826
 20
35.928285
 30
0.0
 10
6.818728
 20
34.928530
 30
0.0
  0
SPLINE
  5
133
100
AcDbEntity
  8
Capa_1
 62
7
100
AcDbSpline
 70
8
 71
3
 72
8
 73
4
 74
0
 40
0
 40
0
 40
0
 40
0
 40
1
 40
1
 40
1
 40
1
 10
6.818728
 20
34.928530
 30
0.0
 10
6.381468
 20
33.069090
 30
0.0
 10
6.148591
 20
32.198521
 30
0.0
 10
5.910399
 20
31.532255
 30
0.0
  0
SPLINE
  5
134
100
AcDbEntity
  8
Capa_1
 62
7
100
AcDbSpline
 70
8
 71
3
 72
8
 73
4
 74
0
 40
0
 40
0
 40
0
 40
0
 40
1
 40
1
 40
1
 40
1
 10
5.910399
 20
31.532255
 30
0.0
 10
5.632373
 20
30.754555
 30
0.0
 10
5.609797
 20
30.434624
 30
0.0
 10
5.822949
 20
30.294159
 30
0.0
  0
SPLINE
  5
135
100
AcDbEntity
  8
Capa_1
 62
7
100
AcDbSpline
 70
8
 71
3
 72
8
 73
4
 74
0
 40
0
 40
0
 40
0
 40
0
 40
1
 40
1
 40
1
 40
1
 10
5.822949
 20
30.294159
 30
0.0
 10
5.904079
 20
30.240689
 30
0.0
 10
6.423224
 20
30.023383
 30
0.0
 10
6.976505
 20
29.811327
 30
0.0
  0
SPLINE
  5
136
100
AcDbEntity
  8
Capa_1
 62
7
100
AcDbSpline
 70
8
 71
3
 72
8
 73
4
 74
0
 40
0
 40
0
 40
0
 40
0
 40
1
 40
1
 40
1
 40
1
 10
6.976505
 20
29.811327
 30
0.0
 10
8.994186
 20
29.038043
 30
0.0
 10
9.403353
 20
28.863542
 30
0.0
 10
10.405827
 20
28.348542
 30
0.0
  0
SPLINE
  5
137
100
AcDbEntity
  8
Capa_1
 62
7
100
AcDbSpline
 70
8
 71
3
 72
8
 73
4
 74
0
 40
0
 40
0
 40
0
 40
0
 40
1
 40
1
 40
1
 40
1
 10
10.405827
 20
28.348542
 30
0.0
 10
11.466847
 20
27.803465
 30
0.0
 10
13.436808
 20
26.631811
 30
0.0
 10
14.838923
 20
25.712001
 30
0.0
  0
SPLINE
  5
138
100
AcDbEntity
  8
Capa_1
 62
7
100
AcDbSpline
 70
8
 71
3
 72
8
 73
4
 74
0
 40
0
 40
0
 40
0
 40
0
 40
1
 40
1
 40
1
 40
1
 10
14.838923
 20
25.712001
 30
0.0
 10
15.229206
 20
25.455969
 30
0.0
 10
15.547852
 20
25.258181
 30
0.0
 10
15.666138
 20
25.194319
 30
0.0
  0
SPLINE
  5
139
100
AcDbEntity
  8
Capa_1
 62
7
100
AcDbSpline
 70
8
 71
3
 72
8
 73
4
 74
0
 40
0
 40
0
 40
0
 40
0
 40
1
 40
1
 40
1
 40
1
 10
15.666138
 20
25.194319
 30
0.0
 10
15.667119
 20
25.202719
 30
0.0
 10
15.668538
 20
25.211019
 30
0.0
 10
15.670238
 20
25.219339
 30
0.0
  0
SPLINE
  5
13a
100
AcDbEntity
  8
Capa_1
 62
7
100
AcDbSpline
 70
8
 71
3
 72
8
 73
4
 74
0
 40
0
 40
0
 40
0
 40
0
 40
1
 40
1
 40
1
 40
1
 10
15.670238
 20
25.219339
 30
0.0
 10
15.674238
 20
25.239129
 30
0.0
 10
15.678738
 20
25.252419
 30
0.0
 10
15.684338
 20
25.269509
 30
0.0
  0
SPLINE
  5
13b
100
AcDbEntity
  8
Capa_1
 62
7
100
AcDbSpline
 70
8
 71
3
 72
8
 73
4
 74
0
 40
0
 40
0
 40
0
 40
0
 40
1
 40
1
 40
1
 40
1
 10
15.684338
 20
25.269509
 30
0.0
 10
15.549891
 20
25.321869
 30
0.0
 10
15.326312
 20
25.485028
 30
0.0
 10
14.920412
 20
25.757183
 30
0.0
  0
SPLINE
  5
13c
100
AcDbEntity
  8
Capa_1
 62
7
100
AcDbSpline
 70
8
 71
3
 72
8
 73
4
 74
0
 40
0
 40
0
 40
0
 40
0
 40
1
 40
1
 40
1
 40
1
 10
14.920412
 20
25.757183
 30
0.0
 10
13.772879
 20
26.526756
 30
0.0
 10
11.402657
 20
27.932704
 30
0.0
 10
10.387166
 20
28.446322
 30
0.0
  0
SPLINE
  5
13d
100
AcDbEntity
  8
Capa_1
 62
7
100
AcDbSpline
 70
8
 71
3
 72
8
 73
4
 74
0
 40
0
 40
0
 40
0
 40
0
 40
1
 40
1
 40
1
 40
1
 10
10.387166
 20
28.446322
 30
0.0
 10
9.265346
 20
29.013715
 30
0.0
 10
8.973385
 20
29.139731
 30
0.0
 10
7.462654
 20
29.708673
 30
0.0
  0
SPLINE
  5
13e
100
AcDbEntity
  8
Capa_1
 62
7
100
AcDbSpline
 70
8
 71
3
 72
8
 73
4
 74
0
 40
0
 40
0
 40
0
 40
0
 40
1
 40
1
 40
1
 40
1
 10
7.462654
 20
29.708673
 30
0.0
 10
6.855036
 20
29.937501
 30
0.0
 10
6.307049
 20
30.154603
 30
0.0
 10
6.244996
 20
30.191119
 30
0.0
  0
SPLINE
  5
13f
100
AcDbEntity
  8
Capa_1
 62
7
100
AcDbSpline
 70
8
 71
3
 72
8
 73
4
 74
0
 40
0
 40
0
 40
0
 40
0
 40
1
 40
1
 40
1
 40
1
 10
6.244996
 20
30.191119
 30
0.0
 10
6.182926
 20
30.227639
 30
0.0
 10
6.092369
 20
30.257639
 30
0.0
 10
6.043809
 20
30.257639
 30
0.0
  0
SPLINE
  5
140
100
AcDbEntity
  8
Capa_1
 62
7
100
AcDbSpline
 70
8
 71
3
 72
8
 73
4
 74
0
 40
0
 40
0
 40
0
 40
0
 40
1
 40
1
 40
1
 40
1
 10
6.043809
 20
30.257639
 30
0.0
 10
5.995249
 20
30.257639
 30
0.0
 10
5.903303
 20
30.315599
 30
0.0
 10
5.839449
 20
30.386580
 30
0.0
  0
SPLINE
  5
141
100
AcDbEntity
  8
Capa_1
 62
7
100
AcDbSpline
 70
8
 71
3
 72
8
 73
4
 74
0
 40
0
 40
0
 40
0
 40
0
 40
1
 40
1
 40
1
 40
1
 10
5.839449
 20
30.386580
 30
0.0
 10
5.687855
 20
30.555047
 30
0.0
 10
5.735521
 20
30.864707
 30
0.0
 10
6.031751
 20
31.636166
 30
0.0
  0
SPLINE
  5
142
100
AcDbEntity
  8
Capa_1
 62
7
100
AcDbSpline
 70
8
 71
3
 72
8
 73
4
 74
0
 40
0
 40
0
 40
0
 40
0
 40
1
 40
1
 40
1
 40
1
 10
6.031751
 20
31.636166
 30
0.0
 10
6.236493
 20
32.169378
 30
0.0
 10
6.434213
 20
32.908009
 30
0.0
 10
6.879149
 20
34.800474
 30
0.0
  0
SPLINE
  5
143
100
AcDbEntity
  8
Capa_1
 62
7
100
AcDbSpline
 70
8
 71
3
 72
8
 73
4
 74
0
 40
0
 40
0
 40
0
 40
0
 40
1
 40
1
 40
1
 40
1
 10
6.879149
 20
34.800474
 30
0.0
 10
7.144101
 20
35.927391
 30
0.0
 10
7.150703
 20
35.947483
 30
0.0
 10
7.310971
 20
36.123339
 30
0.0
  0
SPLINE
  5
144
100
AcDbEntity
  8
Capa_1
 62
7
100
AcDbSpline
 70
8
 71
3
 72
8
 73
4
 74
0
 40
0
 40
0
 40
0
 40
0
 40
1
 40
1
 40
1
 40
1
 10
7.310971
 20
36.123339
 30
0.0
 10
7.394381
 20
36.214829
 30
0.0
 10
7.672224
 20
36.428601
 30
0.0
 10
7.928367
 20
36.598252
 30
0.0
  0
SPLINE
  5
145
100
AcDbEntity
  8
Capa_1
 62
7
100
AcDbSpline
 70
8
 71
3
 72
8
 73
4
 74
0
 40
0
 40
0
 40
0
 40
0
 40
1
 40
1
 40
1
 40
1
 10
7.928367
 20
36.598252
 30
0.0
 10
8.462056
 20
36.951752
 30
0.0
 10
8.729944
 20
37.156038
 30
0.0
 10
8.729944
 20
37.209642
 30
0.0
  0
SPLINE
  5
146
100
AcDbEntity
  8
Capa_1
 62
7
100
AcDbSpline
 70
8
 71
3
 72
8
 73
4
 74
0
 40
0
 40
0
 40
0
 40
0
 40
1
 40
1
 40
1
 40
1
 10
8.729944
 20
37.209642
 30
0.0
 10
8.729944
 20
37.230152
 30
0.0
 10
8.554456
 20
37.418490
 30
0.0
 10
8.340008
 20
37.628256
 30
0.0
  0
SPLINE
  5
147
100
AcDbEntity
  8
Capa_1
 62
7
100
AcDbSpline
 70
8
 71
3
 72
8
 73
4
 74
0
 40
0
 40
0
 40
0
 40
0
 40
1
 40
1
 40
1
 40
1
 10
8.340008
 20
37.628256
 30
0.0
 10
7.966650
 20
37.993415
 30
0.0
 10
7.950117
 20
38.023496
 30
0.0
 10
7.950706
 20
38.333350
 30
0.0
  0
SPLINE
  5
148
100
AcDbEntity
  8
Capa_1
 62
7
100
AcDbSpline
 70
8
 71
3
 72
8
 73
4
 74
0
 40
0
 40
0
 40
0
 40
0
 40
1
 40
1
 40
1
 40
1
 10
7.950706
 20
38.333350
 30
0.0
 10
7.951906
 20
38.926566
 30
0.0
 10
8.481184
 20
39.622130
 30
0.0
 10
10.415599
 20
41.572213
 30
0.0
  0
SPLINE
  5
149
100
AcDbEntity
  8
Capa_1
 62
7
100
AcDbSpline
 70
8
 71
3
 72
8
 73
4
 74
0
 40
0
 40
0
 40
0
 40
0
 40
1
 40
1
 40
1
 40
1
 10
10.415599
 20
41.572213
 30
0.0
 10
11.699409
 20
42.866424
 30
0.0
 10
12.433912
 20
43.501460
 30
0.0
 10
12.752416
 20
43.592768
 30
0.0
  0
SPLINE
  5
14a
100
AcDbEntity
  8
Capa_1
 62
7
100
AcDbSpline
 70
8
 71
3
 72
8
 73
4
 74
0
 40
0
 40
0
 40
0
 40
0
 40
1
 40
1
 40
1
 40
1
 10
12.752416
 20
43.592768
 30
0.0
 10
12.881302
 20
43.629718
 30
0.0
 10
13.396194
 20
43.689058
 30
0.0
 10
13.896579
 20
43.724519
 30
0.0
  0
SPLINE
  5
14b
100
AcDbEntity
  8
Capa_1
 62
7
100
AcDbSpline
 70
8
 71
3
 72
8
 73
4
 74
0
 40
0
 40
0
 40
0
 40
0
 40
1
 40
1
 40
1
 40
1
 10
13.896579
 20
43.724519
 30
0.0
 10
14.396965
 20
43.759959
 30
0.0
 10
15.025796
 20
43.824600
 30
0.0
 10
15.293845
 20
43.868142
 30
0.0
  0
SPLINE
  5
14c
100
AcDbEntity
  8
Capa_1
 62
7
100
AcDbSpline
 70
8
 71
3
 72
8
 73
4
 74
0
 40
0
 40
0
 40
0
 40
0
 40
1
 40
1
 40
1
 40
1
 10
15.293845
 20
43.868142
 30
0.0
 10
15.577816
 20
43.914272
 30
0.0
 10
16.513761
 20
43.950572
 30
0.0
 10
17.535969
 20
43.955082
 30
0.0
  0
SPLINE
  5
14d
100
AcDbEntity
  8
Capa_1
 62
7
100
AcDbSpline
 70
8
 71
3
 72
8
 73
4
 74
0
 40
0
 40
0
 40
0
 40
0
 40
1
 40
1
 40
1
 40
1
 10
17.535969
 20
43.955082
 30
0.0
 10
18.501057
 20
43.959382
 30
0.0
 10
19.510017
 20
43.983522
 30
0.0
 10
19.778095
 20
44.008822
 30
0.0
  0
SPLINE
  5
14e
100
AcDbEntity
  8
Capa_1
 62
7
100
AcDbSpline
 70
8
 71
3
 72
8
 73
4
 74
0
 40
0
 40
0
 40
0
 40
0
 40
1
 40
1
 40
1
 40
1
 10
19.778095
 20
44.008822
 30
0.0
 10
20.780706
 20
44.103472
 30
0.0
 10
19.685925
 20
43.778398
 30
0.0
 10
18.236128
 20
43.550888
 30
0.0
  0
SPLINE
  5
14f
100
AcDbEntity
  8
Capa_1
 62
7
100
AcDbSpline
 70
8
 71
3
 72
8
 73
4
 74
0
 40
0
 40
0
 40
0
 40
0
 40
1
 40
1
 40
1
 40
1
 10
18.236128
 20
43.550888
 30
0.0
 10
17.379522
 20
43.416485
 30
0.0
 10
17.301844
 20
43.346311
 30
0.0
 10
18.133438
 20
43.458328
 30
0.0
  0
SPLINE
  5
150
100
AcDbEntity
  8
Capa_1
 62
7
100
AcDbSpline
 70
8
 71
3
 72
8
 73
4
 74
0
 40
0
 40
0
 40
0
 40
0
 40
1
 40
1
 40
1
 40
1
 10
18.133438
 20
43.458328
 30
0.0
 10
19.413875
 20
43.630762
 30
0.0
 10
20.492977
 20
43.933101
 30
0.0
 10
20.492977
 20
44.119377
 30
0.0
  0
SPLINE
  5
151
100
AcDbEntity
  8
Capa_1
 62
7
100
AcDbSpline
 70
8
 71
3
 72
8
 73
4
 74
0
 40
0
 40
0
 40
0
 40
0
 40
1
 40
1
 40
1
 40
1
 10
20.492977
 20
44.119377
 30
0.0
 10
20.492977
 20
44.143407
 30
0.0
 10
20.439507
 20
44.155557
 30
0.0
 10
20.363759
 20
44.152187
 30
0.0
  0
LWPOLYLINE
  5
152
100
AcDbEntity
  8
Capa_1
 62
7
100
AcDbPolyline
 90
1
 70
1
 10
26.343647
 20
44.157512
 30
0.0
  0
SPLINE
  5
153
100
AcDbEntity
  8
Capa_1
 62
7
100
AcDbSpline
 70
8
 71
3
 72
8
 73
4
 74
0
 40
0
 40
0
 40
0
 40
0
 40
1
 40
1
 40
1
 40
1
 10
29.326031
 20
43.714601
 30
0.0
 10
29.303461
 20
43.715588
 30
0.0
 10
29.277771
 20
43.711401
 30
0.0
 10
29.254321
 20
43.701951
 30
0.0
  0
SPLINE
  5
154
100
AcDbEntity
  8
Capa_1
 62
7
100
AcDbSpline
 70
8
 71
3
 72
8
 73
4
 74
0
 40
0
 40
0
 40
0
 40
0
 40
1
 40
1
 40
1
 40
1
 10
29.254321
 20
43.701951
 30
0.0
 10
29.202481
 20
43.681071
 30
0.0
 10
29.217841
 20
43.665631
 30
0.0
 10
29.293531
 20
43.662511
 30
0.0
  0
SPLINE
  5
155
100
AcDbEntity
  8
Capa_1
 62
7
100
AcDbSpline
 70
8
 71
3
 72
8
 73
4
 74
0
 40
0
 40
0
 40
0
 40
0
 40
1
 40
1
 40
1
 40
1
 10
29.293531
 20
43.662511
 30
0.0
 10
29.362051
 20
43.659611
 30
0.0
 10
29.400419
 20
43.675141
 30
0.0
 10
29.378831
 20
43.696851
 30
0.0
  0
SPLINE
  5
156
100
AcDbEntity
  8
Capa_1
 62
7
100
AcDbSpline
 70
8
 71
3
 72
8
 73
4
 74
0
 40
0
 40
0
 40
0
 40
0
 40
1
 40
1
 40
1
 40
1
 10
29.378831
 20
43.696851
 30
0.0
 10
29.368021
 20
43.707691
 30
0.0
 10
29.348601
 20
43.713651
 30
0.0
 10
29.326021
 20
43.714591
 30
0.0
  0
LWPOLYLINE
  5
157
100
AcDbEntity
  8
Capa_1
 62
7
100
AcDbPolyline
 90
1
 70
1
 10
20.363759
 20
44.152187
 30
0.0
  0
SPLINE
  5
158
100
AcDbEntity
  8
Capa_1
 62
7
100
AcDbSpline
 70
8
 71
3
 72
8
 73
4
 74
0
 40
0
 40
0
 40
0
 40
0
 40
1
 40
1
 40
1
 40
1
 10
29.250251
 20
43.452375
 30
0.0
 10
29.078538
 20
43.445075
 30
0.0
 10
29.068475
 20
43.437815
 30
0.0
 10
29.196691
 20
43.413565
 30
0.0
  0
SPLINE
  5
159
100
AcDbEntity
  8
Capa_1
 62
7
100
AcDbSpline
 70
8
 71
3
 72
8
 73
4
 74
0
 40
0
 40
0
 40
0
 40
0
 40
1
 40
1
 40
1
 40
1
 10
29.196691
 20
43.413565
 30
0.0
 10
29.283431
 20
43.397165
 30
0.0
 10
29.415032
 20
43.345575
 30
0.0
 10
29.489141
 20
43.298920
 30
0.0
  0
SPLINE
  5
15a
100
AcDbEntity
  8
Capa_1
 62
7
100
AcDbSpline
 70
8
 71
3
 72
8
 73
4
 74
0
 40
0
 40
0
 40
0
 40
0
 40
1
 40
1
 40
1
 40
1
 10
29.489141
 20
43.298920
 30
0.0
 10
29.578021
 20
43.242970
 30
0.0
 10
29.969296
 20
43.203410
 30
0.0
 10
30.638890
 20
43.182618
 30
0.0
  0
SPLINE
  5
15b
100
AcDbEntity
  8
Capa_1
 62
7
100
AcDbSpline
 70
8
 71
3
 72
8
 73
4
 74
0
 40
0
 40
0
 40
0
 40
0
 40
1
 40
1
 40
1
 40
1
 10
30.638890
 20
43.182618
 30
0.0
 10
31.525240
 20
43.155088
 30
0.0
 10
31.677671
 20
43.134188
 30
0.0
 10
31.841188
 20
43.017803
 30
0.0
  0
SPLINE
  5
15c
100
AcDbEntity
  8
Capa_1
 62
7
100
AcDbSpline
 70
8
 71
3
 72
8
 73
4
 74
0
 40
0
 40
0
 40
0
 40
0
 40
1
 40
1
 40
1
 40
1
 10
31.841188
 20
43.017803
 30
0.0
 10
31.944180
 20
42.944513
 30
0.0
 10
32.335613
 20
42.807591
 30
0.0
 10
32.710926
 20
42.713703
 30
0.0
  0
SPLINE
  5
15d
100
AcDbEntity
  8
Capa_1
 62
7
100
AcDbSpline
 70
8
 71
3
 72
8
 73
4
 74
0
 40
0
 40
0
 40
0
 40
0
 40
1
 40
1
 40
1
 40
1
 10
32.710926
 20
42.713703
 30
0.0
 10
34.054724
 20
42.377504
 30
0.0
 10
34.360275
 20
42.271306
 30
0.0
 10
34.586473
 20
42.061974
 30
0.0
  0
SPLINE
  5
15e
100
AcDbEntity
  8
Capa_1
 62
7
100
AcDbSpline
 70
8
 71
3
 72
8
 73
4
 74
0
 40
0
 40
0
 40
0
 40
0
 40
1
 40
1
 40
1
 40
1
 10
34.586473
 20
42.061974
 30
0.0
 10
34.838752
 20
41.828499
 30
0.0
 10
35.632616
 20
40.792159
 30
0.0
 10
35.981836
 20
40.240448
 30
0.0
  0
SPLINE
  5
15f
100
AcDbEntity
  8
Capa_1
 62
7
100
AcDbSpline
 70
8
 71
3
 72
8
 73
4
 74
0
 40
0
 40
0
 40
0
 40
0
 40
1
 40
1
 40
1
 40
1
 10
35.981836
 20
40.240448
 30
0.0
 10
36.501120
 20
39.420075
 30
0.0
 10
37.086646
 20
38.101419
 30
0.0
 10
36.931668
 20
38.101419
 30
0.0
  0
SPLINE
  5
160
100
AcDbEntity
  8
Capa_1
 62
7
100
AcDbSpline
 70
8
 71
3
 72
8
 73
4
 74
0
 40
0
 40
0
 40
0
 40
0
 40
1
 40
1
 40
1
 40
1
 10
36.931668
 20
38.101419
 30
0.0
 10
36.899738
 20
38.101419
 30
0.0
 10
36.485321
 20
38.326699
 30
0.0
 10
36.010775
 20
38.602122
 30
0.0
  0
SPLINE
  5
161
100
AcDbEntity
  8
Capa_1
 62
7
100
AcDbSpline
 70
8
 71
3
 72
8
 73
4
 74
0
 40
0
 40
0
 40
0
 40
0
 40
1
 40
1
 40
1
 40
1
 10
36.010775
 20
38.602122
 30
0.0
 10
34.555248
 20
39.446976
 30
0.0
 10
32.750613
 20
40.258449
 30
0.0
 10
32.327085
 20
40.258449
 30
0.0
  0
SPLINE
  5
162
100
AcDbEntity
  8
Capa_1
 62
7
100
AcDbSpline
 70
8
 71
3
 72
8
 73
4
 74
0
 40
0
 40
0
 40
0
 40
0
 40
1
 40
1
 40
1
 40
1
 10
32.327085
 20
40.258449
 30
0.0
 10
31.920131
 20
40.258449
 30
0.0
 10
33.148843
 20
39.314652
 30
0.0
 10
34.319409
 20
38.728000
 30
0.0
  0
SPLINE
  5
163
100
AcDbEntity
  8
Capa_1
 62
7
100
AcDbSpline
 70
8
 71
3
 72
8
 73
4
 74
0
 40
0
 40
0
 40
0
 40
0
 40
1
 40
1
 40
1
 40
1
 10
34.319409
 20
38.728000
 30
0.0
 10
34.793017
 20
38.490676
 30
0.0
 10
35.184963
 20
38.259979
 30
0.0
 10
35.190416
 20
38.215298
 30
0.0
  0
SPLINE
  5
164
100
AcDbEntity
  8
Capa_1
 62
7
100
AcDbSpline
 70
8
 71
3
 72
8
 73
4
 74
0
 40
0
 40
0
 40
0
 40
0
 40
1
 40
1
 40
1
 40
1
 10
35.190416
 20
38.215298
 30
0.0
 10
35.195816
 20
38.170618
 30
0.0
 10
35.203266
 20
38.092553
 30
0.0
 10
35.206926
 20
38.041799
 30
0.0
  0
SPLINE
  5
165
100
AcDbEntity
  8
Capa_1
 62
7
100
AcDbSpline
 70
8
 71
3
 72
8
 73
4
 74
0
 40
0
 40
0
 40
0
 40
0
 40
1
 40
1
 40
1
 40
1
 10
35.206926
 20
38.041799
 30
0.0
 10
35.210526
 20
37.991049
 30
0.0
 10
35.412183
 20
37.829998
 30
0.0
 10
35.654613
 20
37.683954
 30
0.0
  0
LWPOLYLINE
  5
166
100
AcDbEntity
  8
Capa_1
 62
7
100
AcDbPolyline
 90
1
 70
1
 10
29.326021
 20
43.714591
 30
0.0
  0
SPLINE
  5
167
100
AcDbEntity
  8
Capa_1
 62
7
100
AcDbSpline
 70
8
 71
3
 72
8
 73
4
 74
0
 40
0
 40
0
 40
0
 40
0
 40
1
 40
1
 40
1
 40
1
 10
35.860370
 20
37.286023
 30
0.0
 10
35.420064
 20
37.038287
 30
0.0
 10
33.850657
 20
35.973947
 30
0.0
 10
33.100869
 20
35.414709
 30
0.0
  0
SPLINE
  5
168
100
AcDbEntity
  8
Capa_1
 62
7
100
AcDbSpline
 70
8
 71
3
 72
8
 73
4
 74
0
 40
0
 40
0
 40
0
 40
0
 40
1
 40
1
 40
1
 40
1
 10
33.100869
 20
35.414709
 30
0.0
 10
31.675154
 20
34.351206
 30
0.0
 10
29.291042
 20
32.329276
 30
0.0
 10
28.109146
 20
31.181078
 30
0.0
  0
SPLINE
  5
169
100
AcDbEntity
  8
Capa_1
 62
7
100
AcDbSpline
 70
8
 71
3
 72
8
 73
4
 74
0
 40
0
 40
0
 40
0
 40
0
 40
1
 40
1
 40
1
 40
1
 10
28.109146
 20
31.181078
 30
0.0
 10
27.981185
 20
31.056773
 30
0.0
 10
27.864090
 20
30.952280
 30
0.0
 10
27.792197
 20
30.895746
 30
0.0
  0
SPLINE
  5
16a
100
AcDbEntity
  8
Capa_1
 62
7
100
AcDbSpline
 70
8
 71
3
 72
8
 73
4
 74
0
 40
0
 40
0
 40
0
 40
0
 40
1
 40
1
 40
1
 40
1
 10
27.792197
 20
30.895746
 30
0.0
 10
27.802607
 20
30.888746
 30
0.0
 10
27.813217
 20
30.880236
 30
0.0
 10
27.823797
 20
30.869696
 30
0.0
  0
SPLINE
  5
16b
100
AcDbEntity
  8
Capa_1
 62
7
100
AcDbSpline
 70
8
 71
3
 72
8
 73
4
 74
0
 40
0
 40
0
 40
0
 40
0
 40
1
 40
1
 40
1
 40
1
 10
27.823797
 20
30.869696
 30
0.0
 10
27.833597
 20
30.859896
 30
0.0
 10
27.843747
 20
30.850506
 30
0.0
 10
27.853617
 20
30.840836
 30
0.0
  0
LWPOLYLINE
  5
16c
100
AcDbEntity
  8
Capa_1
 62
7
100
AcDbPolyline
 90
3
 70
0
 10
35.654613
 20
37.683954
 30
0.0
 10
36.095701
 20
37.418411
 30
0.0
 10
35.860370
 20
37.286023
 30
0.0
  0
SPLINE
  5
16d
100
AcDbEntity
  8
Capa_1
 62
7
100
AcDbSpline
 70
8
 71
3
 72
8
 73
4
 74
0
 40
0
 40
0
 40
0
 40
0
 40
1
 40
1
 40
1
 40
1
 10
28.236313
 20
31.192809
 30
0.0
 10
31.179657
 20
33.900422
 30
0.0
 10
33.333011
 20
35.612210
 30
0.0
 10
35.499993
 20
36.966974
 30
0.0
  0
SPLINE
  5
16e
100
AcDbEntity
  8
Capa_1
 62
7
100
AcDbSpline
 70
8
 71
3
 72
8
 73
4
 74
0
 40
0
 40
0
 40
0
 40
0
 40
1
 40
1
 40
1
 40
1
 10
35.499993
 20
36.966974
 30
0.0
 10
35.836433
 20
37.177423
 30
0.0
 10
36.122226
 20
37.380681
 30
0.0
 10
36.134777
 20
37.418526
 30
0.0
  0
SPLINE
  5
16f
100
AcDbEntity
  8
Capa_1
 62
7
100
AcDbSpline
 70
8
 71
3
 72
8
 73
4
 74
0
 40
0
 40
0
 40
0
 40
0
 40
1
 40
1
 40
1
 40
1
 10
36.134777
 20
37.418526
 30
0.0
 10
36.147337
 20
37.456366
 30
0.0
 10
35.981641
 20
37.586770
 30
0.0
 10
35.766549
 20
37.708454
 30
0.0
  0
SPLINE
  5
170
100
AcDbEntity
  8
Capa_1
 62
7
100
AcDbSpline
 70
8
 71
3
 72
8
 73
4
 74
0
 40
0
 40
0
 40
0
 40
0
 40
1
 40
1
 40
1
 40
1
 10
35.766549
 20
37.708454
 30
0.0
 10
35.524771
 20
37.845216
 30
0.0
 10
35.375472
 20
37.972771
 30
0.0
 10
35.375472
 20
38.042426
 30
0.0
  0
SPLINE
  5
171
100
AcDbEntity
  8
Capa_1
 62
7
100
AcDbSpline
 70
8
 71
3
 72
8
 73
4
 74
0
 40
0
 40
0
 40
0
 40
0
 40
1
 40
1
 40
1
 40
1
 10
35.375472
 20
38.042426
 30
0.0
 10
35.375472
 20
38.219917
 30
0.0
 10
35.062226
 20
38.441728
 30
0.0
 10
34.187515
 20
38.883611
 30
0.0
  0
SPLINE
  5
172
100
AcDbEntity
  8
Capa_1
 62
7
100
AcDbSpline
 70
8
 71
3
 72
8
 73
4
 74
0
 40
0
 40
0
 40
0
 40
0
 40
1
 40
1
 40
1
 40
1
 10
34.187515
 20
38.883611
 30
0.0
 10
33.708528
 20
39.125591
 30
0.0
 10
33.158733
 20
39.467702
 30
0.0
 10
32.845592
 20
39.718549
 30
0.0
  0
SPLINE
  5
173
100
AcDbEntity
  8
Capa_1
 62
7
100
AcDbSpline
 70
8
 71
3
 72
8
 73
4
 74
0
 40
0
 40
0
 40
0
 40
0
 40
1
 40
1
 40
1
 40
1
 10
32.845592
 20
39.718549
 30
0.0
 10
32.553812
 20
39.952279
 30
0.0
 10
32.324678
 20
40.153282
 30
0.0
 10
32.336469
 20
40.165120
 30
0.0
  0
SPLINE
  5
174
100
AcDbEntity
  8
Capa_1
 62
7
100
AcDbSpline
 70
8
 71
3
 72
8
 73
4
 74
0
 40
0
 40
0
 40
0
 40
0
 40
1
 40
1
 40
1
 40
1
 10
32.336469
 20
40.165120
 30
0.0
 10
32.348259
 20
40.176980
 30
0.0
 10
32.595786
 20
40.113420
 30
0.0
 10
32.886463
 20
40.023923
 30
0.0
  0
SPLINE
  5
175
100
AcDbEntity
  8
Capa_1
 62
7
100
AcDbSpline
 70
8
 71
3
 72
8
 73
4
 74
0
 40
0
 40
0
 40
0
 40
0
 40
1
 40
1
 40
1
 40
1
 10
32.886463
 20
40.023923
 30
0.0
 10
33.756833
 20
39.755912
 30
0.0
 10
36.792486
 20
38.163929
 30
0.0
 10
36.759663
 20
37.992643
 30
0.0
  0
SPLINE
  5
176
100
AcDbEntity
  8
Capa_1
 62
7
100
AcDbSpline
 70
8
 71
3
 72
8
 73
4
 74
0
 40
0
 40
0
 40
0
 40
0
 40
1
 40
1
 40
1
 40
1
 10
36.759663
 20
37.992643
 30
0.0
 10
36.752263
 20
37.954553
 30
0.0
 10
36.814413
 20
37.937673
 30
0.0
 10
36.900433
 20
37.954213
 30
0.0
  0
SPLINE
  5
177
100
AcDbEntity
  8
Capa_1
 62
7
100
AcDbSpline
 70
8
 71
3
 72
8
 73
4
 74
0
 40
0
 40
0
 40
0
 40
0
 40
1
 40
1
 40
1
 40
1
 10
36.900433
 20
37.954213
 30
0.0
 10
37.032119
 20
37.979533
 30
0.0
 10
37.051188
 20
38.016163
 30
0.0
 10
37.033330
 20
38.209415
 30
0.0
  0
SPLINE
  5
178
100
AcDbEntity
  8
Capa_1
 62
7
100
AcDbSpline
 70
8
 71
3
 72
8
 73
4
 74
0
 40
0
 40
0
 40
0
 40
0
 40
1
 40
1
 40
1
 40
1
 10
37.033330
 20
38.209415
 30
0.0
 10
37.005370
 20
38.511899
 30
0.0
 10
36.388185
 20
39.759359
 30
0.0
 10
35.906301
 20
40.487215
 30
0.0
  0
SPLINE
  5
179
100
AcDbEntity
  8
Capa_1
 62
7
100
AcDbSpline
 70
8
 71
3
 72
8
 73
4
 74
0
 40
0
 40
0
 40
0
 40
0
 40
1
 40
1
 40
1
 40
1
 10
35.906301
 20
40.487215
 30
0.0
 10
35.313509
 20
41.382588
 30
0.0
 10
34.656872
 20
42.172450
 30
0.0
 10
34.400634
 20
42.298273
 30
0.0
  0
SPLINE
  5
17a
100
AcDbEntity
  8
Capa_1
 62
7
100
AcDbSpline
 70
8
 71
3
 72
8
 73
4
 74
0
 40
0
 40
0
 40
0
 40
0
 40
1
 40
1
 40
1
 40
1
 10
34.400634
 20
42.298273
 30
0.0
 10
34.275530
 20
42.359693
 30
0.0
 10
33.680566
 20
42.541493
 30
0.0
 10
33.078511
 20
42.702205
 30
0.0
  0
SPLINE
  5
17b
100
AcDbEntity
  8
Capa_1
 62
7
100
AcDbSpline
 70
8
 71
3
 72
8
 73
4
 74
0
 40
0
 40
0
 40
0
 40
0
 40
1
 40
1
 40
1
 40
1
 10
33.078511
 20
42.702205
 30
0.0
 10
32.476456
 20
42.862919
 30
0.0
 10
31.930523
 20
43.043065
 30
0.0
 10
31.865296
 20
43.102436
 30
0.0
  0
SPLINE
  5
17c
100
AcDbEntity
  8
Capa_1
 62
7
100
AcDbSpline
 70
8
 71
3
 72
8
 73
4
 74
0
 40
0
 40
0
 40
0
 40
0
 40
1
 40
1
 40
1
 40
1
 10
31.865296
 20
43.102436
 30
0.0
 10
31.771876
 20
43.187466
 30
0.0
 10
31.504049
 20
43.225465
 30
0.0
 10
30.604101
 20
43.281295
 30
0.0
  0
SPLINE
  5
17d
100
AcDbEntity
  8
Capa_1
 62
7
100
AcDbSpline
 70
8
 71
3
 72
8
 73
4
 74
0
 40
0
 40
0
 40
0
 40
0
 40
1
 40
1
 40
1
 40
1
 10
30.604101
 20
43.281295
 30
0.0
 10
29.975661
 20
43.320275
 30
0.0
 10
29.461461
 20
43.376665
 30
0.0
 10
29.461461
 20
43.406661
 30
0.0
  0
SPLINE
  5
17e
100
AcDbEntity
  8
Capa_1
 62
7
100
AcDbSpline
 70
8
 71
3
 72
8
 73
4
 74
0
 40
0
 40
0
 40
0
 40
0
 40
1
 40
1
 40
1
 40
1
 10
29.461461
 20
43.406661
 30
0.0
 10
29.461461
 20
43.436671
 30
0.0
 10
29.366411
 20
43.457271
 30
0.0
 10
29.250246
 20
43.452361
 30
0.0
  0
LWPOLYLINE
  5
17f
100
AcDbEntity
  8
Capa_1
 62
7
100
AcDbPolyline
 90
2
 70
0
 10
27.853617
 20
30.840836
 30
0.0
 10
28.236313
 20
31.192809
 30
0.0
  0
SPLINE
  5
180
100
AcDbEntity
  8
Capa_1
 62
7
100
AcDbSpline
 70
8
 71
3
 72
8
 73
4
 74
0
 40
0
 40
0
 40
0
 40
0
 40
1
 40
1
 40
1
 40
1
 10
17.255437
 20
43.349833
 30
0.0
 10
17.204197
 20
43.348433
 30
0.0
 10
17.144602
 20
43.339433
 30
0.0
 10
17.089027
 20
43.323403
 30
0.0
  0
SPLINE
  5
181
100
AcDbEntity
  8
Capa_1
 62
7
100
AcDbSpline
 70
8
 71
3
 72
8
 73
4
 74
0
 40
0
 40
0
 40
0
 40
0
 40
1
 40
1
 40
1
 40
1
 10
17.089027
 20
43.323403
 30
0.0
 10
16.977884
 20
43.291343
 30
0.0
 10
16.696572
 20
43.264203
 30
0.0
 10
16.464015
 20
43.263023
 30
0.0
  0
SPLINE
  5
182
100
AcDbEntity
  8
Capa_1
 62
7
100
AcDbSpline
 70
8
 71
3
 72
8
 73
4
 74
0
 40
0
 40
0
 40
0
 40
0
 40
1
 40
1
 40
1
 40
1
 10
16.464015
 20
43.263023
 30
0.0
 10
15.827216
 20
43.259823
 30
0.0
 10
15.167844
 20
43.158317
 30
0.0
 10
15.042632
 20
43.044332
 30
0.0
  0
SPLINE
  5
183
100
AcDbEntity
  8
Capa_1
 62
7
100
AcDbSpline
 70
8
 71
3
 72
8
 73
4
 74
0
 40
0
 40
0
 40
0
 40
0
 40
1
 40
1
 40
1
 40
1
 10
15.042632
 20
43.044332
 30
0.0
 10
14.981302
 20
42.988512
 30
0.0
 10
14.435098
 20
42.821019
 30
0.0
 10
13.828909
 20
42.672062
 30
0.0
  0
SPLINE
  5
184
100
AcDbEntity
  8
Capa_1
 62
7
100
AcDbSpline
 70
8
 71
3
 72
8
 73
4
 74
0
 40
0
 40
0
 40
0
 40
0
 40
1
 40
1
 40
1
 40
1
 10
13.828909
 20
42.672062
 30
0.0
 10
13.222736
 20
42.523120
 30
0.0
 10
12.617126
 20
42.340266
 30
0.0
 10
12.483176
 20
42.265704
 30
0.0
  0
SPLINE
  5
185
100
AcDbEntity
  8
Capa_1
 62
7
100
AcDbSpline
 70
8
 71
3
 72
8
 73
4
 74
0
 40
0
 40
0
 40
0
 40
0
 40
1
 40
1
 40
1
 40
1
 10
12.483176
 20
42.265704
 30
0.0
 10
12.015409
 20
42.005272
 30
0.0
 10
10.733770
 20
40.206436
 30
0.0
 10
10.158164
 20
39.002583
 30
0.0
  0
SPLINE
  5
186
100
AcDbEntity
  8
Capa_1
 62
7
100
AcDbSpline
 70
8
 71
3
 72
8
 73
4
 74
0
 40
0
 40
0
 40
0
 40
0
 40
1
 40
1
 40
1
 40
1
 10
10.158164
 20
39.002583
 30
0.0
 10
9.636370
 20
37.911258
 30
0.0
 10
9.711934
 20
37.856903
 30
0.0
 10
10.861875
 20
38.495754
 30
0.0
  0
SPLINE
  5
187
100
AcDbEntity
  8
Capa_1
 62
7
100
AcDbSpline
 70
8
 71
3
 72
8
 73
4
 74
0
 40
0
 40
0
 40
0
 40
0
 40
1
 40
1
 40
1
 40
1
 10
10.861875
 20
38.495754
 30
0.0
 10
12.272727
 20
39.279553
 30
0.0
 10
13.309811
 20
39.788333
 30
0.0
 10
13.928932
 20
40.000414
 30
0.0
  0
SPLINE
  5
188
100
AcDbEntity
  8
Capa_1
 62
7
100
AcDbSpline
 70
8
 71
3
 72
8
 73
4
 74
0
 40
0
 40
0
 40
0
 40
0
 40
1
 40
1
 40
1
 40
1
 10
13.928932
 20
40.000414
 30
0.0
 10
14.256349
 20
40.112583
 30
0.0
 10
14.539002
 20
40.189580
 30
0.0
 10
14.556991
 20
40.171486
 30
0.0
  0
SPLINE
  5
189
100
AcDbEntity
  8
Capa_1
 62
7
100
AcDbSpline
 70
8
 71
3
 72
8
 73
4
 74
0
 40
0
 40
0
 40
0
 40
0
 40
1
 40
1
 40
1
 40
1
 10
14.556991
 20
40.171486
 30
0.0
 10
14.574991
 20
40.153396
 30
0.0
 10
14.345968
 20
39.943269
 30
0.0
 10
14.048120
 20
39.704614
 30
0.0
  0
SPLINE
  5
18a
100
AcDbEntity
  8
Capa_1
 62
7
100
AcDbSpline
 70
8
 71
3
 72
8
 73
4
 74
0
 40
0
 40
0
 40
0
 40
0
 40
1
 40
1
 40
1
 40
1
 10
14.048120
 20
39.704614
 30
0.0
 10
13.685253
 20
39.413847
 30
0.0
 10
13.217125
 20
39.129761
 30
0.0
 10
12.629276
 20
38.843641
 30
0.0
  0
SPLINE
  5
18b
100
AcDbEntity
  8
Capa_1
 62
7
100
AcDbSpline
 70
8
 71
3
 72
8
 73
4
 74
0
 40
0
 40
0
 40
0
 40
0
 40
1
 40
1
 40
1
 40
1
 10
12.629276
 20
38.843641
 30
0.0
 10
11.767106
 20
38.424021
 30
0.0
 10
11.459471
 20
38.219635
 30
0.0
 10
11.459471
 20
38.066671
 30
0.0
  0
SPLINE
  5
18c
100
AcDbEntity
  8
Capa_1
 62
7
100
AcDbSpline
 70
8
 71
3
 72
8
 73
4
 74
0
 40
0
 40
0
 40
0
 40
0
 40
1
 40
1
 40
1
 40
1
 10
11.459471
 20
38.066671
 30
0.0
 10
11.459471
 20
38.024221
 30
0.0
 10
11.281407
 20
37.863978
 30
0.0
 10
11.063823
 20
37.710485
 30
0.0
  0
LWPOLYLINE
  5
18d
100
AcDbEntity
  8
Capa_1
 62
7
100
AcDbPolyline
 90
1
 70
1
 10
29.250246
 20
43.452361
 30
0.0
  0
SPLINE
  5
18e
100
AcDbEntity
  8
Capa_1
 62
7
100
AcDbSpline
 70
8
 71
3
 72
8
 73
4
 74
0
 40
0
 40
0
 40
0
 40
0
 40
1
 40
1
 40
1
 40
1
 10
11.502500
 20
36.876450
 30
0.0
 10
12.973393
 20
35.898025
 30
0.0
 10
14.414598
 20
34.820505
 30
0.0
 10
15.846237
 20
33.628776
 30
0.0
  0
SPLINE
  5
18f
100
AcDbEntity
  8
Capa_1
 62
7
100
AcDbSpline
 70
8
 71
3
 72
8
 73
4
 74
0
 40
0
 40
0
 40
0
 40
0
 40
1
 40
1
 40
1
 40
1
 10
15.846237
 20
33.628776
 30
0.0
 10
16.668610
 20
32.944209
 30
0.0
 10
18.273951
 20
31.494315
 30
0.0
 10
18.695223
 20
31.055688
 30
0.0
  0
LWPOLYLINE
  5
190
100
AcDbEntity
  8
Capa_1
 62
7
100
AcDbPolyline
 90
3
 70
0
 10
11.063823
 20
37.710485
 30
0.0
 10
10.668177
 20
37.431283
 30
0.0
 10
11.502500
 20
36.876450
 30
0.0
  0
SPLINE
  5
191
100
AcDbEntity
  8
Capa_1
 62
7
100
AcDbSpline
 70
8
 71
3
 72
8
 73
4
 74
0
 40
0
 40
0
 40
0
 40
0
 40
1
 40
1
 40
1
 40
1
 10
18.887905
 20
30.854996
 30
0.0
 10
18.893505
 20
30.859596
 30
0.0
 10
18.899175
 20
30.864096
 30
0.0
 10
18.904785
 20
30.868656
 30
0.0
  0
SPLINE
  5
192
100
AcDbEntity
  8
Capa_1
 62
7
100
AcDbSpline
 70
8
 71
3
 72
8
 73
4
 74
0
 40
0
 40
0
 40
0
 40
0
 40
1
 40
1
 40
1
 40
1
 10
18.904785
 20
30.868656
 30
0.0
 10
18.923695
 20
30.884326
 30
0.0
 10
18.943775
 20
30.898096
 30
0.0
 10
18.964695
 20
30.910536
 30
0.0
  0
LWPOLYLINE
  5
193
100
AcDbEntity
  8
Capa_1
 62
7
100
AcDbPolyline
 90
2
 70
0
 10
18.695223
 20
31.055688
 30
0.0
 10
18.887905
 20
30.854996
 30
0.0
  0
SPLINE
  5
194
100
AcDbEntity
  8
Capa_1
 62
7
100
AcDbSpline
 70
8
 71
3
 72
8
 73
4
 74
0
 40
0
 40
0
 40
0
 40
0
 40
1
 40
1
 40
1
 40
1
 10
18.762754
 20
31.118718
 30
0.0
 10
18.312981
 20
31.582651
 30
0.0
 10
16.533336
 20
33.169520
 30
0.0
 10
15.602151
 20
33.936927
 30
0.0
  0
SPLINE
  5
195
100
AcDbEntity
  8
Capa_1
 62
7
100
AcDbSpline
 70
8
 71
3
 72
8
 73
4
 74
0
 40
0
 40
0
 40
0
 40
0
 40
1
 40
1
 40
1
 40
1
 10
15.602151
 20
33.936927
 30
0.0
 10
14.282943
 20
35.024108
 30
0.0
 10
12.381307
 20
36.420747
 30
0.0
 10
11.216274
 20
37.158172
 30
0.0
  0
SPLINE
  5
196
100
AcDbEntity
  8
Capa_1
 62
7
100
AcDbSpline
 70
8
 71
3
 72
8
 73
4
 74
0
 40
0
 40
0
 40
0
 40
0
 40
1
 40
1
 40
1
 40
1
 10
11.216274
 20
37.158172
 30
0.0
 10
10.993203
 20
37.299381
 30
0.0
 10
10.811283
 20
37.429741
 30
0.0
 10
10.811995
 20
37.447716
 30
0.0
  0
SPLINE
  5
197
100
AcDbEntity
  8
Capa_1
 62
7
100
AcDbSpline
 70
8
 71
3
 72
8
 73
4
 74
0
 40
0
 40
0
 40
0
 40
0
 40
1
 40
1
 40
1
 40
1
 10
10.811995
 20
37.447716
 30
0.0
 10
10.812731
 20
37.465696
 30
0.0
 10
10.973137
 20
37.577725
 30
0.0
 10
11.168547
 20
37.696663
 30
0.0
  0
SPLINE
  5
198
100
AcDbEntity
  8
Capa_1
 62
7
100
AcDbSpline
 70
8
 71
3
 72
8
 73
4
 74
0
 40
0
 40
0
 40
0
 40
0
 40
1
 40
1
 40
1
 40
1
 10
11.168547
 20
37.696663
 30
0.0
 10
11.401152
 20
37.838260
 30
0.0
 10
11.538195
 20
37.970003
 30
0.0
 10
11.565210
 20
38.078254
 30
0.0
  0
SPLINE
  5
199
100
AcDbEntity
  8
Capa_1
 62
7
100
AcDbSpline
 70
8
 71
3
 72
8
 73
4
 74
0
 40
0
 40
0
 40
0
 40
0
 40
1
 40
1
 40
1
 40
1
 10
11.565210
 20
38.078254
 30
0.0
 10
11.599100
 20
38.214128
 30
0.0
 10
11.781582
 20
38.330294
 30
0.0
 10
12.589042
 20
38.729858
 30
0.0
  0
SPLINE
  5
19a
100
AcDbEntity
  8
Capa_1
 62
7
100
AcDbSpline
 70
8
 71
3
 72
8
 73
4
 74
0
 40
0
 40
0
 40
0
 40
0
 40
1
 40
1
 40
1
 40
1
 10
12.589042
 20
38.729858
 30
0.0
 10
13.655525
 20
39.257614
 30
0.0
 10
14.790107
 20
40.072191
 30
0.0
 10
14.652066
 20
40.211028
 30
0.0
  0
SPLINE
  5
19b
100
AcDbEntity
  8
Capa_1
 62
7
100
AcDbSpline
 70
8
 71
3
 72
8
 73
4
 74
0
 40
0
 40
0
 40
0
 40
0
 40
1
 40
1
 40
1
 40
1
 10
14.652066
 20
40.211028
 30
0.0
 10
14.476230
 20
40.387880
 30
0.0
 10
13.135732
 20
39.834299
 30
0.0
 10
11.310330
 20
38.831095
 30
0.0
  0
SPLINE
  5
19c
100
AcDbEntity
  8
Capa_1
 62
7
100
AcDbSpline
 70
8
 71
3
 72
8
 73
4
 74
0
 40
0
 40
0
 40
0
 40
0
 40
1
 40
1
 40
1
 40
1
 10
11.310330
 20
38.831095
 30
0.0
 10
10.221171
 20
38.232515
 30
0.0
 10
9.899737
 20
38.089694
 30
0.0
 10
9.899737
 20
38.204260
 30
0.0
  0
SPLINE
  5
19d
100
AcDbEntity
  8
Capa_1
 62
7
100
AcDbSpline
 70
8
 71
3
 72
8
 73
4
 74
0
 40
0
 40
0
 40
0
 40
0
 40
1
 40
1
 40
1
 40
1
 10
9.899737
 20
38.204260
 30
0.0
 10
9.899737
 20
38.328191
 30
0.0
 10
10.660094
 20
39.818068
 30
0.0
 10
10.955175
 20
40.272306
 30
0.0
  0
SPLINE
  5
19e
100
AcDbEntity
  8
Capa_1
 62
7
100
AcDbSpline
 70
8
 71
3
 72
8
 73
4
 74
0
 40
0
 40
0
 40
0
 40
0
 40
1
 40
1
 40
1
 40
1
 10
10.955175
 20
40.272306
 30
0.0
 10
11.406130
 20
40.966521
 30
0.0
 10
12.324981
 20
42.125470
 30
0.0
 10
12.498413
 20
42.218816
 30
0.0
  0
SPLINE
  5
19f
100
AcDbEntity
  8
Capa_1
 62
7
100
AcDbSpline
 70
8
 71
3
 72
8
 73
4
 74
0
 40
0
 40
0
 40
0
 40
0
 40
1
 40
1
 40
1
 40
1
 10
12.498413
 20
42.218816
 30
0.0
 10
12.647720
 20
42.299196
 30
0.0
 10
14.616954
 20
42.806707
 30
0.0
 10
14.781412
 20
42.807225
 30
0.0
  0
SPLINE
  5
1a0
100
AcDbEntity
  8
Capa_1
 62
7
100
AcDbSpline
 70
8
 71
3
 72
8
 73
4
 74
0
 40
0
 40
0
 40
0
 40
0
 40
1
 40
1
 40
1
 40
1
 10
14.781412
 20
42.807225
 30
0.0
 10
14.839132
 20
42.807401
 30
0.0
 10
14.964343
 20
42.869305
 30
0.0
 10
15.059644
 20
42.944720
 30
0.0
  0
SPLINE
  5
1a1
100
AcDbEntity
  8
Capa_1
 62
7
100
AcDbSpline
 70
8
 71
3
 72
8
 73
4
 74
0
 40
0
 40
0
 40
0
 40
0
 40
1
 40
1
 40
1
 40
1
 10
15.059644
 20
42.944720
 30
0.0
 10
15.258218
 20
43.101802
 30
0.0
 10
15.782585
 20
43.184123
 30
0.0
 10
16.723597
 20
43.206180
 30
0.0
  0
SPLINE
  5
1a2
100
AcDbEntity
  8
Capa_1
 62
7
100
AcDbSpline
 70
8
 71
3
 72
8
 73
4
 74
0
 40
0
 40
0
 40
0
 40
0
 40
1
 40
1
 40
1
 40
1
 10
16.723597
 20
43.206180
 30
0.0
 10
17.368970
 20
43.221300
 30
0.0
 10
17.506283
 20
43.247890
 30
0.0
 10
17.371709
 20
43.331546
 30
0.0
  0
SPLINE
  5
1a3
100
AcDbEntity
  8
Capa_1
 62
7
100
AcDbSpline
 70
8
 71
3
 72
8
 73
4
 74
0
 40
0
 40
0
 40
0
 40
0
 40
1
 40
1
 40
1
 40
1
 10
17.371709
 20
43.331546
 30
0.0
 10
17.349529
 20
43.345336
 30
0.0
 10
17.306669
 20
43.351286
 30
0.0
 10
17.255441
 20
43.349806
 30
0.0
  0
LWPOLYLINE
  5
1a4
100
AcDbEntity
  8
Capa_1
 62
7
100
AcDbPolyline
 90
2
 70
0
 10
18.964695
 20
30.910536
 30
0.0
 10
18.762754
 20
31.118718
 30
0.0
  0
SPLINE
  5
1a5
100
AcDbEntity
  8
Capa_1
 62
7
100
AcDbSpline
 70
8
 71
3
 72
8
 73
4
 74
0
 40
0
 40
0
 40
0
 40
0
 40
1
 40
1
 40
1
 40
1
 10
8.594490
 20
38.027859
 30
0.0
 10
8.571920
 20
38.028847
 30
0.0
 10
8.546230
 20
38.024659
 30
0.0
 10
8.522780
 20
38.015209
 30
0.0
  0
SPLINE
  5
1a6
100
AcDbEntity
  8
Capa_1
 62
7
100
AcDbSpline
 70
8
 71
3
 72
8
 73
4
 74
0
 40
0
 40
0
 40
0
 40
0
 40
1
 40
1
 40
1
 40
1
 10
8.522780
 20
38.015209
 30
0.0
 10
8.470940
 20
37.994329
 30
0.0
 10
8.486290
 20
37.978889
 30
0.0
 10
8.561990
 20
37.975769
 30
0.0
  0
SPLINE
  5
1a7
100
AcDbEntity
  8
Capa_1
 62
7
100
AcDbSpline
 70
8
 71
3
 72
8
 73
4
 74
0
 40
0
 40
0
 40
0
 40
0
 40
1
 40
1
 40
1
 40
1
 10
8.561990
 20
37.975769
 30
0.0
 10
8.630480
 20
37.972869
 30
0.0
 10
8.668881
 20
37.988399
 30
0.0
 10
8.647290
 20
38.010109
 30
0.0
  0
SPLINE
  5
1a8
100
AcDbEntity
  8
Capa_1
 62
7
100
AcDbSpline
 70
8
 71
3
 72
8
 73
4
 74
0
 40
0
 40
0
 40
0
 40
0
 40
1
 40
1
 40
1
 40
1
 10
8.647290
 20
38.010109
 30
0.0
 10
8.636480
 20
38.020949
 30
0.0
 10
8.617060
 20
38.026909
 30
0.0
 10
8.594480
 20
38.027849
 30
0.0
  0
LWPOLYLINE
  5
1a9
100
AcDbEntity
  8
Capa_1
 62
7
100
AcDbPolyline
 90
1
 70
1
 10
17.255441
 20
43.349806
 30
0.0
  0
SPLINE
  5
1aa
100
AcDbEntity
  8
Capa_1
 62
7
100
AcDbSpline
 70
8
 71
3
 72
8
 73
4
 74
0
 40
0
 40
0
 40
0
 40
0
 40
1
 40
1
 40
1
 40
1
 10
21.834761
 20
37.141322
 30
0.0
 10
21.813261
 20
37.132722
 30
0.0
 10
21.760361
 20
36.975005
 30
0.0
 10
21.707574
 20
36.756924
 30
0.0
  0
SPLINE
  5
1ab
100
AcDbEntity
  8
Capa_1
 62
7
100
AcDbSpline
 70
8
 71
3
 72
8
 73
4
 74
0
 40
0
 40
0
 40
0
 40
0
 40
1
 40
1
 40
1
 40
1
 10
21.707574
 20
36.756924
 30
0.0
 10
21.647254
 20
36.507686
 30
0.0
 10
21.489801
 20
36.083204
 30
0.0
 10
21.358007
 20
35.813607
 30
0.0
  0
SPLINE
  5
1ac
100
AcDbEntity
  8
Capa_1
 62
7
100
AcDbSpline
 70
8
 71
3
 72
8
 73
4
 74
0
 40
0
 40
0
 40
0
 40
0
 40
1
 40
1
 40
1
 40
1
 10
21.358007
 20
35.813607
 30
0.0
 10
21.092000
 20
35.270075
 30
0.0
 10
21.060308
 20
35.002053
 30
0.0
 10
21.231074
 20
34.739944
 30
0.0
  0
SPLINE
  5
1ad
100
AcDbEntity
  8
Capa_1
 62
7
100
AcDbSpline
 70
8
 71
3
 72
8
 73
4
 74
0
 40
0
 40
0
 40
0
 40
0
 40
1
 40
1
 40
1
 40
1
 10
21.231074
 20
34.739944
 30
0.0
 10
21.420902
 20
34.448566
 30
0.0
 10
21.509141
 20
34.463707
 30
0.0
 10
21.920061
 20
34.857906
 30
0.0
  0
SPLINE
  5
1ae
100
AcDbEntity
  8
Capa_1
 62
7
100
AcDbSpline
 70
8
 71
3
 72
8
 73
4
 74
0
 40
0
 40
0
 40
0
 40
0
 40
1
 40
1
 40
1
 40
1
 10
21.920061
 20
34.857906
 30
0.0
 10
22.130662
 20
35.059931
 30
0.0
 10
22.328122
 20
35.225326
 30
0.0
 10
22.358863
 20
35.225326
 30
0.0
  0
SPLINE
  5
1af
100
AcDbEntity
  8
Capa_1
 62
7
100
AcDbSpline
 70
8
 71
3
 72
8
 73
4
 74
0
 40
0
 40
0
 40
0
 40
0
 40
1
 40
1
 40
1
 40
1
 10
22.358863
 20
35.225326
 30
0.0
 10
22.389603
 20
35.225326
 30
0.0
 10
22.414713
 20
35.063961
 30
0.0
 10
22.414713
 20
34.866841
 30
0.0
  0
SPLINE
  5
1b0
100
AcDbEntity
  8
Capa_1
 62
7
100
AcDbSpline
 70
8
 71
3
 72
8
 73
4
 74
0
 40
0
 40
0
 40
0
 40
0
 40
1
 40
1
 40
1
 40
1
 10
22.414713
 20
34.866841
 30
0.0
 10
22.414713
 20
34.586960
 30
0.0
 10
22.442713
 20
34.487332
 30
0.0
 10
22.542406
 20
34.411971
 30
0.0
  0
SPLINE
  5
1b1
100
AcDbEntity
  8
Capa_1
 62
7
100
AcDbSpline
 70
8
 71
3
 72
8
 73
4
 74
0
 40
0
 40
0
 40
0
 40
0
 40
1
 40
1
 40
1
 40
1
 10
22.542406
 20
34.411971
 30
0.0
 10
22.612616
 20
34.358891
 30
0.0
 10
22.713967
 20
34.326771
 30
0.0
 10
22.767583
 20
34.340601
 30
0.0
  0
SPLINE
  5
1b2
100
AcDbEntity
  8
Capa_1
 62
7
100
AcDbSpline
 70
8
 71
3
 72
8
 73
4
 74
0
 40
0
 40
0
 40
0
 40
0
 40
1
 40
1
 40
1
 40
1
 10
22.767583
 20
34.340601
 30
0.0
 10
22.821203
 20
34.354441
 30
0.0
 10
22.960111
 20
34.385001
 30
0.0
 10
23.076281
 20
34.408521
 30
0.0
  0
SPLINE
  5
1b3
100
AcDbEntity
  8
Capa_1
 62
7
100
AcDbSpline
 70
8
 71
3
 72
8
 73
4
 74
0
 40
0
 40
0
 40
0
 40
0
 40
1
 40
1
 40
1
 40
1
 10
23.076281
 20
34.408521
 30
0.0
 10
23.192448
 20
34.432041
 30
0.0
 10
23.287496
 20
34.475561
 30
0.0
 10
23.287496
 20
34.505291
 30
0.0
  0
SPLINE
  5
1b4
100
AcDbEntity
  8
Capa_1
 62
7
100
AcDbSpline
 70
8
 71
3
 72
8
 73
4
 74
0
 40
0
 40
0
 40
0
 40
0
 40
1
 40
1
 40
1
 40
1
 10
23.287496
 20
34.505291
 30
0.0
 10
23.287496
 20
34.535021
 30
0.0
 10
23.188186
 20
34.528691
 30
0.0
 10
23.066888
 20
34.491261
 30
0.0
  0
SPLINE
  5
1b5
100
AcDbEntity
  8
Capa_1
 62
7
100
AcDbSpline
 70
8
 71
3
 72
8
 73
4
 74
0
 40
0
 40
0
 40
0
 40
0
 40
1
 40
1
 40
1
 40
1
 10
23.066888
 20
34.491261
 30
0.0
 10
22.945587
 20
34.453821
 30
0.0
 10
22.770118
 20
34.442461
 30
0.0
 10
22.676954
 20
34.465981
 30
0.0
  0
SPLINE
  5
1b6
100
AcDbEntity
  8
Capa_1
 62
7
100
AcDbSpline
 70
8
 71
3
 72
8
 73
4
 74
0
 40
0
 40
0
 40
0
 40
0
 40
1
 40
1
 40
1
 40
1
 10
22.676954
 20
34.465981
 30
0.0
 10
22.526379
 20
34.504001
 30
0.0
 10
22.507626
 20
34.540861
 30
0.0
 10
22.507626
 20
34.797785
 30
0.0
  0
SPLINE
  5
1b7
100
AcDbEntity
  8
Capa_1
 62
7
100
AcDbSpline
 70
8
 71
3
 72
8
 73
4
 74
0
 40
0
 40
0
 40
0
 40
0
 40
1
 40
1
 40
1
 40
1
 10
22.507626
 20
34.797785
 30
0.0
 10
22.507626
 20
34.956738
 30
0.0
 10
22.536866
 20
35.105068
 30
0.0
 10
22.572616
 20
35.127287
 30
0.0
  0
SPLINE
  5
1b8
100
AcDbEntity
  8
Capa_1
 62
7
100
AcDbSpline
 70
8
 71
3
 72
8
 73
4
 74
0
 40
0
 40
0
 40
0
 40
0
 40
1
 40
1
 40
1
 40
1
 10
22.572616
 20
35.127287
 30
0.0
 10
22.703321
 20
35.208527
 30
0.0
 10
22.632346
 20
35.290699
 30
0.0
 10
22.431468
 20
35.290699
 30
0.0
  0
SPLINE
  5
1b9
100
AcDbEntity
  8
Capa_1
 62
7
100
AcDbSpline
 70
8
 71
3
 72
8
 73
4
 74
0
 40
0
 40
0
 40
0
 40
0
 40
1
 40
1
 40
1
 40
1
 10
22.431468
 20
35.290699
 30
0.0
 10
22.266582
 20
35.290699
 30
0.0
 10
22.156594
 20
35.218749
 30
0.0
 10
21.881851
 20
34.931194
 30
0.0
  0
SPLINE
  5
1ba
100
AcDbEntity
  8
Capa_1
 62
7
100
AcDbSpline
 70
8
 71
3
 72
8
 73
4
 74
0
 40
0
 40
0
 40
0
 40
0
 40
1
 40
1
 40
1
 40
1
 10
21.881851
 20
34.931194
 30
0.0
 10
21.692957
 20
34.733467
 30
0.0
 10
21.522169
 20
34.571691
 30
0.0
 10
21.502199
 20
34.571691
 30
0.0
  0
SPLINE
  5
1bb
100
AcDbEntity
  8
Capa_1
 62
7
100
AcDbSpline
 70
8
 71
3
 72
8
 73
4
 74
0
 40
0
 40
0
 40
0
 40
0
 40
1
 40
1
 40
1
 40
1
 10
21.502199
 20
34.571691
 30
0.0
 10
21.427739
 20
34.571691
 30
0.0
 10
21.208344
 20
35.002173
 30
0.0
 10
21.208099
 20
35.148736
 30
0.0
  0
SPLINE
  5
1bc
100
AcDbEntity
  8
Capa_1
 62
7
100
AcDbSpline
 70
8
 71
3
 72
8
 73
4
 74
0
 40
0
 40
0
 40
0
 40
0
 40
1
 40
1
 40
1
 40
1
 10
21.208099
 20
35.148736
 30
0.0
 10
21.207966
 20
35.232436
 30
0.0
 10
21.309177
 20
35.512786
 30
0.0
 10
21.433021
 20
35.771741
 30
0.0
  0
SPLINE
  5
1bd
100
AcDbEntity
  8
Capa_1
 62
7
100
AcDbSpline
 70
8
 71
3
 72
8
 73
4
 74
0
 40
0
 40
0
 40
0
 40
0
 40
1
 40
1
 40
1
 40
1
 10
21.433021
 20
35.771741
 30
0.0
 10
21.661995
 20
36.250518
 30
0.0
 10
21.886833
 20
37.000427
 30
0.0
 10
21.841996
 20
37.135715
 30
0.0
  0
SPLINE
  5
1be
100
AcDbEntity
  8
Capa_1
 62
7
100
AcDbSpline
 70
8
 71
3
 72
8
 73
4
 74
0
 40
0
 40
0
 40
0
 40
0
 40
1
 40
1
 40
1
 40
1
 10
21.841996
 20
37.135715
 30
0.0
 10
21.840296
 20
37.140815
 30
0.0
 10
21.837896
 20
37.142615
 30
0.0
 10
21.834696
 20
37.141315
 30
0.0
  0
LWPOLYLINE
  5
1bf
100
AcDbEntity
  8
Capa_1
 62
7
100
AcDbPolyline
 90
1
 70
1
 10
8.594480
 20
38.027849
 30
0.0
  0
SPLINE
  5
1c0
100
AcDbEntity
  8
Capa_1
 62
7
100
AcDbSpline
 70
8
 71
3
 72
8
 73
4
 74
0
 40
0
 40
0
 40
0
 40
0
 40
1
 40
1
 40
1
 40
1
 10
21.642334
 20
37.025530
 30
0.0
 10
21.634534
 20
37.019730
 30
0.0
 10
21.622184
 20
36.973360
 30
0.0
 10
21.600824
 20
36.883185
 30
0.0
  0
SPLINE
  5
1c1
100
AcDbEntity
  8
Capa_1
 62
7
100
AcDbSpline
 70
8
 71
3
 72
8
 73
4
 74
0
 40
0
 40
0
 40
0
 40
0
 40
1
 40
1
 40
1
 40
1
 10
21.600824
 20
36.883185
 30
0.0
 10
21.530164
 20
36.585236
 30
0.0
 10
21.314893
 20
36.311400
 30
0.0
 10
20.895336
 20
35.985826
 30
0.0
  0
SPLINE
  5
1c2
100
AcDbEntity
  8
Capa_1
 62
7
100
AcDbSpline
 70
8
 71
3
 72
8
 73
4
 74
0
 40
0
 40
0
 40
0
 40
0
 40
1
 40
1
 40
1
 40
1
 10
20.895336
 20
35.985826
 30
0.0
 10
20.300080
 20
35.523880
 30
0.0
 10
20.275433
 20
35.483643
 30
0.0
 10
20.321096
 20
35.047616
 30
0.0
  0
SPLINE
  5
1c3
100
AcDbEntity
  8
Capa_1
 62
7
100
AcDbSpline
 70
8
 71
3
 72
8
 73
4
 74
0
 40
0
 40
0
 40
0
 40
0
 40
1
 40
1
 40
1
 40
1
 10
20.321096
 20
35.047616
 30
0.0
 10
20.342866
 20
34.839765
 30
0.0
 10
20.379336
 20
34.449104
 30
0.0
 10
20.402196
 20
34.179493
 30
0.0
  0
LWPOLYLINE
  5
1c4
100
AcDbEntity
  8
Capa_1
 62
7
100
AcDbPolyline
 90
1
 70
1
 10
21.834696
 20
37.141315
 30
0.0
  0
SPLINE
  5
1c5
100
AcDbEntity
  8
Capa_1
 62
7
100
AcDbSpline
 70
8
 71
3
 72
8
 73
4
 74
0
 40
0
 40
0
 40
0
 40
0
 40
1
 40
1
 40
1
 40
1
 10
20.110121
 20
33.034974
 30
0.0
 10
19.829241
 20
32.483986
 30
0.0
 10
19.763856
 20
32.286363
 30
0.0
 10
19.696070
 20
31.781431
 30
0.0
  0
SPLINE
  5
1c6
100
AcDbEntity
  8
Capa_1
 62
7
100
AcDbSpline
 70
8
 71
3
 72
8
 73
4
 74
0
 40
0
 40
0
 40
0
 40
0
 40
1
 40
1
 40
1
 40
1
 10
19.696070
 20
31.781431
 30
0.0
 10
19.667700
 20
31.570148
 30
0.0
 10
19.648850
 20
31.435115
 30
0.0
 10
19.624600
 20
31.337539
 30
0.0
  0
SPLINE
  5
1c7
100
AcDbEntity
  8
Capa_1
 62
7
100
AcDbSpline
 70
8
 71
3
 72
8
 73
4
 74
0
 40
0
 40
0
 40
0
 40
0
 40
1
 40
1
 40
1
 40
1
 10
19.624600
 20
31.337539
 30
0.0
 10
19.629600
 20
31.338739
 30
0.0
 10
19.634720
 20
31.339839
 30
0.0
 10
19.639710
 20
31.340839
 30
0.0
  0
SPLINE
  5
1c8
100
AcDbEntity
  8
Capa_1
 62
7
100
AcDbSpline
 70
8
 71
3
 72
8
 73
4
 74
0
 40
0
 40
0
 40
0
 40
0
 40
1
 40
1
 40
1
 40
1
 10
19.639710
 20
31.340839
 30
0.0
 10
19.670890
 20
31.347939
 30
0.0
 10
19.702670
 20
31.350739
 30
0.0
 10
19.734400
 20
31.353859
 30
0.0
  0
SPLINE
  5
1c9
100
AcDbEntity
  8
Capa_1
 62
7
100
AcDbSpline
 70
8
 71
3
 72
8
 73
4
 74
0
 40
0
 40
0
 40
0
 40
0
 40
1
 40
1
 40
1
 40
1
 10
19.734400
 20
31.353859
 30
0.0
 10
19.739800
 20
31.451629
 30
0.0
 10
19.756260
 20
31.613355
 30
0.0
 10
19.781490
 20
31.799793
 30
0.0
  0
SPLINE
  5
1ca
100
AcDbEntity
  8
Capa_1
 62
7
100
AcDbSpline
 70
8
 71
3
 72
8
 73
4
 74
0
 40
0
 40
0
 40
0
 40
0
 40
1
 40
1
 40
1
 40
1
 10
19.781490
 20
31.799793
 30
0.0
 10
19.837000
 20
32.209953
 30
0.0
 10
19.925138
 20
32.465891
 30
0.0
 10
20.209124
 20
33.040827
 30
0.0
  0
LWPOLYLINE
  5
1cb
100
AcDbEntity
  8
Capa_1
 62
7
100
AcDbPolyline
 90
3
 70
0
 10
20.402196
 20
34.179493
 30
0.0
 10
20.443826
 20
33.689259
 30
0.0
 10
20.110121
 20
33.034974
 30
0.0
  0
SPLINE
  5
1cc
100
AcDbEntity
  8
Capa_1
 62
7
100
AcDbSpline
 70
8
 71
3
 72
8
 73
4
 74
0
 40
0
 40
0
 40
0
 40
0
 40
1
 40
1
 40
1
 40
1
 10
20.471876
 20
34.505400
 30
0.0
 10
20.357578
 20
35.395149
 30
0.0
 10
20.389286
 20
35.520748
 30
0.0
 10
20.804947
 20
35.820095
 30
0.0
  0
SPLINE
  5
1cd
100
AcDbEntity
  8
Capa_1
 62
7
100
AcDbSpline
 70
8
 71
3
 72
8
 73
4
 74
0
 40
0
 40
0
 40
0
 40
0
 40
1
 40
1
 40
1
 40
1
 10
20.804947
 20
35.820095
 30
0.0
 10
21.338404
 20
36.204275
 30
0.0
 10
21.667418
 20
36.631345
 30
0.0
 10
21.655898
 20
36.924781
 30
0.0
  0
SPLINE
  5
1ce
100
AcDbEntity
  8
Capa_1
 62
7
100
AcDbSpline
 70
8
 71
3
 72
8
 73
4
 74
0
 40
0
 40
0
 40
0
 40
0
 40
1
 40
1
 40
1
 40
1
 10
21.655898
 20
36.924781
 30
0.0
 10
21.653098
 20
36.996671
 30
0.0
 10
21.649998
 20
37.031344
 30
0.0
 10
21.642318
 20
37.025508
 30
0.0
  0
LWPOLYLINE
  5
1cf
100
AcDbEntity
  8
Capa_1
 62
7
100
AcDbPolyline
 90
3
 70
0
 10
20.209124
 20
33.040827
 30
0.0
 10
20.566946
 20
33.765196
 30
0.0
 10
20.471876
 20
34.505400
 30
0.0
  0
LWPOLYLINE
  5
1d0
100
AcDbEntity
  8
Capa_1
 62
7
100
AcDbPolyline
 90
1
 70
1
 10
21.642318
 20
37.025508
 30
0.0
  0
SPLINE
  5
1d1
100
AcDbEntity
  8
Capa_1
 62
7
100
AcDbSpline
 70
8
 71
3
 72
8
 73
4
 74
0
 40
0
 40
0
 40
0
 40
0
 40
1
 40
1
 40
1
 40
1
 10
25.042890
 20
37.009040
 30
0.0
 10
25.043874
 20
37.009240
 30
0.0
 10
25.044790
 20
37.010240
 30
0.0
 10
25.045590
 20
37.010440
 30
0.0
  0
LWPOLYLINE
  5
1d2
100
AcDbEntity
  8
Capa_1
 62
7
100
AcDbPolyline
 90
2
 70
0
 10
25.041190
 20
37.022830
 30
0.0
 10
25.042890
 20
37.009040
 30
0.0
  0
LWPOLYLINE
  5
1d3
100
AcDbEntity
  8
Capa_1
 62
7
100
AcDbPolyline
 90
2
 70
0
 10
25.045590
 20
37.010440
 30
0.0
 10
25.041190
 20
37.022830
 30
0.0
  0
SPLINE
  5
1d4
100
AcDbEntity
  8
Capa_1
 62
7
100
AcDbSpline
 70
8
 71
3
 72
8
 73
4
 74
0
 40
0
 40
0
 40
0
 40
0
 40
1
 40
1
 40
1
 40
1
 10
25.143020
 20
36.749760
 30
0.0
 10
25.241370
 20
36.485988
 30
0.0
 10
25.411735
 20
36.305236
 30
0.0
 10
26.137151
 20
35.695502
 30
0.0
  0
SPLINE
  5
1d5
100
AcDbEntity
  8
Capa_1
 62
7
100
AcDbSpline
 70
8
 71
3
 72
8
 73
4
 74
0
 40
0
 40
0
 40
0
 40
0
 40
1
 40
1
 40
1
 40
1
 10
26.137151
 20
35.695502
 30
0.0
 10
26.517140
 20
35.376102
 30
0.0
 10
26.533532
 20
35.298732
 30
0.0
 10
26.374514
 20
34.571665
 30
0.0
  0
SPLINE
  5
1d6
100
AcDbEntity
  8
Capa_1
 62
7
100
AcDbSpline
 70
8
 71
3
 72
8
 73
4
 74
0
 40
0
 40
0
 40
0
 40
0
 40
1
 40
1
 40
1
 40
1
 10
26.374514
 20
34.571665
 30
0.0
 10
26.229152
 20
33.907043
 30
0.0
 10
26.248347
 20
33.745413
 30
0.0
 10
26.529498
 20
33.268076
 30
0.0
  0
SPLINE
  5
1d7
100
AcDbEntity
  8
Capa_1
 62
7
100
AcDbSpline
 70
8
 71
3
 72
8
 73
4
 74
0
 40
0
 40
0
 40
0
 40
0
 40
1
 40
1
 40
1
 40
1
 10
26.529498
 20
33.268076
 30
0.0
 10
26.668356
 20
33.032324
 30
0.0
 10
26.828937
 20
32.699297
 30
0.0
 10
26.886431
 20
32.528002
 30
0.0
  0
SPLINE
  5
1d8
100
AcDbEntity
  8
Capa_1
 62
7
100
AcDbSpline
 70
8
 71
3
 72
8
 73
4
 74
0
 40
0
 40
0
 40
0
 40
0
 40
1
 40
1
 40
1
 40
1
 10
26.886431
 20
32.528002
 30
0.0
 10
26.989682
 20
32.220362
 30
0.0
 10
27.138427
 20
31.388293
 30
0.0
 10
27.111608
 20
31.285437
 30
0.0
  0
SPLINE
  5
1d9
100
AcDbEntity
  8
Capa_1
 62
7
100
AcDbSpline
 70
8
 71
3
 72
8
 73
4
 74
0
 40
0
 40
0
 40
0
 40
0
 40
1
 40
1
 40
1
 40
1
 10
27.111608
 20
31.285437
 30
0.0
 10
27.130428
 20
31.272227
 30
0.0
 10
27.150058
 20
31.260147
 30
0.0
 10
27.169748
 20
31.248287
 30
0.0
  0
SPLINE
  5
1da
100
AcDbEntity
  8
Capa_1
 62
7
100
AcDbSpline
 70
8
 71
3
 72
8
 73
4
 74
0
 40
0
 40
0
 40
0
 40
0
 40
1
 40
1
 40
1
 40
1
 10
27.169748
 20
31.248287
 30
0.0
 10
27.176848
 20
31.244087
 30
0.0
 10
27.183948
 20
31.239987
 30
0.0
 10
27.191058
 20
31.235917
 30
0.0
  0
SPLINE
  5
1db
100
AcDbEntity
  8
Capa_1
 62
7
100
AcDbSpline
 70
8
 71
3
 72
8
 73
4
 74
0
 40
0
 40
0
 40
0
 40
0
 40
1
 40
1
 40
1
 40
1
 10
27.191058
 20
31.235917
 30
0.0
 10
27.167718
 20
31.289807
 30
0.0
 10
27.166498
 20
31.352515
 30
0.0
 10
27.174678
 20
31.452694
 30
0.0
  0
SPLINE
  5
1dc
100
AcDbEntity
  8
Capa_1
 62
7
100
AcDbSpline
 70
8
 71
3
 72
8
 73
4
 74
0
 40
0
 40
0
 40
0
 40
0
 40
1
 40
1
 40
1
 40
1
 10
27.174678
 20
31.452694
 30
0.0
 10
27.206568
 20
31.841272
 30
0.0
 10
26.952340
 20
32.726401
 30
0.0
 10
26.665932
 20
33.223918
 30
0.0
  0
SPLINE
  5
1dd
100
AcDbEntity
  8
Capa_1
 62
7
100
AcDbSpline
 70
8
 71
3
 72
8
 73
4
 74
0
 40
0
 40
0
 40
0
 40
0
 40
1
 40
1
 40
1
 40
1
 10
26.665932
 20
33.223918
 30
0.0
 10
26.371424
 20
33.735516
 30
0.0
 10
26.351383
 20
33.919783
 30
0.0
 10
26.503206
 20
34.717729
 30
0.0
  0
SPLINE
  5
1de
100
AcDbEntity
  8
Capa_1
 62
7
100
AcDbSpline
 70
8
 71
3
 72
8
 73
4
 74
0
 40
0
 40
0
 40
0
 40
0
 40
1
 40
1
 40
1
 40
1
 10
26.503206
 20
34.717729
 30
0.0
 10
26.618720
 20
35.324838
 30
0.0
 10
26.581476
 20
35.455938
 30
0.0
 10
26.208216
 20
35.757051
 30
0.0
  0
SPLINE
  5
1df
100
AcDbEntity
  8
Capa_1
 62
7
100
AcDbSpline
 70
8
 71
3
 72
8
 73
4
 74
0
 40
0
 40
0
 40
0
 40
0
 40
1
 40
1
 40
1
 40
1
 10
26.208216
 20
35.757051
 30
0.0
 10
25.588823
 20
36.256719
 30
0.0
 10
25.340493
 20
36.514608
 30
0.0
 10
25.223349
 20
36.779265
 30
0.0
  0
SPLINE
  5
1e0
100
AcDbEntity
  8
Capa_1
 62
7
100
AcDbSpline
 70
8
 71
3
 72
8
 73
4
 74
0
 40
0
 40
0
 40
0
 40
0
 40
1
 40
1
 40
1
 40
1
 10
25.223349
 20
36.779265
 30
0.0
 10
25.152679
 20
36.938941
 30
0.0
 10
25.090172
 20
37.015192
 30
0.0
 10
25.045773
 20
37.010592
 30
0.0
  0
LWPOLYLINE
  5
1e1
100
AcDbEntity
  8
Capa_1
 62
7
100
AcDbPolyline
 90
2
 70
0
 10
25.045790
 20
37.010580
 30
0.0
 10
25.143020
 20
36.749760
 30
0.0
  0
SPLINE
  5
1e2
100
AcDbEntity
  8
Capa_1
 62
7
100
AcDbSpline
 70
8
 71
3
 72
8
 73
4
 74
0
 40
0
 40
0
 40
0
 40
0
 40
1
 40
1
 40
1
 40
1
 10
25.042890
 20
37.009180
 30
0.0
 10
25.002220
 20
37.001080
 30
0.0
 10
24.977270
 20
36.923410
 30
0.0
 10
24.977270
 20
36.772107
 30
0.0
  0
SPLINE
  5
1e3
100
AcDbEntity
  8
Capa_1
 62
7
100
AcDbSpline
 70
8
 71
3
 72
8
 73
4
 74
0
 40
0
 40
0
 40
0
 40
0
 40
1
 40
1
 40
1
 40
1
 10
24.977270
 20
36.772107
 30
0.0
 10
24.977270
 20
36.551419
 30
0.0
 10
25.341906
 20
35.720860
 30
0.0
 10
25.562934
 20
35.438260
 30
0.0
  0
SPLINE
  5
1e4
100
AcDbEntity
  8
Capa_1
 62
7
100
AcDbSpline
 70
8
 71
3
 72
8
 73
4
 74
0
 40
0
 40
0
 40
0
 40
0
 40
1
 40
1
 40
1
 40
1
 10
25.562934
 20
35.438260
 30
0.0
 10
25.734131
 20
35.219374
 30
0.0
 10
25.726060
 20
35.108156
 30
0.0
 10
25.515074
 20
34.780912
 30
0.0
  0
SPLINE
  5
1e5
100
AcDbEntity
  8
Capa_1
 62
7
100
AcDbSpline
 70
8
 71
3
 72
8
 73
4
 74
0
 40
0
 40
0
 40
0
 40
0
 40
1
 40
1
 40
1
 40
1
 10
25.515074
 20
34.780912
 30
0.0
 10
25.351907
 20
34.527838
 30
0.0
 10
25.193520
 20
34.407400
 30
0.0
 10
25.250674
 20
34.579840
 30
0.0
  0
SPLINE
  5
1e6
100
AcDbEntity
  8
Capa_1
 62
7
100
AcDbSpline
 70
8
 71
3
 72
8
 73
4
 74
0
 40
0
 40
0
 40
0
 40
0
 40
1
 40
1
 40
1
 40
1
 10
25.250674
 20
34.579840
 30
0.0
 10
25.306244
 20
34.747512
 30
0.0
 10
24.332000
 20
35.578753
 30
0.0
 10
24.216304
 20
35.462389
 30
0.0
  0
SPLINE
  5
1e7
100
AcDbEntity
  8
Capa_1
 62
7
100
AcDbSpline
 70
8
 71
3
 72
8
 73
4
 74
0
 40
0
 40
0
 40
0
 40
0
 40
1
 40
1
 40
1
 40
1
 10
24.216304
 20
35.462389
 30
0.0
 10
24.197664
 20
35.443639
 30
0.0
 10
24.258924
 20
35.290722
 30
0.0
 10
24.352378
 20
35.122544
 30
0.0
  0
SPLINE
  5
1e8
100
AcDbEntity
  8
Capa_1
 62
7
100
AcDbSpline
 70
8
 71
3
 72
8
 73
4
 74
0
 40
0
 40
0
 40
0
 40
0
 40
1
 40
1
 40
1
 40
1
 10
24.352378
 20
35.122544
 30
0.0
 10
24.445838
 20
34.954384
 30
0.0
 10
24.522337
 20
34.736469
 30
0.0
 10
24.522337
 20
34.638312
 30
0.0
  0
LWPOLYLINE
  5
1e9
100
AcDbEntity
  8
Capa_1
 62
7
100
AcDbPolyline
 90
1
 70
1
 10
25.045773
 20
37.010592
 30
0.0
  0
SPLINE
  5
1ea
100
AcDbEntity
  8
Capa_1
 62
7
100
AcDbSpline
 70
8
 71
3
 72
8
 73
4
 74
0
 40
0
 40
0
 40
0
 40
0
 40
1
 40
1
 40
1
 40
1
 10
24.051091
 20
34.471446
 30
0.0
 10
23.791948
 20
34.477946
 30
0.0
 10
23.536053
 20
34.503406
 30
0.0
 10
23.482437
 20
34.528256
 30
0.0
  0
SPLINE
  5
1eb
100
AcDbEntity
  8
Capa_1
 62
7
100
AcDbSpline
 70
8
 71
3
 72
8
 73
4
 74
0
 40
0
 40
0
 40
0
 40
0
 40
1
 40
1
 40
1
 40
1
 10
23.482437
 20
34.528256
 30
0.0
 10
23.399127
 20
34.566856
 30
0.0
 10
23.389557
 20
34.504486
 30
0.0
 10
23.416687
 20
34.098791
 30
0.0
  0
LWPOLYLINE
  5
1ec
100
AcDbEntity
  8
Capa_1
 62
7
100
AcDbPolyline
 90
3
 70
0
 10
24.522337
 20
34.638312
 30
0.0
 10
24.522337
 20
34.459836
 30
0.0
 10
24.051091
 20
34.471446
 30
0.0
  0
SPLINE
  5
1ed
100
AcDbEntity
  8
Capa_1
 62
7
100
AcDbSpline
 70
8
 71
3
 72
8
 73
4
 74
0
 40
0
 40
0
 40
0
 40
0
 40
1
 40
1
 40
1
 40
1
 10
24.175098
 20
34.396239
 30
0.0
 10
24.862310
 20
34.384209
 30
0.0
 10
24.862438
 20
34.384259
 30
0.0
 10
24.724842
 20
34.513182
 30
0.0
  0
SPLINE
  5
1ee
100
AcDbEntity
  8
Capa_1
 62
7
100
AcDbSpline
 70
8
 71
3
 72
8
 73
4
 74
0
 40
0
 40
0
 40
0
 40
0
 40
1
 40
1
 40
1
 40
1
 10
24.724842
 20
34.513182
 30
0.0
 10
24.649142
 20
34.584112
 30
0.0
 10
24.587248
 20
34.698151
 30
0.0
 10
24.587248
 20
34.766595
 30
0.0
  0
SPLINE
  5
1ef
100
AcDbEntity
  8
Capa_1
 62
7
100
AcDbSpline
 70
8
 71
3
 72
8
 73
4
 74
0
 40
0
 40
0
 40
0
 40
0
 40
1
 40
1
 40
1
 40
1
 10
24.587248
 20
34.766595
 30
0.0
 10
24.587248
 20
34.835025
 30
0.0
 10
24.525818
 20
34.995666
 30
0.0
 10
24.450794
 20
35.123548
 30
0.0
  0
SPLINE
  5
1f0
100
AcDbEntity
  8
Capa_1
 62
7
100
AcDbSpline
 70
8
 71
3
 72
8
 73
4
 74
0
 40
0
 40
0
 40
0
 40
0
 40
1
 40
1
 40
1
 40
1
 10
24.450794
 20
35.123548
 30
0.0
 10
24.372414
 20
35.257169
 30
0.0
 10
24.345351
 20
35.356153
 30
0.0
 10
24.387204
 20
35.356153
 30
0.0
  0
SPLINE
  5
1f1
100
AcDbEntity
  8
Capa_1
 62
7
100
AcDbSpline
 70
8
 71
3
 72
8
 73
4
 74
0
 40
0
 40
0
 40
0
 40
0
 40
1
 40
1
 40
1
 40
1
 10
24.387204
 20
35.356153
 30
0.0
 10
24.493565
 20
35.356153
 30
0.0
 10
25.155770
 20
34.672774
 30
0.0
 10
25.182177
 20
34.535777
 30
0.0
  0
SPLINE
  5
1f2
100
AcDbEntity
  8
Capa_1
 62
7
100
AcDbSpline
 70
8
 71
3
 72
8
 73
4
 74
0
 40
0
 40
0
 40
0
 40
0
 40
1
 40
1
 40
1
 40
1
 10
25.182177
 20
34.535777
 30
0.0
 10
25.224197
 20
34.317755
 30
0.0
 10
25.349671
 20
34.369664
 30
0.0
 10
25.553579
 20
34.689229
 30
0.0
  0
SPLINE
  5
1f3
100
AcDbEntity
  8
Capa_1
 62
7
100
AcDbSpline
 70
8
 71
3
 72
8
 73
4
 74
0
 40
0
 40
0
 40
0
 40
0
 40
1
 40
1
 40
1
 40
1
 10
25.553579
 20
34.689229
 30
0.0
 10
25.756858
 20
35.007832
 30
0.0
 10
25.816150
 20
35.311617
 30
0.0
 10
25.690285
 20
35.389857
 30
0.0
  0
SPLINE
  5
1f4
100
AcDbEntity
  8
Capa_1
 62
7
100
AcDbSpline
 70
8
 71
3
 72
8
 73
4
 74
0
 40
0
 40
0
 40
0
 40
0
 40
1
 40
1
 40
1
 40
1
 10
25.690285
 20
35.389857
 30
0.0
 10
25.560904
 20
35.470287
 30
0.0
 10
25.109683
 20
36.462054
 30
0.0
 10
25.075683
 20
36.740681
 30
0.0
  0
LWPOLYLINE
  5
1f5
100
AcDbEntity
  8
Capa_1
 62
7
100
AcDbPolyline
 90
5
 70
0
 10
23.416687
 20
34.098791
 30
0.0
 10
23.448417
 20
33.624003
 30
0.0
 10
23.468087
 20
34.016192
 30
0.0
 10
23.487637
 20
34.408379
 30
0.0
 10
24.175098
 20
34.396239
 30
0.0
  0
LWPOLYLINE
  5
1f6
100
AcDbEntity
  8
Capa_1
 62
7
100
AcDbPolyline
 90
2
 70
0
 10
25.075683
 20
36.740681
 30
0.0
 10
25.042890
 20
37.009180
 30
0.0
  0
SPLINE
  5
1f7
100
AcDbEntity
  8
Capa_1
 62
7
100
AcDbSpline
 70
8
 71
3
 72
8
 73
4
 74
0
 40
0
 40
0
 40
0
 40
0
 40
1
 40
1
 40
1
 40
1
 10
36.631788
 20
35.738403
 30
0.0
 10
36.183573
 20
35.294491
 30
0.0
 10
35.492262
 20
34.578306
 30
0.0
 10
35.095452
 20
34.146931
 30
0.0
  0
SPLINE
  5
1f8
100
AcDbEntity
  8
Capa_1
 62
7
100
AcDbSpline
 70
8
 71
3
 72
8
 73
4
 74
0
 40
0
 40
0
 40
0
 40
0
 40
1
 40
1
 40
1
 40
1
 10
35.095452
 20
34.146931
 30
0.0
 10
34.698640
 20
33.715541
 30
0.0
 10
34.062689
 20
33.024278
 30
0.0
 10
33.682191
 20
32.610862
 30
0.0
  0
SPLINE
  5
1f9
100
AcDbEntity
  8
Capa_1
 62
7
100
AcDbSpline
 70
8
 71
3
 72
8
 73
4
 74
0
 40
0
 40
0
 40
0
 40
0
 40
1
 40
1
 40
1
 40
1
 10
33.682191
 20
32.610862
 30
0.0
 10
33.301696
 20
32.197464
 30
0.0
 10
32.492153
 20
31.314966
 30
0.0
 10
31.883313
 20
30.649927
 30
0.0
  0
SPLINE
  5
1fa
100
AcDbEntity
  8
Capa_1
 62
7
100
AcDbSpline
 70
8
 71
3
 72
8
 73
4
 74
0
 40
0
 40
0
 40
0
 40
0
 40
1
 40
1
 40
1
 40
1
 10
31.883313
 20
30.649927
 30
0.0
 10
31.274471
 20
29.984886
 30
0.0
 10
30.572350
 20
29.220288
 30
0.0
 10
30.323064
 20
28.950960
 30
0.0
  0
LWPOLYLINE
  5
1fb
100
AcDbEntity
  8
Capa_1
 62
7
100
AcDbPolyline
 90
2
 70
0
 10
37.446565
 20
36.545500
 30
0.0
 10
36.631788
 20
35.738403
 30
0.0
  0
SPLINE
  5
1fc
100
AcDbEntity
  8
Capa_1
 62
7
100
AcDbSpline
 70
8
 71
3
 72
8
 73
4
 74
0
 40
0
 40
0
 40
0
 40
0
 40
1
 40
1
 40
1
 40
1
 10
29.971465
 20
28.571029
 30
0.0
 10
29.979565
 20
28.555439
 30
0.0
 10
29.987405
 20
28.539769
 30
0.0
 10
29.995185
 20
28.524049
 30
0.0
  0
SPLINE
  5
1fd
100
AcDbEntity
  8
Capa_1
 62
7
100
AcDbSpline
 70
8
 71
3
 72
8
 73
4
 74
0
 40
0
 40
0
 40
0
 40
0
 40
1
 40
1
 40
1
 40
1
 10
29.995185
 20
28.524049
 30
0.0
 10
30.003985
 20
28.506139
 30
0.0
 10
30.012495
 20
28.488109
 30
0.0
 10
30.020945
 20
28.470049
 30
0.0
  0
SPLINE
  5
1fe
100
AcDbEntity
  8
Capa_1
 62
7
100
AcDbSpline
 70
8
 71
3
 72
8
 73
4
 74
0
 40
0
 40
0
 40
0
 40
0
 40
1
 40
1
 40
1
 40
1
 10
30.020945
 20
28.470049
 30
0.0
 10
30.079845
 20
28.558069
 30
0.0
 10
30.176472
 20
28.672916
 30
0.0
 10
30.315047
 20
28.820619
 30
0.0
  0
SPLINE
  5
1ff
100
AcDbEntity
  8
Capa_1
 62
7
100
AcDbSpline
 70
8
 71
3
 72
8
 73
4
 74
0
 40
0
 40
0
 40
0
 40
0
 40
1
 40
1
 40
1
 40
1
 10
30.315047
 20
28.820619
 30
0.0
 10
30.533783
 20
29.053762
 30
0.0
 10
31.198862
 20
29.775371
 30
0.0
 10
31.793042
 20
30.424092
 30
0.0
  0
SPLINE
  5
200
100
AcDbEntity
  8
Capa_1
 62
7
100
AcDbSpline
 70
8
 71
3
 72
8
 73
4
 74
0
 40
0
 40
0
 40
0
 40
0
 40
1
 40
1
 40
1
 40
1
 10
31.793042
 20
30.424092
 30
0.0
 10
35.114803
 20
34.050864
 30
0.0
 10
35.704925
 20
34.684263
 30
0.0
 10
36.538390
 20
35.517037
 30
0.0
  0
LWPOLYLINE
  5
201
100
AcDbEntity
  8
Capa_1
 62
7
100
AcDbPolyline
 90
2
 70
0
 10
30.323064
 20
28.950960
 30
0.0
 10
29.971465
 20
28.571029
 30
0.0
  0
SPLINE
  5
202
100
AcDbEntity
  8
Capa_1
 62
7
100
AcDbSpline
 70
8
 71
3
 72
8
 73
4
 74
0
 40
0
 40
0
 40
0
 40
0
 40
1
 40
1
 40
1
 40
1
 10
37.749830
 20
36.284048
 30
0.0
 10
38.130482
 20
36.098059
 30
0.0
 10
38.682077
 20
35.582615
 30
0.0
 10
38.798922
 20
35.303835
 30
0.0
  0
SPLINE
  5
203
100
AcDbEntity
  8
Capa_1
 62
7
100
AcDbSpline
 70
8
 71
3
 72
8
 73
4
 74
0
 40
0
 40
0
 40
0
 40
0
 40
1
 40
1
 40
1
 40
1
 10
38.798922
 20
35.303835
 30
0.0
 10
38.930041
 20
34.991002
 30
0.0
 10
39.144812
 20
32.970606
 30
0.0
 10
39.144812
 20
32.050288
 30
0.0
  0
SPLINE
  5
204
100
AcDbEntity
  8
Capa_1
 62
7
100
AcDbSpline
 70
8
 71
3
 72
8
 73
4
 74
0
 40
0
 40
0
 40
0
 40
0
 40
1
 40
1
 40
1
 40
1
 10
39.144812
 20
32.050288
 30
0.0
 10
39.144812
 20
31.046544
 30
0.0
 10
39.148712
 20
31.051110
 30
0.0
 10
38.072492
 20
30.810661
 30
0.0
  0
SPLINE
  5
205
100
AcDbEntity
  8
Capa_1
 62
7
100
AcDbSpline
 70
8
 71
3
 72
8
 73
4
 74
0
 40
0
 40
0
 40
0
 40
0
 40
1
 40
1
 40
1
 40
1
 10
38.072492
 20
30.810661
 30
0.0
 10
36.227037
 20
30.398359
 30
0.0
 10
33.162344
 20
29.420166
 30
0.0
 10
31.036527
 20
28.565034
 30
0.0
  0
SPLINE
  5
206
100
AcDbEntity
  8
Capa_1
 62
7
100
AcDbSpline
 70
8
 71
3
 72
8
 73
4
 74
0
 40
0
 40
0
 40
0
 40
0
 40
1
 40
1
 40
1
 40
1
 10
31.036527
 20
28.565034
 30
0.0
 10
30.558425
 20
28.372650
 30
0.0
 10
30.247424
 20
28.252329
 30
0.0
 10
30.143054
 20
28.215358
 30
0.0
  0
SPLINE
  5
207
100
AcDbEntity
  8
Capa_1
 62
7
100
AcDbSpline
 70
8
 71
3
 72
8
 73
4
 74
0
 40
0
 40
0
 40
0
 40
0
 40
1
 40
1
 40
1
 40
1
 10
30.143054
 20
28.215358
 30
0.0
 10
30.162024
 20
28.190868
 30
0.0
 10
30.182624
 20
28.167638
 30
0.0
 10
30.204104
 20
28.145398
 30
0.0
  0
SPLINE
  5
208
100
AcDbEntity
  8
Capa_1
 62
7
100
AcDbSpline
 70
8
 71
3
 72
8
 73
4
 74
0
 40
0
 40
0
 40
0
 40
0
 40
1
 40
1
 40
1
 40
1
 10
30.204104
 20
28.145398
 30
0.0
 10
30.220594
 20
28.128278
 30
0.0
 10
30.212604
 20
28.136198
 30
0.0
 10
30.227704
 20
28.121658
 30
0.0
  0
SPLINE
  5
209
100
AcDbEntity
  8
Capa_1
 62
7
100
AcDbSpline
 70
8
 71
3
 72
8
 73
4
 74
0
 40
0
 40
0
 40
0
 40
0
 40
1
 40
1
 40
1
 40
1
 10
30.227704
 20
28.121658
 30
0.0
 10
30.231504
 20
28.117858
 30
0.0
 10
30.235404
 20
28.114158
 30
0.0
 10
30.238884
 20
28.110418
 30
0.0
  0
SPLINE
  5
20a
100
AcDbEntity
  8
Capa_1
 62
7
100
AcDbSpline
 70
8
 71
3
 72
8
 73
4
 74
0
 40
0
 40
0
 40
0
 40
0
 40
1
 40
1
 40
1
 40
1
 10
30.238884
 20
28.110418
 30
0.0
 10
30.883174
 20
28.545970
 30
0.0
 10
35.320993
 20
30.063528
 30
0.0
 10
37.650183
 20
30.618781
 30
0.0
  0
SPLINE
  5
20b
100
AcDbEntity
  8
Capa_1
 62
7
100
AcDbSpline
 70
8
 71
3
 72
8
 73
4
 74
0
 40
0
 40
0
 40
0
 40
0
 40
1
 40
1
 40
1
 40
1
 10
37.650183
 20
30.618781
 30
0.0
 10
39.322361
 20
31.017374
 30
0.0
 10
39.226251
 20
30.920701
 30
0.0
 10
39.216156
 20
32.194296
 30
0.0
  0
SPLINE
  5
20c
100
AcDbEntity
  8
Capa_1
 62
7
100
AcDbSpline
 70
8
 71
3
 72
8
 73
4
 74
0
 40
0
 40
0
 40
0
 40
0
 40
1
 40
1
 40
1
 40
1
 10
39.216156
 20
32.194296
 30
0.0
 10
39.205396
 20
33.552998
 30
0.0
 10
39.008241
 20
35.133776
 30
0.0
 10
38.807691
 20
35.468650
 30
0.0
  0
SPLINE
  5
20d
100
AcDbEntity
  8
Capa_1
 62
7
100
AcDbSpline
 70
8
 71
3
 72
8
 73
4
 74
0
 40
0
 40
0
 40
0
 40
0
 40
1
 40
1
 40
1
 40
1
 10
38.807691
 20
35.468650
 30
0.0
 10
38.640000
 20
35.748644
 30
0.0
 10
38.196351
 20
36.134988
 30
0.0
 10
37.782461
 20
36.361540
 30
0.0
  0
LWPOLYLINE
  5
20e
100
AcDbEntity
  8
Capa_1
 62
7
100
AcDbPolyline
 90
3
 70
0
 10
36.538390
 20
35.517037
 30
0.0
 10
37.451794
 20
36.429586
 30
0.0
 10
37.749830
 20
36.284048
 30
0.0
  0
SPLINE
  5
20f
100
AcDbEntity
  8
Capa_1
 62
7
100
AcDbSpline
 70
8
 71
3
 72
8
 73
4
 74
0
 40
0
 40
0
 40
0
 40
0
 40
1
 40
1
 40
1
 40
1
 10
9.502134
 20
36.424132
 30
0.0
 10
9.180072
 20
36.441372
 30
0.0
 10
8.176359
 20
35.699743
 30
0.0
 10
8.028584
 20
35.308085
 30
0.0
  0
SPLINE
  5
210
100
AcDbEntity
  8
Capa_1
 62
7
100
AcDbSpline
 70
8
 71
3
 72
8
 73
4
 74
0
 40
0
 40
0
 40
0
 40
0
 40
1
 40
1
 40
1
 40
1
 10
8.028584
 20
35.308085
 30
0.0
 10
7.920900
 20
35.022645
 30
0.0
 10
7.756482
 20
33.489979
 30
0.0
 10
7.716457
 20
32.398596
 30
0.0
  0
SPLINE
  5
211
100
AcDbEntity
  8
Capa_1
 62
7
100
AcDbSpline
 70
8
 71
3
 72
8
 73
4
 74
0
 40
0
 40
0
 40
0
 40
0
 40
1
 40
1
 40
1
 40
1
 10
7.716457
 20
32.398596
 30
0.0
 10
7.684037
 20
31.514368
 30
0.0
 10
7.693277
 20
31.375738
 30
0.0
 10
7.798707
 20
31.173777
 30
0.0
  0
SPLINE
  5
212
100
AcDbEntity
  8
Capa_1
 62
7
100
AcDbSpline
 70
8
 71
3
 72
8
 73
4
 74
0
 40
0
 40
0
 40
0
 40
0
 40
1
 40
1
 40
1
 40
1
 10
7.798707
 20
31.173777
 30
0.0
 10
7.930281
 20
30.921705
 30
0.0
 10
7.993573
 20
30.897640
 30
0.0
 10
9.444885
 20
30.549751
 30
0.0
  0
SPLINE
  5
213
100
AcDbEntity
  8
Capa_1
 62
7
100
AcDbSpline
 70
8
 71
3
 72
8
 73
4
 74
0
 40
0
 40
0
 40
0
 40
0
 40
1
 40
1
 40
1
 40
1
 10
9.444885
 20
30.549751
 30
0.0
 10
11.228895
 20
30.122120
 30
0.0
 10
14.246672
 20
29.105746
 30
0.0
 10
15.846316
 20
28.393742
 30
0.0
  0
SPLINE
  5
214
100
AcDbEntity
  8
Capa_1
 62
7
100
AcDbSpline
 70
8
 71
3
 72
8
 73
4
 74
0
 40
0
 40
0
 40
0
 40
0
 40
1
 40
1
 40
1
 40
1
 10
15.846316
 20
28.393742
 30
0.0
 10
16.329528
 20
28.178665
 30
0.0
 10
16.581801
 20
28.062420
 30
0.0
 10
16.659950
 20
28.021088
 30
0.0
  0
SPLINE
  5
215
100
AcDbEntity
  8
Capa_1
 62
7
100
AcDbSpline
 70
8
 71
3
 72
8
 73
4
 74
0
 40
0
 40
0
 40
0
 40
0
 40
1
 40
1
 40
1
 40
1
 10
16.659950
 20
28.021088
 30
0.0
 10
16.665050
 20
28.050738
 30
0.0
 10
16.669250
 20
28.080568
 30
0.0
 10
16.673660
 20
28.110328
 30
0.0
  0
SPLINE
  5
216
100
AcDbEntity
  8
Capa_1
 62
7
100
AcDbSpline
 70
8
 71
3
 72
8
 73
4
 74
0
 40
0
 40
0
 40
0
 40
0
 40
1
 40
1
 40
1
 40
1
 10
16.673660
 20
28.110328
 30
0.0
 10
16.673830
 20
28.111316
 30
0.0
 10
16.673906
 20
28.112028
 30
0.0
 10
16.674152
 20
28.113028
 30
0.0
  0
SPLINE
  5
217
100
AcDbEntity
  8
Capa_1
 62
7
100
AcDbSpline
 70
8
 71
3
 72
8
 73
4
 74
0
 40
0
 40
0
 40
0
 40
0
 40
1
 40
1
 40
1
 40
1
 10
16.674152
 20
28.113028
 30
0.0
 10
16.619212
 20
28.128448
 30
0.0
 10
16.545605
 20
28.160908
 30
0.0
 10
16.431125
 20
28.217968
 30
0.0
  0
SPLINE
  5
218
100
AcDbEntity
  8
Capa_1
 62
7
100
AcDbSpline
 70
8
 71
3
 72
8
 73
4
 74
0
 40
0
 40
0
 40
0
 40
0
 40
1
 40
1
 40
1
 40
1
 10
16.431125
 20
28.217968
 30
0.0
 10
14.889889
 20
28.986141
 30
0.0
 10
11.135211
 20
30.263942
 30
0.0
 10
8.987204
 20
30.751228
 30
0.0
  0
SPLINE
  5
219
100
AcDbEntity
  8
Capa_1
 62
7
100
AcDbSpline
 70
8
 71
3
 72
8
 73
4
 74
0
 40
0
 40
0
 40
0
 40
0
 40
1
 40
1
 40
1
 40
1
 10
8.987204
 20
30.751228
 30
0.0
 10
8.577605
 20
30.844158
 30
0.0
 10
8.169382
 20
30.955274
 30
0.0
 10
8.080020
 20
30.998260
 30
0.0
  0
SPLINE
  5
21a
100
AcDbEntity
  8
Capa_1
 62
7
100
AcDbSpline
 70
8
 71
3
 72
8
 73
4
 74
0
 40
0
 40
0
 40
0
 40
0
 40
1
 40
1
 40
1
 40
1
 10
8.080020
 20
30.998260
 30
0.0
 10
7.782609
 20
31.141329
 30
0.0
 10
7.735229
 20
31.454415
 30
0.0
 10
7.817652
 20
32.732335
 30
0.0
  0
SPLINE
  5
21b
100
AcDbEntity
  8
Capa_1
 62
7
100
AcDbSpline
 70
8
 71
3
 72
8
 73
4
 74
0
 40
0
 40
0
 40
0
 40
0
 40
1
 40
1
 40
1
 40
1
 10
7.817652
 20
32.732335
 30
0.0
 10
7.920126
 20
34.321359
 30
0.0
 10
8.059768
 20
35.276490
 30
0.0
 10
8.220026
 20
35.483646
 30
0.0
  0
SPLINE
  5
21c
100
AcDbEntity
  8
Capa_1
 62
7
100
AcDbSpline
 70
8
 71
3
 72
8
 73
4
 74
0
 40
0
 40
0
 40
0
 40
0
 40
1
 40
1
 40
1
 40
1
 10
8.220026
 20
35.483646
 30
0.0
 10
8.382547
 20
35.693743
 30
0.0
 10
8.808941
 20
36.038322
 30
0.0
 10
9.172143
 20
36.253082
 30
0.0
  0
LWPOLYLINE
  5
21d
100
AcDbEntity
  8
Capa_1
 62
7
100
AcDbPolyline
 90
2
 70
0
 10
37.782461
 20
36.361540
 30
0.0
 10
37.446565
 20
36.545500
 30
0.0
  0
SPLINE
  5
21e
100
AcDbEntity
  8
Capa_1
 62
7
100
AcDbSpline
 70
8
 71
3
 72
8
 73
4
 74
0
 40
0
 40
0
 40
0
 40
0
 40
1
 40
1
 40
1
 40
1
 10
9.952012
 20
35.936346
 30
0.0
 10
10.607745
 20
35.304064
 30
0.0
 10
11.760173
 20
34.066439
 30
0.0
 10
13.931203
 20
31.663011
 30
0.0
  0
SPLINE
  5
21f
100
AcDbEntity
  8
Capa_1
 62
7
100
AcDbSpline
 70
8
 71
3
 72
8
 73
4
 74
0
 40
0
 40
0
 40
0
 40
0
 40
1
 40
1
 40
1
 40
1
 10
13.931203
 20
31.663011
 30
0.0
 10
14.905382
 20
30.584562
 30
0.0
 10
15.976160
 20
29.404451
 30
0.0
 10
16.310542
 20
29.040770
 30
0.0
  0
SPLINE
  5
220
100
AcDbEntity
  8
Capa_1
 62
7
100
AcDbSpline
 70
8
 71
3
 72
8
 73
4
 74
0
 40
0
 40
0
 40
0
 40
0
 40
1
 40
1
 40
1
 40
1
 10
16.310542
 20
29.040770
 30
0.0
 10
16.531981
 20
28.799917
 30
0.0
 10
16.718135
 20
28.584887
 30
0.0
 10
16.821697
 20
28.454150
 30
0.0
  0
SPLINE
  5
221
100
AcDbEntity
  8
Capa_1
 62
7
100
AcDbSpline
 70
8
 71
3
 72
8
 73
4
 74
0
 40
0
 40
0
 40
0
 40
0
 40
1
 40
1
 40
1
 40
1
 10
16.821697
 20
28.454150
 30
0.0
 10
16.829297
 20
28.465570
 30
0.0
 10
16.836837
 20
28.476880
 30
0.0
 10
16.844427
 20
28.488240
 30
0.0
  0
SPLINE
  5
222
100
AcDbEntity
  8
Capa_1
 62
7
100
AcDbSpline
 70
8
 71
3
 72
8
 73
4
 74
0
 40
0
 40
0
 40
0
 40
0
 40
1
 40
1
 40
1
 40
1
 10
16.844427
 20
28.488240
 30
0.0
 10
16.861817
 20
28.513670
 30
0.0
 10
16.879617
 20
28.538810
 30
0.0
 10
16.898117
 20
28.563430
 30
0.0
  0
SPLINE
  5
223
100
AcDbEntity
  8
Capa_1
 62
7
100
AcDbSpline
 70
8
 71
3
 72
8
 73
4
 74
0
 40
0
 40
0
 40
0
 40
0
 40
1
 40
1
 40
1
 40
1
 10
16.898117
 20
28.563430
 30
0.0
 10
16.572930
 20
28.878510
 30
0.0
 10
15.114330
 20
30.459311
 30
0.0
 10
13.801100
 20
31.924466
 30
0.0
  0
SPLINE
  5
224
100
AcDbEntity
  8
Capa_1
 62
7
100
AcDbSpline
 70
8
 71
3
 72
8
 73
4
 74
0
 40
0
 40
0
 40
0
 40
0
 40
1
 40
1
 40
1
 40
1
 10
13.801100
 20
31.924466
 30
0.0
 10
11.748803
 20
34.214200
 30
0.0
 10
9.794816
 20
36.279434
 30
0.0
 10
9.556879
 20
36.410235
 30
0.0
  0
SPLINE
  5
225
100
AcDbEntity
  8
Capa_1
 62
7
100
AcDbSpline
 70
8
 71
3
 72
8
 73
4
 74
0
 40
0
 40
0
 40
0
 40
0
 40
1
 40
1
 40
1
 40
1
 10
9.556879
 20
36.410235
 30
0.0
 10
9.541919
 20
36.418435
 30
0.0
 10
9.523519
 20
36.423005
 30
0.0
 10
9.502049
 20
36.424145
 30
0.0
  0
LWPOLYLINE
  5
226
100
AcDbEntity
  8
Capa_1
 62
7
100
AcDbPolyline
 90
3
 70
0
 10
9.172143
 20
36.253082
 30
0.0
 10
9.451900
 20
36.418537
 30
0.0
 10
9.952012
 20
35.936346
 30
0.0
  0
SPLINE
  5
227
100
AcDbEntity
  8
Capa_1
 62
7
100
AcDbSpline
 70
8
 71
3
 72
8
 73
4
 74
0
 40
0
 40
0
 40
0
 40
0
 40
1
 40
1
 40
1
 40
1
 10
25.775314
 20
34.808403
 30
0.0
 10
25.768414
 20
34.801503
 30
0.0
 10
25.763794
 20
34.778543
 30
0.0
 10
25.762254
 20
34.740493
 30
0.0
  0
SPLINE
  5
228
100
AcDbEntity
  8
Capa_1
 62
7
100
AcDbSpline
 70
8
 71
3
 72
8
 73
4
 74
0
 40
0
 40
0
 40
0
 40
0
 40
1
 40
1
 40
1
 40
1
 10
25.762254
 20
34.740493
 30
0.0
 10
25.759454
 20
34.671583
 30
0.0
 10
25.774814
 20
34.632981
 30
0.0
 10
25.796404
 20
34.654703
 30
0.0
  0
SPLINE
  5
229
100
AcDbEntity
  8
Capa_1
 62
7
100
AcDbSpline
 70
8
 71
3
 72
8
 73
4
 74
0
 40
0
 40
0
 40
0
 40
0
 40
1
 40
1
 40
1
 40
1
 10
25.796404
 20
34.654703
 30
0.0
 10
25.818004
 20
34.676423
 30
0.0
 10
25.820374
 20
34.732883
 30
0.0
 10
25.801604
 20
34.780069
 30
0.0
  0
SPLINE
  5
22a
100
AcDbEntity
  8
Capa_1
 62
7
100
AcDbSpline
 70
8
 71
3
 72
8
 73
4
 74
0
 40
0
 40
0
 40
0
 40
0
 40
1
 40
1
 40
1
 40
1
 10
25.801604
 20
34.780069
 30
0.0
 10
25.791244
 20
34.806129
 30
0.0
 10
25.782174
 20
34.815289
 30
0.0
 10
25.775334
 20
34.808409
 30
0.0
  0
LWPOLYLINE
  5
22b
100
AcDbEntity
  8
Capa_1
 62
7
100
AcDbPolyline
 90
1
 70
1
 10
9.502049
 20
36.424145
 30
0.0
  0
LWPOLYLINE
  5
22c
100
AcDbEntity
  8
Capa_1
 62
7
100
AcDbPolyline
 90
1
 70
1
 10
25.775334
 20
34.808409
 30
0.0
  0
SPLINE
  5
22d
100
AcDbEntity
  8
Capa_1
 62
7
100
AcDbSpline
 70
8
 71
3
 72
8
 73
4
 74
0
 40
0
 40
0
 40
0
 40
0
 40
1
 40
1
 40
1
 40
1
 10
25.687234
 20
34.319574
 30
0.0
 10
25.656614
 20
34.162950
 30
0.0
 10
25.594544
 20
33.986452
 30
0.0
 10
25.549261
 20
33.927385
 30
0.0
  0
SPLINE
  5
22e
100
AcDbEntity
  8
Capa_1
 62
7
100
AcDbSpline
 70
8
 71
3
 72
8
 73
4
 74
0
 40
0
 40
0
 40
0
 40
0
 40
1
 40
1
 40
1
 40
1
 10
25.549261
 20
33.927385
 30
0.0
 10
25.493131
 20
33.854145
 30
0.0
 10
25.513161
 20
33.859535
 30
0.0
 10
25.612081
 20
33.944475
 30
0.0
  0
SPLINE
  5
22f
100
AcDbEntity
  8
Capa_1
 62
7
100
AcDbSpline
 70
8
 71
3
 72
8
 73
4
 74
0
 40
0
 40
0
 40
0
 40
0
 40
1
 40
1
 40
1
 40
1
 10
25.612081
 20
33.944475
 30
0.0
 10
25.721531
 20
34.038395
 30
0.0
 10
25.755438
 20
34.134789
 30
0.0
 10
25.750058
 20
34.336664
 30
0.0
  0
LWPOLYLINE
  5
230
100
AcDbEntity
  8
Capa_1
 62
7
100
AcDbPolyline
 90
2
 70
0
 10
25.742954
 20
34.604396
 30
0.0
 10
25.687234
 20
34.319574
 30
0.0
  0
SPLINE
  5
231
100
AcDbEntity
  8
Capa_1
 62
7
100
AcDbSpline
 70
8
 71
3
 72
8
 73
4
 74
0
 40
0
 40
0
 40
0
 40
0
 40
1
 40
1
 40
1
 40
1
 10
24.073164
 20
33.983431
 30
0.0
 10
24.005584
 20
33.983431
 30
0.0
 10
24.014554
 20
33.859438
 30
0.0
 10
24.090044
 20
33.737167
 30
0.0
  0
SPLINE
  5
232
100
AcDbEntity
  8
Capa_1
 62
7
100
AcDbSpline
 70
8
 71
3
 72
8
 73
4
 74
0
 40
0
 40
0
 40
0
 40
0
 40
1
 40
1
 40
1
 40
1
 10
24.090044
 20
33.737167
 30
0.0
 10
24.118314
 20
33.691637
 30
0.0
 10
24.174494
 20
33.674997
 30
0.0
 10
24.214945
 20
33.700147
 30
0.0
  0
SPLINE
  5
233
100
AcDbEntity
  8
Capa_1
 62
7
100
AcDbSpline
 70
8
 71
3
 72
8
 73
4
 74
0
 40
0
 40
0
 40
0
 40
0
 40
1
 40
1
 40
1
 40
1
 10
24.214945
 20
33.700147
 30
0.0
 10
24.268675
 20
33.733547
 30
0.0
 10
24.267675
 20
33.752927
 30
0.0
 10
24.210445
 20
33.772027
 30
0.0
  0
SPLINE
  5
234
100
AcDbEntity
  8
Capa_1
 62
7
100
AcDbSpline
 70
8
 71
3
 72
8
 73
4
 74
0
 40
0
 40
0
 40
0
 40
0
 40
1
 40
1
 40
1
 40
1
 10
24.210445
 20
33.772027
 30
0.0
 10
24.167525
 20
33.786407
 30
0.0
 10
24.132375
 20
33.839827
 30
0.0
 10
24.132375
 20
33.890754
 30
0.0
  0
SPLINE
  5
235
100
AcDbEntity
  8
Capa_1
 62
7
100
AcDbSpline
 70
8
 71
3
 72
8
 73
4
 74
0
 40
0
 40
0
 40
0
 40
0
 40
1
 40
1
 40
1
 40
1
 10
24.132375
 20
33.890754
 30
0.0
 10
24.132375
 20
33.941684
 30
0.0
 10
24.105675
 20
33.983434
 30
0.0
 10
24.073095
 20
33.983434
 30
0.0
  0
LWPOLYLINE
  5
236
100
AcDbEntity
  8
Capa_1
 62
7
100
AcDbPolyline
 90
2
 70
0
 10
25.750058
 20
34.336664
 30
0.0
 10
25.742954
 20
34.604396
 30
0.0
  0
SPLINE
  5
237
100
AcDbEntity
  8
Capa_1
 62
7
100
AcDbSpline
 70
8
 71
3
 72
8
 73
4
 74
0
 40
0
 40
0
 40
0
 40
0
 40
1
 40
1
 40
1
 40
1
 10
22.641500
 20
33.852703
 30
0.0
 10
22.603650
 20
33.852703
 30
0.0
 10
22.572710
 20
33.823293
 30
0.0
 10
22.572710
 20
33.787333
 30
0.0
  0
SPLINE
  5
238
100
AcDbEntity
  8
Capa_1
 62
7
100
AcDbSpline
 70
8
 71
3
 72
8
 73
4
 74
0
 40
0
 40
0
 40
0
 40
0
 40
1
 40
1
 40
1
 40
1
 10
22.572710
 20
33.787333
 30
0.0
 10
22.572710
 20
33.751393
 30
0.0
 10
22.585630
 20
33.721963
 30
0.0
 10
22.601400
 20
33.721963
 30
0.0
  0
SPLINE
  5
239
100
AcDbEntity
  8
Capa_1
 62
7
100
AcDbSpline
 70
8
 71
3
 72
8
 73
4
 74
0
 40
0
 40
0
 40
0
 40
0
 40
1
 40
1
 40
1
 40
1
 10
22.601400
 20
33.721963
 30
0.0
 10
22.617170
 20
33.721963
 30
0.0
 10
22.648110
 20
33.751373
 30
0.0
 10
22.670200
 20
33.787333
 30
0.0
  0
SPLINE
  5
23a
100
AcDbEntity
  8
Capa_1
 62
7
100
AcDbSpline
 70
8
 71
3
 72
8
 73
4
 74
0
 40
0
 40
0
 40
0
 40
0
 40
1
 40
1
 40
1
 40
1
 10
22.670200
 20
33.787333
 30
0.0
 10
22.692280
 20
33.823293
 30
0.0
 10
22.679400
 20
33.852703
 30
0.0
 10
22.641510
 20
33.852703
 30
0.0
  0
LWPOLYLINE
  5
23b
100
AcDbEntity
  8
Capa_1
 62
7
100
AcDbPolyline
 90
1
 70
1
 10
24.073095
 20
33.983434
 30
0.0
  0
SPLINE
  5
23c
100
AcDbEntity
  8
Capa_1
 62
7
100
AcDbSpline
 70
8
 71
3
 72
8
 73
4
 74
0
 40
0
 40
0
 40
0
 40
0
 40
1
 40
1
 40
1
 40
1
 10
21.967238
 20
33.851715
 30
0.0
 10
21.705967
 20
33.852915
 30
0.0
 10
21.580950
 20
33.768545
 30
0.0
 10
21.279394
 20
33.387651
 30
0.0
  0
SPLINE
  5
23d
100
AcDbEntity
  8
Capa_1
 62
7
100
AcDbSpline
 70
8
 71
3
 72
8
 73
4
 74
0
 40
0
 40
0
 40
0
 40
0
 40
1
 40
1
 40
1
 40
1
 10
21.279394
 20
33.387651
 30
0.0
 10
21.104324
 20
33.166517
 30
0.0
 10
21.012962
 20
32.985398
 30
0.0
 10
21.012962
 20
32.859628
 30
0.0
  0
SPLINE
  5
23e
100
AcDbEntity
  8
Capa_1
 62
7
100
AcDbSpline
 70
8
 71
3
 72
8
 73
4
 74
0
 40
0
 40
0
 40
0
 40
0
 40
1
 40
1
 40
1
 40
1
 10
21.012962
 20
32.859628
 30
0.0
 10
21.012962
 20
32.748664
 30
0.0
 10
20.985652
 20
32.685311
 30
0.0
 10
20.947972
 20
32.708729
 30
0.0
  0
SPLINE
  5
23f
100
AcDbEntity
  8
Capa_1
 62
7
100
AcDbSpline
 70
8
 71
3
 72
8
 73
4
 74
0
 40
0
 40
0
 40
0
 40
0
 40
1
 40
1
 40
1
 40
1
 10
20.947972
 20
32.708729
 30
0.0
 10
20.912232
 20
32.730939
 30
0.0
 10
20.882982
 20
32.703329
 30
0.0
 10
20.882982
 20
32.647199
 30
0.0
  0
SPLINE
  5
240
100
AcDbEntity
  8
Capa_1
 62
7
100
AcDbSpline
 70
8
 71
3
 72
8
 73
4
 74
0
 40
0
 40
0
 40
0
 40
0
 40
1
 40
1
 40
1
 40
1
 10
20.882982
 20
32.647199
 30
0.0
 10
20.882982
 20
32.591149
 30
0.0
 10
20.912222
 20
32.545323
 30
0.0
 10
20.947972
 20
32.545323
 30
0.0
  0
SPLINE
  5
241
100
AcDbEntity
  8
Capa_1
 62
7
100
AcDbSpline
 70
8
 71
3
 72
8
 73
4
 74
0
 40
0
 40
0
 40
0
 40
0
 40
1
 40
1
 40
1
 40
1
 10
20.947972
 20
32.545323
 30
0.0
 10
20.983722
 20
32.545323
 30
0.0
 10
21.012962
 20
32.576653
 30
0.0
 10
21.012962
 20
32.615033
 30
0.0
  0
SPLINE
  5
242
100
AcDbEntity
  8
Capa_1
 62
7
100
AcDbSpline
 70
8
 71
3
 72
8
 73
4
 74
0
 40
0
 40
0
 40
0
 40
0
 40
1
 40
1
 40
1
 40
1
 10
21.012962
 20
32.615033
 30
0.0
 10
21.012962
 20
32.656023
 30
0.0
 10
21.068832
 20
32.666903
 30
0.0
 10
21.148527
 20
32.641463
 30
0.0
  0
SPLINE
  5
243
100
AcDbEntity
  8
Capa_1
 62
7
100
AcDbSpline
 70
8
 71
3
 72
8
 73
4
 74
0
 40
0
 40
0
 40
0
 40
0
 40
1
 40
1
 40
1
 40
1
 10
21.148527
 20
32.641463
 30
0.0
 10
21.432487
 20
32.550833
 30
0.0
 10
21.713337
 20
32.672683
 30
0.0
 10
22.081984
 20
33.046418
 30
0.0
  0
SPLINE
  5
244
100
AcDbEntity
  8
Capa_1
 62
7
100
AcDbSpline
 70
8
 71
3
 72
8
 73
4
 74
0
 40
0
 40
0
 40
0
 40
0
 40
1
 40
1
 40
1
 40
1
 10
22.081984
 20
33.046418
 30
0.0
 10
22.613051
 20
33.584803
 30
0.0
 10
22.575264
 20
33.848762
 30
0.0
 10
21.967238
 20
33.851730
 30
0.0
  0
LWPOLYLINE
  5
245
100
AcDbEntity
  8
Capa_1
 62
7
100
AcDbPolyline
 90
1
 70
1
 10
22.641510
 20
33.852703
 30
0.0
  0
SPLINE
  5
246
100
AcDbEntity
  8
Capa_1
 62
7
100
AcDbSpline
 70
8
 71
3
 72
8
 73
4
 74
0
 40
0
 40
0
 40
0
 40
0
 40
1
 40
1
 40
1
 40
1
 10
24.837677
 20
33.844415
 30
0.0
 10
24.730993
 20
33.843922
 30
0.0
 10
24.633246
 20
33.797725
 30
0.0
 10
24.542304
 20
33.706282
 30
0.0
  0
SPLINE
  5
247
100
AcDbEntity
  8
Capa_1
 62
7
100
AcDbSpline
 70
8
 71
3
 72
8
 73
4
 74
0
 40
0
 40
0
 40
0
 40
0
 40
1
 40
1
 40
1
 40
1
 10
24.542304
 20
33.706282
 30
0.0
 10
24.388953
 20
33.551890
 30
0.0
 10
24.385370
 20
33.532946
 30
0.0
 10
24.478074
 20
33.354692
 30
0.0
  0
SPLINE
  5
248
100
AcDbEntity
  8
Capa_1
 62
7
100
AcDbSpline
 70
8
 71
3
 72
8
 73
4
 74
0
 40
0
 40
0
 40
0
 40
0
 40
1
 40
1
 40
1
 40
1
 10
24.478074
 20
33.354692
 30
0.0
 10
24.634130
 20
33.054614
 30
0.0
 10
24.930900
 20
32.757177
 30
0.0
 10
25.107276
 20
32.724154
 30
0.0
  0
SPLINE
  5
249
100
AcDbEntity
  8
Capa_1
 62
7
100
AcDbSpline
 70
8
 71
3
 72
8
 73
4
 74
0
 40
0
 40
0
 40
0
 40
0
 40
1
 40
1
 40
1
 40
1
 10
25.107276
 20
32.724154
 30
0.0
 10
25.377281
 20
32.673594
 30
0.0
 10
25.432145
 20
32.674094
 30
0.0
 10
25.432095
 20
32.725142
 30
0.0
  0
SPLINE
  5
24a
100
AcDbEntity
  8
Capa_1
 62
7
100
AcDbSpline
 70
8
 71
3
 72
8
 73
4
 74
0
 40
0
 40
0
 40
0
 40
0
 40
1
 40
1
 40
1
 40
1
 10
25.432095
 20
32.725142
 30
0.0
 10
25.432070
 20
32.752102
 30
0.0
 10
25.352725
 20
32.778712
 30
0.0
 10
25.255661
 20
32.784382
 30
0.0
  0
SPLINE
  5
24b
100
AcDbEntity
  8
Capa_1
 62
7
100
AcDbSpline
 70
8
 71
3
 72
8
 73
4
 74
0
 40
0
 40
0
 40
0
 40
0
 40
1
 40
1
 40
1
 40
1
 10
25.255661
 20
32.784382
 30
0.0
 10
25.041708
 20
32.796892
 30
0.0
 10
24.522291
 20
33.320412
 30
0.0
 10
24.522291
 20
33.523436
 30
0.0
  0
SPLINE
  5
24c
100
AcDbEntity
  8
Capa_1
 62
7
100
AcDbSpline
 70
8
 71
3
 72
8
 73
4
 74
0
 40
0
 40
0
 40
0
 40
0
 40
1
 40
1
 40
1
 40
1
 10
24.522291
 20
33.523436
 30
0.0
 10
24.522291
 20
33.740704
 30
0.0
 10
24.784181
 20
33.823424
 30
0.0
 10
25.058072
 20
33.692719
 30
0.0
  0
SPLINE
  5
24d
100
AcDbEntity
  8
Capa_1
 62
7
100
AcDbSpline
 70
8
 71
3
 72
8
 73
4
 74
0
 40
0
 40
0
 40
0
 40
0
 40
1
 40
1
 40
1
 40
1
 10
25.058072
 20
33.692719
 30
0.0
 10
25.321106
 20
33.567106
 30
0.0
 10
25.721715
 20
33.044275
 30
0.0
 10
25.666201
 20
32.898769
 30
0.0
  0
SPLINE
  5
24e
100
AcDbEntity
  8
Capa_1
 62
7
100
AcDbSpline
 70
8
 71
3
 72
8
 73
4
 74
0
 40
0
 40
0
 40
0
 40
0
 40
1
 40
1
 40
1
 40
1
 10
25.666201
 20
32.898769
 30
0.0
 10
25.644811
 20
32.842719
 30
0.0
 10
25.656401
 20
32.817249
 30
0.0
 10
25.692861
 20
32.839919
 30
0.0
  0
SPLINE
  5
24f
100
AcDbEntity
  8
Capa_1
 62
7
100
AcDbSpline
 70
8
 71
3
 72
8
 73
4
 74
0
 40
0
 40
0
 40
0
 40
0
 40
1
 40
1
 40
1
 40
1
 10
25.692861
 20
32.839919
 30
0.0
 10
25.830531
 20
32.925499
 30
0.0
 10
25.744271
 20
33.152960
 30
0.0
 10
25.457149
 20
33.461648
 30
0.0
  0
SPLINE
  5
250
100
AcDbEntity
  8
Capa_1
 62
7
100
AcDbSpline
 70
8
 71
3
 72
8
 73
4
 74
0
 40
0
 40
0
 40
0
 40
0
 40
1
 40
1
 40
1
 40
1
 10
25.457149
 20
33.461648
 30
0.0
 10
25.218252
 20
33.718504
 30
0.0
 10
25.015242
 20
33.845204
 30
0.0
 10
24.837592
 20
33.844515
 30
0.0
  0
LWPOLYLINE
  5
251
100
AcDbEntity
  8
Capa_1
 62
7
100
AcDbPolyline
 90
1
 70
1
 10
21.967238
 20
33.851730
 30
0.0
  0
SPLINE
  5
252
100
AcDbEntity
  8
Capa_1
 62
7
100
AcDbSpline
 70
8
 71
3
 72
8
 73
4
 74
0
 40
0
 40
0
 40
0
 40
0
 40
1
 40
1
 40
1
 40
1
 10
21.982598
 20
33.787225
 30
0.0
 10
22.252211
 20
33.787225
 30
0.0
 10
22.377735
 20
33.725315
 30
0.0
 10
22.377735
 20
33.592281
 30
0.0
  0
SPLINE
  5
253
100
AcDbEntity
  8
Capa_1
 62
7
100
AcDbSpline
 70
8
 71
3
 72
8
 73
4
 74
0
 40
0
 40
0
 40
0
 40
0
 40
1
 40
1
 40
1
 40
1
 10
22.377735
 20
33.592281
 30
0.0
 10
22.377735
 20
33.458485
 30
0.0
 10
21.965318
 20
32.985099
 30
0.0
 10
21.689384
 20
32.802160
 30
0.0
  0
SPLINE
  5
254
100
AcDbEntity
  8
Capa_1
 62
7
100
AcDbSpline
 70
8
 71
3
 72
8
 73
4
 74
0
 40
0
 40
0
 40
0
 40
0
 40
1
 40
1
 40
1
 40
1
 10
21.689384
 20
32.802160
 30
0.0
 10
21.455675
 20
32.647205
 30
0.0
 10
21.153594
 20
32.637125
 30
0.0
 10
21.098134
 20
32.782500
 30
0.0
  0
SPLINE
  5
255
100
AcDbEntity
  8
Capa_1
 62
7
100
AcDbSpline
 70
8
 71
3
 72
8
 73
4
 74
0
 40
0
 40
0
 40
0
 40
0
 40
1
 40
1
 40
1
 40
1
 10
21.098134
 20
32.782500
 30
0.0
 10
20.995172
 20
33.052356
 30
0.0
 10
21.642036
 20
33.787225
 30
0.0
 10
21.982598
 20
33.787225
 30
0.0
  0
LWPOLYLINE
  5
256
100
AcDbEntity
  8
Capa_1
 62
7
100
AcDbPolyline
 90
2
 70
0
 10
24.837592
 20
33.844515
 30
0.0
 10
24.837677
 20
33.844415
 30
0.0
  0
SPLINE
  5
257
100
AcDbEntity
  8
Capa_1
 62
7
100
AcDbSpline
 70
8
 71
3
 72
8
 73
4
 74
0
 40
0
 40
0
 40
0
 40
0
 40
1
 40
1
 40
1
 40
1
 10
22.502764
 20
33.198816
 30
0.0
 10
22.419394
 20
33.186536
 30
0.0
 10
22.182766
 20
32.982423
 30
0.0
 10
22.182766
 20
32.907357
 30
0.0
  0
SPLINE
  5
258
100
AcDbEntity
  8
Capa_1
 62
7
100
AcDbSpline
 70
8
 71
3
 72
8
 73
4
 74
0
 40
0
 40
0
 40
0
 40
0
 40
1
 40
1
 40
1
 40
1
 10
22.182766
 20
32.907357
 30
0.0
 10
22.182766
 20
32.847737
 30
0.0
 10
22.246826
 20
32.877227
 30
0.0
 10
22.363520
 20
32.990597
 30
0.0
  0
SPLINE
  5
259
100
AcDbEntity
  8
Capa_1
 62
7
100
AcDbSpline
 70
8
 71
3
 72
8
 73
4
 74
0
 40
0
 40
0
 40
0
 40
0
 40
1
 40
1
 40
1
 40
1
 10
22.363520
 20
32.990597
 30
0.0
 10
22.462780
 20
33.087147
 30
0.0
 10
22.536962
 20
33.177558
 30
0.0
 10
22.528022
 20
33.191415
 30
0.0
  0
SPLINE
  5
25a
100
AcDbEntity
  8
Capa_1
 62
7
100
AcDbSpline
 70
8
 71
3
 72
8
 73
4
 74
0
 40
0
 40
0
 40
0
 40
0
 40
1
 40
1
 40
1
 40
1
 10
22.528022
 20
33.191415
 30
0.0
 10
22.523522
 20
33.198415
 30
0.0
 10
22.514682
 20
33.200515
 30
0.0
 10
22.502762
 20
33.198815
 30
0.0
  0
LWPOLYLINE
  5
25b
100
AcDbEntity
  8
Capa_1
 62
7
100
AcDbPolyline
 90
1
 70
1
 10
21.982598
 20
33.787225
 30
0.0
  0
SPLINE
  5
25c
100
AcDbEntity
  8
Capa_1
 62
7
100
AcDbSpline
 70
8
 71
3
 72
8
 73
4
 74
0
 40
0
 40
0
 40
0
 40
0
 40
1
 40
1
 40
1
 40
1
 10
23.453610
 20
32.964551
 30
0.0
 10
23.443710
 20
32.979551
 30
0.0
 10
23.436470
 20
32.908881
 30
0.0
 10
23.436090
 20
32.774076
 30
0.0
  0
SPLINE
  5
25d
100
AcDbEntity
  8
Capa_1
 62
7
100
AcDbSpline
 70
8
 71
3
 72
8
 73
4
 74
0
 40
0
 40
0
 40
0
 40
0
 40
1
 40
1
 40
1
 40
1
 10
23.436090
 20
32.774076
 30
0.0
 10
23.435600
 20
32.594336
 30
0.0
 10
23.447710
 20
32.513033
 30
0.0
 10
23.463130
 20
32.593427
 30
0.0
  0
SPLINE
  5
25e
100
AcDbEntity
  8
Capa_1
 62
7
100
AcDbSpline
 70
8
 71
3
 72
8
 73
4
 74
0
 40
0
 40
0
 40
0
 40
0
 40
1
 40
1
 40
1
 40
1
 10
23.463130
 20
32.593427
 30
0.0
 10
23.478650
 20
32.673817
 30
0.0
 10
23.480590
 20
32.820893
 30
0.0
 10
23.464112
 20
32.920251
 30
0.0
  0
SPLINE
  5
25f
100
AcDbEntity
  8
Capa_1
 62
7
100
AcDbSpline
 70
8
 71
3
 72
8
 73
4
 74
0
 40
0
 40
0
 40
0
 40
0
 40
1
 40
1
 40
1
 40
1
 10
23.464112
 20
32.920251
 30
0.0
 10
23.460412
 20
32.945091
 30
0.0
 10
23.456812
 20
32.959551
 30
0.0
 10
23.453582
 20
32.964551
 30
0.0
  0
LWPOLYLINE
  5
260
100
AcDbEntity
  8
Capa_1
 62
7
100
AcDbPolyline
 90
1
 70
1
 10
22.502762
 20
33.198815
 30
0.0
  0
SPLINE
  5
261
100
AcDbEntity
  8
Capa_1
 62
7
100
AcDbSpline
 70
8
 71
3
 72
8
 73
4
 74
0
 40
0
 40
0
 40
0
 40
0
 40
1
 40
1
 40
1
 40
1
 10
25.851481
 20
32.782372
 30
0.0
 10
25.837891
 20
32.776772
 30
0.0
 10
25.834731
 20
32.745682
 30
0.0
 10
25.839161
 20
32.686502
 30
0.0
  0
SPLINE
  5
262
100
AcDbEntity
  8
Capa_1
 62
7
100
AcDbSpline
 70
8
 71
3
 72
8
 73
4
 74
0
 40
0
 40
0
 40
0
 40
0
 40
1
 40
1
 40
1
 40
1
 10
25.839161
 20
32.686502
 30
0.0
 10
25.846161
 20
32.594512
 30
0.0
 10
25.871631
 20
32.568897
 30
0.0
 10
25.913931
 20
32.611442
 30
0.0
  0
SPLINE
  5
263
100
AcDbEntity
  8
Capa_1
 62
7
100
AcDbSpline
 70
8
 71
3
 72
8
 73
4
 74
0
 40
0
 40
0
 40
0
 40
0
 40
1
 40
1
 40
1
 40
1
 10
25.913931
 20
32.611442
 30
0.0
 10
25.956231
 20
32.653982
 30
0.0
 10
25.952731
 20
32.701632
 30
0.0
 10
25.903401
 20
32.751107
 30
0.0
  0
SPLINE
  5
264
100
AcDbEntity
  8
Capa_1
 62
7
100
AcDbSpline
 70
8
 71
3
 72
8
 73
4
 74
0
 40
0
 40
0
 40
0
 40
0
 40
1
 40
1
 40
1
 40
1
 10
25.903401
 20
32.751107
 30
0.0
 10
25.889341
 20
32.765237
 30
0.0
 10
25.877891
 20
32.774897
 30
0.0
 10
25.868621
 20
32.779707
 30
0.0
  0
SPLINE
  5
265
100
AcDbEntity
  8
Capa_1
 62
7
100
AcDbSpline
 70
8
 71
3
 72
8
 73
4
 74
0
 40
0
 40
0
 40
0
 40
0
 40
1
 40
1
 40
1
 40
1
 10
25.868621
 20
32.779707
 30
0.0
 10
25.861621
 20
32.783307
 30
0.0
 10
25.856021
 20
32.784307
 30
0.0
 10
25.851481
 20
32.782407
 30
0.0
  0
LWPOLYLINE
  5
266
100
AcDbEntity
  8
Capa_1
 62
7
100
AcDbPolyline
 90
1
 70
1
 10
23.453582
 20
32.964551
 30
0.0
  0
SPLINE
  5
267
100
AcDbEntity
  8
Capa_1
 62
7
100
AcDbSpline
 70
8
 71
3
 72
8
 73
4
 74
0
 40
0
 40
0
 40
0
 40
0
 40
1
 40
1
 40
1
 40
1
 10
24.742603
 20
32.782246
 30
0.0
 10
24.734803
 20
32.782186
 30
0.0
 10
24.726283
 20
32.779546
 30
0.0
 10
24.717343
 20
32.774046
 30
0.0
  0
SPLINE
  5
268
100
AcDbEntity
  8
Capa_1
 62
7
100
AcDbSpline
 70
8
 71
3
 72
8
 73
4
 74
0
 40
0
 40
0
 40
0
 40
0
 40
1
 40
1
 40
1
 40
1
 10
24.717343
 20
32.774046
 30
0.0
 10
24.606641
 20
32.705236
 30
0.0
 10
24.644893
 20
32.618757
 30
0.0
 10
24.831073
 20
32.517184
 30
0.0
  0
SPLINE
  5
269
100
AcDbEntity
  8
Capa_1
 62
7
100
AcDbSpline
 70
8
 71
3
 72
8
 73
4
 74
0
 40
0
 40
0
 40
0
 40
0
 40
1
 40
1
 40
1
 40
1
 10
24.831073
 20
32.517184
 30
0.0
 10
25.063605
 20
32.390308
 30
0.0
 10
25.114010
 20
32.393824
 30
0.0
 10
24.928563
 20
32.523984
 30
0.0
  0
SPLINE
  5
26a
100
AcDbEntity
  8
Capa_1
 62
7
100
AcDbSpline
 70
8
 71
3
 72
8
 73
4
 74
0
 40
0
 40
0
 40
0
 40
0
 40
1
 40
1
 40
1
 40
1
 10
24.928563
 20
32.523984
 30
0.0
 10
24.848143
 20
32.580404
 30
0.0
 10
24.782338
 20
32.668798
 30
0.0
 10
24.782338
 20
32.720460
 30
0.0
  0
SPLINE
  5
26b
100
AcDbEntity
  8
Capa_1
 62
7
100
AcDbSpline
 70
8
 71
3
 72
8
 73
4
 74
0
 40
0
 40
0
 40
0
 40
0
 40
1
 40
1
 40
1
 40
1
 10
24.782338
 20
32.720460
 30
0.0
 10
24.782338
 20
32.759180
 30
0.0
 10
24.765898
 20
32.782420
 30
0.0
 10
24.742608
 20
32.782250
 30
0.0
  0
LWPOLYLINE
  5
26c
100
AcDbEntity
  8
Capa_1
 62
7
100
AcDbPolyline
 90
1
 70
1
 10
25.851481
 20
32.782407
 30
0.0
  0
SPLINE
  5
26d
100
AcDbEntity
  8
Capa_1
 62
7
100
AcDbSpline
 70
8
 71
3
 72
8
 73
4
 74
0
 40
0
 40
0
 40
0
 40
0
 40
1
 40
1
 40
1
 40
1
 10
21.948071
 20
32.716246
 30
0.0
 10
21.940271
 20
32.716493
 30
0.0
 10
21.931741
 20
32.714246
 30
0.0
 10
21.922801
 20
32.708746
 30
0.0
  0
SPLINE
  5
26e
100
AcDbEntity
  8
Capa_1
 62
7
100
AcDbSpline
 70
8
 71
3
 72
8
 73
4
 74
0
 40
0
 40
0
 40
0
 40
0
 40
1
 40
1
 40
1
 40
1
 10
21.922801
 20
32.708746
 30
0.0
 10
21.887061
 20
32.686536
 30
0.0
 10
21.857811
 20
32.640566
 30
0.0
 10
21.857811
 20
32.606746
 30
0.0
  0
SPLINE
  5
26f
100
AcDbEntity
  8
Capa_1
 62
7
100
AcDbSpline
 70
8
 71
3
 72
8
 73
4
 74
0
 40
0
 40
0
 40
0
 40
0
 40
1
 40
1
 40
1
 40
1
 10
21.857811
 20
32.606746
 30
0.0
 10
21.857811
 20
32.572936
 30
0.0
 10
21.887061
 20
32.545336
 30
0.0
 10
21.922801
 20
32.545336
 30
0.0
  0
SPLINE
  5
270
100
AcDbEntity
  8
Capa_1
 62
7
100
AcDbSpline
 70
8
 71
3
 72
8
 73
4
 74
0
 40
0
 40
0
 40
0
 40
0
 40
1
 40
1
 40
1
 40
1
 10
21.922801
 20
32.545336
 30
0.0
 10
21.958551
 20
32.545336
 30
0.0
 10
21.987791
 20
32.591166
 30
0.0
 10
21.987791
 20
32.647212
 30
0.0
  0
SPLINE
  5
271
100
AcDbEntity
  8
Capa_1
 62
7
100
AcDbSpline
 70
8
 71
3
 72
8
 73
4
 74
0
 40
0
 40
0
 40
0
 40
0
 40
1
 40
1
 40
1
 40
1
 10
21.987791
 20
32.647212
 30
0.0
 10
21.987791
 20
32.689252
 30
0.0
 10
21.971351
 20
32.715242
 30
0.0
 10
21.948061
 20
32.716282
 30
0.0
  0
LWPOLYLINE
  5
272
100
AcDbEntity
  8
Capa_1
 62
7
100
AcDbPolyline
 90
1
 70
1
 10
24.742608
 20
32.782250
 30
0.0
  0
SPLINE
  5
273
100
AcDbEntity
  8
Capa_1
 62
7
100
AcDbSpline
 70
8
 71
3
 72
8
 73
4
 74
0
 40
0
 40
0
 40
0
 40
0
 40
1
 40
1
 40
1
 40
1
 10
20.446212
 20
32.651266
 30
0.0
 10
20.439312
 20
32.644366
 30
0.0
 10
20.434692
 20
32.621406
 30
0.0
 10
20.433142
 20
32.583346
 30
0.0
  0
SPLINE
  5
274
100
AcDbEntity
  8
Capa_1
 62
7
100
AcDbSpline
 70
8
 71
3
 72
8
 73
4
 74
0
 40
0
 40
0
 40
0
 40
0
 40
1
 40
1
 40
1
 40
1
 10
20.433142
 20
32.583346
 30
0.0
 10
20.430342
 20
32.514436
 30
0.0
 10
20.445702
 20
32.475832
 30
0.0
 10
20.467282
 20
32.497556
 30
0.0
  0
SPLINE
  5
275
100
AcDbEntity
  8
Capa_1
 62
7
100
AcDbSpline
 70
8
 71
3
 72
8
 73
4
 74
0
 40
0
 40
0
 40
0
 40
0
 40
1
 40
1
 40
1
 40
1
 10
20.467282
 20
32.497556
 30
0.0
 10
20.488882
 20
32.519276
 30
0.0
 10
20.491252
 20
32.575736
 30
0.0
 10
20.472482
 20
32.622925
 30
0.0
  0
SPLINE
  5
276
100
AcDbEntity
  8
Capa_1
 62
7
100
AcDbSpline
 70
8
 71
3
 72
8
 73
4
 74
0
 40
0
 40
0
 40
0
 40
0
 40
1
 40
1
 40
1
 40
1
 10
20.472482
 20
32.622925
 30
0.0
 10
20.462122
 20
32.648985
 30
0.0
 10
20.453032
 20
32.658145
 30
0.0
 10
20.446212
 20
32.651265
 30
0.0
  0
LWPOLYLINE
  5
277
100
AcDbEntity
  8
Capa_1
 62
7
100
AcDbPolyline
 90
1
 70
1
 10
21.948061
 20
32.716282
 30
0.0
  0
SPLINE
  5
278
100
AcDbEntity
  8
Capa_1
 62
7
100
AcDbSpline
 70
8
 71
3
 72
8
 73
4
 74
0
 40
0
 40
0
 40
0
 40
0
 40
1
 40
1
 40
1
 40
1
 10
40.767504
 20
27.013063
 30
0.0
 10
40.671214
 20
27.012992
 30
0.0
 10
40.562350
 20
27.011063
 30
0.0
 10
40.437481
 20
27.009263
 30
0.0
  0
SPLINE
  5
279
100
AcDbEntity
  8
Capa_1
 62
7
100
AcDbSpline
 70
8
 71
3
 72
8
 73
4
 74
0
 40
0
 40
0
 40
0
 40
0
 40
1
 40
1
 40
1
 40
1
 10
40.437481
 20
27.009263
 30
0.0
 10
39.002505
 20
26.987673
 30
0.0
 10
37.437308
 20
26.733415
 30
0.0
 10
34.920641
 20
26.113181
 30
0.0
  0
SPLINE
  5
27a
100
AcDbEntity
  8
Capa_1
 62
7
100
AcDbSpline
 70
8
 71
3
 72
8
 73
4
 74
0
 40
0
 40
0
 40
0
 40
0
 40
1
 40
1
 40
1
 40
1
 10
34.920641
 20
26.113181
 30
0.0
 10
33.685438
 20
25.808780
 30
0.0
 10
33.020964
 20
25.606594
 30
0.0
 10
31.912225
 20
25.197693
 30
0.0
  0
SPLINE
  5
27b
100
AcDbEntity
  8
Capa_1
 62
7
100
AcDbSpline
 70
8
 71
3
 72
8
 73
4
 74
0
 40
0
 40
0
 40
0
 40
0
 40
1
 40
1
 40
1
 40
1
 10
31.912225
 20
25.197693
 30
0.0
 10
31.565417
 20
25.069743
 30
0.0
 10
31.330398
 20
24.997365
 30
0.0
 10
31.188459
 20
24.974407
 30
0.0
  0
SPLINE
  5
27c
100
AcDbEntity
  8
Capa_1
 62
7
100
AcDbSpline
 70
8
 71
3
 72
8
 73
4
 74
0
 40
0
 40
0
 40
0
 40
0
 40
1
 40
1
 40
1
 40
1
 10
31.188459
 20
24.974407
 30
0.0
 10
31.198679
 20
24.952127
 30
0.0
 10
31.210489
 20
24.930637
 30
0.0
 10
31.222609
 20
24.909297
 30
0.0
  0
LWPOLYLINE
  5
27d
100
AcDbEntity
  8
Capa_1
 62
7
100
AcDbPolyline
 90
1
 70
1
 10
20.446212
 20
32.651265
 30
0.0
  0
SPLINE
  5
27e
100
AcDbEntity
  8
Capa_1
 62
7
100
AcDbSpline
 70
8
 71
3
 72
8
 73
4
 74
0
 40
0
 40
0
 40
0
 40
0
 40
1
 40
1
 40
1
 40
1
 10
31.346369
 20
24.930367
 30
0.0
 10
31.489412
 20
24.954677
 30
0.0
 10
31.833045
 20
25.062297
 30
0.0
 10
32.109991
 20
25.169613
 30
0.0
  0
SPLINE
  5
27f
100
AcDbEntity
  8
Capa_1
 62
7
100
AcDbSpline
 70
8
 71
3
 72
8
 73
4
 74
0
 40
0
 40
0
 40
0
 40
0
 40
1
 40
1
 40
1
 40
1
 10
32.109991
 20
25.169613
 30
0.0
 10
33.055609
 20
25.536004
 30
0.0
 10
33.977867
 20
25.806938
 30
0.0
 10
35.505548
 20
26.166804
 30
0.0
  0
SPLINE
  5
280
100
AcDbEntity
  8
Capa_1
 62
7
100
AcDbSpline
 70
8
 71
3
 72
8
 73
4
 74
0
 40
0
 40
0
 40
0
 40
0
 40
1
 40
1
 40
1
 40
1
 10
35.505548
 20
26.166804
 30
0.0
 10
37.764365
 20
26.698926
 30
0.0
 10
38.778314
 20
26.860677
 30
0.0
 10
40.135515
 20
26.905474
 30
0.0
  0
LWPOLYLINE
  5
281
100
AcDbEntity
  8
Capa_1
 62
7
100
AcDbPolyline
 90
2
 70
0
 10
31.222609
 20
24.909297
 30
0.0
 10
31.346369
 20
24.930367
 30
0.0
  0
SPLINE
  5
282
100
AcDbEntity
  8
Capa_1
 62
7
100
AcDbSpline
 70
8
 71
3
 72
8
 73
4
 74
0
 40
0
 40
0
 40
0
 40
0
 40
1
 40
1
 40
1
 40
1
 10
41.597773
 20
26.623213
 30
0.0
 10
41.767809
 20
26.447071
 30
0.0
 10
42.122265
 20
26.043793
 30
0.0
 10
42.385384
 20
25.727131
 30
0.0
  0
SPLINE
  5
283
100
AcDbEntity
  8
Capa_1
 62
7
100
AcDbSpline
 70
8
 71
3
 72
8
 73
4
 74
0
 40
0
 40
0
 40
0
 40
0
 40
1
 40
1
 40
1
 40
1
 10
42.385384
 20
25.727131
 30
0.0
 10
42.648504
 20
25.410459
 30
0.0
 10
43.206333
 20
24.836838
 30
0.0
 10
43.625129
 20
24.452521
 30
0.0
  0
SPLINE
  5
284
100
AcDbEntity
  8
Capa_1
 62
7
100
AcDbSpline
 70
8
 71
3
 72
8
 73
4
 74
0
 40
0
 40
0
 40
0
 40
0
 40
1
 40
1
 40
1
 40
1
 10
43.625129
 20
24.452521
 30
0.0
 10
46.744733
 20
21.589424
 30
0.0
 10
46.813658
 20
21.517295
 30
0.0
 10
46.813658
 20
21.105143
 30
0.0
  0
SPLINE
  5
285
100
AcDbEntity
  8
Capa_1
 62
7
100
AcDbSpline
 70
8
 71
3
 72
8
 73
4
 74
0
 40
0
 40
0
 40
0
 40
0
 40
1
 40
1
 40
1
 40
1
 10
46.813658
 20
21.105143
 30
0.0
 10
46.813658
 20
20.709952
 30
0.0
 10
46.502416
 20
20.225327
 30
0.0
 10
44.443964
 20
17.413453
 30
0.0
  0
SPLINE
  5
286
100
AcDbEntity
  8
Capa_1
 62
7
100
AcDbSpline
 70
8
 71
3
 72
8
 73
4
 74
0
 40
0
 40
0
 40
0
 40
0
 40
1
 40
1
 40
1
 40
1
 10
44.443964
 20
17.413453
 30
0.0
 10
42.566402
 20
14.848675
 30
0.0
 10
42.563811
 20
14.844826
 30
0.0
 10
42.400107
 20
14.518776
 30
0.0
  0
SPLINE
  5
287
100
AcDbEntity
  8
Capa_1
 62
7
100
AcDbSpline
 70
8
 71
3
 72
8
 73
4
 74
0
 40
0
 40
0
 40
0
 40
0
 40
1
 40
1
 40
1
 40
1
 10
42.400107
 20
14.518776
 30
0.0
 10
42.185114
 20
14.090584
 30
0.0
 10
41.879508
 20
13.262806
 30
0.0
 10
41.936425
 20
13.262806
 30
0.0
  0
SPLINE
  5
288
100
AcDbEntity
  8
Capa_1
 62
7
100
AcDbSpline
 70
8
 71
3
 72
8
 73
4
 74
0
 40
0
 40
0
 40
0
 40
0
 40
1
 40
1
 40
1
 40
1
 10
41.936425
 20
13.262806
 30
0.0
 10
41.964245
 20
13.262806
 30
0.0
 10
42.053265
 20
13.446658
 30
0.0
 10
42.134185
 20
13.671335
 30
0.0
  0
SPLINE
  5
289
100
AcDbEntity
  8
Capa_1
 62
7
100
AcDbSpline
 70
8
 71
3
 72
8
 73
4
 74
0
 40
0
 40
0
 40
0
 40
0
 40
1
 40
1
 40
1
 40
1
 10
42.134185
 20
13.671335
 30
0.0
 10
42.389781
 20
14.380995
 30
0.0
 10
42.687772
 20
14.905358
 30
0.0
 10
43.314019
 20
15.746658
 30
0.0
  0
SPLINE
  5
28a
100
AcDbEntity
  8
Capa_1
 62
7
100
AcDbSpline
 70
8
 71
3
 72
8
 73
4
 74
0
 40
0
 40
0
 40
0
 40
0
 40
1
 40
1
 40
1
 40
1
 10
43.314019
 20
15.746658
 30
0.0
 10
45.374073
 20
18.514381
 30
0.0
 10
46.351462
 20
19.896575
 30
0.0
 10
46.744733
 20
20.598571
 30
0.0
  0
SPLINE
  5
28b
100
AcDbEntity
  8
Capa_1
 62
7
100
AcDbSpline
 70
8
 71
3
 72
8
 73
4
 74
0
 40
0
 40
0
 40
0
 40
0
 40
1
 40
1
 40
1
 40
1
 10
46.744733
 20
20.598571
 30
0.0
 10
47.119584
 20
21.267686
 30
0.0
 10
46.994330
 20
21.474644
 30
0.0
 10
45.261402
 20
23.050226
 30
0.0
  0
SPLINE
  5
28c
100
AcDbEntity
  8
Capa_1
 62
7
100
AcDbSpline
 70
8
 71
3
 72
8
 73
4
 74
0
 40
0
 40
0
 40
0
 40
0
 40
1
 40
1
 40
1
 40
1
 10
45.261402
 20
23.050226
 30
0.0
 10
43.444239
 20
24.702210
 30
0.0
 10
42.709866
 20
25.428996
 30
0.0
 10
42.121783
 20
26.157239
 30
0.0
  0
SPLINE
  5
28d
100
AcDbEntity
  8
Capa_1
 62
7
100
AcDbSpline
 70
8
 71
3
 72
8
 73
4
 74
0
 40
0
 40
0
 40
0
 40
0
 40
1
 40
1
 40
1
 40
1
 10
42.121783
 20
26.157239
 30
0.0
 10
41.499897
 20
26.927138
 30
0.0
 10
41.441516
 20
27.013605
 30
0.0
 10
40.767418
 20
27.013104
 30
0.0
  0
LWPOLYLINE
  5
28e
100
AcDbEntity
  8
Capa_1
 62
7
100
AcDbPolyline
 90
3
 70
0
 10
40.135515
 20
26.905474
 30
0.0
 10
41.288693
 20
26.943524
 30
0.0
 10
41.597773
 20
26.623213
 30
0.0
  0
SPLINE
  5
28f
100
AcDbEntity
  8
Capa_1
 62
7
100
AcDbSpline
 70
8
 71
3
 72
8
 73
4
 74
0
 40
0
 40
0
 40
0
 40
0
 40
1
 40
1
 40
1
 40
1
 10
6.471772
 20
26.989323
 30
0.0
 10
5.437922
 20
26.989323
 30
0.0
 10
5.330178
 20
26.936663
 30
0.0
 10
4.669086
 20
26.109967
 30
0.0
  0
SPLINE
  5
290
100
AcDbEntity
  8
Capa_1
 62
7
100
AcDbSpline
 70
8
 71
3
 72
8
 73
4
 74
0
 40
0
 40
0
 40
0
 40
0
 40
1
 40
1
 40
1
 40
1
 10
4.669086
 20
26.109967
 30
0.0
 10
4.396496
 20
25.769092
 30
0.0
 10
3.759186
 20
25.099404
 30
0.0
 10
3.253032
 20
24.621902
 30
0.0
  0
SPLINE
  5
291
100
AcDbEntity
  8
Capa_1
 62
7
100
AcDbSpline
 70
8
 71
3
 72
8
 73
4
 74
0
 40
0
 40
0
 40
0
 40
0
 40
1
 40
1
 40
1
 40
1
 10
3.253032
 20
24.621902
 30
0.0
 10
2.746878
 20
24.144401
 30
0.0
 10
2.010031
 20
23.449463
 30
0.0
 10
1.615740
 20
23.077664
 30
0.0
  0
SPLINE
  5
292
100
AcDbEntity
  8
Capa_1
 62
7
100
AcDbSpline
 70
8
 71
3
 72
8
 73
4
 74
0
 40
0
 40
0
 40
0
 40
0
 40
1
 40
1
 40
1
 40
1
 10
1.615740
 20
23.077664
 30
0.0
 10
0.683059
 20
22.198182
 30
0.0
 10
0.237082
 20
21.716999
 30
0.0
 10
0.086843
 20
21.428105
 30
0.0
  0
SPLINE
  5
293
100
AcDbEntity
  8
Capa_1
 62
7
100
AcDbSpline
 70
8
 71
3
 72
8
 73
4
 74
0
 40
0
 40
0
 40
0
 40
0
 40
1
 40
1
 40
1
 40
1
 10
0.086843
 20
21.428105
 30
0.0
 10
-0.161932
 20
20.949759
 30
0.0
 10
0.020423
 20
20.612815
 30
0.0
 10
2.030045
 20
17.838291
 30
0.0
  0
SPLINE
  5
294
100
AcDbEntity
  8
Capa_1
 62
7
100
AcDbSpline
 70
8
 71
3
 72
8
 73
4
 74
0
 40
0
 40
0
 40
0
 40
0
 40
1
 40
1
 40
1
 40
1
 10
2.030045
 20
17.838291
 30
0.0
 10
2.511741
 20
17.173253
 30
0.0
 10
3.100655
 20
16.379012
 30
0.0
 10
3.338584
 20
16.073449
 30
0.0
  0
SPLINE
  5
295
100
AcDbEntity
  8
Capa_1
 62
7
100
AcDbSpline
 70
8
 71
3
 72
8
 73
4
 74
0
 40
0
 40
0
 40
0
 40
0
 40
1
 40
1
 40
1
 40
1
 10
3.338584
 20
16.073449
 30
0.0
 10
4.054028
 20
15.154651
 30
0.0
 10
4.315827
 20
14.724246
 30
0.0
 10
4.584169
 20
14.026084
 30
0.0
  0
SPLINE
  5
296
100
AcDbEntity
  8
Capa_1
 62
7
100
AcDbSpline
 70
8
 71
3
 72
8
 73
4
 74
0
 40
0
 40
0
 40
0
 40
0
 40
1
 40
1
 40
1
 40
1
 10
4.584169
 20
14.026084
 30
0.0
 10
4.724800
 20
13.660190
 30
0.0
 10
4.862804
 20
13.337058
 30
0.0
 10
4.890835
 20
13.308097
 30
0.0
  0
SPLINE
  5
297
100
AcDbEntity
  8
Capa_1
 62
7
100
AcDbSpline
 70
8
 71
3
 72
8
 73
4
 74
0
 40
0
 40
0
 40
0
 40
0
 40
1
 40
1
 40
1
 40
1
 10
4.890835
 20
13.308097
 30
0.0
 10
4.918865
 20
13.279137
 30
0.0
 10
4.979295
 20
13.346227
 30
0.0
 10
5.025003
 20
13.457209
 30
0.0
  0
SPLINE
  5
298
100
AcDbEntity
  8
Capa_1
 62
7
100
AcDbSpline
 70
8
 71
3
 72
8
 73
4
 74
0
 40
0
 40
0
 40
0
 40
0
 40
1
 40
1
 40
1
 40
1
 10
5.025003
 20
13.457209
 30
0.0
 10
5.141347
 20
13.739677
 30
0.0
 10
5.079413
 20
14.347883
 30
0.0
 10
4.859611
 20
15.082640
 30
0.0
  0
SPLINE
  5
299
100
AcDbEntity
  8
Capa_1
 62
7
100
AcDbSpline
 70
8
 71
3
 72
8
 73
4
 74
0
 40
0
 40
0
 40
0
 40
0
 40
1
 40
1
 40
1
 40
1
 10
4.859611
 20
15.082640
 30
0.0
 10
4.709050
 20
15.585944
 30
0.0
 10
4.690874
 20
15.715779
 30
0.0
 10
4.756162
 20
15.820928
 30
0.0
  0
SPLINE
  5
29a
100
AcDbEntity
  8
Capa_1
 62
7
100
AcDbSpline
 70
8
 71
3
 72
8
 73
4
 74
0
 40
0
 40
0
 40
0
 40
0
 40
1
 40
1
 40
1
 40
1
 10
4.756162
 20
15.820928
 30
0.0
 10
4.822312
 20
15.927470
 30
0.0
 10
4.811622
 20
15.983003
 30
0.0
 10
4.691052
 20
16.157964
 30
0.0
  0
SPLINE
  5
29b
100
AcDbEntity
  8
Capa_1
 62
7
100
AcDbSpline
 70
8
 71
3
 72
8
 73
4
 74
0
 40
0
 40
0
 40
0
 40
0
 40
1
 40
1
 40
1
 40
1
 10
4.691052
 20
16.157964
 30
0.0
 10
4.548703
 20
16.364560
 30
0.0
 10
4.084151
 20
16.959367
 30
0.0
 10
3.965761
 20
17.086599
 30
0.0
  0
SPLINE
  5
29c
100
AcDbEntity
  8
Capa_1
 62
7
100
AcDbSpline
 70
8
 71
3
 72
8
 73
4
 74
0
 40
0
 40
0
 40
0
 40
0
 40
1
 40
1
 40
1
 40
1
 10
3.965761
 20
17.086599
 30
0.0
 10
3.799409
 20
17.265340
 30
0.0
 10
4.110346
 20
16.778722
 30
0.0
 10
4.396568
 20
16.412400
 30
0.0
  0
SPLINE
  5
29d
100
AcDbEntity
  8
Capa_1
 62
7
100
AcDbSpline
 70
8
 71
3
 72
8
 73
4
 74
0
 40
0
 40
0
 40
0
 40
0
 40
1
 40
1
 40
1
 40
1
 10
4.396568
 20
16.412400
 30
0.0
 10
4.673608
 20
16.057851
 30
0.0
 10
4.711988
 20
15.975838
 30
0.0
 10
4.648530
 20
15.873652
 30
0.0
  0
SPLINE
  5
29e
100
AcDbEntity
  8
Capa_1
 62
7
100
AcDbSpline
 70
8
 71
3
 72
8
 73
4
 74
0
 40
0
 40
0
 40
0
 40
0
 40
1
 40
1
 40
1
 40
1
 10
4.648530
 20
15.873652
 30
0.0
 10
4.588950
 20
15.777702
 30
0.0
 10
4.612370
 20
15.618028
 30
0.0
 10
4.763149
 20
15.091067
 30
0.0
  0
SPLINE
  5
29f
100
AcDbEntity
  8
Capa_1
 62
7
100
AcDbSpline
 70
8
 71
3
 72
8
 73
4
 74
0
 40
0
 40
0
 40
0
 40
0
 40
1
 40
1
 40
1
 40
1
 10
4.763149
 20
15.091067
 30
0.0
 10
4.986961
 20
14.308913
 30
0.0
 10
5.052190
 20
13.826670
 30
0.0
 10
4.970808
 20
13.556914
 30
0.0
  0
SPLINE
  5
2a0
100
AcDbEntity
  8
Capa_1
 62
7
100
AcDbSpline
 70
8
 71
3
 72
8
 73
4
 74
0
 40
0
 40
0
 40
0
 40
0
 40
1
 40
1
 40
1
 40
1
 10
4.970808
 20
13.556914
 30
0.0
 10
4.918158
 20
13.382384
 30
0.0
 10
4.906638
 20
13.375211
 30
0.0
 10
4.865964
 20
13.491544
 30
0.0
  0
SPLINE
  5
2a1
100
AcDbEntity
  8
Capa_1
 62
7
100
AcDbSpline
 70
8
 71
3
 72
8
 73
4
 74
0
 40
0
 40
0
 40
0
 40
0
 40
1
 40
1
 40
1
 40
1
 10
4.865964
 20
13.491544
 30
0.0
 10
4.441865
 20
14.704213
 30
0.0
 10
4.336264
 20
14.886440
 30
0.0
 10
3.135542
 20
16.478015
 30
0.0
  0
SPLINE
  5
2a2
100
AcDbEntity
  8
Capa_1
 62
7
100
AcDbSpline
 70
8
 71
3
 72
8
 73
4
 74
0
 40
0
 40
0
 40
0
 40
0
 40
1
 40
1
 40
1
 40
1
 10
3.135542
 20
16.478015
 30
0.0
 10
1.649193
 20
18.448180
 30
0.0
 10
0.498678
 20
20.091394
 30
0.0
 10
0.218772
 20
20.643856
 30
0.0
  0
SPLINE
  5
2a3
100
AcDbEntity
  8
Capa_1
 62
7
100
AcDbSpline
 70
8
 71
3
 72
8
 73
4
 74
0
 40
0
 40
0
 40
0
 40
0
 40
1
 40
1
 40
1
 40
1
 10
0.218772
 20
20.643856
 30
0.0
 10
0.019688
 20
21.036764
 30
0.0
 10
0.065964
 20
21.347666
 30
0.0
 10
0.381118
 20
21.734497
 30
0.0
  0
SPLINE
  5
2a4
100
AcDbEntity
  8
Capa_1
 62
7
100
AcDbSpline
 70
8
 71
3
 72
8
 73
4
 74
0
 40
0
 40
0
 40
0
 40
0
 40
1
 40
1
 40
1
 40
1
 10
0.381118
 20
21.734497
 30
0.0
 10
0.513936
 20
21.897520
 30
0.0
 10
1.401275
 20
22.762548
 30
0.0
 10
2.352879
 20
23.656623
 30
0.0
  0
SPLINE
  5
2a5
100
AcDbEntity
  8
Capa_1
 62
7
100
AcDbSpline
 70
8
 71
3
 72
8
 73
4
 74
0
 40
0
 40
0
 40
0
 40
0
 40
1
 40
1
 40
1
 40
1
 10
2.352879
 20
23.656623
 30
0.0
 10
3.352784
 20
24.596070
 30
0.0
 10
4.324414
 20
25.573729
 30
0.0
 10
4.654660
 20
25.972724
 30
0.0
  0
SPLINE
  5
2a6
100
AcDbEntity
  8
Capa_1
 62
7
100
AcDbSpline
 70
8
 71
3
 72
8
 73
4
 74
0
 40
0
 40
0
 40
0
 40
0
 40
1
 40
1
 40
1
 40
1
 10
4.654660
 20
25.972724
 30
0.0
 10
4.968968
 20
26.352451
 30
0.0
 10
5.304018
 20
26.714434
 30
0.0
 10
5.399115
 20
26.777142
 30
0.0
  0
SPLINE
  5
2a7
100
AcDbEntity
  8
Capa_1
 62
7
100
AcDbSpline
 70
8
 71
3
 72
8
 73
4
 74
0
 40
0
 40
0
 40
0
 40
0
 40
1
 40
1
 40
1
 40
1
 10
5.399115
 20
26.777142
 30
0.0
 10
5.676774
 20
26.960211
 30
0.0
 10
6.910275
 20
26.968537
 30
0.0
 10
8.145923
 20
26.795652
 30
0.0
  0
SPLINE
  5
2a8
100
AcDbEntity
  8
Capa_1
 62
7
100
AcDbSpline
 70
8
 71
3
 72
8
 73
4
 74
0
 40
0
 40
0
 40
0
 40
0
 40
1
 40
1
 40
1
 40
1
 10
8.145923
 20
26.795652
 30
0.0
 10
10.679582
 20
26.441156
 30
0.0
 10
13.330496
 20
25.778719
 30
0.0
 10
15.066377
 20
25.066300
 30
0.0
  0
LWPOLYLINE
  5
2a9
100
AcDbEntity
  8
Capa_1
 62
7
100
AcDbPolyline
 90
1
 70
1
 10
40.767418
 20
27.013104
 30
0.0
  0
SPLINE
  5
2aa
100
AcDbEntity
  8
Capa_1
 62
7
100
AcDbSpline
 70
8
 71
3
 72
8
 73
4
 74
0
 40
0
 40
0
 40
0
 40
0
 40
1
 40
1
 40
1
 40
1
 10
15.682507
 20
24.813395
 30
0.0
 10
15.680807
 20
24.843605
 30
0.0
 10
15.679307
 20
24.873825
 30
0.0
 10
15.677507
 20
24.904035
 30
0.0
  0
SPLINE
  5
2ab
100
AcDbEntity
  8
Capa_1
 62
7
100
AcDbSpline
 70
8
 71
3
 72
8
 73
4
 74
0
 40
0
 40
0
 40
0
 40
0
 40
1
 40
1
 40
1
 40
1
 10
15.677507
 20
24.904035
 30
0.0
 10
14.040918
 20
25.608723
 30
0.0
 10
12.200866
 20
26.143671
 30
0.0
 10
9.866554
 20
26.590375
 30
0.0
  0
SPLINE
  5
2ac
100
AcDbEntity
  8
Capa_1
 62
7
100
AcDbSpline
 70
8
 71
3
 72
8
 73
4
 74
0
 40
0
 40
0
 40
0
 40
0
 40
1
 40
1
 40
1
 40
1
 10
9.866554
 20
26.590375
 30
0.0
 10
8.395599
 20
26.871865
 30
0.0
 10
7.396357
 20
26.989328
 30
0.0
 10
6.471633
 20
26.989328
 30
0.0
  0
LWPOLYLINE
  5
2ad
100
AcDbEntity
  8
Capa_1
 62
7
100
AcDbPolyline
 90
2
 70
0
 10
15.066377
 20
25.066300
 30
0.0
 10
15.682507
 20
24.813395
 30
0.0
  0
SPLINE
  5
2ae
100
AcDbEntity
  8
Capa_1
 62
7
100
AcDbSpline
 70
8
 71
3
 72
8
 73
4
 74
0
 40
0
 40
0
 40
0
 40
0
 40
1
 40
1
 40
1
 40
1
 10
7.086759
 20
24.832294
 30
0.0
 10
6.971202
 20
24.832294
 30
0.0
 10
5.618477
 20
24.050813
 30
0.0
 10
4.733186
 20
23.472661
 30
0.0
  0
SPLINE
  5
2af
100
AcDbEntity
  8
Capa_1
 62
7
100
AcDbSpline
 70
8
 71
3
 72
8
 73
4
 74
0
 40
0
 40
0
 40
0
 40
0
 40
1
 40
1
 40
1
 40
1
 10
4.733186
 20
23.472661
 30
0.0
 10
3.119410
 20
22.418797
 30
0.0
 10
2.261339
 20
21.694995
 30
0.0
 10
2.193279
 20
21.330059
 30
0.0
  0
SPLINE
  5
2b0
100
AcDbEntity
  8
Capa_1
 62
7
100
AcDbSpline
 70
8
 71
3
 72
8
 73
4
 74
0
 40
0
 40
0
 40
0
 40
0
 40
1
 40
1
 40
1
 40
1
 10
2.193279
 20
21.330059
 30
0.0
 10
2.162259
 20
21.163776
 30
0.0
 10
2.232599
 20
20.960163
 30
0.0
 10
2.550339
 20
20.295972
 30
0.0
  0
SPLINE
  5
2b1
100
AcDbEntity
  8
Capa_1
 62
7
100
AcDbSpline
 70
8
 71
3
 72
8
 73
4
 74
0
 40
0
 40
0
 40
0
 40
0
 40
1
 40
1
 40
1
 40
1
 10
2.550339
 20
20.295972
 30
0.0
 10
2.767917
 20
19.841146
 30
0.0
 10
2.945984
 20
19.423846
 30
0.0
 10
2.945984
 20
19.368740
 30
0.0
  0
SPLINE
  5
2b2
100
AcDbEntity
  8
Capa_1
 62
7
100
AcDbSpline
 70
8
 71
3
 72
8
 73
4
 74
0
 40
0
 40
0
 40
0
 40
0
 40
1
 40
1
 40
1
 40
1
 10
2.945984
 20
19.368740
 30
0.0
 10
2.945984
 20
19.313620
 30
0.0
 10
2.974904
 20
19.286590
 30
0.0
 10
3.010344
 20
19.308610
 30
0.0
  0
SPLINE
  5
2b3
100
AcDbEntity
  8
Capa_1
 62
7
100
AcDbSpline
 70
8
 71
3
 72
8
 73
4
 74
0
 40
0
 40
0
 40
0
 40
0
 40
1
 40
1
 40
1
 40
1
 10
3.010344
 20
19.308610
 30
0.0
 10
3.084504
 20
19.354700
 30
0.0
 10
3.043114
 20
19.461164
 30
0.0
 10
2.556945
 20
20.475598
 30
0.0
  0
LWPOLYLINE
  5
2b4
100
AcDbEntity
  8
Capa_1
 62
7
100
AcDbPolyline
 90
2
 70
0
 10
6.471633
 20
26.989328
 30
0.0
 10
6.471772
 20
26.989323
 30
0.0
  0
SPLINE
  5
2b5
100
AcDbEntity
  8
Capa_1
 62
7
100
AcDbSpline
 70
8
 71
3
 72
8
 73
4
 74
0
 40
0
 40
0
 40
0
 40
0
 40
1
 40
1
 40
1
 40
1
 10
2.327372
 20
21.430914
 30
0.0
 10
2.444668
 20
21.692549
 30
0.0
 10
2.645854
 20
21.879313
 30
0.0
 10
3.540967
 20
22.558323
 30
0.0
  0
SPLINE
  5
2b6
100
AcDbEntity
  8
Capa_1
 62
7
100
AcDbSpline
 70
8
 71
3
 72
8
 73
4
 74
0
 40
0
 40
0
 40
0
 40
0
 40
1
 40
1
 40
1
 40
1
 10
3.540967
 20
22.558323
 30
0.0
 10
4.691576
 20
23.431147
 30
0.0
 10
6.826798
 20
24.701797
 30
0.0
 10
7.141772
 20
24.701056
 30
0.0
  0
SPLINE
  5
2b7
100
AcDbEntity
  8
Capa_1
 62
7
100
AcDbSpline
 70
8
 71
3
 72
8
 73
4
 74
0
 40
0
 40
0
 40
0
 40
0
 40
1
 40
1
 40
1
 40
1
 10
7.141772
 20
24.701056
 30
0.0
 10
7.584824
 20
24.700067
 30
0.0
 10
11.310553
 20
23.355126
 30
0.0
 10
14.026560
 20
22.215800
 30
0.0
  0
SPLINE
  5
2b8
100
AcDbEntity
  8
Capa_1
 62
7
100
AcDbSpline
 70
8
 71
3
 72
8
 73
4
 74
0
 40
0
 40
0
 40
0
 40
0
 40
1
 40
1
 40
1
 40
1
 10
14.026560
 20
22.215800
 30
0.0
 10
15.474748
 20
21.608304
 30
0.0
 10
16.219690
 20
21.261082
 30
0.0
 10
16.473682
 20
21.072815
 30
0.0
  0
SPLINE
  5
2b9
100
AcDbEntity
  8
Capa_1
 62
7
100
AcDbSpline
 70
8
 71
3
 72
8
 73
4
 74
0
 40
0
 40
0
 40
0
 40
0
 40
1
 40
1
 40
1
 40
1
 10
16.473682
 20
21.072815
 30
0.0
 10
16.468482
 20
21.093215
 30
0.0
 10
16.462602
 20
21.113495
 30
0.0
 10
16.456802
 20
21.133705
 30
0.0
  0
SPLINE
  5
2ba
100
AcDbEntity
  8
Capa_1
 62
7
100
AcDbSpline
 70
8
 71
3
 72
8
 73
4
 74
0
 40
0
 40
0
 40
0
 40
0
 40
1
 40
1
 40
1
 40
1
 10
16.456802
 20
21.133705
 30
0.0
 10
16.448002
 20
21.162325
 30
0.0
 10
16.437442
 20
21.190495
 30
0.0
 10
16.426842
 20
21.218465
 30
0.0
  0
SPLINE
  5
2bb
100
AcDbEntity
  8
Capa_1
 62
7
100
AcDbSpline
 70
8
 71
3
 72
8
 73
4
 74
0
 40
0
 40
0
 40
0
 40
0
 40
1
 40
1
 40
1
 40
1
 10
16.426842
 20
21.218465
 30
0.0
 10
16.419242
 20
21.238675
 30
0.0
 10
16.423142
 20
21.228795
 30
0.0
 10
16.415782
 20
21.248085
 30
0.0
  0
SPLINE
  5
2bc
100
AcDbEntity
  8
Capa_1
 62
7
100
AcDbSpline
 70
8
 71
3
 72
8
 73
4
 74
0
 40
0
 40
0
 40
0
 40
0
 40
1
 40
1
 40
1
 40
1
 10
16.415782
 20
21.248085
 30
0.0
 10
16.412382
 20
21.257185
 30
0.0
 10
16.409482
 20
21.266095
 30
0.0
 10
16.406982
 20
21.274765
 30
0.0
  0
SPLINE
  5
2bd
100
AcDbEntity
  8
Capa_1
 62
7
100
AcDbSpline
 70
8
 71
3
 72
8
 73
4
 74
0
 40
0
 40
0
 40
0
 40
0
 40
1
 40
1
 40
1
 40
1
 10
16.406982
 20
21.274765
 30
0.0
 10
16.337232
 20
21.302225
 30
0.0
 10
16.165275
 20
21.377813
 30
0.0
 10
15.896079
 20
21.503687
 30
0.0
  0
SPLINE
  5
2be
100
AcDbEntity
  8
Capa_1
 62
7
100
AcDbSpline
 70
8
 71
3
 72
8
 73
4
 74
0
 40
0
 40
0
 40
0
 40
0
 40
1
 40
1
 40
1
 40
1
 10
15.896079
 20
21.503687
 30
0.0
 10
14.574051
 20
22.121905
 30
0.0
 10
11.345349
 20
23.415747
 30
0.0
 10
9.574745
 20
24.036817
 30
0.0
  0
SPLINE
  5
2bf
100
AcDbEntity
  8
Capa_1
 62
7
100
AcDbSpline
 70
8
 71
3
 72
8
 73
4
 74
0
 40
0
 40
0
 40
0
 40
0
 40
1
 40
1
 40
1
 40
1
 10
9.574745
 20
24.036817
 30
0.0
 10
8.386259
 20
24.453705
 30
0.0
 10
7.202109
 20
24.832299
 30
0.0
 10
7.086627
 20
24.832299
 30
0.0
  0
LWPOLYLINE
  5
2c0
100
AcDbEntity
  8
Capa_1
 62
7
100
AcDbPolyline
 90
3
 70
0
 10
2.556945
 20
20.475598
 30
0.0
 10
2.217068
 20
21.184776
 30
0.0
 10
2.327372
 20
21.430914
 30
0.0
  0
SPLINE
  5
2c1
100
AcDbEntity
  8
Capa_1
 62
7
100
AcDbSpline
 70
8
 71
3
 72
8
 73
4
 74
0
 40
0
 40
0
 40
0
 40
0
 40
1
 40
1
 40
1
 40
1
 10
39.807776
 20
24.785314
 30
0.0
 10
39.556296
 20
24.798734
 30
0.0
 10
39.060482
 20
24.630415
 30
0.0
 10
37.292746
 20
24.013324
 30
0.0
  0
SPLINE
  5
2c2
100
AcDbEntity
  8
Capa_1
 62
7
100
AcDbSpline
 70
8
 71
3
 72
8
 73
4
 74
0
 40
0
 40
0
 40
0
 40
0
 40
1
 40
1
 40
1
 40
1
 10
37.292746
 20
24.013324
 30
0.0
 10
34.800079
 20
23.143197
 30
0.0
 10
33.714823
 20
22.712764
 30
0.0
 10
31.394981
 20
21.674500
 30
0.0
  0
SPLINE
  5
2c3
100
AcDbEntity
  8
Capa_1
 62
7
100
AcDbSpline
 70
8
 71
3
 72
8
 73
4
 74
0
 40
0
 40
0
 40
0
 40
0
 40
1
 40
1
 40
1
 40
1
 10
31.394981
 20
21.674500
 30
0.0
 10
30.736925
 20
21.380001
 30
0.0
 10
30.452648
 20
21.265378
 30
0.0
 10
30.352488
 20
21.264568
 30
0.0
  0
SPLINE
  5
2c4
100
AcDbEntity
  8
Capa_1
 62
7
100
AcDbSpline
 70
8
 71
3
 72
8
 73
4
 74
0
 40
0
 40
0
 40
0
 40
0
 40
1
 40
1
 40
1
 40
1
 10
30.352488
 20
21.264568
 30
0.0
 10
30.341558
 20
21.243008
 30
0.0
 10
30.329968
 20
21.221758
 30
0.0
 10
30.318478
 20
21.200488
 30
0.0
  0
SPLINE
  5
2c5
100
AcDbEntity
  8
Capa_1
 62
7
100
AcDbSpline
 70
8
 71
3
 72
8
 73
4
 74
0
 40
0
 40
0
 40
0
 40
0
 40
1
 40
1
 40
1
 40
1
 10
30.318478
 20
21.200488
 30
0.0
 10
30.310978
 20
21.186388
 30
0.0
 10
30.304038
 20
21.172078
 30
0.0
 10
30.296638
 20
21.157978
 30
0.0
  0
SPLINE
  5
2c6
100
AcDbEntity
  8
Capa_1
 62
7
100
AcDbSpline
 70
8
 71
3
 72
8
 73
4
 74
0
 40
0
 40
0
 40
0
 40
0
 40
1
 40
1
 40
1
 40
1
 10
30.296638
 20
21.157978
 30
0.0
 10
30.288638
 20
21.136678
 30
0.0
 10
30.281058
 20
21.115308
 30
0.0
 10
30.273788
 20
21.093758
 30
0.0
  0
SPLINE
  5
2c7
100
AcDbEntity
  8
Capa_1
 62
7
100
AcDbSpline
 70
8
 71
3
 72
8
 73
4
 74
0
 40
0
 40
0
 40
0
 40
0
 40
1
 40
1
 40
1
 40
1
 10
30.273788
 20
21.093758
 30
0.0
 10
30.266188
 20
21.071358
 30
0.0
 10
30.259838
 20
21.050388
 30
0.0
 10
30.252838
 20
21.028008
 30
0.0
  0
SPLINE
  5
2c8
100
AcDbEntity
  8
Capa_1
 62
7
100
AcDbSpline
 70
8
 71
3
 72
8
 73
4
 74
0
 40
0
 40
0
 40
0
 40
0
 40
1
 40
1
 40
1
 40
1
 10
30.252838
 20
21.028008
 30
0.0
 10
30.414732
 20
21.144827
 30
0.0
 10
32.176419
 20
21.940515
 30
0.0
 10
33.685967
 20
22.576585
 30
0.0
  0
SPLINE
  5
2c9
100
AcDbEntity
  8
Capa_1
 62
7
100
AcDbSpline
 70
8
 71
3
 72
8
 73
4
 74
0
 40
0
 40
0
 40
0
 40
0
 40
1
 40
1
 40
1
 40
1
 10
33.685967
 20
22.576585
 30
0.0
 10
35.248069
 20
23.234760
 30
0.0
 10
39.410245
 20
24.701377
 30
0.0
 10
39.716249
 20
24.701444
 30
0.0
  0
SPLINE
  5
2ca
100
AcDbEntity
  8
Capa_1
 62
7
100
AcDbSpline
 70
8
 71
3
 72
8
 73
4
 74
0
 40
0
 40
0
 40
0
 40
0
 40
1
 40
1
 40
1
 40
1
 10
39.716249
 20
24.701444
 30
0.0
 10
39.911361
 20
24.701488
 30
0.0
 10
40.142947
 20
24.579030
 30
0.0
 10
41.387180
 20
23.817236
 30
0.0
  0
SPLINE
  5
2cb
100
AcDbEntity
  8
Capa_1
 62
7
100
AcDbSpline
 70
8
 71
3
 72
8
 73
4
 74
0
 40
0
 40
0
 40
0
 40
0
 40
1
 40
1
 40
1
 40
1
 10
41.387180
 20
23.817236
 30
0.0
 10
42.652580
 20
23.042521
 30
0.0
 10
43.968961
 20
22.117890
 30
0.0
 10
44.286814
 20
21.780721
 30
0.0
  0
SPLINE
  5
2cc
100
AcDbEntity
  8
Capa_1
 62
7
100
AcDbSpline
 70
8
 71
3
 72
8
 73
4
 74
0
 40
0
 40
0
 40
0
 40
0
 40
1
 40
1
 40
1
 40
1
 10
44.286814
 20
21.780721
 30
0.0
 10
44.651398
 20
21.393974
 30
0.0
 10
44.646675
 20
21.331481
 30
0.0
 10
44.177399
 20
20.338236
 30
0.0
  0
SPLINE
  5
2cd
100
AcDbEntity
  8
Capa_1
 62
7
100
AcDbSpline
 70
8
 71
3
 72
8
 73
4
 74
0
 40
0
 40
0
 40
0
 40
0
 40
1
 40
1
 40
1
 40
1
 10
44.177399
 20
20.338236
 30
0.0
 10
43.947419
 20
19.851473
 30
0.0
 10
43.759285
 20
19.445911
 30
0.0
 10
43.759285
 20
19.437048
 30
0.0
  0
SPLINE
  5
2ce
100
AcDbEntity
  8
Capa_1
 62
7
100
AcDbSpline
 70
8
 71
3
 72
8
 73
4
 74
0
 40
0
 40
0
 40
0
 40
0
 40
1
 40
1
 40
1
 40
1
 10
43.759285
 20
19.437048
 30
0.0
 10
43.759285
 20
19.428248
 30
0.0
 10
43.801675
 20
19.404568
 30
0.0
 10
43.853475
 20
19.384578
 30
0.0
  0
SPLINE
  5
2cf
100
AcDbEntity
  8
Capa_1
 62
7
100
AcDbSpline
 70
8
 71
3
 72
8
 73
4
 74
0
 40
0
 40
0
 40
0
 40
0
 40
1
 40
1
 40
1
 40
1
 10
43.853475
 20
19.384578
 30
0.0
 10
43.911385
 20
19.362218
 30
0.0
 10
43.935565
 20
19.379778
 30
0.0
 10
43.916435
 20
19.429898
 30
0.0
  0
SPLINE
  5
2d0
100
AcDbEntity
  8
Capa_1
 62
7
100
AcDbSpline
 70
8
 71
3
 72
8
 73
4
 74
0
 40
0
 40
0
 40
0
 40
0
 40
1
 40
1
 40
1
 40
1
 10
43.916435
 20
19.429898
 30
0.0
 10
43.899325
 20
19.474738
 30
0.0
 10
44.061745
 20
19.886646
 30
0.0
 10
44.277175
 20
20.345257
 30
0.0
  0
SPLINE
  5
2d1
100
AcDbEntity
  8
Capa_1
 62
7
100
AcDbSpline
 70
8
 71
3
 72
8
 73
4
 74
0
 40
0
 40
0
 40
0
 40
0
 40
1
 40
1
 40
1
 40
1
 10
44.277175
 20
20.345257
 30
0.0
 10
44.492702
 20
20.803867
 30
0.0
 10
44.669142
 20
21.250997
 30
0.0
 10
44.669142
 20
21.338747
 30
0.0
  0
SPLINE
  5
2d2
100
AcDbEntity
  8
Capa_1
 62
7
100
AcDbSpline
 70
8
 71
3
 72
8
 73
4
 74
0
 40
0
 40
0
 40
0
 40
0
 40
1
 40
1
 40
1
 40
1
 10
44.669142
 20
21.338747
 30
0.0
 10
44.669142
 20
21.590615
 30
0.0
 10
44.275809
 20
21.967281
 30
0.0
 10
43.280760
 20
22.668378
 30
0.0
  0
SPLINE
  5
2d3
100
AcDbEntity
  8
Capa_1
 62
7
100
AcDbSpline
 70
8
 71
3
 72
8
 73
4
 74
0
 40
0
 40
0
 40
0
 40
0
 40
1
 40
1
 40
1
 40
1
 10
43.280760
 20
22.668378
 30
0.0
 10
42.467335
 20
23.241549
 30
0.0
 10
40.566968
 20
24.436432
 30
0.0
 10
40.016072
 20
24.721232
 30
0.0
  0
SPLINE
  5
2d4
100
AcDbEntity
  8
Capa_1
 62
7
100
AcDbSpline
 70
8
 71
3
 72
8
 73
4
 74
0
 40
0
 40
0
 40
0
 40
0
 40
1
 40
1
 40
1
 40
1
 10
40.016072
 20
24.721232
 30
0.0
 10
39.948472
 20
24.756162
 30
0.0
 10
39.891728
 20
24.780852
 30
0.0
 10
39.807903
 20
24.785322
 30
0.0
  0
LWPOLYLINE
  5
2d5
100
AcDbEntity
  8
Capa_1
 62
7
100
AcDbPolyline
 90
2
 70
0
 10
7.086627
 20
24.832299
 30
0.0
 10
7.086759
 20
24.832294
 30
0.0
  0
SPLINE
  5
2d6
100
AcDbEntity
  8
Capa_1
 62
7
100
AcDbSpline
 70
8
 71
3
 72
8
 73
4
 74
0
 40
0
 40
0
 40
0
 40
0
 40
1
 40
1
 40
1
 40
1
 10
30.213625
 20
20.861782
 30
0.0
 10
30.212887
 20
20.856982
 30
0.0
 10
30.211925
 20
20.852182
 30
0.0
 10
30.211425
 20
20.847362
 30
0.0
  0
SPLINE
  5
2d7
100
AcDbEntity
  8
Capa_1
 62
7
100
AcDbSpline
 70
8
 71
3
 72
8
 73
4
 74
0
 40
0
 40
0
 40
0
 40
0
 40
1
 40
1
 40
1
 40
1
 10
30.211425
 20
20.847362
 30
0.0
 10
30.208825
 20
20.827132
 30
0.0
 10
30.209225
 20
20.809952
 30
0.0
 10
30.210934
 20
20.789792
 30
0.0
  0
SPLINE
  5
2d8
100
AcDbEntity
  8
Capa_1
 62
7
100
AcDbSpline
 70
8
 71
3
 72
8
 73
4
 74
0
 40
0
 40
0
 40
0
 40
0
 40
1
 40
1
 40
1
 40
1
 10
30.210934
 20
20.789792
 30
0.0
 10
30.212134
 20
20.779282
 30
0.0
 10
30.214134
 20
20.768962
 30
0.0
 10
30.216334
 20
20.758632
 30
0.0
  0
SPLINE
  5
2d9
100
AcDbEntity
  8
Capa_1
 62
7
100
AcDbSpline
 70
8
 71
3
 72
8
 73
4
 74
0
 40
0
 40
0
 40
0
 40
0
 40
1
 40
1
 40
1
 40
1
 10
30.216334
 20
20.758632
 30
0.0
 10
30.394330
 20
20.756332
 30
0.0
 10
32.088088
 20
20.022896
 30
0.0
 10
33.328451
 20
19.406914
 30
0.0
  0
SPLINE
  5
2da
100
AcDbEntity
  8
Capa_1
 62
7
100
AcDbSpline
 70
8
 71
3
 72
8
 73
4
 74
0
 40
0
 40
0
 40
0
 40
0
 40
1
 40
1
 40
1
 40
1
 10
33.328451
 20
19.406914
 30
0.0
 10
36.395908
 20
17.883684
 30
0.0
 10
39.023374
 20
16.165590
 30
0.0
 10
40.787607
 20
14.529595
 30
0.0
  0
LWPOLYLINE
  5
2db
100
AcDbEntity
  8
Capa_1
 62
7
100
AcDbPolyline
 90
2
 70
0
 10
39.807903
 20
24.785322
 30
0.0
 10
39.807776
 20
24.785314
 30
0.0
  0
SPLINE
  5
2dc
100
AcDbEntity
  8
Capa_1
 62
7
100
AcDbSpline
 70
8
 71
3
 72
8
 73
4
 74
0
 40
0
 40
0
 40
0
 40
0
 40
1
 40
1
 40
1
 40
1
 10
40.906667
 20
13.803821
 30
0.0
 10
40.456853
 20
13.141134
 30
0.0
 10
40.442334
 20
13.133339
 30
0.0
 10
39.394401
 20
12.993146
 30
0.0
  0
SPLINE
  5
2dd
100
AcDbEntity
  8
Capa_1
 62
7
100
AcDbSpline
 70
8
 71
3
 72
8
 73
4
 74
0
 40
0
 40
0
 40
0
 40
0
 40
1
 40
1
 40
1
 40
1
 10
39.394401
 20
12.993146
 30
0.0
 10
38.466307
 20
12.868980
 30
0.0
 10
38.464803
 20
12.868521
 30
0.0
 10
37.846594
 20
12.499975
 30
0.0
  0
SPLINE
  5
2de
100
AcDbEntity
  8
Capa_1
 62
7
100
AcDbSpline
 70
8
 71
3
 72
8
 73
4
 74
0
 40
0
 40
0
 40
0
 40
0
 40
1
 40
1
 40
1
 40
1
 10
37.846594
 20
12.499975
 30
0.0
 10
37.115848
 20
12.064390
 30
0.0
 10
35.915027
 20
11.140520
 30
0.0
 10
35.283711
 20
10.528316
 30
0.0
  0
SPLINE
  5
2df
100
AcDbEntity
  8
Capa_1
 62
7
100
AcDbSpline
 70
8
 71
3
 72
8
 73
4
 74
0
 40
0
 40
0
 40
0
 40
0
 40
1
 40
1
 40
1
 40
1
 10
35.283711
 20
10.528316
 30
0.0
 10
34.191584
 20
9.469217
 30
0.0
 10
32.994563
 20
7.708444
 30
0.0
 10
32.026130
 20
5.736663
 30
0.0
  0
SPLINE
  5
2e0
100
AcDbEntity
  8
Capa_1
 62
7
100
AcDbSpline
 70
8
 71
3
 72
8
 73
4
 74
0
 40
0
 40
0
 40
0
 40
0
 40
1
 40
1
 40
1
 40
1
 10
32.026130
 20
5.736663
 30
0.0
 10
31.233729
 20
4.123186
 30
0.0
 10
30.118665
 20
1.054641
 30
0.0
 10
30.092957
 20
0.416861
 30
0.0
  0
SPLINE
  5
2e1
100
AcDbEntity
  8
Capa_1
 62
7
100
AcDbSpline
 70
8
 71
3
 72
8
 73
4
 74
0
 40
0
 40
0
 40
0
 40
0
 40
1
 40
1
 40
1
 40
1
 10
30.092957
 20
0.416861
 30
0.0
 10
30.079877
 20
0.091701
 30
0.0
 10
30.071977
 20
0.076661
 30
0.0
 10
29.965262
 20
0.172891
 30
0.0
  0
SPLINE
  5
2e2
100
AcDbEntity
  8
Capa_1
 62
7
100
AcDbSpline
 70
8
 71
3
 72
8
 73
4
 74
0
 40
0
 40
0
 40
0
 40
0
 40
1
 40
1
 40
1
 40
1
 10
29.965262
 20
0.172891
 30
0.0
 10
29.823903
 20
0.300361
 30
0.0
 10
29.814132
 20
0.236691
 30
0.0
 10
29.953592
 20
0.096391
 30
0.0
  0
SPLINE
  5
2e3
100
AcDbEntity
  8
Capa_1
 62
7
100
AcDbSpline
 70
8
 71
3
 72
8
 73
4
 74
0
 40
0
 40
0
 40
0
 40
0
 40
1
 40
1
 40
1
 40
1
 10
29.953592
 20
0.096391
 30
0.0
 10
30.118568
 20
-0.069539
 30
0.0
 10
30.176416
 20
-0.024059
 30
0.0
 10
30.176612
 20
0.271551
 30
0.0
  0
SPLINE
  5
2e4
100
AcDbEntity
  8
Capa_1
 62
7
100
AcDbSpline
 70
8
 71
3
 72
8
 73
4
 74
0
 40
0
 40
0
 40
0
 40
0
 40
1
 40
1
 40
1
 40
1
 10
30.176612
 20
0.271551
 30
0.0
 10
30.176853
 20
0.679741
 30
0.0
 10
30.433141
 20
1.569421
 30
0.0
 10
30.943661
 20
2.935151
 30
0.0
  0
SPLINE
  5
2e5
100
AcDbEntity
  8
Capa_1
 62
7
100
AcDbSpline
 70
8
 71
3
 72
8
 73
4
 74
0
 40
0
 40
0
 40
0
 40
0
 40
1
 40
1
 40
1
 40
1
 10
30.943661
 20
2.935151
 30
0.0
 10
32.079611
 20
5.973824
 30
0.0
 10
33.328057
 20
8.220647
 30
0.0
 10
34.847833
 20
9.961837
 30
0.0
  0
SPLINE
  5
2e6
100
AcDbEntity
  8
Capa_1
 62
7
100
AcDbSpline
 70
8
 71
3
 72
8
 73
4
 74
0
 40
0
 40
0
 40
0
 40
0
 40
1
 40
1
 40
1
 40
1
 10
34.847833
 20
9.961837
 30
0.0
 10
35.483009
 20
10.689477
 30
0.0
 10
36.901281
 20
11.842317
 30
0.0
 10
37.857770
 20
12.408539
 30
0.0
  0
SPLINE
  5
2e7
100
AcDbEntity
  8
Capa_1
 62
7
100
AcDbSpline
 70
8
 71
3
 72
8
 73
4
 74
0
 40
0
 40
0
 40
0
 40
0
 40
1
 40
1
 40
1
 40
1
 10
37.857770
 20
12.408539
 30
0.0
 10
38.471277
 20
12.771735
 30
0.0
 10
38.713788
 20
12.843881
 30
0.0
 10
39.616538
 20
12.931456
 30
0.0
  0
SPLINE
  5
2e8
100
AcDbEntity
  8
Capa_1
 62
7
100
AcDbSpline
 70
8
 71
3
 72
8
 73
4
 74
0
 40
0
 40
0
 40
0
 40
0
 40
1
 40
1
 40
1
 40
1
 10
39.616538
 20
12.931456
 30
0.0
 10
40.084897
 20
12.976876
 30
0.0
 10
40.300478
 20
13.028586
 30
0.0
 10
40.441342
 20
13.129464
 30
0.0
  0
SPLINE
  5
2e9
100
AcDbEntity
  8
Capa_1
 62
7
100
AcDbSpline
 70
8
 71
3
 72
8
 73
4
 74
0
 40
0
 40
0
 40
0
 40
0
 40
1
 40
1
 40
1
 40
1
 10
40.441342
 20
13.129464
 30
0.0
 10
40.618508
 20
13.256328
 30
0.0
 10
41.224640
 20
14.058921
 30
0.0
 10
41.224640
 20
14.166614
 30
0.0
  0
SPLINE
  5
2ea
100
AcDbEntity
  8
Capa_1
 62
7
100
AcDbSpline
 70
8
 71
3
 72
8
 73
4
 74
0
 40
0
 40
0
 40
0
 40
0
 40
1
 40
1
 40
1
 40
1
 10
41.224640
 20
14.166614
 30
0.0
 10
41.224640
 20
14.291785
 30
0.0
 10
39.948174
 20
15.426317
 30
0.0
 10
39.177481
 20
15.986098
 30
0.0
  0
SPLINE
  5
2eb
100
AcDbEntity
  8
Capa_1
 62
7
100
AcDbSpline
 70
8
 71
3
 72
8
 73
4
 74
0
 40
0
 40
0
 40
0
 40
0
 40
1
 40
1
 40
1
 40
1
 10
39.177481
 20
15.986098
 30
0.0
 10
37.413291
 20
17.267598
 30
0.0
 10
35.439650
 20
18.456221
 30
0.0
 10
33.393447
 20
19.469310
 30
0.0
  0
SPLINE
  5
2ec
100
AcDbEntity
  8
Capa_1
 62
7
100
AcDbSpline
 70
8
 71
3
 72
8
 73
4
 74
0
 40
0
 40
0
 40
0
 40
0
 40
1
 40
1
 40
1
 40
1
 10
33.393447
 20
19.469310
 30
0.0
 10
32.227378
 20
20.046677
 30
0.0
 10
30.694475
 20
20.719761
 30
0.0
 10
30.355205
 20
20.803411
 30
0.0
  0
SPLINE
  5
2ed
100
AcDbEntity
  8
Capa_1
 62
7
100
AcDbSpline
 70
8
 71
3
 72
8
 73
4
 74
0
 40
0
 40
0
 40
0
 40
0
 40
1
 40
1
 40
1
 40
1
 10
30.355205
 20
20.803411
 30
0.0
 10
30.283145
 20
20.821181
 30
0.0
 10
30.240238
 20
20.839751
 30
0.0
 10
30.213676
 20
20.861751
 30
0.0
  0
LWPOLYLINE
  5
2ee
100
AcDbEntity
  8
Capa_1
 62
7
100
AcDbPolyline
 90
3
 70
0
 10
40.787607
 20
14.529595
 30
0.0
 10
41.163071
 20
14.181454
 30
0.0
 10
40.906667
 20
13.803821
 30
0.0
  0
SPLINE
  5
2ef
100
AcDbEntity
  8
Capa_1
 62
7
100
AcDbSpline
 70
8
 71
3
 72
8
 73
4
 74
0
 40
0
 40
0
 40
0
 40
0
 40
1
 40
1
 40
1
 40
1
 10
16.540140
 20
20.847482
 30
0.0
 10
16.537740
 20
20.846987
 30
0.0
 10
16.536040
 20
20.844982
 30
0.0
 10
16.533340
 20
20.844982
 30
0.0
  0
SPLINE
  5
2f0
100
AcDbEntity
  8
Capa_1
 62
7
100
AcDbSpline
 70
8
 71
3
 72
8
 73
4
 74
0
 40
0
 40
0
 40
0
 40
0
 40
1
 40
1
 40
1
 40
1
 10
16.533340
 20
20.844982
 30
0.0
 10
16.361185
 20
20.844982
 30
0.0
 10
14.027326
 20
19.790072
 30
0.0
 10
12.759270
 20
19.139122
 30
0.0
  0
SPLINE
  5
2f1
100
AcDbEntity
  8
Capa_1
 62
7
100
AcDbSpline
 70
8
 71
3
 72
8
 73
4
 74
0
 40
0
 40
0
 40
0
 40
0
 40
1
 40
1
 40
1
 40
1
 10
12.759270
 20
19.139122
 30
0.0
 10
9.743007
 20
17.590733
 30
0.0
 10
7.174392
 20
15.817318
 30
0.0
 10
5.971968
 20
14.452920
 30
0.0
  0
LWPOLYLINE
  5
2f2
100
AcDbEntity
  8
Capa_1
 62
7
100
AcDbPolyline
 90
1
 70
1
 10
30.213676
 20
20.861751
 30
0.0
  0
SPLINE
  5
2f3
100
AcDbEntity
  8
Capa_1
 62
7
100
AcDbSpline
 70
8
 71
3
 72
8
 73
4
 74
0
 40
0
 40
0
 40
0
 40
0
 40
1
 40
1
 40
1
 40
1
 10
5.874486
 20
13.860555
 30
0.0
 10
6.096342
 20
13.437465
 30
0.0
 10
6.361128
 20
13.151491
 30
0.0
 10
6.604723
 20
13.071968
 30
0.0
  0
SPLINE
  5
2f4
100
AcDbEntity
  8
Capa_1
 62
7
100
AcDbSpline
 70
8
 71
3
 72
8
 73
4
 74
0
 40
0
 40
0
 40
0
 40
0
 40
1
 40
1
 40
1
 40
1
 10
6.604723
 20
13.071968
 30
0.0
 10
6.719090
 20
13.034618
 30
0.0
 10
7.090625
 20
12.973068
 30
0.0
 10
7.430162
 20
12.935110
 30
0.0
  0
SPLINE
  5
2f5
100
AcDbEntity
  8
Capa_1
 62
7
100
AcDbSpline
 70
8
 71
3
 72
8
 73
4
 74
0
 40
0
 40
0
 40
0
 40
0
 40
1
 40
1
 40
1
 40
1
 10
7.430162
 20
12.935110
 30
0.0
 10
8.546577
 20
12.810324
 30
0.0
 10
8.795273
 20
12.690152
 30
0.0
 10
10.191948
 20
11.600883
 30
0.0
  0
SPLINE
  5
2f6
100
AcDbEntity
  8
Capa_1
 62
7
100
AcDbSpline
 70
8
 71
3
 72
8
 73
4
 74
0
 40
0
 40
0
 40
0
 40
0
 40
1
 40
1
 40
1
 40
1
 10
10.191948
 20
11.600883
 30
0.0
 10
11.986937
 20
10.200988
 30
0.0
 10
13.297504
 20
8.560816
 30
0.0
 10
14.504713
 20
6.203330
 30
0.0
  0
SPLINE
  5
2f7
100
AcDbEntity
  8
Capa_1
 62
7
100
AcDbSpline
 70
8
 71
3
 72
8
 73
4
 74
0
 40
0
 40
0
 40
0
 40
0
 40
1
 40
1
 40
1
 40
1
 10
14.504713
 20
6.203330
 30
0.0
 10
15.314794
 20
4.621335
 30
0.0
 10
16.458595
 20
1.568751
 30
0.0
 10
16.664966
 20
0.437971
 30
0.0
  0
LWPOLYLINE
  5
2f8
100
AcDbEntity
  8
Capa_1
 62
7
100
AcDbPolyline
 90
3
 70
0
 10
5.971968
 20
14.452920
 30
0.0
 10
5.716073
 20
14.162610
 30
0.0
 10
5.874486
 20
13.860555
 30
0.0
  0
SPLINE
  5
2f9
100
AcDbEntity
  8
Capa_1
 62
7
100
AcDbSpline
 70
8
 71
3
 72
8
 73
4
 74
0
 40
0
 40
0
 40
0
 40
0
 40
1
 40
1
 40
1
 40
1
 10
16.919468
 20
0.125071
 30
0.0
 10
17.074655
 20
0.236211
 30
0.0
 10
17.098713
 20
0.305841
 30
0.0
 10
17.136266
 20
0.752671
 30
0.0
  0
SPLINE
  5
2fa
100
AcDbEntity
  8
Capa_1
 62
7
100
AcDbSpline
 70
8
 71
3
 72
8
 73
4
 74
0
 40
0
 40
0
 40
0
 40
0
 40
1
 40
1
 40
1
 40
1
 10
17.136266
 20
0.752671
 30
0.0
 10
17.159506
 20
1.029111
 30
0.0
 10
17.178536
 20
1.384781
 30
0.0
 10
17.178536
 20
1.543041
 30
0.0
  0
SPLINE
  5
2fb
100
AcDbEntity
  8
Capa_1
 62
7
100
AcDbSpline
 70
8
 71
3
 72
8
 73
4
 74
0
 40
0
 40
0
 40
0
 40
0
 40
1
 40
1
 40
1
 40
1
 10
17.178536
 20
1.543041
 30
0.0
 10
17.178536
 20
1.738501
 30
0.0
 10
17.228156
 20
1.904331
 30
0.0
 10
17.333646
 20
2.060471
 30
0.0
  0
SPLINE
  5
2fc
100
AcDbEntity
  8
Capa_1
 62
7
100
AcDbSpline
 70
8
 71
3
 72
8
 73
4
 74
0
 40
0
 40
0
 40
0
 40
0
 40
1
 40
1
 40
1
 40
1
 10
17.333646
 20
2.060471
 30
0.0
 10
17.483407
 20
2.282141
 30
0.0
 10
17.485700
 20
2.302521
 30
0.0
 10
17.396736
 20
2.645171
 30
0.0
  0
SPLINE
  5
2fd
100
AcDbEntity
  8
Capa_1
 62
7
100
AcDbSpline
 70
8
 71
3
 72
8
 73
4
 74
0
 40
0
 40
0
 40
0
 40
0
 40
1
 40
1
 40
1
 40
1
 10
17.396736
 20
2.645171
 30
0.0
 10
17.287810
 20
3.064711
 30
0.0
 10
16.772218
 20
4.492271
 30
0.0
 10
16.433195
 20
5.313247
 30
0.0
  0
SPLINE
  5
2fe
100
AcDbEntity
  8
Capa_1
 62
7
100
AcDbSpline
 70
8
 71
3
 72
8
 73
4
 74
0
 40
0
 40
0
 40
0
 40
0
 40
1
 40
1
 40
1
 40
1
 10
16.433195
 20
5.313247
 30
0.0
 10
16.264566
 20
5.721607
 30
0.0
 10
16.198303
 20
5.973770
 30
0.0
 10
16.209668
 20
6.162986
 30
0.0
  0
SPLINE
  5
2ff
100
AcDbEntity
  8
Capa_1
 62
7
100
AcDbSpline
 70
8
 71
3
 72
8
 73
4
 74
0
 40
0
 40
0
 40
0
 40
0
 40
1
 40
1
 40
1
 40
1
 10
16.209668
 20
6.162986
 30
0.0
 10
16.226938
 20
6.450570
 30
0.0
 10
16.179928
 20
6.566468
 30
0.0
 10
15.357827
 20
8.262312
 30
0.0
  0
SPLINE
  5
300
100
AcDbEntity
  8
Capa_1
 62
7
100
AcDbSpline
 70
8
 71
3
 72
8
 73
4
 74
0
 40
0
 40
0
 40
0
 40
0
 40
1
 40
1
 40
1
 40
1
 10
15.357827
 20
8.262312
 30
0.0
 10
15.113849
 20
8.765571
 30
0.0
 10
14.805526
 20
9.339193
 30
0.0
 10
14.672775
 20
9.536919
 30
0.0
  0
SPLINE
  5
301
100
AcDbEntity
  8
Capa_1
 62
7
100
AcDbSpline
 70
8
 71
3
 72
8
 73
4
 74
0
 40
0
 40
0
 40
0
 40
0
 40
1
 40
1
 40
1
 40
1
 10
14.672775
 20
9.536919
 30
0.0
 10
14.287448
 20
10.110759
 30
0.0
 10
14.124048
 20
10.455170
 30
0.0
 10
14.124048
 20
10.693692
 30
0.0
  0
SPLINE
  5
302
100
AcDbEntity
  8
Capa_1
 62
7
100
AcDbSpline
 70
8
 71
3
 72
8
 73
4
 74
0
 40
0
 40
0
 40
0
 40
0
 40
1
 40
1
 40
1
 40
1
 10
14.124048
 20
10.693692
 30
0.0
 10
14.124048
 20
10.815950
 30
0.0
 10
14.080258
 20
11.001083
 30
0.0
 10
14.026818
 20
11.105030
 30
0.0
  0
SPLINE
  5
303
100
AcDbEntity
  8
Capa_1
 62
7
100
AcDbSpline
 70
8
 71
3
 72
8
 73
4
 74
0
 40
0
 40
0
 40
0
 40
0
 40
1
 40
1
 40
1
 40
1
 10
14.026818
 20
11.105030
 30
0.0
 10
13.844442
 20
11.459745
 30
0.0
 10
11.829068
 20
13.111480
 30
0.0
 10
10.235109
 20
14.212652
 30
0.0
  0
LWPOLYLINE
  5
304
100
AcDbEntity
  8
Capa_1
 62
7
100
AcDbPolyline
 90
3
 70
0
 10
16.664966
 20
0.437971
 30
0.0
 10
16.744936
 20
-0.000039
 30
0.0
 10
16.919468
 20
0.125071
 30
0.0
  0
SPLINE
  5
305
100
AcDbEntity
  8
Capa_1
 62
7
100
AcDbSpline
 70
8
 71
3
 72
8
 73
4
 74
0
 40
0
 40
0
 40
0
 40
0
 40
1
 40
1
 40
1
 40
1
 10
9.747689
 20
15.082071
 30
0.0
 10
11.222412
 20
15.830397
 30
0.0
 10
14.860757
 20
17.331188
 30
0.0
 10
16.268690
 20
17.772062
 30
0.0
  0
SPLINE
  5
306
100
AcDbEntity
  8
Capa_1
 62
7
100
AcDbSpline
 70
8
 71
3
 72
8
 73
4
 74
0
 40
0
 40
0
 40
0
 40
0
 40
1
 40
1
 40
1
 40
1
 10
16.268690
 20
17.772062
 30
0.0
 10
16.660342
 20
17.894709
 30
0.0
 10
16.971606
 20
17.999198
 30
0.0
 10
17.126115
 20
18.056246
 30
0.0
  0
SPLINE
  5
307
100
AcDbEntity
  8
Capa_1
 62
7
100
AcDbSpline
 70
8
 71
3
 72
8
 73
4
 74
0
 40
0
 40
0
 40
0
 40
0
 40
1
 40
1
 40
1
 40
1
 10
17.126115
 20
18.056246
 30
0.0
 10
17.118815
 20
18.065746
 30
0.0
 10
17.111725
 20
18.075516
 30
0.0
 10
17.104685
 20
18.085226
 30
0.0
  0
SPLINE
  5
308
100
AcDbEntity
  8
Capa_1
 62
7
100
AcDbSpline
 70
8
 71
3
 72
8
 73
4
 74
0
 40
0
 40
0
 40
0
 40
0
 40
1
 40
1
 40
1
 40
1
 10
17.104685
 20
18.085226
 30
0.0
 10
17.094885
 20
18.099756
 30
0.0
 10
17.086025
 20
18.114706
 30
0.0
 10
17.077775
 20
18.129896
 30
0.0
  0
SPLINE
  5
309
100
AcDbEntity
  8
Capa_1
 62
7
100
AcDbSpline
 70
8
 71
3
 72
8
 73
4
 74
0
 40
0
 40
0
 40
0
 40
0
 40
1
 40
1
 40
1
 40
1
 10
17.077775
 20
18.129896
 30
0.0
 10
16.922267
 20
18.075946
 30
0.0
 10
16.617163
 20
17.972214
 30
0.0
 10
16.073743
 20
17.791585
 30
0.0
  0
SPLINE
  5
30a
100
AcDbEntity
  8
Capa_1
 62
7
100
AcDbSpline
 70
8
 71
3
 72
8
 73
4
 74
0
 40
0
 40
0
 40
0
 40
0
 40
1
 40
1
 40
1
 40
1
 10
16.073743
 20
17.791585
 30
0.0
 10
15.412526
 20
17.571795
 30
0.0
 10
14.125629
 20
17.083971
 30
0.0
 10
13.214222
 20
16.707580
 30
0.0
  0
SPLINE
  5
30b
100
AcDbEntity
  8
Capa_1
 62
7
100
AcDbSpline
 70
8
 71
3
 72
8
 73
4
 74
0
 40
0
 40
0
 40
0
 40
0
 40
1
 40
1
 40
1
 40
1
 10
13.214222
 20
16.707580
 30
0.0
 10
11.584675
 20
16.034644
 30
0.0
 10
9.349523
 20
15.023184
 30
0.0
 10
9.233001
 20
14.905971
 30
0.0
  0
SPLINE
  5
30c
100
AcDbEntity
  8
Capa_1
 62
7
100
AcDbSpline
 70
8
 71
3
 72
8
 73
4
 74
0
 40
0
 40
0
 40
0
 40
0
 40
1
 40
1
 40
1
 40
1
 10
9.233001
 20
14.905971
 30
0.0
 10
9.197121
 20
14.869891
 30
0.0
 10
9.359032
 20
14.720297
 30
0.0
 10
9.641721
 20
14.528339
 30
0.0
  0
SPLINE
  5
30d
100
AcDbEntity
  8
Capa_1
 62
7
100
AcDbSpline
 70
8
 71
3
 72
8
 73
4
 74
0
 40
0
 40
0
 40
0
 40
0
 40
1
 40
1
 40
1
 40
1
 10
9.641721
 20
14.528339
 30
0.0
 10
10.546362
 20
13.914030
 30
0.0
 10
12.018992
 20
12.813664
 30
0.0
 10
12.694308
 20
12.247347
 30
0.0
  0
SPLINE
  5
30e
100
AcDbEntity
  8
Capa_1
 62
7
100
AcDbSpline
 70
8
 71
3
 72
8
 73
4
 74
0
 40
0
 40
0
 40
0
 40
0
 40
1
 40
1
 40
1
 40
1
 10
12.694308
 20
12.247347
 30
0.0
 10
13.933399
 20
11.208259
 30
0.0
 10
13.982589
 20
11.144840
 30
0.0
 10
14.089417
 20
10.449057
 30
0.0
  0
SPLINE
  5
30f
100
AcDbEntity
  8
Capa_1
 62
7
100
AcDbSpline
 70
8
 71
3
 72
8
 73
4
 74
0
 40
0
 40
0
 40
0
 40
0
 40
1
 40
1
 40
1
 40
1
 10
14.089417
 20
10.449057
 30
0.0
 10
14.108987
 20
10.321578
 30
0.0
 10
14.305693
 20
9.939164
 30
0.0
 10
14.526569
 20
9.599316
 30
0.0
  0
SPLINE
  5
310
100
AcDbEntity
  8
Capa_1
 62
7
100
AcDbSpline
 70
8
 71
3
 72
8
 73
4
 74
0
 40
0
 40
0
 40
0
 40
0
 40
1
 40
1
 40
1
 40
1
 10
14.526569
 20
9.599316
 30
0.0
 10
14.747446
 20
9.259454
 30
0.0
 10
15.100738
 20
8.613712
 30
0.0
 10
15.311644
 20
8.164360
 30
0.0
  0
SPLINE
  5
311
100
AcDbEntity
  8
Capa_1
 62
7
100
AcDbSpline
 70
8
 71
3
 72
8
 73
4
 74
0
 40
0
 40
0
 40
0
 40
0
 40
1
 40
1
 40
1
 40
1
 10
15.311644
 20
8.164360
 30
0.0
 10
15.522567
 20
7.714995
 30
0.0
 10
15.797938
 20
7.130226
 30
0.0
 10
15.923454
 20
6.864985
 30
0.0
  0
SPLINE
  5
312
100
AcDbEntity
  8
Capa_1
 62
7
100
AcDbSpline
 70
8
 71
3
 72
8
 73
4
 74
0
 40
0
 40
0
 40
0
 40
0
 40
1
 40
1
 40
1
 40
1
 10
15.923454
 20
6.864985
 30
0.0
 10
16.092945
 20
6.506803
 30
0.0
 10
16.141499
 20
6.332043
 30
0.0
 10
16.112458
 20
6.185934
 30
0.0
  0
SPLINE
  5
313
100
AcDbEntity
  8
Capa_1
 62
7
100
AcDbSpline
 70
8
 71
3
 72
8
 73
4
 74
0
 40
0
 40
0
 40
0
 40
0
 40
1
 40
1
 40
1
 40
1
 10
16.112458
 20
6.185934
 30
0.0
 10
16.082668
 20
6.036100
 30
0.0
 10
16.173708
 20
5.736973
 30
0.0
 10
16.494142
 20
4.931370
 30
0.0
  0
SPLINE
  5
314
100
AcDbEntity
  8
Capa_1
 62
7
100
AcDbSpline
 70
8
 71
3
 72
8
 73
4
 74
0
 40
0
 40
0
 40
0
 40
0
 40
1
 40
1
 40
1
 40
1
 10
16.494142
 20
4.931370
 30
0.0
 10
16.725541
 20
4.349601
 30
0.0
 10
17.031051
 20
3.525141
 30
0.0
 10
17.172717
 20
3.099631
 30
0.0
  0
LWPOLYLINE
  5
315
100
AcDbEntity
  8
Capa_1
 62
7
100
AcDbPolyline
 90
3
 70
0
 10
10.235109
 20
14.212652
 30
0.0
 10
9.303302
 20
14.856488
 30
0.0
 10
9.747689
 20
15.082071
 30
0.0
  0
SPLINE
  5
316
100
AcDbEntity
  8
Capa_1
 62
7
100
AcDbSpline
 70
8
 71
3
 72
8
 73
4
 74
0
 40
0
 40
0
 40
0
 40
0
 40
1
 40
1
 40
1
 40
1
 10
17.239611
 20
2.092611
 30
0.0
 10
17.052244
 20
1.863991
 30
0.0
 10
17.048579
 20
1.844821
 30
0.0
 10
17.048579
 20
1.092351
 30
0.0
  0
SPLINE
  5
317
100
AcDbEntity
  8
Capa_1
 62
7
100
AcDbSpline
 70
8
 71
3
 72
8
 73
4
 74
0
 40
0
 40
0
 40
0
 40
0
 40
1
 40
1
 40
1
 40
1
 10
17.048579
 20
1.092351
 30
0.0
 10
17.048579
 20
0.415781
 30
0.0
 10
17.034549
 20
0.317591
 30
0.0
 10
16.929644
 20
0.261131
 30
0.0
  0
SPLINE
  5
318
100
AcDbEntity
  8
Capa_1
 62
7
100
AcDbSpline
 70
8
 71
3
 72
8
 73
4
 74
0
 40
0
 40
0
 40
0
 40
0
 40
1
 40
1
 40
1
 40
1
 10
16.929644
 20
0.261131
 30
0.0
 10
16.822864
 20
0.203631
 30
0.0
 10
16.798687
 20
0.248431
 30
0.0
 10
16.693171
 20
0.700041
 30
0.0
  0
SPLINE
  5
319
100
AcDbEntity
  8
Capa_1
 62
7
100
AcDbSpline
 70
8
 71
3
 72
8
 73
4
 74
0
 40
0
 40
0
 40
0
 40
0
 40
1
 40
1
 40
1
 40
1
 10
16.693171
 20
0.700041
 30
0.0
 10
16.388834
 20
2.000681
 30
0.0
 10
15.375136
 20
4.683815
 30
0.0
 10
14.625570
 20
6.170235
 30
0.0
  0
SPLINE
  5
31a
100
AcDbEntity
  8
Capa_1
 62
7
100
AcDbSpline
 70
8
 71
3
 72
8
 73
4
 74
0
 40
0
 40
0
 40
0
 40
0
 40
1
 40
1
 40
1
 40
1
 10
14.625570
 20
6.170235
 30
0.0
 10
14.126388
 20
7.160091
 30
0.0
 10
13.158191
 20
8.667399
 30
0.0
 10
12.483845
 20
9.504335
 30
0.0
  0
SPLINE
  5
31b
100
AcDbEntity
  8
Capa_1
 62
7
100
AcDbSpline
 70
8
 71
3
 72
8
 73
4
 74
0
 40
0
 40
0
 40
0
 40
0
 40
1
 40
1
 40
1
 40
1
 10
12.483845
 20
9.504335
 30
0.0
 10
11.723797
 20
10.447630
 30
0.0
 10
10.189502
 20
11.806139
 30
0.0
 10
9.094256
 20
12.505616
 30
0.0
  0
SPLINE
  5
31c
100
AcDbEntity
  8
Capa_1
 62
7
100
AcDbSpline
 70
8
 71
3
 72
8
 73
4
 74
0
 40
0
 40
0
 40
0
 40
0
 40
1
 40
1
 40
1
 40
1
 10
9.094256
 20
12.505616
 30
0.0
 10
8.575865
 20
12.836703
 30
0.0
 10
8.495960
 20
12.862292
 30
0.0
 10
7.542260
 20
13.003510
 30
0.0
  0
SPLINE
  5
31d
100
AcDbEntity
  8
Capa_1
 62
7
100
AcDbSpline
 70
8
 71
3
 72
8
 73
4
 74
0
 40
0
 40
0
 40
0
 40
0
 40
1
 40
1
 40
1
 40
1
 10
7.542260
 20
13.003510
 30
0.0
 10
7.085635
 20
13.071130
 30
0.0
 10
6.633440
 20
13.164507
 30
0.0
 10
6.537469
 20
13.210964
 30
0.0
  0
SPLINE
  5
31e
100
AcDbEntity
  8
Capa_1
 62
7
100
AcDbSpline
 70
8
 71
3
 72
8
 73
4
 74
0
 40
0
 40
0
 40
0
 40
0
 40
1
 40
1
 40
1
 40
1
 10
6.537469
 20
13.210964
 30
0.0
 10
6.311445
 20
13.320359
 30
0.0
 10
5.871086
 20
13.905917
 30
0.0
 10
5.870693
 20
14.097725
 30
0.0
  0
SPLINE
  5
31f
100
AcDbEntity
  8
Capa_1
 62
7
100
AcDbSpline
 70
8
 71
3
 72
8
 73
4
 74
0
 40
0
 40
0
 40
0
 40
0
 40
1
 40
1
 40
1
 40
1
 10
5.870693
 20
14.097725
 30
0.0
 10
5.869956
 20
14.435675
 30
0.0
 10
7.795055
 20
16.086653
 30
0.0
 10
9.412347
 20
17.135133
 30
0.0
  0
SPLINE
  5
320
100
AcDbEntity
  8
Capa_1
 62
7
100
AcDbSpline
 70
8
 71
3
 72
8
 73
4
 74
0
 40
0
 40
0
 40
0
 40
0
 40
1
 40
1
 40
1
 40
1
 10
9.412347
 20
17.135133
 30
0.0
 10
10.532634
 20
17.861412
 30
0.0
 10
11.164051
 20
18.217708
 30
0.0
 10
13.376685
 20
19.372466
 30
0.0
  0
SPLINE
  5
321
100
AcDbEntity
  8
Capa_1
 62
7
100
AcDbSpline
 70
8
 71
3
 72
8
 73
4
 74
0
 40
0
 40
0
 40
0
 40
0
 40
1
 40
1
 40
1
 40
1
 10
13.376685
 20
19.372466
 30
0.0
 10
14.088596
 20
19.743995
 30
0.0
 10
16.339256
 20
20.728354
 30
0.0
 10
16.571056
 20
20.771801
 30
0.0
  0
SPLINE
  5
322
100
AcDbEntity
  8
Capa_1
 62
7
100
AcDbSpline
 70
8
 71
3
 72
8
 73
4
 74
0
 40
0
 40
0
 40
0
 40
0
 40
1
 40
1
 40
1
 40
1
 10
16.571056
 20
20.771801
 30
0.0
 10
16.565556
 20
20.784871
 30
0.0
 10
16.560106
 20
20.798011
 30
0.0
 10
16.554676
 20
20.811121
 30
0.0
  0
SPLINE
  5
323
100
AcDbEntity
  8
Capa_1
 62
7
100
AcDbSpline
 70
8
 71
3
 72
8
 73
4
 74
0
 40
0
 40
0
 40
0
 40
0
 40
1
 40
1
 40
1
 40
1
 10
16.554676
 20
20.811121
 30
0.0
 10
16.549576
 20
20.823151
 30
0.0
 10
16.544776
 20
20.835311
 30
0.0
 10
16.540086
 20
20.847511
 30
0.0
  0
LWPOLYLINE
  5
324
100
AcDbEntity
  8
Capa_1
 62
7
100
AcDbPolyline
 90
3
 70
0
 10
17.172717
 20
3.099631
 30
0.0
 10
17.430644
 20
2.325731
 30
0.0
 10
17.239611
 20
2.092611
 30
0.0
  0
SPLINE
  5
325
100
AcDbEntity
  8
Capa_1
 62
7
100
AcDbSpline
 70
8
 71
3
 72
8
 73
4
 74
0
 40
0
 40
0
 40
0
 40
0
 40
1
 40
1
 40
1
 40
1
 10
44.034871
 20
19.226008
 30
0.0
 10
44.005171
 20
19.214498
 30
0.0
 10
43.802887
 20
18.916915
 30
0.0
 10
43.303743
 20
18.165112
 30
0.0
  0
SPLINE
  5
326
100
AcDbEntity
  8
Capa_1
 62
7
100
AcDbSpline
 70
8
 71
3
 72
8
 73
4
 74
0
 40
0
 40
0
 40
0
 40
0
 40
1
 40
1
 40
1
 40
1
 10
43.303743
 20
18.165112
 30
0.0
 10
42.785357
 20
17.384315
 30
0.0
 10
42.730128
 20
17.273632
 30
0.0
 10
42.823940
 20
17.204304
 30
0.0
  0
SPLINE
  5
327
100
AcDbEntity
  8
Capa_1
 62
7
100
AcDbSpline
 70
8
 71
3
 72
8
 73
4
 74
0
 40
0
 40
0
 40
0
 40
0
 40
1
 40
1
 40
1
 40
1
 10
42.823940
 20
17.204304
 30
0.0
 10
42.921230
 20
17.132424
 30
0.0
 10
42.920800
 20
17.113104
 30
0.0
 10
42.808440
 20
16.969911
 30
0.0
  0
SPLINE
  5
328
100
AcDbEntity
  8
Capa_1
 62
7
100
AcDbSpline
 70
8
 71
3
 72
8
 73
4
 74
0
 40
0
 40
0
 40
0
 40
0
 40
1
 40
1
 40
1
 40
1
 10
42.808440
 20
16.969911
 30
0.0
 10
42.227686
 20
16.224380
 30
0.0
 10
42.067878
 20
15.976670
 30
0.0
 10
42.107903
 20
15.882715
 30
0.0
  0
SPLINE
  5
329
100
AcDbEntity
  8
Capa_1
 62
7
100
AcDbSpline
 70
8
 71
3
 72
8
 73
4
 74
0
 40
0
 40
0
 40
0
 40
0
 40
1
 40
1
 40
1
 40
1
 10
42.107903
 20
15.882715
 30
0.0
 10
42.176183
 20
15.722463
 30
0.0
 10
42.147913
 20
15.517146
 30
0.0
 10
41.977927
 20
14.939653
 30
0.0
  0
SPLINE
  5
32a
100
AcDbEntity
  8
Capa_1
 62
7
100
AcDbSpline
 70
8
 71
3
 72
8
 73
4
 74
0
 40
0
 40
0
 40
0
 40
0
 40
1
 40
1
 40
1
 40
1
 10
41.977927
 20
14.939653
 30
0.0
 10
41.765836
 20
14.219158
 30
0.0
 10
41.726416
 20
13.949489
 30
0.0
 10
41.786639
 20
13.630704
 30
0.0
  0
SPLINE
  5
32b
100
AcDbEntity
  8
Capa_1
 62
7
100
AcDbSpline
 70
8
 71
3
 72
8
 73
4
 74
0
 40
0
 40
0
 40
0
 40
0
 40
1
 40
1
 40
1
 40
1
 10
41.786639
 20
13.630704
 30
0.0
 10
41.832959
 20
13.385562
 30
0.0
 10
41.841939
 20
13.414963
 30
0.0
 10
41.883359
 20
13.949100
 30
0.0
  0
SPLINE
  5
32c
100
AcDbEntity
  8
Capa_1
 62
7
100
AcDbSpline
 70
8
 71
3
 72
8
 73
4
 74
0
 40
0
 40
0
 40
0
 40
0
 40
1
 40
1
 40
1
 40
1
 10
41.883359
 20
13.949100
 30
0.0
 10
41.908459
 20
14.272624
 30
0.0
 10
41.977199
 20
14.699173
 30
0.0
 10
42.036185
 20
14.896887
 30
0.0
  0
SPLINE
  5
32d
100
AcDbEntity
  8
Capa_1
 62
7
100
AcDbSpline
 70
8
 71
3
 72
8
 73
4
 74
0
 40
0
 40
0
 40
0
 40
0
 40
1
 40
1
 40
1
 40
1
 10
42.036185
 20
14.896887
 30
0.0
 10
42.219962
 20
15.512930
 30
0.0
 10
42.249315
 20
15.665519
 30
0.0
 10
42.216935
 20
15.835863
 30
0.0
  0
SPLINE
  5
32e
100
AcDbEntity
  8
Capa_1
 62
7
100
AcDbSpline
 70
8
 71
3
 72
8
 73
4
 74
0
 40
0
 40
0
 40
0
 40
0
 40
1
 40
1
 40
1
 40
1
 10
42.216935
 20
15.835863
 30
0.0
 10
42.184565
 20
16.006163
 30
0.0
 10
42.306035
 20
16.224641
 30
0.0
 10
42.671481
 20
16.653431
 30
0.0
  0
SPLINE
  5
32f
100
AcDbEntity
  8
Capa_1
 62
7
100
AcDbSpline
 70
8
 71
3
 72
8
 73
4
 74
0
 40
0
 40
0
 40
0
 40
0
 40
1
 40
1
 40
1
 40
1
 10
42.671481
 20
16.653431
 30
0.0
 10
42.942569
 20
16.971684
 30
0.0
 10
43.027395
 20
17.179658
 30
0.0
 10
42.914427
 20
17.249881
 30
0.0
  0
SPLINE
  5
330
100
AcDbEntity
  8
Capa_1
 62
7
100
AcDbSpline
 70
8
 71
3
 72
8
 73
4
 74
0
 40
0
 40
0
 40
0
 40
0
 40
1
 40
1
 40
1
 40
1
 10
42.914427
 20
17.249881
 30
0.0
 10
42.844447
 20
17.293381
 30
0.0
 10
42.940567
 20
17.477063
 30
0.0
 10
43.348027
 20
18.078557
 30
0.0
  0
SPLINE
  5
331
100
AcDbEntity
  8
Capa_1
 62
7
100
AcDbSpline
 70
8
 71
3
 72
8
 73
4
 74
0
 40
0
 40
0
 40
0
 40
0
 40
1
 40
1
 40
1
 40
1
 10
43.348027
 20
18.078557
 30
0.0
 10
43.635942
 20
18.503595
 30
0.0
 10
43.920433
 20
18.954404
 30
0.0
 10
43.980148
 20
19.080215
 30
0.0
  0
SPLINE
  5
332
100
AcDbEntity
  8
Capa_1
 62
7
100
AcDbSpline
 70
8
 71
3
 72
8
 73
4
 74
0
 40
0
 40
0
 40
0
 40
0
 40
1
 40
1
 40
1
 40
1
 10
43.980148
 20
19.080215
 30
0.0
 10
44.026258
 20
19.177365
 30
0.0
 10
44.048358
 20
19.231238
 30
0.0
 10
44.034858
 20
19.226008
 30
0.0
  0
LWPOLYLINE
  5
333
100
AcDbEntity
  8
Capa_1
 62
7
100
AcDbPolyline
 90
1
 70
1
 10
16.540086
 20
20.847511
 30
0.0
  0
SPLINE
  5
334
100
AcDbEntity
  8
Capa_1
 62
7
100
AcDbSpline
 70
8
 71
3
 72
8
 73
4
 74
0
 40
0
 40
0
 40
0
 40
0
 40
1
 40
1
 40
1
 40
1
 10
2.889119
 20
19.078938
 30
0.0
 10
2.883819
 20
19.081638
 30
0.0
 10
2.880919
 20
19.080138
 30
0.0
 10
2.880919
 20
19.074238
 30
0.0
  0
SPLINE
  5
335
100
AcDbEntity
  8
Capa_1
 62
7
100
AcDbSpline
 70
8
 71
3
 72
8
 73
4
 74
0
 40
0
 40
0
 40
0
 40
0
 40
1
 40
1
 40
1
 40
1
 10
2.880919
 20
19.074238
 30
0.0
 10
2.880919
 20
19.027128
 30
0.0
 10
3.149673
 20
18.583251
 30
0.0
 10
3.478135
 20
18.088027
 30
0.0
  0
SPLINE
  5
336
100
AcDbEntity
  8
Capa_1
 62
7
100
AcDbSpline
 70
8
 71
3
 72
8
 73
4
 74
0
 40
0
 40
0
 40
0
 40
0
 40
1
 40
1
 40
1
 40
1
 10
3.478135
 20
18.088027
 30
0.0
 10
3.806594
 20
17.592801
 30
0.0
 10
4.089278
 20
17.201614
 30
0.0
 10
4.106319
 20
17.218755
 30
0.0
  0
SPLINE
  5
337
100
AcDbEntity
  8
Capa_1
 62
7
100
AcDbSpline
 70
8
 71
3
 72
8
 73
4
 74
0
 40
0
 40
0
 40
0
 40
0
 40
1
 40
1
 40
1
 40
1
 10
4.106319
 20
17.218755
 30
0.0
 10
4.123359
 20
17.235895
 30
0.0
 10
4.033039
 20
17.404319
 30
0.0
 10
3.905514
 20
17.593070
 30
0.0
  0
SPLINE
  5
338
100
AcDbEntity
  8
Capa_1
 62
7
100
AcDbSpline
 70
8
 71
3
 72
8
 73
4
 74
0
 40
0
 40
0
 40
0
 40
0
 40
1
 40
1
 40
1
 40
1
 10
3.905514
 20
17.593070
 30
0.0
 10
3.778004
 20
17.781802
 30
0.0
 10
3.495179
 20
18.211686
 30
0.0
 10
3.277202
 20
18.548132
 30
0.0
  0
SPLINE
  5
339
100
AcDbEntity
  8
Capa_1
 62
7
100
AcDbSpline
 70
8
 71
3
 72
8
 73
4
 74
0
 40
0
 40
0
 40
0
 40
0
 40
1
 40
1
 40
1
 40
1
 10
3.277202
 20
18.548132
 30
0.0
 10
3.086471
 20
18.842533
 30
0.0
 10
2.926161
 20
19.060606
 30
0.0
 10
2.889042
 20
19.078964
 30
0.0
  0
LWPOLYLINE
  5
33a
100
AcDbEntity
  8
Capa_1
 62
7
100
AcDbPolyline
 90
1
 70
1
 10
44.034858
 20
19.226008
 30
0.0
  0
SPLINE
  5
33b
100
AcDbEntity
  8
Capa_1
 62
7
100
AcDbSpline
 70
8
 71
3
 72
8
 73
4
 74
0
 40
0
 40
0
 40
0
 40
0
 40
1
 40
1
 40
1
 40
1
 10
29.742201
 20
18.162942
 30
0.0
 10
29.727901
 20
18.142592
 30
0.0
 10
29.714051
 20
18.121992
 30
0.0
 10
29.701071
 20
18.100762
 30
0.0
  0
SPLINE
  5
33c
100
AcDbEntity
  8
Capa_1
 62
7
100
AcDbSpline
 70
8
 71
3
 72
8
 73
4
 74
0
 40
0
 40
0
 40
0
 40
0
 40
1
 40
1
 40
1
 40
1
 10
29.701071
 20
18.100762
 30
0.0
 10
29.753391
 20
18.079572
 30
0.0
 10
29.818574
 20
18.057692
 30
0.0
 10
29.891976
 20
18.039102
 30
0.0
  0
SPLINE
  5
33d
100
AcDbEntity
  8
Capa_1
 62
7
100
AcDbSpline
 70
8
 71
3
 72
8
 73
4
 74
0
 40
0
 40
0
 40
0
 40
0
 40
1
 40
1
 40
1
 40
1
 10
29.891976
 20
18.039102
 30
0.0
 10
31.253023
 20
17.694437
 30
0.0
 10
36.736131
 20
15.449978
 30
0.0
 10
37.455721
 20
14.942967
 30
0.0
  0
SPLINE
  5
33e
100
AcDbEntity
  8
Capa_1
 62
7
100
AcDbSpline
 70
8
 71
3
 72
8
 73
4
 74
0
 40
0
 40
0
 40
0
 40
0
 40
1
 40
1
 40
1
 40
1
 10
37.455721
 20
14.942967
 30
0.0
 10
37.589402
 20
14.848797
 30
0.0
 10
37.581377
 20
14.838733
 30
0.0
 10
37.183071
 20
14.596995
 30
0.0
  0
SPLINE
  5
33f
100
AcDbEntity
  8
Capa_1
 62
7
100
AcDbSpline
 70
8
 71
3
 72
8
 73
4
 74
0
 40
0
 40
0
 40
0
 40
0
 40
1
 40
1
 40
1
 40
1
 10
37.183071
 20
14.596995
 30
0.0
 10
36.055864
 20
13.912784
 30
0.0
 10
33.019132
 20
11.543941
 30
0.0
 10
32.819153
 20
11.192806
 30
0.0
  0
SPLINE
  5
340
100
AcDbEntity
  8
Capa_1
 62
7
100
AcDbSpline
 70
8
 71
3
 72
8
 73
4
 74
0
 40
0
 40
0
 40
0
 40
0
 40
1
 40
1
 40
1
 40
1
 10
32.819153
 20
11.192806
 30
0.0
 10
32.789313
 20
11.140406
 30
0.0
 10
32.740263
 20
10.921983
 30
0.0
 10
32.710120
 20
10.707552
 30
0.0
  0
SPLINE
  5
341
100
AcDbEntity
  8
Capa_1
 62
7
100
AcDbSpline
 70
8
 71
3
 72
8
 73
4
 74
0
 40
0
 40
0
 40
0
 40
0
 40
1
 40
1
 40
1
 40
1
 10
32.710120
 20
10.707552
 30
0.0
 10
32.668570
 20
10.411902
 30
0.0
 10
32.585115
 20
10.210515
 30
0.0
 10
32.364865
 20
9.874282
 30
0.0
  0
SPLINE
  5
342
100
AcDbEntity
  8
Capa_1
 62
7
100
AcDbSpline
 70
8
 71
3
 72
8
 73
4
 74
0
 40
0
 40
0
 40
0
 40
0
 40
1
 40
1
 40
1
 40
1
 10
32.364865
 20
9.874282
 30
0.0
 10
31.761442
 20
8.953114
 30
0.0
 10
30.621904
 20
6.475750
 30
0.0
 10
30.674638
 20
6.199825
 30
0.0
  0
SPLINE
  5
343
100
AcDbEntity
  8
Capa_1
 62
7
100
AcDbSpline
 70
8
 71
3
 72
8
 73
4
 74
0
 40
0
 40
0
 40
0
 40
0
 40
1
 40
1
 40
1
 40
1
 10
30.674638
 20
6.199825
 30
0.0
 10
30.695758
 20
6.089301
 30
0.0
 10
30.565014
 20
5.680713
 30
0.0
 10
30.287623
 20
4.990579
 30
0.0
  0
SPLINE
  5
344
100
AcDbEntity
  8
Capa_1
 62
7
100
AcDbSpline
 70
8
 71
3
 72
8
 73
4
 74
0
 40
0
 40
0
 40
0
 40
0
 40
1
 40
1
 40
1
 40
1
 10
30.287623
 20
4.990579
 30
0.0
 10
30.057215
 20
4.417359
 30
0.0
 10
29.747129
 20
3.572061
 30
0.0
 10
29.598508
 20
3.112631
 30
0.0
  0
LWPOLYLINE
  5
345
100
AcDbEntity
  8
Capa_1
 62
7
100
AcDbPolyline
 90
1
 70
1
 10
2.889042
 20
19.078964
 30
0.0
  0
SPLINE
  5
346
100
AcDbEntity
  8
Capa_1
 62
7
100
AcDbSpline
 70
8
 71
3
 72
8
 73
4
 74
0
 40
0
 40
0
 40
0
 40
0
 40
1
 40
1
 40
1
 40
1
 10
29.484906
 20
2.066791
 30
0.0
 10
29.621484
 20
1.883481
 30
0.0
 10
29.645261
 20
1.768021
 30
0.0
 10
29.670352
 20
1.165861
 30
0.0
  0
SPLINE
  5
347
100
AcDbEntity
  8
Capa_1
 62
7
100
AcDbSpline
 70
8
 71
3
 72
8
 73
4
 74
0
 40
0
 40
0
 40
0
 40
0
 40
1
 40
1
 40
1
 40
1
 10
29.670352
 20
1.165861
 30
0.0
 10
29.686172
 20
0.785981
 30
0.0
 10
29.720502
 20
0.440371
 30
0.0
 10
29.746642
 20
0.397831
 30
0.0
  0
SPLINE
  5
348
100
AcDbEntity
  8
Capa_1
 62
7
100
AcDbSpline
 70
8
 71
3
 72
8
 73
4
 74
0
 40
0
 40
0
 40
0
 40
0
 40
1
 40
1
 40
1
 40
1
 10
29.746642
 20
0.397831
 30
0.0
 10
29.772782
 20
0.355331
 30
0.0
 10
29.799722
 20
0.320531
 30
0.0
 10
29.806552
 20
0.320431
 30
0.0
  0
SPLINE
  5
349
100
AcDbEntity
  8
Capa_1
 62
7
100
AcDbSpline
 70
8
 71
3
 72
8
 73
4
 74
0
 40
0
 40
0
 40
0
 40
0
 40
1
 40
1
 40
1
 40
1
 10
29.806552
 20
0.320431
 30
0.0
 10
29.813452
 20
0.320381
 30
0.0
 10
29.809352
 20
0.666001
 30
0.0
 10
29.797652
 20
1.088461
 30
0.0
  0
SPLINE
  5
34a
100
AcDbEntity
  8
Capa_1
 62
7
100
AcDbSpline
 70
8
 71
3
 72
8
 73
4
 74
0
 40
0
 40
0
 40
0
 40
0
 40
1
 40
1
 40
1
 40
1
 10
29.797652
 20
1.088461
 30
0.0
 10
29.777982
 20
1.796351
 30
0.0
 10
29.763952
 20
1.869711
 30
0.0
 10
29.618930
 20
2.023611
 30
0.0
  0
SPLINE
  5
34b
100
AcDbEntity
  8
Capa_1
 62
7
100
AcDbSpline
 70
8
 71
3
 72
8
 73
4
 74
0
 40
0
 40
0
 40
0
 40
0
 40
1
 40
1
 40
1
 40
1
 10
29.618930
 20
2.023611
 30
0.0
 10
29.532370
 20
2.115411
 30
0.0
 10
29.461537
 20
2.249001
 30
0.0
 10
29.461537
 20
2.320431
 30
0.0
  0
SPLINE
  5
34c
100
AcDbEntity
  8
Capa_1
 62
7
100
AcDbSpline
 70
8
 71
3
 72
8
 73
4
 74
0
 40
0
 40
0
 40
0
 40
0
 40
1
 40
1
 40
1
 40
1
 10
29.461537
 20
2.320431
 30
0.0
 10
29.461537
 20
2.514511
 30
0.0
 10
29.979601
 20
4.022694
 30
0.0
 10
30.395246
 20
5.039186
 30
0.0
  0
SPLINE
  5
34d
100
AcDbEntity
  8
Capa_1
 62
7
100
AcDbSpline
 70
8
 71
3
 72
8
 73
4
 74
0
 40
0
 40
0
 40
0
 40
0
 40
1
 40
1
 40
1
 40
1
 10
30.395246
 20
5.039186
 30
0.0
 10
30.635149
 20
5.625653
 30
0.0
 10
30.761317
 20
6.026061
 30
0.0
 10
30.761317
 20
6.201194
 30
0.0
  0
SPLINE
  5
34e
100
AcDbEntity
  8
Capa_1
 62
7
100
AcDbSpline
 70
8
 71
3
 72
8
 73
4
 74
0
 40
0
 40
0
 40
0
 40
0
 40
1
 40
1
 40
1
 40
1
 10
30.761317
 20
6.201194
 30
0.0
 10
30.761317
 20
6.383611
 30
0.0
 10
30.866860
 20
6.701153
 30
0.0
 10
31.094135
 20
7.201962
 30
0.0
  0
SPLINE
  5
34f
100
AcDbEntity
  8
Capa_1
 62
7
100
AcDbSpline
 70
8
 71
3
 72
8
 73
4
 74
0
 40
0
 40
0
 40
0
 40
0
 40
1
 40
1
 40
1
 40
1
 10
31.094135
 20
7.201962
 30
0.0
 10
31.577356
 20
8.266747
 30
0.0
 10
32.109398
 20
9.320605
 30
0.0
 10
32.372085
 20
9.733050
 30
0.0
  0
SPLINE
  5
350
100
AcDbEntity
  8
Capa_1
 62
7
100
AcDbSpline
 70
8
 71
3
 72
8
 73
4
 74
0
 40
0
 40
0
 40
0
 40
0
 40
1
 40
1
 40
1
 40
1
 10
32.372085
 20
9.733050
 30
0.0
 10
32.702796
 20
10.252267
 30
0.0
 10
32.837857
 20
10.580552
 30
0.0
 10
32.839577
 20
10.869140
 30
0.0
  0
SPLINE
  5
351
100
AcDbEntity
  8
Capa_1
 62
7
100
AcDbSpline
 70
8
 71
3
 72
8
 73
4
 74
0
 40
0
 40
0
 40
0
 40
0
 40
1
 40
1
 40
1
 40
1
 10
32.839577
 20
10.869140
 30
0.0
 10
32.841277
 20
11.153474
 30
0.0
 10
32.913417
 20
11.236123
 30
0.0
 10
33.842464
 20
12.014935
 30
0.0
  0
SPLINE
  5
352
100
AcDbEntity
  8
Capa_1
 62
7
100
AcDbSpline
 70
8
 71
3
 72
8
 73
4
 74
0
 40
0
 40
0
 40
0
 40
0
 40
1
 40
1
 40
1
 40
1
 10
33.842464
 20
12.014935
 30
0.0
 10
35.025967
 20
13.007041
 30
0.0
 10
36.440223
 20
14.042674
 30
0.0
 10
37.577944
 20
14.749903
 30
0.0
  0
LWPOLYLINE
  5
353
100
AcDbEntity
  8
Capa_1
 62
7
100
AcDbPolyline
 90
3
 70
0
 10
29.598508
 20
3.112631
 30
0.0
 10
29.328271
 20
2.277061
 30
0.0
 10
29.484906
 20
2.066791
 30
0.0
  0
SPLINE
  5
354
100
AcDbEntity
  8
Capa_1
 62
7
100
AcDbSpline
 70
8
 71
3
 72
8
 73
4
 74
0
 40
0
 40
0
 40
0
 40
0
 40
1
 40
1
 40
1
 40
1
 10
37.428165
 20
15.037271
 30
0.0
 10
37.053305
 20
15.271873
 30
0.0
 10
35.807241
 20
15.853870
 30
0.0
 10
34.465590
 20
16.420671
 30
0.0
  0
SPLINE
  5
355
100
AcDbEntity
  8
Capa_1
 62
7
100
AcDbSpline
 70
8
 71
3
 72
8
 73
4
 74
0
 40
0
 40
0
 40
0
 40
0
 40
1
 40
1
 40
1
 40
1
 10
34.465590
 20
16.420671
 30
0.0
 10
32.631852
 20
17.195418
 30
0.0
 10
30.337556
 20
18.034138
 30
0.0
 10
29.742072
 20
18.162918
 30
0.0
  0
LWPOLYLINE
  5
356
100
AcDbEntity
  8
Capa_1
 62
7
100
AcDbPolyline
 90
3
 70
0
 10
37.577944
 20
14.749903
 30
0.0
 10
37.733181
 20
14.846413
 30
0.0
 10
37.428165
 20
15.037271
 30
0.0
  0
SPLINE
  5
357
100
AcDbEntity
  8
Capa_1
 62
7
100
AcDbSpline
 70
8
 71
3
 72
8
 73
4
 74
0
 40
0
 40
0
 40
0
 40
0
 40
1
 40
1
 40
1
 40
1
 10
40.267905
 20
13.499465
 30
0.0
 10
40.261005
 20
13.492565
 30
0.0
 10
40.256375
 20
13.469625
 30
0.0
 10
40.254835
 20
13.431545
 30
0.0
  0
SPLINE
  5
358
100
AcDbEntity
  8
Capa_1
 62
7
100
AcDbSpline
 70
8
 71
3
 72
8
 73
4
 74
0
 40
0
 40
0
 40
0
 40
0
 40
1
 40
1
 40
1
 40
1
 10
40.254835
 20
13.431545
 30
0.0
 10
40.252035
 20
13.362635
 30
0.0
 10
40.267395
 20
13.324035
 30
0.0
 10
40.288975
 20
13.345755
 30
0.0
  0
SPLINE
  5
359
100
AcDbEntity
  8
Capa_1
 62
7
100
AcDbSpline
 70
8
 71
3
 72
8
 73
4
 74
0
 40
0
 40
0
 40
0
 40
0
 40
1
 40
1
 40
1
 40
1
 10
40.288975
 20
13.345755
 30
0.0
 10
40.310575
 20
13.367475
 30
0.0
 10
40.312955
 20
13.423935
 30
0.0
 10
40.294175
 20
13.471122
 30
0.0
  0
SPLINE
  5
35a
100
AcDbEntity
  8
Capa_1
 62
7
100
AcDbSpline
 70
8
 71
3
 72
8
 73
4
 74
0
 40
0
 40
0
 40
0
 40
0
 40
1
 40
1
 40
1
 40
1
 10
40.294175
 20
13.471122
 30
0.0
 10
40.283815
 20
13.497192
 30
0.0
 10
40.274745
 20
13.506342
 30
0.0
 10
40.267905
 20
13.499462
 30
0.0
  0
LWPOLYLINE
  5
35b
100
AcDbEntity
  8
Capa_1
 62
7
100
AcDbPolyline
 90
2
 70
0
 10
29.742072
 20
18.162918
 30
0.0
 10
29.742201
 20
18.162942
 30
0.0
  0
LWPOLYLINE
  5
35c
100
AcDbEntity
  8
Capa_1
 62
7
100
AcDbPolyline
 90
1
 70
1
 10
40.267905
 20
13.499462
 30
0.0
  0
ENDSEC
  0
SECTION
  2
OBJECTS
  0
DICTIONARY
  5
C
330
0
100
AcDbDictionary
  3
ACAD_GROUP
350
D
  3
ACAD_MLINESTYLE
350
17
  0
DICTIONARY
  5
D
330
C
100
AcDbDictionary
  0
DICTIONARY
  5
1A
330
C
100
AcDbDictionary
  0
DICTIONARY
  5
17
330
C
100
AcDbDictionary
  3
STANDARD
350
18
  0
DICTIONARY
  5
19
330
C
100
AcDbDictionary
  0
ENDSEC
  0
EOF
