<?xml version="1.0" encoding="UTF-8" standalone="no"?>
<!-- Created with Inkscape (http://www.inkscape.org/) -->

<svg
   width="94.48819"
   height="94.48819"
   viewBox="0 0 24.999999 24.999999"
   version="1.1"
   id="svg5"
   xml:space="preserve"
   inkscape:version="1.2.2 (732a01da63, 2022-12-09)"
   sodipodi:docname="qr_link.svg"
   xmlns:inkscape="http://www.inkscape.org/namespaces/inkscape"
   xmlns:sodipodi="http://sodipodi.sourceforge.net/DTD/sodipodi-0.dtd"
   xmlns="http://www.w3.org/2000/svg"
   xmlns:svg="http://www.w3.org/2000/svg"><sodipodi:namedview
     id="namedview7"
     pagecolor="#505050"
     bordercolor="#ffffff"
     borderopacity="1"
     inkscape:showpageshadow="0"
     inkscape:pageopacity="0"
     inkscape:pagecheckerboard="1"
     inkscape:deskcolor="#505050"
     inkscape:document-units="mm"
     showgrid="false"
     inkscape:zoom="1.6819304"
     inkscape:cx="-114.45182"
     inkscape:cy="103.15528"
     inkscape:window-width="1920"
     inkscape:window-height="1111"
     inkscape:window-x="-9"
     inkscape:window-y="-9"
     inkscape:window-maximized="1"
     inkscape:current-layer="layer1" /><defs
     id="defs2" /><g
     inkscape:label="Capa 1"
     inkscape:groupmode="layer"
     id="layer1"
     transform="translate(-138.9738,-26.563829)"><path
       style="fill:#000000;stroke-width:0.115741"
       d="M 138.9738,39.06383 V 26.563829 h 12.5 12.5 v 12.500001 12.5 h -12.5 -12.5 z m 7.40741,8.333333 v -3.240739 h -3.24074 -3.24074 v 3.240739 3.240744 h 3.24074 3.24074 z m -5.55556,0 v -2.314812 h 2.31482 2.31481 v 2.314812 2.314816 h -2.31481 -2.31482 z m 3.70371,0 v -1.388889 h -1.38889 -1.38889 v 1.388889 1.388889 h 1.38889 1.38889 z m 3.7037,2.777778 v -0.462962 h 0.46296 0.46296 v 0.462962 0.462966 h 0.92593 0.92593 v -0.462966 -0.462962 h 0.46296 0.46296 v 0.462962 0.462966 h 0.46297 0.46296 v -0.462966 -0.462962 h -0.46296 -0.46297 v -0.462961 -0.462966 h 0.92593 0.92593 v 0.462966 0.462961 h 0.46296 0.46296 v 0.462962 0.462966 h 0.46297 0.46296 v -0.462966 -0.462962 h 0.46296 0.46297 v 0.462962 0.462966 h 0.46296 0.46296 v -1.388889 -1.388889 h -0.46296 -0.46296 v -0.462966 -0.462962 h 0.92592 0.92593 v 1.388889 1.388889 h 0.46296 0.46296 v 0.462962 0.462966 h 0.46296 0.46297 v -0.462966 -0.462962 h -0.46297 -0.46296 v -0.462961 -0.462966 h 0.46296 0.46297 V 48.32309 47.860129 h -0.46297 -0.46296 v -0.462966 -0.462962 h 0.46296 0.46297 v -0.925927 -0.925923 h 0.46296 0.46296 v 0.462961 0.462962 h 0.46297 0.46296 v -0.462962 -0.462961 h 0.46296 0.46297 v -2.777778 -2.77778 h -0.46297 -0.46296 v -0.925926 -0.925926 h 0.46296 0.46297 v -1.388889 -1.388889 h -0.92593 -0.92593 v 0.925926 0.925926 h -0.46296 -0.46296 v -0.462963 -0.462963 h -0.46297 -0.46296 v -0.462963 -0.462963 h -2.31481 -2.31482 V 34.4342 33.971237 h 0.46297 0.46296 v -0.462963 -0.462963 h -0.46296 -0.46297 v 0.462963 0.462963 h -0.46296 -0.46296 v -0.462963 -0.462963 h -0.46297 -0.46296 v 1.388889 1.388889 h -0.46296 -0.46297 v 0.925926 0.925926 h 0.46297 0.46296 v 0.925926 0.925926 h -0.46296 -0.46297 v 0.462963 0.462963 h -0.46296 -0.46296 v -0.925926 -0.925926 h -0.46297 -0.46296 v 0.925926 0.925926 h -0.46296 -0.46297 v 0.462963 0.462963 h -0.46296 -0.46296 v 0.462963 0.462965 h -1.38889 -1.38889 v 0.462962 0.462961 h 0.92593 0.92592 v 0.462966 0.462962 h 0.46297 0.46296 v 0.462961 0.462966 h -0.46296 -0.46297 v 0.462961 0.462962 h 0.46297 0.46296 v 0.462966 0.462961 h 0.46296 0.46296 v 0.462962 0.462966 h -0.92592 -0.92593 v 1.388889 1.388889 h 0.46297 0.46296 z m 0.92592,-0.925923 v -0.462966 h 0.92593 0.92593 v 0.462966 0.462961 h -0.92593 -0.92593 z m 1.85186,-1.851855 v -0.462962 h -0.46297 -0.46296 v -0.925927 -0.925923 h -0.46296 -0.46297 v 0.462961 0.462962 h -0.46296 -0.46296 v -0.462962 -0.462961 h 0.46296 0.46296 v -0.462966 -0.462961 h 0.46297 0.46296 v -0.462962 -0.462966 h 0.46296 0.46297 v -0.462961 -0.462962 h 0.46296 0.46296 v -0.925928 -0.925926 h 0.46297 0.46296 v -0.462963 -0.462963 h 0.46296 0.46297 v 0.925926 0.925926 h -0.46297 -0.46296 v 0.462963 0.462965 h 0.46296 0.46297 v 0.925923 0.925928 h -0.92593 -0.92593 v 0.462961 0.462966 h 0.46297 0.46296 v 0.462961 0.462962 h 0.46296 0.46297 v 0.462966 0.462961 h 0.46296 0.46296 v 0.462962 0.462966 h -0.46296 -0.46296 v -0.462966 -0.462962 h -0.46297 -0.46296 v 0.462962 0.462966 h -0.92593 -0.92592 z m 1.85185,-0.925923 v -0.462966 h -0.46296 -0.46297 v -0.462962 -0.462961 h -0.46296 -0.46296 v -0.462966 -0.462961 h 0.46296 0.46296 v -0.462962 -0.462966 h 0.46297 0.46296 v -0.462961 -0.462962 h -0.46296 -0.46297 v 0.462962 0.462961 h -0.46296 -0.46296 v 0.462966 0.462962 h -0.46297 -0.46296 v 0.462961 0.462966 h 0.46296 0.46297 v 0.925923 0.925927 h 0.92592 0.92593 z m 2.77778,-1.851855 v -1.388889 h 1.38889 1.38889 v 1.388889 1.388889 h -1.38889 -1.38889 z m 1.85185,0 v -0.462961 h -0.46296 -0.46296 v 0.462961 0.462966 h 0.46296 0.46296 z m 1.85185,0 v -0.462961 h 0.46296 0.46297 v -0.462962 -0.462966 h -0.46297 -0.46296 v -0.462961 -0.462962 h -0.92592 -0.92593 v -0.462965 -0.462963 h -0.92592 -0.92593 v 0.462963 0.462965 h -0.46296 -0.46297 v -0.462965 -0.462963 h 0.46297 0.46296 v -0.462963 -0.462963 h -0.46296 -0.46297 v -0.925926 -0.925926 h -0.46296 -0.46296 v -0.462963 -0.462963 h 0.92592 0.92593 v -0.925926 -0.925926 h 0.46296 0.46297 v 0.462963 0.462963 h 0.92592 0.92593 v -0.462963 -0.462963 h 0.46296 0.46296 v 0.925926 0.925926 h -0.92592 -0.92593 v 0.462963 0.462963 h -0.46296 -0.46296 v -0.462963 -0.462963 h -0.46297 -0.46296 v 0.925926 0.925926 h 0.46296 0.46297 v 0.462963 0.462963 h 0.92592 0.92593 v -0.925926 -0.925926 h 0.46296 0.46296 v 0.462963 0.462963 h 0.46296 0.46297 v -0.925926 -0.925926 h 0.46296 0.46296 v -0.462963 -0.462963 h 0.46297 0.46296 v 0.462963 0.462963 h -0.46296 -0.46297 v 0.925926 0.925926 h 0.46297 0.46296 v 0.925926 0.925926 h -0.46296 -0.46297 v 0.462963 0.462965 h 0.46297 0.46296 v 1.388889 1.388889 h -0.46296 -0.46297 v -0.462966 -0.462961 h -0.46296 -0.46296 v 0.462961 0.462966 h -0.46297 -0.46296 z m 0.92593,-2.777777 v -0.462963 h 0.46296 0.46296 v -0.925926 -0.925926 h -0.46296 -0.46296 v 0.462963 0.462963 h -0.46297 -0.46296 v 0.925926 0.925928 h 0.46296 0.46297 z m -12.03704,0.925927 v -0.462962 h 0.46296 0.46296 v -0.462965 -0.462963 h 0.46297 0.46296 v 0.462963 0.462965 h -0.46296 -0.46297 v 0.462962 0.462961 h -0.46296 -0.46296 z m 14.81482,7.407406 v -0.462962 h -0.46297 -0.46296 v 0.462962 0.462966 h 0.46296 0.46297 z m 0,-1.851851 v -0.462961 h -0.46297 -0.46296 v -0.462966 -0.462962 h -0.46296 -0.46297 v 0.925928 0.925923 h 0.92593 0.92593 z m -21.2963,-5.555555 v -0.462962 h 0.46296 0.46296 v -0.462965 -0.462963 h 0.92593 0.92593 v -0.462963 -0.462963 h -0.92593 -0.92593 v -0.925926 -0.925926 h -0.46296 -0.46296 v -0.462963 -0.462963 h -0.46296 -0.46297 v -0.462963 -0.462963 h -0.46296 -0.46296 v 0.462963 0.462963 h 0.46296 0.46296 v 0.462963 0.462963 h 0.46297 0.46296 v 0.925926 0.925926 h -0.92593 -0.92592 v 0.462963 0.462963 h 0.92592 0.92593 v 0.462963 0.462965 h -0.92593 -0.92592 v 0.462962 0.462961 h 0.92592 0.92593 z m 0,-1.851853 v -0.462963 h 0.46296 0.46296 v 0.462963 0.462963 h -0.46296 -0.46296 z m 5.55555,0 v -0.462963 h 0.46297 0.46296 v -0.462963 -0.462963 h 0.46296 0.46296 v -0.925926 -0.925926 h -0.46296 -0.46296 v -0.462963 -0.462963 h 0.92592 0.92593 v 0.462963 0.462963 h 0.46296 0.46297 v -1.388889 -1.388889 h -0.46297 -0.46296 v -0.925926 -0.925926 h -0.46296 -0.46297 v 0.925926 0.925926 h -0.46296 -0.46296 v -1.388889 -1.388889 h 0.92592 0.92593 v -0.925926 -0.925926 h 0.46296 0.46297 v 1.851852 1.851852 h 0.46296 0.46296 v -0.925926 -0.925926 h 0.46297 0.46296 v -0.925926 -0.925926 h 0.92593 0.92592 v 0.925926 0.925926 h 0.46297 0.46296 v -1.388889 -1.388889 h -0.92593 -0.92592 v -0.462963 -0.462963 h -0.46297 -0.46296 v -0.462963 -0.462963 h -1.85185 -1.85186 v 0.462963 0.462963 h -0.46296 -0.46296 v -0.462963 -0.462963 h -0.46296 -0.46297 v 0.925926 0.925926 h 0.92593 0.92592 v 0.925926 0.925926 h -0.92592 -0.92593 v 2.777778 2.777778 h -0.92592 -0.92593 v 0.462963 0.462963 h 0.46297 0.46296 v 0.462963 0.462963 h -0.46296 -0.46297 v 0.462963 0.462963 h 0.92593 0.92592 v 0.462963 0.462963 h -0.92592 -0.92593 v 0.462963 0.462963 h 0.92593 0.92592 z m 0,-2.314815 v -0.925926 h 0.46297 0.46296 v 0.925926 0.925926 h -0.46296 -0.46297 z m 3.70371,-8.796297 v -0.462963 h -0.46297 -0.46296 v -0.462963 -0.462963 h 1.38889 1.38889 v 0.462963 0.462963 h -0.46296 -0.46297 v 0.462963 0.462963 h -0.46296 -0.46296 z m -6.48148,6.944445 v -0.925926 h 0.92592 0.92593 v -0.462963 -0.462963 h -0.92593 -0.92592 v 0.462963 0.462963 h -0.92593 -0.92593 v -0.462963 -0.462963 h -1.38888 -1.38889 v 0.462963 0.462963 h 0.92592 0.92593 v 0.462963 0.462963 h 0.46296 0.46296 v 0.462963 0.462963 h 0.92593 0.92593 z m 1.85185,-6.018519 v -3.240741 h -3.24074 -3.24074 v 3.240741 3.240741 h 3.24074 3.24074 z m -5.55556,0 v -2.314815 h 2.31482 2.31481 v 2.314815 2.314815 h -2.31481 -2.31482 z m 3.70371,0 v -1.388889 h -1.38889 -1.38889 v 1.388889 1.388889 h 1.38889 1.38889 z m 18.51852,0 v -3.240741 h -3.24075 -3.24073 v 3.240741 3.240741 h 3.24073 3.24075 z m -5.55556,0 v -2.314815 h 2.31481 2.31482 v 2.314815 2.314815 h -2.31482 -2.31481 z m 3.7037,0 v -1.388889 h -1.38889 -1.38888 v 1.388889 1.388889 h 1.38888 1.38889 z"
       id="path360" /></g></svg>
